<svg xmlns="http://www.w3.org/2000/svg"><defs><font id="mistv" horiz-adv-x="656"><font-face font-family="mistv" font-weight="400" panose-1="0 0 4 0 0 0 0 0 0 0" ascent="800" descent="-200" x-height="735" cap-height="816" bbox="-38 -210.8 810 890" underline-thickness="20" underline-position="-143" unicode-range="U+0020-007A"/><glyph glyph-name=".notdef" horiz-adv-x="500" d="M63 0v800h375V0H63zm62 63h250v675H125V63z"/><glyph glyph-name=".null" horiz-adv-x="0"/><glyph glyph-name="nonmarkingreturn" horiz-adv-x="500"/><glyph glyph-name="space" horiz-adv-x="500"/><glyph glyph-name="exclam" unicode="!" horiz-adv-x="388" d="M415 823q-58-168-76-237-36-135-36-249 0-27 2-53 3-6 2-7-63 10-126 19-77 11-132 12-8 96-11 247l-4 252q77 0 184 14 90 12 179 24zM296 53q-29-55-90-75Q93-27 58 25q-2 13-2 26 0 84 82 140 4 1 15 3t16 2q13 0 19-11 70-7 99-62 14-27 14-47 0-13-5-23zm73 742q-62 3-157-9-116-14-154-16 10-56 10-145 0-15-1-45v-45q0-120 20-190l6 308 9-6q10-53 9-152 0-105 7-152h5q-1-2-1 52 0 33 16 45l6-6-2-82q12-19 32-19 7 0 14 3 0 58 18 157 20 105 22 154 0 7 7 14t11 4q-3-43-21-143-16-92-16-142 0-28 3-53 10 8 10.5 32.5T234 392q9-6 9-21 0-6-1.5-18.5T240 334q0-20 21-22 6 111 41 247 1 6 67 236zM265 93q-8 34-50 44-37 8-73 15-48-35-53-115 33-31 74-31 18 0 34 7 22 17 45 35.5T265 93zm-74-27q-19-3-33 2-17 6-14 22zm-12-38q-10-11-46-3-21 20-21 40 0 5 2 10 15-37 39-47h26z"/><glyph glyph-name="quotedbl" unicode="&quot;" horiz-adv-x="534" d="M486 294q-29-13-80-14-60-1-82-7l-8 5q-28 80-28 178 0 51 15 188-7 12-7 26 0 23 16 39 21 14 73 25.5t73 24.5q7-2 15.5-4.5T485 744zM210 871q0-6 1-231 1-138-6-228-29-8-80-9-55-1-78-6-35 75-35 174 0 39 6 98l10 97q-8 17-8 32 0 24 21.5 35t70.5 25q53 14 72 22 4 2 26-9zm236-543q-3 41-1 192 2 119-11 192-21-9-22-39 1-26 1-51-16 7-16.5 39.5T391 699q-7-20-5-62 3-46-1-64l-8-1q-11 26-12 62 1-11 1 60-3 0-8-2.5l-7-3.5q-22-106-22-237 0-67 6-145l17 4 4 183 10 4q8-27 8-59 0-18-4-60-3-38-2-60l6-9q13 7 13 40.5t16 40.5l4-76q4 2 22 3 13 1 17 11zM172 450q-3 41-3 93 0 25 1 75.5t1 75.5q0 78-7 136l-8 5q-18-10-18-41 1-53 1-51-16 9-17 38-1 22-2 45-8-17-8-47 0-8 1-25v-26q0-19-3-32l-4-2q-16 25-16 63 0 2 4 57-3 2-6 2-17 0-17-19-17-154-17-239 0-67 8-127l16 1 2 176 9 13q10-28 10-62 0-14-2.5-43.5T94 471q0-20 4-37l12 2q1 21 2 43.5t13 34.5l9-75q10 1 21.5 1.5T172 450z"/><glyph glyph-name="quotesingle" unicode="'" horiz-adv-x="243" d="M197 651q4-12 4-27t-7-46.5-8-47.5l-107-2-12 4-27 298 14 9q9-4 70-13 44-7 55-33-1-24 8-70 9-49 10-72zm-28-102q2 23 2 46 0 95-35 206l-9 1q5-63 0-81l-6 1q-4 26-8 80l-6 3q-1-5 0-29 2-18-9-25-1 16-5 47-2 12-12 12-3 0-6-3l16-248q4-8 29-7l3 48q8-7 11-24 4-23 6-28l8 4q1 16-5 46t-6 45q0 16 5 29 8-23 12-60 6-59 6-62z"/><glyph glyph-name="parenleft" unicode="(" horiz-adv-x="382" d="M408-114q2-5 2-10 0-14-26.5-38.5T359-206q-25-12-37 6-22 25-119 98-76 59-103 115-84 100-84 263 0 78 19 183 1 6 37 173 23 58 87 124 25 26 117 107 7 1 14 1 24 0 51-24 37-34 45-39 4-3 4-10v-12q-120-77-179-205-56-120-52-269 24-160 66-248 62-130 183-171zm-77-33Q242-81 200-37q-67 72-78 143 29-44 59-87 35-51 73-74-57 58-88 157l-44 176q-6 38-6 75 0 118 62 238 47 91 144 206l-4 4q-55-25-108-90l-82-114-4 4q18 53 71 114 49 51 99 102l-31 9q-91-94-93-95-49-56-67-106-57-222-57-346 0-24 1-48 81-299 284-378zm22 22q-21 17-53 33 23-28 53-33z"/><glyph glyph-name="parenright" unicode=")" horiz-adv-x="450" d="M17-114q-1-5-1-10 0-14 26-38.5T66-206q25-12 37 6 22 25 119 98 77 59 103 115 85 100 85 263 0 78-20 183-1 6-36 173-24 58-88 124-25 26-117 107-7 1-13 1-24 0-51-24-38-34-46-39-4-3-4-10v-12q120-77 179-205 56-120 52-269-24-160-66-248Q138-73 17-114zm77-33q89 66 131 110 67 72 78 143-29-44-58-87-36-51-74-74 58 58 89 157 21 88 43 176 7 38 7 75 0 118-62 238-47 91-145 206l4 4q55-25 108-90l82-114 4 4q-17 53-70 114L131 817l31 9q92-94 93-95 50-56 68-106 56-222 56-346 0-24-1-48Q298-68 94-147zm-22 22q21 17 53 33-23-28-53-33z"/><glyph glyph-name="comma" unicode="," horiz-adv-x="300" d="M287 73Q251-56 60-139q-24-3-29 12-3 6-3 12 0 9 13 20t15 20q18 27 46 84-2 0-49 3-29 2-40 18Q3 58 3 89q0 55 28 95 5 2 49 25 29 15 50 15 17 0 34-9 36-19 69-64zm-49 4q-29 69-83 99-6 0-19.5 5.5T115 187q-10 0-16-9l34-28q-7-8-15-8t-23.5 10T71 163q-1-4-1-6 0-9 16.5-16t19.5-16q-7-3-14-3t-21.5 6.5T49 134l-2-57q5-30 28-30 8 0 29 5.5t31 5.5q25 0 35-28L108-75q78 26 130 152z"/><glyph glyph-name="hyphen" unicode="-" horiz-adv-x="532" d="M494 331q-3-15-5-18-4-10-13-13L29 273q-10 27-16 80-6 61-12 83 48 30 121 40 43 5 134.5 5.5T392 488q35-5 53-35 9-15 22-62 12-42 27-60zm-49 19q-5 21-30 21-8 0-26-2.5t-26-2.5-14 2q12 16 41 18 35 2 42 6l-6 7-117-9-9 6q31 22 119 22 6 15-9 18-90 6-159 6-128 0-215-22l2-15q20 0 67 3 43 3 66 3 31 0 55-3-28-16-82-16h-25q-16 1-25 1-34 0-56-6 3-1 3-6-1-6 0-7-3 0 44 1 26 0 39-10-5-2-77-13 1-14 13-37 10 1 193 14 118 9 192 21z"/><glyph glyph-name="hyphen" unicode="‐" horiz-adv-x="532" d="M494 331q-3-15-5-18-4-10-13-13L29 273q-10 27-16 80-6 61-12 83 48 30 121 40 43 5 134.5 5.5T392 488q35-5 53-35 9-15 22-62 12-42 27-60zm-49 19q-5 21-30 21-8 0-26-2.5t-26-2.5-14 2q12 16 41 18 35 2 42 6l-6 7-117-9-9 6q31 22 119 22 6 15-9 18-90 6-159 6-128 0-215-22l2-15q20 0 67 3 43 3 66 3 31 0 55-3-28-16-82-16h-25q-16 1-25 1-34 0-56-6 3-1 3-6-1-6 0-7-3 0 44 1 26 0 39-10-5-2-77-13 1-14 13-37 10 1 193 14 118 9 192 21z"/><glyph glyph-name="period" unicode="." horiz-adv-x="335" d="M296 53q-29-55-90-75Q93-27 58 25q-2 13-2 26 0 84 82 140 4 1 15 3t16 2q13 0 19-11 70-7 99-62 14-27 14-47 0-13-5-23zm-31 40q-8 34-50 44-37 8-73 15-48-35-53-115 33-31 74-31 18 0 34 7 22 17 45 35.5T265 93zm-74-27q-19-3-33 2-17 6-14 22zm-12-38q-10-11-46-3-21 20-21 40 0 5 2 10 15-37 39-47h26z"/><glyph glyph-name="slash" unicode="/" horiz-adv-x="569" d="M551 684L138 35q-9-2-17-2-24 0-59 19.5T5 74L4 84q55 132 150 280 44 68 176 253 19 61 66 89 21 9 45 9 11 0 32-2.5t32-2.5q22 0 41 7 8-18 8-20 0-6-3-13zm-66-25q-22-3-51-47l-46-74q-5 18 23 62 30 49 32 59-23-25-60-87-40-68-60-92l-6 2q17 45 104 180-5-1-16-2Q236 445 43 116l15-1 172 262 10 1q-27-58-79-134-70-101-84-124l-4-16q16 5 46.5 53t48.5 52L100 97q7 2 14.5-2t10.5-4q7 0 16 10 37 63 177 278 110 170 167 280z"/><glyph glyph-name="zero" unicode="0" horiz-adv-x="682" d="M602 174Q536 34 309-4 111 3 29 134q-49 77-49 183 0 161 94 297 51 74 132 118t167 44q97 0 171-58 99-164 99-347 0-110-41-197zm-58 6q54 79 54 203 0 131-54 266-39 57-92 74-40 12-83 12-98 0-186-57Q69 573 41 448q-13-57-13-117 0-146 69-214-23 78-23 118 0 46 23 76l12-12q-12-39-12-81 0-94 52-142 0 11-5.5 32t-5.5 32q0 16 11 28 8-13 14-60 4-39 26-54 45-13 92-13 46 0 80 13 39 46 48 125 4 35 3 138 23-34 23-81 0-37-14-88l-26-82q15-4 18 11 5 19 11 22 16 41 51 114 5-11 5-22 0-19-17.5-50.5T445 94q0-6 1-12 35 23 98 98zM383 442l-22 6-6-63q1 35-20 35-7 0-23.5-4.5T288 411q-22 0-19 37 4 62 46 80 38 6 57-22-7-32-6-46zm-45 58q-43-11-43-48 0-7 2-14 21-4 29 10 17 23 17 37 0 8-5 15z"/><glyph glyph-name="one" unicode="1" horiz-adv-x="588" d="M567 220l-26-106Q525 50 528 2L516-9Q363 4 276 4 141 4 41-21L23-3q-1 26 0 68 2 57 2 70 0 74-18 119 1 27 19 27 4 0 9-4 72-38 160-40l47 303h-29q-54-34-166-91l-18 17 6 206q11 13 40.5 11.5T115 689q89 48 270 137l22-28-16-97q30-233 33-452 23-13 62-13 28 0 65 7zm-57-46v22q-92 0-125 24 3 44 3 90 0 91-15 231-20 182-23 228-68-34-136-69-81-41-138-62v-29q31 18 63 36 38 19 68 15-22-20-63-40l-68-34v-18q41 25 82 49 49 28 84 31-29-26-83-57-81-46-89-51-1 5-1-18 0-10 7-11l166 86q12 11 29 11 20 0 34-16-55-174-63-361 13-16 13-30 0-17-19-27L64 225q-3-26 12-80l51 12q6-9 6-15 0-10-32.5-14T64 110l69-4q-7-10-33.5-15T64 77l98 11q-12-23-43-31-28-4-55-9-3-8 12-22 55 17 130 17 38 0 121-7 80-6 121-6 15 4 29 8 19 6 19 20 0 6-3 13-8 3-17 3-12 0-33.5-7.5T412 59q-16 0-27 18 11 11 37 11 6 0 19-1h18q37 0 40 29l-108 6q19 17 52 21 2 0 61 2H379q19 16 61 21z"/><glyph glyph-name="two" unicode="2" horiz-adv-x="679" d="M652 242q-18-48-37-95-19-55-19-103 0-21 4-42-12-7-22-7-16 0-37.5 30T503 59q-56 29-119 29-128 0-270-109-30 8-30 44 0 7 1 20.5T86 63q0 19-7 30-11 29-13 91-2 66-9 92 19 16 58 9 43-7 61 3 68 20 129 86 55 60 83 131 0 26-24 45-22 15-45 29-14 3-28 3-89 0-183-111H90L22 575q-37 61-46 113 129 103 322 103 95 0 182-28l52-69q28-64 28-140 0-147-92-255 2-1 93-25 56-16 91-32zm-63-40v23q-64 18-115 18t-86-18q-32 13-28 45l21 23q12 13 24 12 109 81 109 245 0 63-17 127l-29 40q-88 29-182 29-170 0-270-91 17 0 39 11 18 8 35 17 12 1 42 11t44 10q22 0 35-16l-97-17q-23-10-47-20-27-13-34-31 14-2 36.5 8.5T101 639q7 0 13-2-8-10-32.5-21.5T51 591l16-18q72 48 104 47l-92-69 11-11q42 27 127 74 37 18 74 18 46 0 81-30 40-47 41-48 19-30 15-60-39-102-121-176-92-83-193-87 0 3-1-90-1-56 12-88 126 75 264 75 59 0 102-17 7 6 18 6 9 0 28.5-6t28.5-6l5 16q-31 17-86 21-90 8-91 8 30 18 72 18 46 0 111-23v34q-45 6-94 6-99 0-175-23 72 46 194 46 42 0 87-6zM560 70v18h-34z"/><glyph glyph-name="three" unicode="3" horiz-adv-x="667" d="M629 356q13-185-126-292-54-19-107-38Q333 6 283 6q-41 0-79 13Q47 90 16 207q-7 27-14 89-5 59-15 89 67 34 184 51 11-12 17-42 6-34 12-44 11-21 39-22 6 1 13 1 6 0 18.5-1t18.5-1q27 0 36 23v33q-1 18-17 25-7 3-14 3-9 0-24.5-7t-22.5-7q-10 0-19 11l-24 102 44 18q28 11 42 29-9 25-62 22-20-22-63-57-56 120-115 154 1 14 14 27t27 14q106 70 231 70 153 0 226-116 12-48 12-82 0-62-41-101 34-29 67-58 41-39 43-74zm-47 11q-21 36-63 63-66 41-74 47-3 18 15 30 30 20 31 21 23 19 27 54 1 33 1 65-15 30-51 52-32 17-63 34-36 5-71 5-143 0-220-73 18 3 65 32 42 26 71 26 15 0 29-6-12-10-65-27-45-14-61-37 48 18 62 18 13 0 24-6-12-11-49-23-33-10-43-28 5-1 11-1 8 0 20.5 4t17.5 4q4 0 8-2l-28-29 18 12q22 15 48 15 45 0 83-38 9-8 9-19 0-19-28-42-24-18-27-18 28 0 29-18-15-5-46-17 8 0 25 6t25 6q10 0 19-6-10-20-52-23h35q35-18 57-86-17-58-57-69-19-9-39-9-29 0-64 23-29 22-58 43-6 5-12 25-5 17-17 16-2-14 8.5-37t10.5-32-7-17q-28 13-40 80-2-8-2-18 0-13 4-36.5t4-33.5q0-15-6-27-27 40-34 109-6-20-6-39 0-44 33-94l64-84-11-12Q53 218 38 281q17-83 92-182 57-49 152-49 103 0 192 49 110 73 110 237 0 15-2 31z"/><glyph glyph-name="four" unicode="4" horiz-adv-x="745" d="M711 48q-64-4-179-32-126-31-182-38L334 2l16 263q-18-2-175-17Q64 238-4 225q-23 5-23 31 0 12 5 21 152 256 258 486 17-3 47.5 13t41.5 16q20 0 31-29-21-67-43-135-26-81-31-140 9-1 20-1 21 0 58 5 45 7 60 8 12 159 51 303 11-4 24-4 16 0 47 8t45 8q24 0 38-18-3-167 27-382 29-184 59-367zm-46 45q-26 163-53 327-31 195-27 337l-17 6q-12-21-12-61 0-6 1-19v-19q0-49-18-72-10 14-10 33 0 10 3.5 31t3.5 33q0 9-2 17v-18q-10-21-12-56v-59q-1-36-12-57-4 0-8 5-7 7-8 7 6 81 16 223-35-112-35-218 0-25 2-50-6-40-35-46-11-2-60 5-40 7-60-6-12 1-36.5-10.5T250 414q-20 0-31 28l68 281q-21-49-68-143-9-10-10-40.5T191 500l-12 12 75 199q-32-73-106.5-214.5T41 283q84 7 167 15 101 10 160 36 40-10 40-43 0-12-6.5-39.5T395 211q0-16 7-26 13-27 13-74-1-81-1-75l16 189 18 17q5-19 5-40t-6.5-63.5T440 73q0-16 2-31 29 6 33 50 5 58 13 70 11-13 11-32 0-9-4-28.5T491 71q0-9 3-17 71 0 71 68 0 19-7 64t-7 67q0 24 6 40 1 1 7 9 5 5 10 3l17-229q6 10 6 35v38q2 32 17 48 12-14 12-45 0-6-1-33-1-20 0-32h22q13 0 18 6zM397 36v51h-6V36h6z"/><glyph glyph-name="five" unicode="5" horiz-adv-x="675" d="M630 209Q512 54 321 8q-16-1-33-1Q166 7 29 94l-17 35q59 77 126 251 41-23 93-23 26 0 50 7 12 3 30 19t27 20q-13 30-47 45l-62 18q-37 5-76-15-16-9-61-42l-18 18 6 348q90-24 237-24 51 0 137 3 98 4 130 5 23-19 23-45 0-14-9.5-44t-9.5-46q0-8 2-15l-149-16 84-34q50-22 65-64 31-51 37-138 2-74 3-148zm-51 12q11 50 11 102 0 91-35 149-16 37-52 52-17 8-70 17-45 9-66 23-1-4-1 50 0 32 13 47 13-1 60-7 38-5 62-5 13 0 25 1 26 10 26 27 0 4-2 8-7-1-49-8-30-5-48-5-9 0-17 1-1 8 7 11t15 5q28 4 55 8 33 5 42 21-88-12-206-12-81 0-228 7V489q30 24 82 24 26 0 55-6 43-9 80-40 40-34 51-75-49-80-149-80-25 0-51 6l126-12q-16-18-57-18-13 0-38.5 2t-37.5 2q-16 0-28-2l12-24q-35-3-40-51 29-16 80-21 44-4 87-8-27-19-74-19t-76 19q-9 6-18 6-30 0-28-35 10-8 48-13 30-5 38-26l-5-6q-18-3-47 9.5T92 134q-9 0-18-5 12-37 92-64 47-15 94-15 146 0 319 171z"/><glyph glyph-name="six" unicode="6" horiz-adv-x="626" d="M574 492q12-155 12-165 0-118-59-184Q398 35 282 35q-26 0-52 5-94 42-131 70-69 53-75 124 38 226 178 476 20 26 55 34 20 5 66 5.5t67 5.5q46 3 51-22-7-21-41-55-39-38-49-54-2-10-16-29.5T322 561q31 13 66 13 95 0 186-82zm-29-40q0 30-33 41-46 14-53 21-24 7-48 7-68 0-129-52-1 1-18 22-11 13-11 23 31 119 103 196-28 3-47-28-21-37-33-41-2 5-2 10 0 17 30 59-34-12-49-64-17-59-37-74l-10 12q19 44 45 120-83-144-121-242-53-137-57-267 17-38 61-66 38-21 76-43 27-6 54-6 110 0 227 103 53 63 53 201 0 5-1 68zM390 338l-16-52q-13-29-41-28-61 2-68 45-5 30 17 58 42 14 60 14 36 0 48-37zm-34 6q-32-2-41-4-23-6-23-25 0-6 2-12 13-18 33-16 31 9 31 43 0 8-2 14z"/><glyph glyph-name="seven" unicode="7" horiz-adv-x="585" d="M584 658q-35-59-55-144-11-49-25-154-9-63-9-123 0-79 15-140-30 4-61 4-66 0-166-20-129-26-163-30-6 23-6 50 0 42 30 162 57 151 153 263-157 7-274-74L5 464q-5 48-5 90 0 96 29 161 38 7 83 7 43 0 151-11 98-10 155-8l137 6 19-19q12-11 12-21 0-5-2-11zm-63-12q-84 17-218 21l-223 8q-24-8-24-31 0-4 2-9 57 23 100 23 37 0 60-18-22-13-68-11-51 1-70-6-8-4-18-8.5T52 601q72 17 84 17 18 0 30-6-22-13-59-23-30-9-61-17v-24q-1-15 6-22 57 29 156 44 82 12 163 25 24-15 24-38 0-10-6-19-212-187-223-436l20 2 15 10q-9 135 108 274l6-5q-91-143-86-246l12 48q7 28 22 44l12-12q-9-19-23-86 15-1 51 12 1 54 22 126 18 60 36 119l22 29q-3-28-27-116-21-75-21-122 0-19 3-36 22 3 26 38.5t25 41.5q1-5-6-74h70q-6 265 68 497z"/><glyph glyph-name="eight" unicode="8" horiz-adv-x="643" d="M612 432q6-116-54-219-55-95-157-164-104-36-186-36-87 0-141 42Q4 109 4 191q0 26 8 52 21 68 109 172-7 9-48 34-33 20-38 46-3 15-3 29 0 63 62 117 56 41 113 83 46 15 92 31 61 20 100 20 73 0 105-68 12-19 12-41 0-36-47-102-4-2-4-18 6-12 25-12 33 1 32 1 56-28 90-103zm-51-103q1 5 4 35 2 22 2 37 0 60-45 77-14 7-39 7-10 0-32-2t-32-2q-54 0-58 42 34 35 67 69 39 44 39 82 0 10-2 21-27 38-83 38-40 0-95-20-78-28-134-76-70-60-79-130 15-30 47-34 28-2 55-4 28-6 36-42L109 323q-18-35-36-71-21-45-21-75 0-37 28-65 3 8 4 58 1 38 19 50 11-19 6-57-7-47-6-57 4-27 35-35 0 10-5.5 29.5T127 128q0 16 17 23 11-10 11-50 1-30 17-40-2 19 12 28 13 0 15.5-15.5t14-19T235 51q30 0 37 31 2 31 3 63 3 39 22 53 7-13 7-34 0-13-4-41.5T296 82q0-9 1-17 1 2 13 40 8 23 22 35l12-11q-7-19-12-58 31 10 47 42 9 16 22 61 11 41 23 58 7-13 7-27 0-15-12-43.5T407 118l58 114q5-8 5-19 0-9-5.5-25.5T459 163q64 77 102 166zM355 621q2-51-23-57-9-2-18-2-47 0-56 41 1 24 18 40t38 16q33 0 41-38zm52-292q-43-61-84-61-10 0-20 4-12 9-12 20 0 10 14.5 28t15.5 27q11 16 30 16 32 0 56-34zm-86 270v17q1 11-6 11-22-5-18-34-4-1 14-1 7 0 10 7zm46-276q-5 2-9 2-16 0-26-25 10-2 19 7 14 15 16 16z"/><glyph glyph-name="nine" unicode="9" horiz-adv-x="653" d="M554 744q71-67 71-140 0-54-42-129-39-66-78-131-42-80-42-144 0-23 5-45 6-26 6-68 0-79-1-70L227-5q-24 20-24 70 0 18 3 46 4 37 5 44l45 126Q75 304 16 423q-17 34-17 69 0 61 59 131 9 11 112 115 80 45 191 45 104 0 193-39zm23-172v75q-21 46-66 66-34 15-93 19-49 3-99 6-155-6-269-223-9-17-9-35 0-43 66-102 76-39 122-39 17 0 33 4 13 1 32.5 22t35.5 19q30-12 35-46Q247 206 244 81q3-3 7-17.5T263 49q4 0 10 3-7 112 46 166 7 0 17-6-39-49-39-108 0-28 10-52 7 8 7 24 0 4-1 11v11q0 25 17 34 16-13 9-39-7-29 3-41 5 75 11 102 11 56 40 86-1-11-14-76-10-51-10-82 0-16 2-30 17 6 17 34v21q0 31 17 42 6-10 6-33V82q1-16 5-25h12q-11 49-11 97 0 74 26 151 20 59 61 136 37 66 73 131zm-132 57q7-11 7-24 0-18-14-34.5T405 549q-27-7-41-7-21 0-39 13-12 9-12 23 0 7 17 45 20 27 54 27 31 0 61-21zm-29-10q-7 2-15 2-22 0-36.5-14T354 572h33q3 4 19 17 12 11 12 21 0 4-2 9z"/><glyph glyph-name="colon" unicode=":" horiz-adv-x="325" d="M270 183q-27-52-85-71-108-5-141 44-2 13-2 25 0 80 78 134 4 0 14 2t15 2q13 0 19-10 66-7 93-59 14-26 14-45 0-12-5-22zm-29 38q-8 33-48 43-35 6-69 13-46-32-50-109 31-29 70-29 17 0 32 6 21 16 43 34t22 42zm-71-26q-17-2-32 3.5T126 218zm-11-35q-9-11-44-4-19 20-19 39 0 4 1 9 15-35 38-44h24zm111 356q-27-52-85-71-108-5-141 44-2 12-2 25 0 80 78 133 4 1 14 3t15 2q13 0 19-11 66-6 93-58 14-27 14-45 0-12-5-22zm-29 37q-8 33-48 43-35 7-69 14-46-33-50-109 31-29 70-29 17 0 32 6l42 32q23 20 23 43zm-71-25q-17-3-32 2.5T126 551zm-11-36q-9-10-44-3-19 19-19 38 0 5 1 9 15-34 38-44h24z"/><glyph glyph-name="semicolon" unicode=";" horiz-adv-x="333" d="M270 527q-27-52-85-71-108-5-140 44-3 13-3 25 0 80 78 134 4 0 14.5 2t15.5 2q12 0 18-10 66-7 94-59 13-26 13-45 0-12-5-22zm-29 38q-8 33-48 43-35 6-69 13-46-32-50-108 31-30 70-30 17 0 32 6 21 17 43 34.5t22 41.5zm-71-26q-17-2-30 3-17 6-14 21zm-11-35q-9-11-44-4-19 20-19 39 0 4 1 9 15-35 38-44h24zm140-271Q265 111 84 32q-23-3-27 11-3 6-3 11 0 9 12.5 19.5T80 93q18 25 44 79-2 0-46 3-28 2-38 17-10 26-10 56 0 53 27 91 5 2 46 23 28 14 48 14 16 0 31-8 35-18 67-61zm-46 3q-27 67-79 94-5 1-18 6t-20 5q-9 0-15-8l32-27q-7-8-14-8t-22 10-22 10q-1-3-1-6 0-8 15.5-14.5T128 283q-6-4-13-4-8 0-21.5 6.5T74 291l-3-55q5-28 27-28 8 0 28 5.5t30 5.5q23 0 33-27l-59-99q74 24 123 143z"/><glyph glyph-name="equal" unicode="=" horiz-adv-x="539" d="M494 471q-3-15-5-18-4-10-13-13L29 413q-10 27-16 80-6 61-12 83 48 30 121 40 43 5 134.5 5.5T392 628q35-5 53-35 9-15 22-62 12-42 27-60zm-49 19q-5 21-30 21-8 0-26-2.5t-26-2.5-14 2q12 16 41 18 35 2 42 6l-6 7-117-9-9 6q31 22 119 22 6 15-9 18-90 6-159 6-128 0-215-22l2-15q20 0 67 3 43 3 66 3 31 0 55-3-28-16-82-16h-25q-16 1-25 1-34 0-56-6 3-1 3-6-1-6 0-7-3 0 44 1 26 0 39-10-5-2-77-13 1-14 13-37 10 1 193 14 118 9 192 21zm49-299q-3-15-5-18-4-10-13-13L29 133q-10 27-16 80-6 61-12 83 48 30 121 40 43 5 134.5 5.5T392 348q35-5 53-35 9-15 22-62 12-42 27-60zm-49 19q-5 21-30 21-8 0-26-2.5t-26-2.5-14 2q12 16 41 18 35 2 42 6l-6 7-117-9-9 6q31 22 119 22 6 15-9 18-90 6-159 6-128 0-215-22l2-15q20 0 67 3 43 3 66 3 31 0 55-3-28-16-82-16h-25q-16 1-25 1-34 0-56-6 3-1 3-6-1-6 0-7-3 0 44 1 26 0 39-10-5-2-77-13 1-14 13-37 10 1 193 14 118 9 192 21z"/><glyph glyph-name="question" unicode="?" horiz-adv-x="683" d="M667 678q10-27 10-57 0-60-34-103-36-46-105-58l-124-10-6-9-16-179q-134 16-176 16-30 0-57-3-21 39-31 118-12 89-24 122-1 13-18.5 20.5T68 553q0 5 2 11 123-7 129-7 97 0 154 35-24 70-139 93-20 3-40 3-43 0-96-19-5-2-89-37-20 94-27 196 43 20 85 39 50 23 90 23 369-4 530-212zM414 99q4-12 4-25 0-39-28-65-57-51-125-51-21 0-41 5-44 21-52 55-2 10-2 19 0 85 88 135 4 1 27 11 20 8 30 8 19 0 26-21 59-37 73-71zm222 480q10 16 10 38 0 26-12 57-26 41-115 96-173 84-321 84-113 0-193-53-3-7-3-15 0-14 7-22 64 28 116 28 24 0 47-6v-7l61-2q2-3 13-3.5t12-9.5q-56-2-163-13-26-13-51-26-29-17-24-44 55 37 139 37 75 0 141-28l60-46q34-31 36-62-47-40-123-51-47-7-139-4l38-201 15-18q-2 101-19 181h13q15-35 21-90 5-49 9-97h16v114l13 12q10-22 9-63-1-50 2-66l33-3 11 173 9 11q6 2 15-2-12-96-9-182l46-3 21 105q2 12-3 35-5 27-5 35 0 26 30 32 30-13 72-13 47 0 97 15 31 17 68 77zM128 773q-45 3-119-31 0-16 2-18 28 16 56 31 32 16 61 18zM383 84q-9 30-40 49-27 17-61 19-53-29-77-87-3-10-3-21 0-35 27-53 52-8 75 3-34 3-48 7-25 8-36 28 22-11 64-10 50 0 66-3 36 25 36 53 0 7-3 15zm-55-25l-18-15h-41z"/><glyph glyph-name="A" unicode="A" horiz-adv-x="831" d="M809 94Q674 61 517-41q-17-1-26.5 13.5T474 2q-9 68-15 101-10 55-25 96-46-76-70-211v-30q-1-19-13-24-23-3-50 16-33 24-43 27L64 103q1 12 16 26t18 20q50 226 62 295 29 168 24 306 29 14 86 19 77 6 93 9 81 15 243 46l19-24q11-127 69-315 74-241 88-308 2-10 16-37 12-23 12-36 0-5-1-10zm-62 31L579 756q-2 15-12 16h-23q2-20 12-75 8-46 8-73-19 21-27 70-9 56-20 75-19 0-19-17 0-5 2-15.5t2-15.5q0-10-6-13-16 20-20 51-34-8-121-17-80-8-121-19-3-130-36-317-53-292-54-303 2-3 6.5-4.5T157 94l99 235q4 1 11-7-18-61-86-222V70q15 13 25.5 56t27.5 58l6-7-34-123q36-36 105-61l46 154q28 89 58 151 7 3 15 3 21 0 35-16 14-43 31-131 17-92 30-133l62 31q-21 50-38 139-22 113-30 143l6 10q15-32 40-143 21-90 55-134l20 12q-10 31-38 154l9 9q11-23 23.5-76.5T661 88q53 13 86 37zM443 550q2-7 2-14 0-17-15-42-8-13-24-13 2 0-27 4-16 12-16 33 0 7 4 28 3 18 2 28 8 13 22 13 32 0 52-37zm-24-3q-5 9-29 9-18-7-15-33 1-11 12-11 18 1 19 0 13 5 13 35z"/><glyph glyph-name="B" unicode="B" horiz-adv-x="615" d="M555 287q12-62 12-113 0-119-64-184-58-57-149-57-53 0-134 21-63 17-127 34Q71 4 48 20 21 42 21 64q0 5 2 10 9 73 58 331 38 204 43 334 11 0 67 5 42 4 68 4 81 0 129-34l66-68q44-70 40-132-9-28-62-86 9-35 59-71 53-39 64-70zM500 52q32 82 32 142 0 64-36 102l-48 54q-31 30-62 29-23 11-28 49 7 9 19 9 76 64 76 115 0 10-3 21-59 116-135 130 0-43-13-50-11 8-8 26 4 22-1 29h-42q-3-7-3-37 1-23-12-30-14 9-14 31 0 7 1.5 19.5T225 708l-18-9q-1-19-9-70-8-45-8-71 0-15 2-28 0-6-6-9t-9 0q-5 18-5 40 0 20 6 66 7 43 5 66-3-3-22-6-11-93-47-309Q81 181 69 67q4-9 9-18 5-12 15-12 21 127 50 206 2-36-14.5-108T115 21h9q0 2 4 41 2 25 18 31 4-8 4-17t-4.5-26-4.5-25q0-7 2-13 12-1 35-12.5T215-12q7 0 14 2 12 63 19 94 13 51 30 89l6-7q-2-23-20-91-15-55-13-94 17-2 22 20 6 26 14 31 6-7 6-17 0-5-2-15t-2-15 2-10l119-3q55 30 90 80zM331 530q1-27-40-49-43 0-53 18-4 39-3 43 0 28 12 40 26 7 26-12 0-3-1-6 16-6 33.5-13.5T331 530zm98-375q4-37-19-62-8-7-21-7-16 0-31 10-18 29-18 48 0 10 3 20 8 0 28.5 7.5T402 179q21 0 27-24zM291 527l-25 3q2-7 4-13.5t8-6.5q3 0 6 2 7 4 7 15zm110-379q-9-2-28-13-1-3 2.5-8.5t3.5-6.5q15-4 22 28z"/><glyph glyph-name="C" unicode="C" horiz-adv-x="692" d="M664 171q-26-48-74-78-31-19-93-43-67-24-94-40-201 2-333 114Q0 199-1 304q0 77 41 187 35 88 70 175l48 68q30 37 66 46 170 4 275-104 74-96 67-169-62-27-129-121-22-3-43 40 1 4 1 8 0 16-19 27-7 1-13 1-26 0-55-26-27-40-27-72 0-49 42-73 13-1 25-1 113 0 215 87 26 3 34-15 4-9 5-38t10-39q1-2 23-51 13-30 29-48v-15zm-61 22l-216-80h-42q169 61 251 101 4 16-9 31-15-4-93-34-56-21-94-25l178 81q1 3-6 20-40-18-80-37-47-21-83-29l-36-10q-22-7-37-7t-28 6q0 1 6 11 144 15 234 82-128-64-219-58-39 3-74 53-15 43-15 80 0 27 9 48 13 35 45 57.5t69 23.5q20 1 43-13l34-24 6 9q-5 50-92 90-11 4-36 0-24-3-35 5 10 12 33 12 20 0 40 1 58-12 108-89h7q10 11 10 23 0 15-20 38-27 30-29.5 36.5T417 620t-12 28q0 7 4 13 68-75 101-134l13 11q4 39-37 101-45 49-115 73-49 17-134 26-29-11-55-46-21-30-41-59L75 465q-34-98-34-178 0-31 5-61 24-66 98-111 48-29 139-59 28-8 55-8 50 0 115 32 54 29 107 57 16 12 31.5 25.5T603 193zm-462-25q-34 14-42 60-5 39-10 79 15-75 15-77 12-44 37-62z"/><glyph glyph-name="D" unicode="D" horiz-adv-x="689" d="M623 233q-33-87-135-133-89-32-179-65-57-2-117-24-18 1-31 27-7 225-126 589-11 5-23 11T0 655q0 6 5 14 26 36 75 53 25 9 92 20 61 10 91 23 16 2 32 2 78 0 153-43 54-32 129-101 81-90 81-231 0-88-35-159zm-15 205q10 114-132 209-1 0-76 48-46 29-84 29-11 0-23-2 1 1 1-14 1-8-6-11-8 0-13 8-8 14-9 14-7 1-19-4 5-31 22-88l-9-11-6 7q-10 10-17 53-6 36-26 36-7 0-15-3 2-11 5-21 2-13-3-22h-6q-9 14-9 12 2 21-14 21-5 0-16.5-3t-15.5-3q4-11 17-74 9-46 29-69 3-4 3-9 0-13-16-13-38 64-55 156-11 2-25-6-18-10-24-12 42-108 81-294 50-240 67-300h9q1 9 1 18 0 17-5 45-7 35-8 45 0 15-3 44.5t-3 44.5q0 24 6 43 7 2 12-6 3-58 5-117 5-66 19-110h13q4 16-1 42-5 33-5 40 0 18 9 31l21-108q27 0 60 14 27 11 55 23l-18 246 5 20q2 0 13-7 2-65 5-130 5-74 23-120-5 40-5 46 0 30 14 44 4-10 7-41 2-27 11-39l31 14q18 9 28 20 15 127 15 169 0 32-4 62l7 9q16-32 16-76 0-21-7-76-5-48-3-73 19 9 21 40 2 36 10 46 5-3 8-10 4-10 5-12 30 54 27 185zm-249 44q2-46-35-65-7-1-14-1-39 0-44 32-1 9-1 18 0 52 35 71 25-1 59-55zm-35 0q-3 14-27 11l-4-36q3-14 16-9 13 14 15 34z"/><glyph glyph-name="E" unicode="E" d="M624 781l-36-240q-6-2-12-2-11 0-28 10-20 12-28 14-20 1-73 12-48 9-74 9-43 0-71-21 16-21 54-21 9 0 29.5 1.5T416 545q46 0 58-37 4-19 4-38 0-27-8-63l-14-60q-20-18-50-18-14 0-46.5 6.5T311 341q-8-18-7-27 94-31 179-31 46 0 86 9 11-7 24-24-12-49-12-130 0-66 1-132-54 18-132 18-22 0-66.5-1.5T317 21q-67 0-114 12L55 57 34 79l40 362q24 217 58 356 66-3 179 7 123 12 175 12 65 0 120-10zm-77-554q0 9-11 12-10 2-18-2zm26 502l-4 30q-51 7-112 7-48 0-139-6-95-5-139-6-6-8-12.5-29T150 695Q96 339 91 104l7-9q83-28 216-33 114-2 228-5l-4 53q-20 3-71 3-45-1-70 6 23 11 71 10 57-1 74 3l-4 43q-79 2-154 16v5q23 6 54 6 18 0 54.5-3t54.5-3v6q-40 23-116 27-109 5-124 8 11 12 32 14 18 1 36 1-13 7-69 10-44 2-57 26 5 13 6 46.5t6 46.5q9 21 34 22 19-18 53-23l62-4q10 11 18 46 4 0-58-1-34 0-53 10 19 10 57 9 46-1 60 2v11q-14 6-40 6h-42q-18 1-30 5 19 10 52 10 60-1 56-1v22q-74 3-96 7-54 10-85 42-1 8-1 16 0 35 26 61 32 10 68 10 35 0 103-14t102-14l10 6q-3 14-21 20-16 3-30 7t-57 3q-36 0-52 13 26 9 63 9 9 0 102-9v25l-143 3-9 6q23 16 59 16 15 0 49-4t51-3v16l-212 12q42 17 104 17 52 0 112-11zm-35-584l-258 11 231-6z"/><glyph glyph-name="F" unicode="F" horiz-adv-x="591" d="M551 493l-9-9H379q-16-14-16-32 0-7 3-14 12-10 31-10 9 0 27 3.5t26 3.5q24 0 37-21l6-154q-14-10-41-20-32-12-42-17 3-66 6-85 7-47 31-76 3-7 3-12 0-11-16-14-22-5-24-7L260 11Q171 0 114-15q-10 3-20.5 6.5T77 4q-3 38-12 341-6 207-32 333-10 10-9 32 0 39 1 36 7 7 17 7 6 0 19-3.5t19-3.5q78 20 192 28 100 4 199 9 23-2 45-5 26-6 35-25-9-42-9-96 0-32 3-82 5-68 6-82zm-43 219v12l-6 7q-28 0-87 2t-89 2q-100 0-163-17-10-4-54-7-35-2-47-20 24-118 34-325 12-253 21-331h18v141l6 9q2 1 9-6l4-113 4-20q3-11 14-8 7-1 7 13-5 5-2 14 3 8 11 10 3-10 8-31l88 9q0 12-3.5 36.5T277 125q0 23 12 39 3-10 13-86 3-24 17-24 3 0 7 2l-2 13q4 5 15 12 1-18 17-18 5 0 18.5 3t19.5 3q-19 132-43 193 8 13 22 13 5 0 17-2.5t19-2.5q15 0 32 11.5t17 25.5q0 7-5 14-42 7-90 7-47 0-89-7l-6 7q34 11 90 14 48 0 95 1l-6 21H311l-9 6q22 14 68 13 59 0 73 3-29 0-59 1-33 3-51 18-10 16-10 37 0 16 6 42 9 34 10 40l166 3v37q-36 6-80 6-20 0-145-9l-9 7q39 18 112 21 61 1 122 3l-7 68-183 3q35 12 93 15 48 1 97 3v6q-41 13-95 13-33 0-95-6t-90-7v4q77 27 181 27 50 0 102-6z"/><glyph glyph-name="G" unicode="G" horiz-adv-x="663" d="M601 666q-1-12-1-26 0-15 2-45t2-45q0-38-12-63-102-6-191-56-19-1-32.5 26.5T337 484q-69-69-69-176 0-58 23-108 21-21 29-21 7 0 13 6 18 19 37 38 18 23 18 45-7 7-26 6.5t-25 2.5q-28 32-28 85 0 24 6 49 30 4 114 7 74 2 113 11 21 2 38-9.5t17-30.5q1-23 3-75t2-79q0-111-32-178-24-35-73-59-44-19-87-38-47-6-88-6Q114-46 34 96q-9 41-9 85 0 64 22 166 26 123 30 165 20 56 40 111 28 68 63 102 45 44 111 43 70 18 119 18 66 0 105-31 48-38 49-39 28-25 37-50zm-37-15l-68 70q-35 22-84 22-33 0-80-10l-76-18q-56-27-90-93-15-29-45-123-2-44-25-149-22-98-22-151 0-78 37-137 43-49 126-57 74 0 149-1 82 39 91 44 51 31 69 75-2 33 6 90 9 62 9 87 0 43-15 76-13 1-35-2 10-40 10-36 0-12-12-17-9 7-13.5 26T484 374q-7 1-19-4 2-11 14-54 9-33 8-54-14-9-13-9-8 19-17 60t-16 61q-3-1-40 0-24 0-37-7-5-12-5-20 0-17 34-25.5t39-31.5q10-14 10-32 0-16-8-36-24-29-49-57-32-33-64-33-7 0-15 2-34 12-62 64-22 53-22 113 0 130 89 226 7 3 15 3 7 0 21.5-5t23-5 21.5-13.5 21-13.5q5 0 10 3 6 32-31 64-5 8-30 17-19 7-16 20 38 6 88-52 6-7 8.5-26t11.5-23q2 12-6.5 35t-8.5 33 4 18q27-31 35-71 20-10 27 3 5 65-49 117l7 6q12 1 26-13 10-12 20.5-22.5T522 566q2-31 20-36 25 31 25 83 0 18-3 38zM284 35q-83-9-114 15-56 33-49 99 4-49 40-81 50-35 99-35 12 0 24 2zm-68 33q-4-2-8-2-5 0-32 18-20 23-15 52 11-20 21-40 14-22 34-28z"/><glyph glyph-name="H" unicode="H" horiz-adv-x="731" d="M699 669q7-10 7-22t-11-39-9-44q-37-338-42-539Q593 8 504 3 378-4 362-6l-15 20q2 12 9 98 6 60 15 95-14 12-51 3l-10-9q-7-37-6-105 1-73-3-104-32 1-101.5 12.5T91 16q-21 0-42-2-7 7-19 24 1 35 13 246 9 151 9 248 0 108-9 199 15 11 49 14 52 3 55 4 28 8 111 22 70 11 108 28 28 4 40-19-7-78-15-155-10-89-29-149 4-13 31-13 26 87 37 131 18 75 25 137 8 8 16 8 9 0 26-15.5t26-16.5q58-13 176-38zm-40-52q-5 22-36 26-26 2-51 5 1-19-1-46-4-38-4-44l-6-18-14-9q-6 16-6 35 0 16 6 47.5t7 46.5h-7q-13-30-24-107-10-71-28-106-4-1-12 7 14 38 23 106 11 84 17 109l-28 7-49-173q-5-10-5-28v-16q1-11 1-16 0-37-29-38-6 4-60 20-36 11-39 44 25 53 35 132 3 24 11 142h-35q-3-31-5-38-5-20-19-29-5 8-1 29.5t-2 31.5q-17 5-28 5-31 0-31-44v-19q0-37-15-49-11 40-9 92-34-4-84-19-18-132-9-256h-6q-13 46-12 125 0 125 1 124l-22-5-3-631 21 2q1 14 1 30 0 13-1 37.5t-1 36.5q0 54 26 81-8-53-8-98 0-53 11-96h6l-1 51q0 32 13 44 4-52 15-97h13v82q3 47 22 72l6-7q-10-34-10-78 0-33 6-80 50-6 62 7l9 194 19 19q33-3 67-5 37-6 59-23 1-32-12-94.5T393 40q7-2 13-2 17 0 20 28 5 38 7 43 14-7 14-31-1-39-1-38h9q2 12 13 134 4 15 15 12 6-17 6-38 0-13-4-40.5T481 66q0-12 2-22h16l-1 48q-1 28 16 38 1-4 3-50 1-22 8-33 10-4 17-4 12 0 15 16v26q1 21 12 24 10-7 10-22-1-29-1-27h13q24 106 41 275 26 271 27 282zm-506-55h-2v141q0-49 2-141z"/><glyph glyph-name="I" unicode="I" horiz-adv-x="411" d="M330 650q-20-38-55-66-38-30-78-36-47-6-88 62-6 15-6 31 0 17 8.5 47.5T120 734q0 12-5 24-3 16 16 30 17 10 33 19t32 9q29 0 63-30 27-25 55-49 19-17 19-51 0-14-3-36zm25-108q0-64-14.5-193T326 155q0-76 14-139L324 4q-41 6-94 6-32 0-96-3T38 4L28 20q23 98 45 197 26 116 32 203 2 8-3.5 22.5T96 462q0 9 6 16 5 2 110 36 66 22 106 47 34 3 37-19zm-59 158q-30 66-101 61-44-45-53-83-3-32-3-37 0-35 21-49 34-11 41 0l-28 27q0 2-3 9t-3 10q0 6 6 9 9 0 14.5-8.5T197 623q8-6 17-12.5t15-6.5q4 0 8 3-31 40-27 68 16-3 26-25t23-27q41 30 37 77zm9-204q-45-5-95-27 0-25-13-71-22 18-11 62-13-9-13-40v-14q1-9 1-13 0-37-19-45l3 96q-6 2-13-6-5-67-30-195.5T84 47q13 0 18 3 3 30 6 59 5 33 21 49 0-10-2.5-36T124 82q0-21 5-35l7 6q1 8-3 22 3 19 16 19 3 0 6-1 6-4 6-9 0-3-2-9.5t-2-9.5 1-6q10-13 59-6 0 63 1 77 5 45 26 71l6-7q-16-83-13-144 12 0 14.5 20T265 93q4-4 7-24 3-16 15-16-2 27-2 56 0 55 12 161t12 158q0 36-4 68z"/><glyph glyph-name="J" unicode="J" horiz-adv-x="805" d="M768 445q-31-2-62-5-37-2-59-11 1-38 25.5-121.5T697 182q0-63-41-110Q558-40 360-40q-51 0-113 7Q170-2 143 78q-15 45-21 159-6 110-25 159 0 9 18 15 94-23 237-37 16-11 6-40-10 0-10-10 0-33 44-80h13q24 35 49 70 27 43 27 77 0 24-12 47-32 10-67 10-78 0-167-47l-15 15q-19 110-19 191 0 35 3 69 62 25 185 27 142 2 190 13 16-5 39-5 10 0 29.5 1t28.5 1q63 0 79-46-1-18-1-36 0-37 5-94 8-83 9-92zm-46 48l-7 56h-86q14 16 41 20 24 3 48 5-3 3-3 8 1 9 0 10l-156-9-11 7q33 14 83 19 43 2 87 5-3 1-3 9-155 3-222-24l-6 6q43 24 107 33 35 4 117 7 3 6-1 12.5t-8 11.5l-116 7q-46-11-180-13-116-2-175-27 4-22 28-22 6 0 20.5 2t21.5 2q19 0 29-10-17-7-92-16-1-13 2-37 26 10 90 4-8-15-50-16-37 0-37-18 0-8 4-19 38 8 114 22l6-6q-16-14-56-20-45-6-60-15 0-20 9-24 88 25 142 25t91-21q36-39 36-85 0-19-8-36-24-59-39-84-29-45-68-64-67 19-117 141h-16q-1-3-1-6 0-7 7-18t7-17q0-7-7-14-21 12-21 31-4 10-9 21.5T244 348q-4 0-9-2-1-16 7-39 10-29 11-38l-5.5-5.5-9.5-3.5q-5 4-13 15-3 7-6 45-3 29-18 35l15-150q1-6 9-16t8-15-4-9q-28 23-37 66-2 9-7 78-2 3-3 31-1 20-14 20-4 0-10-1 7-35 7-92 0-9-1-27v-26q0-74 12-115 16-58 62-92Q298-6 356-6q182 0 276 121 26 33 26 84 0 57-33 131-5 13-9 55-3 35-17 51-9 20-9 30 0 17 17 21 17-12 39-12 13 0 76 18zM599 161l-29-53-31-33zm-62-37l-50-46-43-21z"/><glyph glyph-name="K" unicode="K" horiz-adv-x="712" d="M693 245q-1-27-23-61-27-42-32-56l-32-74q-19-44-43-65-16 0-29 19-17 25-26 30-85 67-100 79-56 48-90 93-2-39 7-108 11-78 11-108-43 3-121-4-89-9-124-9t-65 4Q13 4 13 34q0 14 3.5 43.5T19 122l58 621q8 11 31 10 27 0 34 3 76 4 172 52 29-2 40-24l-31-195 22 4 213 125q31-8 43-38 6-13 14-59 7-39 20-57 26-45 25-68-76-27-167-106 30-44 94-82 53-32 106-63zm-55-16q-46 27-161 120-1 0-26 8-15 4-22 17-9 27 2 40l170 111v12q-24-4-69-33-41-27-66-28 29 27 128 79-1 11-3.5 23T579 595q-28-10-65-36-30-22-61-43 8 32 49 57 34 21 68 41 7 6 7 16 0 15-14 27-100-36-174-89-15-7-52-45-29-30-56-32-16 14-22 31 4 25 30 111 20 68 19 116-30-2-58-18v-32q-1-18-15-23-10 7-10 19 0 5 2 17.5t1 18.5q-35 0-36-40-2-51-12-61-11 14-11 43 1 43 0 45-4 0-11-6l-7-187q-7-15-15-13-8 34-5 98 4 69-1 99l-9-9Q60 363 60 109q0-39 2-77 19-14 30-7l4 176h7q13-29 12-88-1-66 6-90l9 2 3 88q14-11 17-40 4-39 8-48h9q0 49 2 145 1 1 5 18 2 11 11 11 2-53 13-154-2-11 8-13 9-1 16 4l-6 70q0 6 5 8l10 4q8-14 11-40l4-42 41 5q-8 132-28 246l7 19q29 4 46-19 94-156 236-233 1 3 7.5 12.5T562 81q0 2-1.5 3.5T503 121q-35 21-35 49 37-31 111-68l6 11q2 4 2 9 0 13-22 23-31 12-35 16-27 17-38 26-21 18-24 36h13q54-58 120-75 10 20 22 41.5t15 39.5zm-77 403q-49-23-172-120 66 75 172 120zm43-449q-5-3-11-3-5 0-35 15v10q14-9 46-22z"/><glyph glyph-name="L" unicode="L" horiz-adv-x="575" d="M556 120q-3-14-18.5-20T508 90Q370 52 85 4L61 34q7 298 7 290 0 242-47 391 61 7 130 39 25 12 119 63 5 2 11 2 32 0 38-32 1-19 0-195-1-118 9-194 28-6 57-6 62 0 103 27 34 8 40-21-2-22-2-45 0-50 11-117 10-58 19-116zm-52 31q-67-3-154-40l-7 7q52 33 161 55-1 9-7 22l-220-59-11 10q39 20 117 37 83 18 118 34-3 7-3 26t-3 26q-29 1-67-12-61-22-63-22l-6 6q57 36 133 46 2 7-4 16-57-8-156-44l-7 6q29 23 82 37 82 20 88 22v20q0 12-7 18-26-10-68-10h-28q-50-1-79-16-22 2-34 37 1-14 1 195 0 114-10 190-5 2-9 2-9 0-21-6-17-8-20-9 1-28 14-94 11-61 11-94 0-43-15-78l-6 6q-3 65-5 130-5 74-23 121-4-3-7-2-59 3-59-35 0-13 8.5-45t8.5-48q0-15-6-26-5-2-10 3.5t-6 5.5q0 59-22 114-3-4-5-4 8-60 31-178l-6-7q-5-1-20 11L76 690H64q29-123 38-313 7-162 14-323 68 3 151 21 17 4 144 36 13 9 50 16 30 5 43 24z"/><glyph glyph-name="M" unicode="M" horiz-adv-x="777" d="M759 130q-1-25-27-30-22-1-45-2-13 0-20-3L513 40q-18 2-25 18-5 100-40 219-8-7-22-48-11-32-31-32-8 0-17 3l-59 49-7-9q-2-48 4-129 7-89 7-124-8-3-16-3-11 0-30 7.5T248 0L30-15Q9-2 9 19q0 14 13 42.5T36 101q18 119 25 284 4 144 9 289 1 32 42 46 55 19 66 31l92 65q36-5 40-34l33-135q1-1 3-1 9 0 12.5 13t3.5 49q-1 31 9 49 12-2 24-2 53 0 109 36 25-1 36-20 7-11 12-41t11-41q42-79 91-283 45-187 105-276zm-62 20q-37 82-91 292-50 191-102 287h-18q-2-5-2-11t4-18.5 4-18.5q0-9-6-16l-13 9q-6 5-9 28-3 20-14 20-3 0-8-2 14-122 6-178h-2q-12 29-16 83-5 65-10 86-18-31-27-80-6-14-6-37v-16q1-11 1-16 0-35-17-51-5-4-11-4-7 0-28 17-12 43-24 87-14 52-16 91l-22 49q-18 0-16-21 3-28 1-32-15-4-20 11-7 19-9 20-28-13-28-52 0-12 3.5-37t3.5-36q0-13-3-23-18 16-23 54-3 32-5 63l-16-11q-6-46-6-90 0-45 6-89 0-5-6-8.5t-9-1.5q-11 31-10 81 1 77 1 83l-12-10-12-5Q99 397 95 335 85 160 67 31h31q3 104 51 249l7-9q-2-15-21-99-13-60-13-100 0-20 3-39h9q8 10 9 32v34q2 26 19 36 1-32 3-95h34q-6 27-6 54 0 59 27 93 0-13-3-43-3-33-3-49 0-33 10-55l52 2q0 204-12 288l9 11q32 3 59-34 33-45 48-52l62 148q11 2 21-6t19-16q1-60 18-143 14-70 28-139 11-4 15 5-24 89-24 116t9 48q18-111 41-160h9q1 10-7.5 31.5T562 172q0 13 10 24 9-7 14.5-36.5T605 119h12q7 0 10 7-14 41-27 83-15 49-13 86h3q29-89 65-160z"/><glyph glyph-name="N" unicode="N" horiz-adv-x="763" d="M721 204q-1-23-30-24-36-2-43-10-103-50-163-102-4 4-11 4h-11q-28 54-93 160-10-55-10-129 0-4 4-130Q247-12 16 25 4 38 4 53q0 13 10 36.5T25 124q22 198 22 332 0 92-9 170 32 22 121 60 80 35 119 68 6 2 12 2 29 0 43-32 2-20 3-25 2-13 10-22 19 96 15 154l7 4q79-12 144-12 46 0 86 6 10-5 25-22 11-258 18-313 20-176 80-290zm-62 22q-38 100-53 267-26 276-26 281l-38 2-2-117-9-9q-2-6-6-6-6 0-10 13l3 119q-17 1-49-2-3-8-3-33 0-21-10-29-16 9-15 34v39h-12q-1-13-9-72-7-45-7-73 0-41 13-73-1 0-3.5-3.5T417 561q-22 33-22 84 0 23 6 70t7 68q-2-28-11-93-9-60-9-94 0-41 11-75l-7-7q-12-12-25-12-7 0-12 3-10 22-30 96-17 61-38 92-113-42-212-102 6-90 6-177 0-182-25-349l9-9q8-1 22 3l22 169 12 13 6-6-21-179q6-13 29-13 30 0 35-2 2 53 18 128 28 123 28 125l18 15q-3-34-21-118-17-74-17-118 0-19 2-36l47-3q2 76 27 108l6-6q-11-46-9-102 4-21 29-21 9 0 17 3l9 203q4 19-1 48-6 37-6 45 0 19 10 33 18 4 31-9 37-71 123-203l46 27q-6 12-36 73-22 44-33 73-15 41-20 76h9q13-46 45-106 29-52 57-103l9 6-18 31q-13 22-13 43 0 11 4 19 16-9 22.5-35.5T571 201q4-10 12-10 5 0 25 10-23 63-50 221 0 9 9 9 12-56 25-112 16-65 40-106 12 2 27 13zM146 111q-1-2 0-32 1-21-9-27-4 29 9 59z"/><glyph glyph-name="O" unicode="O" horiz-adv-x="647" d="M610 202Q596 80 518 39 446 0 341 0q-91 0-212 30Q24 126 24 301q0 44 7 92 11 68 56 154 39 72 79 145 36 43 98 43 24 0 73-8t73-8q20 0 36 4 51-18 65-55 54-83 73-224zm-50-9l-16 248q-18 139-83 220l-39 15q-22-1-62 2-48 3-65 3-70 0-104-33-35-63-69-126-38-74-48-136-9-53-9-100 0-139 77-204-9 47 2 68 11-9 13-59 1-18 31-28l-9 53q14-7 17.5-24.5T203 58q23 0 68.5-3t68.5-3q37 0 66 6 46 82 55 233 16-30 16-69 0-51-43-159 22 2 36 27 10 23 20 45 6-7 6-16 0-6-3-17.5T490 85l12 9 10 54q5 32 17 51 7-12 7-27 0-13-6-33-9-29-10-32 33 28 40 86zM360 415q1-33-46-71-15-9-40 5l-6 7q-18-13-47-45t-46-44q9 21 38 50 25 24 49 48-2 5-10 15l-55-24q9 17 46 34-3 57 25 80 74-13 92-55zm-46-13q2 8-8 11-16 4-17 4-6-4-6-12 0-14 13-19z"/><glyph glyph-name="P" unicode="P" d="M612 659q15-43 15-90 0-125-92-222-30-26-90-45-73-23-95-35l53-233q-17-17-54-16h-60q-64-9-203-4-11 13-11 32 0 7 2 20.5T80 86Q64 196 56 372 44 639 42 659q99 118 307 118 53 0 113-8 123-32 150-110zm-33-28l-62 74q-73 31-159 31-161 0-266-96 0-238 2-282 4-158 25-272 6-31 26-25v12q1 11 1 22 0 21-5 63t-5 62q0 43 18 72 1-8 4-113 3-71 14-112 0 9-2 28t-2 28q0 28 17 43 3-46 5-57 5-32 19-51 9-1 25 3l-9 179q2 23 5 45 5 27 22 26-13-50-13-107 0-79 23-139 15 0 18 6 0 7-3 9-11 51 12 71 9-10 9-30v-21q0-27 19-35 3 2 18 2 12 0 15 9-8 102-61 222l24 35q15-2 29-2 77 0 166 60 74 87 74 195 0 22-3 45zm-90-38q-11 8-18 45-5 31-31 36-5 1-21 8-12 5-22 5-4 0-9-1 8 6 20 6 16 0 54-18 29-34 29-65 0-8-2-16zm-110-48q1-6 1-12 0-27-26-53-31-24-62-24-9 0-19 3-28 13-30 61-1 21 13.5 40.5T293 588q70-3 86-43zm-44-13q-4 7-15 7-24 0-18-1-23-10-20-31 2-3 20-6 3 4 19 13 13 7 14 18z"/><glyph glyph-name="Q" unicode="Q" horiz-adv-x="723" d="M678 202q-62-79-81-157-24 0-58 6-55 9-56 9-24-53-99-60-63-1-126-1-43 0-85 1-49 4-63 48-78 117-78 311 0 83 14 181 8 56 44 104.5t88 67.5q43 6 85 12 55 7 91 7 120 0 166-80 36-64 46-174 6-95 13-189 8-8 61-28 39-14 39-43 0-7-1-15zm-59 9l-52 22q-30 14-43 37-5 12-5 22 0 18 16 26-2 178-31 282-20 45-63.5 67.5T344 686q-23-7-74.5-12.5T194 660q-38-14-59-45-64-96-64-244 0-125 43-240 16-28 31-55 21-36 48-36 13 0 29 8-67 63-67 176 0 38 8 79 8-155 79-255h16q-35 41-35 95 0 18 4 34l9-9q10-67 46-120h66q6 26 12 108 5 68 19 105 9-38 9-84 0-61-16-126h18v23q0 14 7 20 5-7 8-21 4-21 4-22l18 12q9 14 9 62 56-4 130-34l15 34-64 34q-11 15-11 16 0 3 2 5 13-14 44-19 35-6 45-12l4 10q-10 9-47 17-30 6-37 29 18 3 46-9 35-14 47-16 11 13 9 31zM409 549l-28-24q13-24 13-46 0-16-7-30t-22.5-19.5T335 420l-37 15-25-27 25 34-12 12-59-39q5 15 36 39 28 21 28 44 0 8-2 18 11 28 34 31 12-6 20-6 13 0 26.5 26.5T403 593q-41-35-40-53 5-7 11-7 4 0 16 9t19 7zm-55-57q-5 6-12 6-18 0-22-22 3-6 19-6 7 6 15 22z"/><glyph glyph-name="R" unicode="R" horiz-adv-x="668" d="M644 275q-54-29-102-99L462 63h-15q-27 22-61 69-37 51-56 69 1-20 7-74 6-48 6-77 0-26-4-49L327-9Q278 2 200 2 78 1 72 1q-2-11-2 51 0 29 17 42-3 62 0 187t0 186q-4 104-25 184-4 3-27 10-17 5-20 20 17 31 63 54l76 39q63 18 132 18 147 0 262-73 48-37 53-118 1-9 1-17 0-46-48-89-41-35-83-69 22-40 72-67 44-21 89-41 15-7 15-29 0-8-3-14zm-74 19q-92 35-157 128-8 12-8 25 0 15 11 25 29 5 60 27 6 4 54 44 28 31 28 76 0 16-3 32-7 15-26 29-31 22-32 23-88 43-194 43-135 0-213-74 33-112 36-304 4-280 8-315h11l15 133q3 3 8 22 3 13 14 14 1-20-6-60.5t-7-60.5q0-24 7-45 1 2 8 50 5 30 25 34-2-27-9-81 3-10 16-10 23 1 21 1 6 147 22 216l12-13-3-203q-5-1 19-1 11 0 15 7 3 49-9 122-14 89-16 118-2 12 8.5 18.5T306 318q19-22 65-97 37-62 76-91l9 10q-22 27-45 54-25 33-28 59 16-12 42-41 29-33 44-45 2-4 5-4t8 5 8 5q4 8 4 15 0 12-19 27-24 18-28 26-2 4-9 17-7 10-7 16 0 5 4 10 5-4 36-40 23-26 44-25zM312 558q-8-56-44-70-15-4-27-4-37 0-50 28-2 8-2 15 0 35 40 65 7 1 13 1 37 0 70-35zm-37-6q-7 9-16 9-6 0-34-25-4-5-4-9 0-9 19-12 16 10 22 15 12 11 13 22z"/><glyph glyph-name="S" unicode="S" horiz-adv-x="691" d="M640 242q3-14 3-29 0-93-102-173-97-78-252-78-76 0-160 19-42 9-82 49-2 2-65 76l-7 26q35 55 70 111 42 63 81 107 23-49 59-74 36-10 67-10 54 0 80 29 19 20 19 41 0 9-3 17-25 39-91 59-94 28-103 32-50 27-53 91-3 62 46 119 43 51 106 77 72 19 139 19 147 0 214-92 24-34 24-54 0-14-9-27l-98-128q-24 10-53 34-24 22-48 43-3 1-7 1-7 0-14-7-12-12-14-13 6-27 37-49 26-17 53-35 59-7 101-70 31-55 62-111zm-38-30q0 34-32 95-25 46-98 80-80 38-106 70.5T340 522q0 7 1 13 14 30 44 42 12 6 23 6 25 0 51-32 21-25 43-51 10 9 12 22l-65 66q-15 21-15 23 0 6 9 10l46-42q28-26 50-35-3 6-21 23-15 13-14 26 6 5 12 5 8 0 21-15t17-17q16 11 16 23 0 13-23.5 36.5T520 661q5 4 11 4 11 0 26.5-19t21.5-22l6 6q-56 86-222 81-69-2-129.5-43T147 562q-3-12-3-24 0-33 21-55 15-9 106-39 64-21 95-60 26-34 26-67 0-13-5-26-39-50-73-61-22-8-46-8-68 0-133 58 2-5 16-14 11-8 12-17-7-7-14-7-6 0-17 6t-16 6q-19 0-19-16 0-7 12-19t14-16q4-10 26-18t22-17q0-7-6-15-19 3-45 25-33 26-43 31-7-9-16-28 15-18 57-36 39-18 54-39l-7-5q-33 4-92 43 10-29 37-47 16-10 54-22.5T218 51l4-9q-54 0-103 28t-77 78q-3-2-8.5-12.5T27 117q14-49 43-68 46-30 127-38 67-4 135-9 114 36 170 70 100 59 100 140z"/><glyph glyph-name="T" unicode="T" horiz-adv-x="716" d="M680 724l-4-212q-12-19-45-19h-17q-12 1-17 1-15 0-25-4l-68-15q-2-86 14-200l32-194q-5-11-21-12h-27q-11-1-17-6L258 17q-6-3-12-3-17 0-26 18 21 100 41 200 22 116 27 206-43-1-127-27.5T29 383l-11 13q7 66 14 133 8 80 7 133 42 10 119 15 87 6 121 11l351 58q38 6 50-22zm-37-64q-2 11-13 31L73 616v-31l123-9q-19-13-60-12l-66 1v-31h148q-26-16-73-19H64v-25l178 16q-43-19-182-33v-42q41 15 125 36.5T310 503q24-7 31-37-5-59-36-199-27-124-29-201l30 12 6 86q5 50 23 77l6-6q-1-15-8-58-5-37-5-59 0-21 4-40 9-2 16-2 19 0 19 24 0 5-1 15t-1 15q0 23 13 31 12-6 12-22 0-6-2-19.5T386 99q0-6 1-12l37 7-12 233 6 9q13-37 18-118 6-86 15-122 29 2 56 18-17 127-58 376-7 35 9 38 12-1 26-1 26 0 69 5 53 6 68 7 13 11 13 20 0 4-4 9-33-10-39-10-14 0-23 10 7 14 40 16 29 2 28 21l-156-22v6q29 14 77 23 41 7 82 15 0 13-3 15-31-3-105-21-66-15-107-16-10-1-10 9 112 31 229 46z"/><glyph glyph-name="U" unicode="U" horiz-adv-x="643" d="M608 118q-18-26-59-45l-70-32Q357-3 258-3 130-3 63 72 9 132 9 224q0 59 22 139 6 19 42 127 2 6 58 211 80 19 167 9 18-10 18-27 0-6-3-11-24-71-48-143-28-86-28-149 0-28 5-56 29-20 67-8 37 44 44 141 1 23 11 120 8 73 8 120 0 37-4 70 12 3 71 9 44 5 68 17 50 2 50-32 0-13-8.5-44t-8.5-46q0-12 4-21 17-267 64-532zm-44 24q-28 106-37 288-11 242-18 295-1 10-12 10-20-1-18-1l-3-28q-1-11 4-30t5-27q0-11-6-20-17 14-23 44-1 8-4 55-2 0-20-7l7-185q-3-11-16-9-7 28-6 92 2 60-9 91l-15-244-14-100q-10-57-35-90-12 0-39-3t-39-3q-43 0-58 30-6 35-6 72 0 96 65 285l-29 6q-11-14-8-43-2-3-4-30-2-18-14-19-7 11-7 24 0 10 4 28t4 27q0 7-1 13-19 0-53-6-5-62-62-207-53-136-53-208 0-100 80-177 62-31 135-31 121 0 297 93zM183 644q-8-51-24-154 3 58 5 80 6 44 19 74zM307 91q-36-25-88-25-45 0-80.5 31.5T97 173q38-78 95-98 15-3 31-3 37 0 84 19zm-86 33q-50 3-90 22l4 7z"/><glyph glyph-name="V" unicode="V" horiz-adv-x="644" d="M662 727Q518 471 530 34l-16-16q-40 6-83 6-61 0-159-14Q154-6 114-9 74 47 74 158q0 17 1 50t1 49q0 43-5 73L19 690q47 26 121 51 63 21 125 41 20-8 20-27 0-7-5.5-28.5T277 693q4-94 15-182 25 67 49 134 25 78 26 143 18 0 42-8 21-6 41-13 55-1 109-1 63-2 103-17v-22zm-64-12q-4-1-8-1-5 0-12.5 2t-11.5 2q-7 0-12-9-7-46-14-91-10-52-32-82l-3 3q3 31 15.5 88.5T536 715q-6 12-37 12-17-9-18-38-2-41-4-46-1-1-6-9.5t-12-8.5q-7 12-7 25 0 12 8 38 7 23 5 36h-12q-26-79-44-246l-12-13-6 6q1 56 14 130 11 63 23 126l-22 4q-48-128-95-337l-15-18q-16-3-28 12-19 61-21 163-2 85-4 169-31 0-31-25 0-7 4.5-26.5T221 640q0-13-6-21-14 13-19 42-8 47-8 48-17-5-50-16-2-18 9-49t11-43q0-13-7-24-15 19-23 54-13 55-14 59l-7-5q3-35 16-120 13-75 13-118h-7q-8 30-21 115-12 74-25 112l-27-18q20-135 40-271 23-161 22-279-4-27 9-45t39-14q-7 59-12 182l10 5q8-26 11-69l4-72q4-15 7-30 5-20 17-20 6 0 16 6-13 65 0 99 10-14 16-40 4-22 8-43 2-11 13-11 6 0 18.5 4t15.5 4l9 222q10 24 21 24 1-33-4-95-6-67-6-97t4-57q1 3 5 3h8q1 20 3 40 2 26 17 31 6-7 7-20 1-8 0-25t0-23q11-2 31 3-9 13 6 34 16 3 16-14 0-20 6-23 9 3 36 3 24 0 34 7 26 261 36 328 28 183 79 312z"/><glyph glyph-name="W" unicode="W" horiz-adv-x="821" d="M799 765q-59-227-59-675-18-14-55-14-49 1-61-2t-50-26q-31-18-53-16l-59 97q-14-13-17-50-3-46-7-57-61 2-174-8T93 6Q64 32 64 79q0 14 3 42.5t3 42.5q0 21-4 37L37 697q23 3 105 22 66 16 110 16 15 0 29-1 26-23 28-77 2-66 10-84 6-35 18-89 18 10 33 36 13 22 26 45 31-5 47-41 22-50 30-58l9 9q8 80 17 161 10 97 31 156 44-27 115-27 60 0 119 18 16-4 21-5 12-5 14-13zm-56-41q-13 5-23 5-23 0-32-36-12-48-19-55-16 7-16 20 0 9 11 29.5t11 31.5q-44 0-50 2-1-20-3-40-2-24-15-37-8 10-8 24 0 10 5 28.5t6 27.5q-8 1-18-3-12-31-18-88-8-69-13-90-1-14 4.5-37t5.5-32q0-13-6-24-21 37-21 84 0 30 13 99 12 65 11 101h-7q-41-131-41-304 0-32 1-66-8-24-28-28-29 24-48 74-24 62-34 77-20-17-35-49-22-46-28-52.5t-14-6.5q-16 0-31 16-17 146-46 289-8-1-25.5 0t-26.5 0q-13-1-22-7 0-3 6-15.5t6-18.5q0-8-6-14-17 0-22 19-6 23-15 27-1-16 6-185l-6-9q-5-2-13 6l-12 181q-19-1-52-17l30-577q7-29 40-22-6 61-6 127t6 126q7 18 20 13-8-83-8-136 0-74 13-130 4-2 10-2 5 0 14 3t13 3l-12 123q4 13 13 13 2 0 3-1l15-123 9-12q22-3 22 12 0 4-2 15t-2 16q0 13 9 19 12-5 13-40 0-19 20-19 7 0 24 3.5t24 2.5l-4 44 8 86q6 51 29 70-1-22-7-76-5-49-5-77 0-25 3-47 11-1 31 3 4 19 16 52 6 12 6 29 0 9-2.5 27.5T415 203q0 32 29 38 27-26 51-75 30-61 42-76 6 8 6 17 0 6-4 19t-4 20q0 6 2 12 9 19 22 18-1 11-1-39 0-25 7-38 10 0 18 10v224l9 9q7-33 5-112 0-73 10-112l90 9q-1 237 46 597z"/><glyph glyph-name="X" unicode="X" horiz-adv-x="750" d="M714 148q4-39-33-39-6 0-19.5 1t-20.5 1q-17 0-26-6L471 49q-31 0-37 35-4 20-40 128Q264 85 209-39h-15Q150 7 91 90 19 191-6 221l9 16q105 80 246 226-28 43-87 120-63 82-89 120-1 15 14 24 13 6 26 13 85 11 225 70 8 2 14 2 36 0 47-32 4-12 7-68 3-45 19-62 30 18 74 66 48 52 73 70 28-5 60.5-47.5T692 690q19-16 19-33 0-18-32-50-33-35-36-52l-80-127q22-151 151-280zM368 721q-1 12-11 30-5-17 11-30zm281-560q-78 88-107 199l-24 34q-14 21-16 38l144 205 3 22q-6 6-12.5 13.5T621 678q-38-53-68-74-1 4-1 8 0 17 28.5 43t29.5 44l-17 17-18 8-114-118q-22-38-45-38-5 0-10 2-18 24-31 95l-16 22q-2 3-17 38-11 24-29 20 0-5 5-16t5-16q0-8-10-14-13 5-24 37-26-2-46-15 2-5 15-23 11-14 11-23 0-6-5-12-14-1-28 26t-26 27q-8 0-20-11 4-32 29-69 22-32 45-63l-6-6-40 30q-13 10-28 56-13 39-30 39-10 0-25-11 20-43 70-100l84-94q19-15 19-36 0-20-15-35-50-32-118-95L62 216q-5-17 11-22 14 10 54 47 33 30 54 39v-12l-95-86q-4-4-4-12 1-8 7-9 31 32 46 44 29 23 52 29-10-12-42-40-28-25-41-43 3-29 37-58 44 107 132 187-57-75-123-206 6-6 10-6 6 0 12.5 14T185 99q7-6 7-13 0-6-9-18.5T175 47l7-13q4-7 12-6 24 51 89 133 72 91 96 132 5 3 10 3 8 0 36-16l49-165q19 0 21 2-21 107-21 176l6 9q11 0 15-6-1-18-1-35 0-82 32-135l18 13-11 16q-10 34-10 38 0 13 10 19 6-16 12-31 8-19 18-30 10-6 23-6 6 0 63 16zm-70 542L476 540q5 38 41 84 61 77 62 79z"/><glyph glyph-name="Y" unicode="Y" horiz-adv-x="587" d="M608 731q-36-64-73-175-47-144-61-179l-44-92q-25-55-25-100 0-35 15-105.5T435-28q0-21-3-40-22 4-46 4-36 0-106-10T176-84q-15 0-30 1-6 27-6 55 0 48 20 117 29 100 32 114Q113 359-1 434q-11 15-11 28 0 19 39 43 44 26 52 47l111 133q27-8 29-45 4-53 8-61 18-51 42-83l9 4q36 49 81 132 59 110 73 135 17 14 39 14 13 0 40.5-8t42.5-8q17 0 32 8 24-26 24-33 0-5-2-9zm-73-13q-30-72-33-78-21-44-41-72l-7 5q5 18 30 74 20 44 20 73h-10q-24-42-52-111-43-108-46-113l-10 6q7 42 42 114.5T470 724q-41-48-97-152-59-109-95-156-34 28-61 85-39 82-46 94-13-6-13-15 0-6 10.5-20.5T179 537q0-3-2-6-12-4-22 10.5T137 555l-18-22q-2-8-2-15 0-21 18-43 5-6 36-37l-9-9q-21 7-40 32-13 21-27 41-6 0-8.5-5T82 487l104-123-5-7q-25 17-61 57-41 45-56 57-20-13-6-21 41-36 96-113 58-81 94-115-5-23-36-114-24-69-24-117 0-14 2-28 12-1 33 4 3 34 6 67 5 38 19 63 15 0 15-11-18-48-18-90 0-17 3-33l19-2q9 4 10 15.5T278-2q12 24 20 22l2-50 93 9-34 265q124 233 176 474z"/><glyph glyph-name="Z" unicode="Z" horiz-adv-x="813" d="M770 330q-2-15-22-86-15-55-15-89 0-47 24-83 0-22-22-24l-27 15Q490 47 457 42 316 24 222-20q-31-28-39-28-7 0-14 6-13 17-13 54 1 47-2 58l-16 67q-9 40-30 61l2 31q84 77 122 114 67 67 109 123-147-16-304-83-22 11-22 42 0 10 3 19 24 59 37 148l18 154q191 8 238 11 139 7 240 20 6-2 13-2 21 0 57 19.5t52 19.5q19 0 35-15l16-80q2-13 21-36.5t19-36.5q0-10-7-19-52-38-103-111-42-65-84-129-10-17-31-50l9-9q62 12 216 12zm-59-55v13l-114-5q-69-2-111-14-13 0-22 15-5 13-11 26 39 47 118 163 73 106 122 163 16 21 0 37-13-5-45-30-27-21-45-23 33 53 84 68 0 3-7 25-10 1-21 1-34 0-87-14-60-16-83-18 71 44 189 49l-13 19q-75-24-220-29-164-6-223-17-13-16-43-16h-23q-33 0-46-19 29-3 80 4 56 7 81 6l13-13q-27-5-72-7-60-4-73-5-33-7-33-33 0-7 4-14 70 15 99 7-13-12-43-14-47-4-49-4-24-12-18-50l98 24q59 14 102 10-71-16-210-55-17-36-18-74 70 28 171 51 88 20 176 39 24-20 22-41-40-58-126-142-109-107-136-138l-9-25 124 95h15q-18-25-55-53-31-23-62-45-14-18-14-28 0-3 1-6l40 34q4 1 13 10t14 9 10-7q-6-13-42-40-30-23-30-41 0-12 11-26l68 48 6-5q-8-15-34.5-34.5T200 70q65 22 78 22 9 0 17-2-14-14-47-23-40-11-52-17 0-12 4-18 96 36 242 54 127 15 254 29 1 7-3 19-32 3-65 3-91 0-194-28l-9 9q52 23 130 31 23 2 141 7v46l-154-26v7q76 33 160 37v33q-86-16-172-18 49 21 181 40zm-46 425l-161-55q88 44 161 55z"/><glyph glyph-name="backslash" unicode="\" horiz-adv-x="567" d="M7 684L420 35q9-2 17-2 24 0 59 19.5T553 74l1 10q-54 132-150 280-44 68-176 253-19 61-66 89-21 9-45 9-11 0-32-2.5T53 710q-21 0-40 7-9-18-9-20 0-6 3-13zm66-25q23-3 51-47l46-74q5 18-23 62-30 49-32 59 23-25 60-87 40-68 60-92l6 2q-17 45-104 180 6-1 16-2 169-215 362-544l-15-1-171 262-11 1q27-58 79-134 70-101 84-124l4-16q-15 5-46 53t-49 52l68-112q-6 2-14-2t-11-4q-6 0-15 10-38 63-177 278Q130 549 73 659z"/><glyph glyph-name="underscore" unicode="_" horiz-adv-x="517" d="M494 51q-3-15-5-18-4-10-13-13L29-7Q19 20 13 73q-6 61-12 83 48 30 121 40 43 5 134.5 5.5T392 208q35-5 53-35 9-15 22-62 12-42 27-60zm-49 19q-5 21-30 21-8 0-26-2.5T363 86t-14 2q12 16 41 18 35 2 42 6l-6 7-117-9-9 6q31 22 119 22 6 15-9 18-90 6-159 6-128 0-215-22l2-15q20 0 67 3 43 3 66 3 31 0 55-3-28-16-82-16h-25q-16 1-25 1-34 0-56-6 3-1 3-6-1-6 0-7-3 0 44 1 26 0 39-10-5-2-77-13 1-14 13-37 10 1 193 14 118 9 192 21z"/><glyph glyph-name="a" unicode="a" horiz-adv-x="831" d="M809 94Q674 61 517-41q-17-1-26.5 13.5T474 2q-9 68-15 101-10 55-25 96-46-76-70-211v-30q-1-19-13-24-23-3-50 16-33 24-43 27L64 103q1 12 16 26t18 20q50 226 62 295 29 168 24 306 29 14 86 19 77 6 93 9 81 15 243 46l19-24q11-127 69-315 74-241 88-308 2-10 16-37 12-23 12-36 0-5-1-10zm-62 31L579 756q-2 15-12 16h-23q2-20 12-75 8-46 8-73-19 21-27 70-9 56-20 75-19 0-19-17 0-5 2-15.5t2-15.5q0-10-6-13-16 20-20 51-34-8-121-17-80-8-121-19-3-130-36-317-53-292-54-303 2-3 6.5-4.5T157 94l99 235q4 1 11-7-18-61-86-222V70q15 13 25.5 56t27.5 58l6-7-34-123q36-36 105-61l46 154q28 89 58 151 7 3 15 3 21 0 35-16 14-43 31-131 17-92 30-133l62 31q-21 50-38 139-22 113-30 143l6 10q15-32 40-143 21-90 55-134l20 12q-10 31-38 154l9 9q11-23 23.5-76.5T661 88q53 13 86 37zM443 550q2-7 2-14 0-17-15-42-8-13-24-13 2 0-27 4-16 12-16 33 0 7 4 28 3 18 2 28 8 13 22 13 32 0 52-37zm-24-3q-5 9-29 9-18-7-15-33 1-11 12-11 18 1 19 0 13 5 13 35z"/><glyph glyph-name="b" unicode="b" horiz-adv-x="620" d="M555 287q12-62 12-113 0-119-64-184-58-57-149-57-53 0-134 21-63 17-127 34Q71 4 48 20 21 42 21 64q0 5 2 10 9 73 58 331 38 204 43 334 11 0 67 5 42 4 68 4 81 0 129-34l66-68q44-70 40-132-9-28-62-86 9-35 59-71 53-39 64-70zM500 52q32 82 32 142 0 64-36 102l-48 54q-31 30-62 29-23 11-28 49 7 9 19 9 76 64 76 115 0 10-3 21-59 116-135 130 0-43-13-50-11 8-8 26 4 22-1 29h-42q-3-7-3-37 1-23-12-30-14 9-14 31 0 7 1.5 19.5T225 708l-18-9q-1-19-9-70-8-45-8-71 0-15 2-28 0-6-6-9t-9 0q-5 18-5 40 0 20 6 66 7 43 5 66-3-3-22-6-11-93-47-309Q81 181 69 67q4-9 9-18 5-12 15-12 21 127 50 206 2-36-14.5-108T115 21h9q0 2 4 41 2 25 18 31 4-8 4-17t-4.5-26-4.5-25q0-7 2-13 12-1 35-12.5T215-12q7 0 14 2 12 63 19 94 13 51 30 89l6-7q-2-23-20-91-15-55-13-94 17-2 22 20 6 26 14 31 6-7 6-17 0-5-2-15t-2-15 2-10l119-3q55 30 90 80zM331 530q1-27-40-49-43 0-53 18-4 39-3 43 0 28 12 40 26 7 26-12 0-3-1-6 16-6 33.5-13.5T331 530zm98-375q4-37-19-62-8-7-21-7-16 0-31 10-18 29-18 48 0 10 3 20 8 0 28.5 7.5T402 179q21 0 27-24zM291 527l-25 3q2-7 4-13.5t8-6.5q3 0 6 2 7 4 7 15zm110-379q-9-2-28-13-1-3 2.5-8.5t3.5-6.5q15-4 22 28z"/><glyph glyph-name="c" unicode="c" horiz-adv-x="692" d="M664 171q-26-48-74-78-31-19-93-43-67-24-94-40-201 2-333 114Q0 199-1 304q0 77 41 187 35 88 70 175l48 68q30 37 66 46 170 4 275-104 74-96 67-169-62-27-129-121-22-3-43 40 1 4 1 8 0 16-19 27-7 1-13 1-26 0-55-26-27-40-27-72 0-49 42-73 13-1 25-1 113 0 215 87 26 3 34-15 4-9 5-38t10-39q1-2 23-51 13-30 29-48v-15zm-61 22l-216-80h-42q169 61 251 101 4 16-9 31-15-4-93-34-56-21-94-25l178 81q1 3-6 20-40-18-80-37-47-21-83-29l-36-10q-22-7-37-7t-28 6q0 1 6 11 144 15 234 82-128-64-219-58-39 3-74 53-15 43-15 80 0 27 9 48 13 35 45 57.5t69 23.5q20 1 43-13l34-24 6 9q-5 50-92 90-11 4-36 0-24-3-35 5 10 12 33 12 20 0 40 1 58-12 108-89h7q10 11 10 23 0 15-20 38-27 30-29.5 36.5T417 620t-12 28q0 7 4 13 68-75 101-134l13 11q4 39-37 101-45 49-115 73-49 17-134 26-29-11-55-46-21-30-41-59L75 465q-34-98-34-178 0-31 5-61 24-66 98-111 48-29 139-59 28-8 55-8 50 0 115 32 54 29 107 57 16 12 31.5 25.5T603 193zm-462-25q-34 14-42 60-5 39-10 79 15-75 15-77 12-44 37-62z"/><glyph glyph-name="d" unicode="d" horiz-adv-x="689" d="M623 233q-33-87-135-133-89-32-179-65-57-2-117-24-18 1-31 27-7 225-126 589-11 5-23 11T0 655q0 6 5 14 26 36 75 53 25 9 92 20 61 10 91 23 16 2 32 2 78 0 153-43 54-32 129-101 81-90 81-231 0-88-35-159zm-15 205q10 114-132 209-1 0-76 48-46 29-84 29-11 0-23-2 1 1 1-14 1-8-6-11-8 0-13 8-8 14-9 14-7 1-19-4 5-31 22-88l-9-11-6 7q-10 10-17 53-6 36-26 36-7 0-15-3 2-11 5-21 2-13-3-22h-6q-9 14-9 12 2 21-14 21-5 0-16.5-3t-15.5-3q4-11 17-74 9-46 29-69 3-4 3-9 0-13-16-13-38 64-55 156-11 2-25-6-18-10-24-12 42-108 81-294 50-240 67-300h9q1 9 1 18 0 17-5 45-7 35-8 45 0 15-3 44.5t-3 44.5q0 24 6 43 7 2 12-6 3-58 5-117 5-66 19-110h13q4 16-1 42-5 33-5 40 0 18 9 31l21-108q27 0 60 14 27 11 55 23l-18 246 5 20q2 0 13-7 2-65 5-130 5-74 23-120-5 40-5 46 0 30 14 44 4-10 7-41 2-27 11-39l31 14q18 9 28 20 15 127 15 169 0 32-4 62l7 9q16-32 16-76 0-21-7-76-5-48-3-73 19 9 21 40 2 36 10 46 5-3 8-10 4-10 5-12 30 54 27 185zm-249 44q2-46-35-65-7-1-14-1-39 0-44 32-1 9-1 18 0 52 35 71 25-1 59-55zm-35 0q-3 14-27 11l-4-36q3-14 16-9 13 14 15 34z"/><glyph glyph-name="e" unicode="e" d="M624 781l-36-240q-6-2-12-2-11 0-28 10-20 12-28 14-20 1-73 12-48 9-74 9-43 0-71-21 16-21 54-21 9 0 29.5 1.5T416 545q46 0 58-37 4-19 4-38 0-27-8-63l-14-60q-20-18-50-18-14 0-46.5 6.5T311 341q-8-18-7-27 94-31 179-31 46 0 86 9 11-7 24-24-12-49-12-130 0-66 1-132-54 18-132 18-22 0-66.5-1.5T317 21q-67 0-114 12L55 57 34 79l40 362q24 217 58 356 66-3 179 7 123 12 175 12 65 0 120-10zm-77-554q0 9-11 12-10 2-18-2zm26 502l-4 30q-51 7-112 7-48 0-139-6-95-5-139-6-6-8-12.5-29T150 695Q96 339 91 104l7-9q83-28 216-33 114-2 228-5l-4 53q-20 3-71 3-45-1-70 6 23 11 71 10 57-1 74 3l-4 43q-79 2-154 16v5q23 6 54 6 18 0 54.5-3t54.5-3v6q-40 23-116 27-109 5-124 8 11 12 32 14 18 1 36 1-13 7-69 10-44 2-57 26 5 13 6 46.5t6 46.5q9 21 34 22 19-18 53-23l62-4q10 11 18 46 4 0-58-1-34 0-53 10 19 10 57 9 46-1 60 2v11q-14 6-40 6h-42q-18 1-30 5 19 10 52 10 60-1 56-1v22q-74 3-96 7-54 10-85 42-1 8-1 16 0 35 26 61 32 10 68 10 35 0 103-14t102-14l10 6q-3 14-21 20-16 3-30 7t-57 3q-36 0-52 13 26 9 63 9 9 0 102-9v25l-143 3-9 6q23 16 59 16 15 0 49-4t51-3v16l-212 12q42 17 104 17 52 0 112-11zm-35-584l-258 11 231-6z"/><glyph glyph-name="f" unicode="f" horiz-adv-x="591" d="M551 493l-9-9H379q-16-14-16-32 0-7 3-14 12-10 31-10 9 0 27 3.5t26 3.5q24 0 37-21l6-154q-14-10-41-20-32-12-42-17 3-66 6-85 7-47 31-76 3-7 3-12 0-11-16-14-22-5-24-7L260 11Q171 0 114-15q-10 3-20.5 6.5T77 4q-3 38-12 341-6 207-32 333-10 10-9 32 0 39 1 36 7 7 17 7 6 0 19-3.5t19-3.5q78 20 192 28 100 4 199 9 23-2 45-5 26-6 35-25-9-42-9-96 0-32 3-82 5-68 6-82zm-43 219v12l-6 7q-28 0-87 2t-89 2q-100 0-163-17-10-4-54-7-35-2-47-20 24-118 34-325 12-253 21-331h18v141l6 9q2 1 9-6l4-113 4-20q3-11 14-8 7-1 7 13-5 5-2 14 3 8 11 10 3-10 8-31l88 9q0 12-3.5 36.5T277 125q0 23 12 39 3-10 13-86 3-24 17-24 3 0 7 2l-2 13q4 5 15 12 1-18 17-18 5 0 18.5 3t19.5 3q-19 132-43 193 8 13 22 13 5 0 17-2.5t19-2.5q15 0 32 11.5t17 25.5q0 7-5 14-42 7-90 7-47 0-89-7l-6 7q34 11 90 14 48 0 95 1l-6 21H311l-9 6q22 14 68 13 59 0 73 3-29 0-59 1-33 3-51 18-10 16-10 37 0 16 6 42 9 34 10 40l166 3v37q-36 6-80 6-20 0-145-9l-9 7q39 18 112 21 61 1 122 3l-7 68-183 3q35 12 93 15 48 1 97 3v6q-41 13-95 13-33 0-95-6t-90-7v4q77 27 181 27 50 0 102-6z"/><glyph glyph-name="g" unicode="g" horiz-adv-x="663" d="M601 666q-1-12-1-26 0-15 2-45t2-45q0-38-12-63-102-6-191-56-19-1-32.5 26.5T337 484q-69-69-69-176 0-58 23-108 21-21 29-21 7 0 13 6 18 19 37 38 18 23 18 45-7 7-26 6.5t-25 2.5q-28 32-28 85 0 24 6 49 30 4 114 7 74 2 113 11 21 2 38-9.5t17-30.5q1-23 3-75t2-79q0-111-32-178-24-35-73-59-44-19-87-38-47-6-88-6Q114-46 34 96q-9 41-9 85 0 64 22 166 26 123 30 165 20 56 40 111 28 68 63 102 45 44 111 43 70 18 119 18 66 0 105-31 48-38 49-39 28-25 37-50zm-37-15l-68 70q-35 22-84 22-33 0-80-10l-76-18q-56-27-90-93-15-29-45-123-2-44-25-149-22-98-22-151 0-78 37-137 43-49 126-57 74 0 149-1 82 39 91 44 51 31 69 75-2 33 6 90 9 62 9 87 0 43-15 76-13 1-35-2 10-40 10-36 0-12-12-17-9 7-13.5 26T484 374q-7 1-19-4 2-11 14-54 9-33 8-54-14-9-13-9-8 19-17 60t-16 61q-3-1-40 0-24 0-37-7-5-12-5-20 0-17 34-25.5t39-31.5q10-14 10-32 0-16-8-36-24-29-49-57-32-33-64-33-7 0-15 2-34 12-62 64-22 53-22 113 0 130 89 226 7 3 15 3 7 0 21.5-5t23-5 21.5-13.5 21-13.5q5 0 10 3 6 32-31 64-5 8-30 17-19 7-16 20 38 6 88-52 6-7 8.5-26t11.5-23q2 12-6.5 35t-8.5 33 4 18q27-31 35-71 20-10 27 3 5 65-49 117l7 6q12 1 26-13 10-12 20.5-22.5T522 566q2-31 20-36 25 31 25 83 0 18-3 38zM284 35q-83-9-114 15-56 33-49 99 4-49 40-81 50-35 99-35 12 0 24 2zm-68 33q-4-2-8-2-5 0-32 18-20 23-15 52 11-20 21-40 14-22 34-28z"/><glyph glyph-name="h" unicode="h" horiz-adv-x="745" d="M699 669q7-10 7-22t-11-39-9-44q-37-338-42-539Q593 8 504 3 378-4 362-6l-15 20q2 12 9 98 6 60 15 95-14 12-51 3l-10-9q-7-37-6-105 1-73-3-104-32 1-101.5 12.5T91 16q-21 0-42-2-7 7-19 24 1 35 13 246 9 151 9 248 0 108-9 199 15 11 49 14 52 3 55 4 28 8 111 22 70 11 108 28 28 4 40-19-7-78-15-155-10-89-29-149 4-13 31-13 26 87 37 131 18 75 25 137 8 8 16 8 9 0 26-15.5t26-16.5q58-13 176-38zm-40-52q-5 22-36 26-26 2-51 5 1-19-1-46-4-38-4-44l-6-18-14-9q-6 16-6 35 0 16 6 47.5t7 46.5h-7q-13-30-24-107-10-71-28-106-4-1-12 7 14 38 23 106 11 84 17 109l-28 7-49-173q-5-10-5-28v-16q1-11 1-16 0-37-29-38-6 4-60 20-36 11-39 44 25 53 35 132 3 24 11 142h-35q-3-31-5-38-5-20-19-29-5 8-1 29.5t-2 31.5q-17 5-28 5-31 0-31-44v-19q0-37-15-49-11 40-9 92-34-4-84-19-18-132-9-256h-6q-13 46-12 125 0 125 1 124l-22-5-3-631 21 2q1 14 1 30 0 13-1 37.5t-1 36.5q0 54 26 81-8-53-8-98 0-53 11-96h6l-1 51q0 32 13 44 4-52 15-97h13v82q3 47 22 72l6-7q-10-34-10-78 0-33 6-80 50-6 62 7l9 194 19 19q33-3 67-5 37-6 59-23 1-32-12-94.5T393 40q7-2 13-2 17 0 20 28 5 38 7 43 14-7 14-31-1-39-1-38h9q2 12 13 134 4 15 15 12 6-17 6-38 0-13-4-40.5T481 66q0-12 2-22h16l-1 48q-1 28 16 38 1-4 3-50 1-22 8-33 10-4 17-4 12 0 15 16v26q1 21 12 24 10-7 10-22-1-29-1-27h13q24 106 41 275 26 271 27 282zm-506-55h-2v141q0-49 2-141z"/><glyph glyph-name="i" unicode="i" horiz-adv-x="411" d="M330 650q-20-38-55-66-38-30-78-36-47-6-88 62-6 15-6 31 0 17 8.5 47.5T120 734q0 12-5 24-3 16 16 30 17 10 33 19t32 9q29 0 63-30 27-25 55-49 19-17 19-51 0-14-3-36zm25-108q0-64-14.5-193T326 155q0-76 14-139L324 4q-41 6-94 6-32 0-96-3T38 4L28 20q23 98 45 197 26 116 32 203 2 8-3.5 22.5T96 462q0 9 6 16 5 2 110 36 66 22 106 47 34 3 37-19zm-59 158q-30 66-101 61-44-45-53-83-3-32-3-37 0-35 21-49 34-11 41 0l-28 27q0 2-3 9t-3 10q0 6 6 9 9 0 14.5-8.5T197 623q8-6 17-12.5t15-6.5q4 0 8 3-31 40-27 68 16-3 26-25t23-27q41 30 37 77zm9-204q-45-5-95-27 0-25-13-71-22 18-11 62-13-9-13-40v-14q1-9 1-13 0-37-19-45l3 96q-6 2-13-6-5-67-30-195.5T84 47q13 0 18 3 3 30 6 59 5 33 21 49 0-10-2.5-36T124 82q0-21 5-35l7 6q1 8-3 22 3 19 16 19 3 0 6-1 6-4 6-9 0-3-2-9.5t-2-9.5 1-6q10-13 59-6 0 63 1 77 5 45 26 71l6-7q-16-83-13-144 12 0 14.5 20T265 93q4-4 7-24 3-16 15-16-2 27-2 56 0 55 12 161t12 158q0 36-4 68z"/><glyph glyph-name="j" unicode="j" horiz-adv-x="805" d="M768 445q-31-2-62-5-37-2-59-11 1-38 25.5-121.5T697 182q0-63-41-110Q558-40 360-40q-51 0-113 7Q170-2 143 78q-15 45-21 159-6 110-25 159 0 9 18 15 94-23 237-37 16-11 6-40-10 0-10-10 0-33 44-80h13q24 35 49 70 27 43 27 77 0 24-12 47-32 10-67 10-78 0-167-47l-15 15q-19 110-19 191 0 35 3 69 62 25 185 27 142 2 190 13 16-5 39-5 10 0 29.5 1t28.5 1q63 0 79-46-1-18-1-36 0-37 5-94 8-83 9-92zm-46 48l-7 56h-86q14 16 41 20 24 3 48 5-3 3-3 8 1 9 0 10l-156-9-11 7q33 14 83 19 43 2 87 5-3 1-3 9-155 3-222-24l-6 6q43 24 107 33 35 4 117 7 3 6-1 12.5t-8 11.5l-116 7q-46-11-180-13-116-2-175-27 4-22 28-22 6 0 20.5 2t21.5 2q19 0 29-10-17-7-92-16-1-13 2-37 26 10 90 4-8-15-50-16-37 0-37-18 0-8 4-19 38 8 114 22l6-6q-16-14-56-20-45-6-60-15 0-20 9-24 88 25 142 25t91-21q36-39 36-85 0-19-8-36-24-59-39-84-29-45-68-64-67 19-117 141h-16q-1-3-1-6 0-7 7-18t7-17q0-7-7-14-21 12-21 31-4 10-9 21.5T244 348q-4 0-9-2-1-16 7-39 10-29 11-38l-5.5-5.5-9.5-3.5q-5 4-13 15-3 7-6 45-3 29-18 35l15-150q1-6 9-16t8-15-4-9q-28 23-37 66-2 9-7 78-2 3-3 31-1 20-14 20-4 0-10-1 7-35 7-92 0-9-1-27v-26q0-74 12-115 16-58 62-92Q298-6 356-6q182 0 276 121 26 33 26 84 0 57-33 131-5 13-9 55-3 35-17 51-9 20-9 30 0 17 17 21 17-12 39-12 13 0 76 18zM599 161l-29-53-31-33zm-62-37l-50-46-43-21z"/><glyph glyph-name="k" unicode="k" horiz-adv-x="717" d="M693 245q-1-27-23-61-27-42-32-56l-32-74q-19-44-43-65-16 0-29 19-17 25-26 30-85 67-100 79-56 48-90 93-2-39 7-108 11-78 11-108-43 3-121-4-89-9-124-9t-65 4Q13 4 13 34q0 14 3.5 43.5T19 122l58 621q8 11 31 10 27 0 34 3 76 4 172 52 29-2 40-24l-31-195 22 4 213 125q31-8 43-38 6-13 14-59 7-39 20-57 26-45 25-68-76-27-167-106 30-44 94-82 53-32 106-63zm-55-16q-46 27-161 120-1 0-26 8-15 4-22 17-9 27 2 40l170 111v12q-24-4-69-33-41-27-66-28 29 27 128 79-1 11-3.5 23T579 595q-28-10-65-36-30-22-61-43 8 32 49 57 34 21 68 41 7 6 7 16 0 15-14 27-100-36-174-89-15-7-52-45-29-30-56-32-16 14-22 31 4 25 30 111 20 68 19 116-30-2-58-18v-32q-1-18-15-23-10 7-10 19 0 5 2 17.5t1 18.5q-35 0-36-40-2-51-12-61-11 14-11 43 1 43 0 45-4 0-11-6l-7-187q-7-15-15-13-8 34-5 98 4 69-1 99l-9-9Q60 363 60 109q0-39 2-77 19-14 30-7l4 176h7q13-29 12-88-1-66 6-90l9 2 3 88q14-11 17-40 4-39 8-48h9q0 49 2 145 1 1 5 18 2 11 11 11 2-53 13-154-2-11 8-13 9-1 16 4l-6 70q0 6 5 8l10 4q8-14 11-40l4-42 41 5q-8 132-28 246l7 19q29 4 46-19 94-156 236-233 1 3 7.5 12.5T562 81q0 2-1.5 3.5T503 121q-35 21-35 49 37-31 111-68l6 11q2 4 2 9 0 13-22 23-31 12-35 16-27 17-38 26-21 18-24 36h13q54-58 120-75 10 20 22 41.5t15 39.5zm-77 403q-49-23-172-120 66 75 172 120zm43-449q-5-3-11-3-5 0-35 15v10q14-9 46-22z"/><glyph glyph-name="l" unicode="l" horiz-adv-x="575" d="M556 120q-3-14-18.5-20T508 90Q370 52 85 4L61 34q7 298 7 290 0 242-47 391 61 7 130 39 25 12 119 63 5 2 11 2 32 0 38-32 1-19 0-195-1-118 9-194 28-6 57-6 62 0 103 27 34 8 40-21-2-22-2-45 0-50 11-117 10-58 19-116zm-52 31q-67-3-154-40l-7 7q52 33 161 55-1 9-7 22l-220-59-11 10q39 20 117 37 83 18 118 34-3 7-3 26t-3 26q-29 1-67-12-61-22-63-22l-6 6q57 36 133 46 2 7-4 16-57-8-156-44l-7 6q29 23 82 37 82 20 88 22v20q0 12-7 18-26-10-68-10h-28q-50-1-79-16-22 2-34 37 1-14 1 195 0 114-10 190-5 2-9 2-9 0-21-6-17-8-20-9 1-28 14-94 11-61 11-94 0-43-15-78l-6 6q-3 65-5 130-5 74-23 121-4-3-7-2-59 3-59-35 0-13 8.5-45t8.5-48q0-15-6-26-5-2-10 3.5t-6 5.5q0 59-22 114-3-4-5-4 8-60 31-178l-6-7q-5-1-20 11L76 690H64q29-123 38-313 7-162 14-323 68 3 151 21 17 4 144 36 13 9 50 16 30 5 43 24z"/><glyph glyph-name="m" unicode="m" horiz-adv-x="774" d="M759 130q-1-25-27-30-22-1-45-2-13 0-20-3L513 40q-18 2-25 18-5 100-40 219-8-7-22-48-11-32-31-32-8 0-17 3l-59 49-7-9q-2-48 4-129 7-89 7-124-8-3-16-3-11 0-30 7.5T248 0L30-15Q9-2 9 19q0 14 13 42.5T36 101q18 119 25 284 4 144 9 289 1 32 42 46 55 19 66 31l92 65q36-5 40-34l33-135q1-1 3-1 9 0 12.5 13t3.5 49q-1 31 9 49 12-2 24-2 53 0 109 36 25-1 36-20 7-11 12-41t11-41q42-79 91-283 45-187 105-276zm-62 20q-37 82-91 292-50 191-102 287h-18q-2-5-2-11t4-18.5 4-18.5q0-9-6-16l-13 9q-6 5-9 28-3 20-14 20-3 0-8-2 14-122 6-178h-2q-12 29-16 83-5 65-10 86-18-31-27-80-6-14-6-37v-16q1-11 1-16 0-35-17-51-5-4-11-4-7 0-28 17-12 43-24 87-14 52-16 91l-22 49q-18 0-16-21 3-28 1-32-15-4-20 11-7 19-9 20-28-13-28-52 0-12 3.5-37t3.5-36q0-13-3-23-18 16-23 54-3 32-5 63l-16-11q-6-46-6-90 0-45 6-89 0-5-6-8.5t-9-1.5q-11 31-10 81 1 77 1 83l-12-10-12-5Q99 397 95 335 85 160 67 31h31q3 104 51 249l7-9q-2-15-21-99-13-60-13-100 0-20 3-39h9q8 10 9 32v34q2 26 19 36 1-32 3-95h34q-6 27-6 54 0 59 27 93 0-13-3-43-3-33-3-49 0-33 10-55l52 2q0 204-12 288l9 11q32 3 59-34 33-45 48-52l62 148q11 2 21-6t19-16q1-60 18-143 14-70 28-139 11-4 15 5-24 89-24 116t9 48q18-111 41-160h9q1 10-7.5 31.5T562 172q0 13 10 24 9-7 14.5-36.5T605 119h12q7 0 10 7-14 41-27 83-15 49-13 86h3q29-89 65-160z"/><glyph glyph-name="n" unicode="n" horiz-adv-x="763" d="M721 204q-1-23-30-24-36-2-43-10-103-50-163-102-4 4-11 4h-11q-28 54-93 160-10-55-10-129 0-4 4-130Q247-12 16 25 4 38 4 53q0 13 10 36.5T25 124q22 198 22 332 0 92-9 170 32 22 121 60 80 35 119 68 6 2 12 2 29 0 43-32 2-20 3-25 2-13 10-22 19 96 15 154l7 4q79-12 144-12 46 0 86 6 10-5 25-22 11-258 18-313 20-176 80-290zm-62 22q-38 100-53 267-26 276-26 281l-38 2-2-117-9-9q-2-6-6-6-6 0-10 13l3 119q-17 1-49-2-3-8-3-33 0-21-10-29-16 9-15 34v39h-12q-1-13-9-72-7-45-7-73 0-41 13-73-1 0-3.5-3.5T417 561q-22 33-22 84 0 23 6 70t7 68q-2-28-11-93-9-60-9-94 0-41 11-75l-7-7q-12-12-25-12-7 0-12 3-10 22-30 96-17 61-38 92-113-42-212-102 6-90 6-177 0-182-25-349l9-9q8-1 22 3l22 169 12 13 6-6-21-179q6-13 29-13 30 0 35-2 2 53 18 128 28 123 28 125l18 15q-3-34-21-118-17-74-17-118 0-19 2-36l47-3q2 76 27 108l6-6q-11-46-9-102 4-21 29-21 9 0 17 3l9 203q4 19-1 48-6 37-6 45 0 19 10 33 18 4 31-9 37-71 123-203l46 27q-6 12-36 73-22 44-33 73-15 41-20 76h9q13-46 45-106 29-52 57-103l9 6-18 31q-13 22-13 43 0 11 4 19 16-9 22.5-35.5T571 201q4-10 12-10 5 0 25 10-23 63-50 221 0 9 9 9 12-56 25-112 16-65 40-106 12 2 27 13zM146 111q-1-2 0-32 1-21-9-27-4 29 9 59z"/><glyph glyph-name="o" unicode="o" horiz-adv-x="666" d="M610 202Q596 80 518 39 446 0 341 0q-91 0-212 30Q24 126 24 301q0 44 7 92 11 68 56 154 39 72 79 145 36 43 98 43 24 0 73-8t73-8q20 0 36 4 51-18 65-55 54-83 73-224zm-50-9l-16 248q-18 139-83 220l-39 15q-22-1-62 2-48 3-65 3-70 0-104-33-35-63-69-126-38-74-48-136-9-53-9-100 0-139 77-204-9 47 2 68 11-9 13-59 1-18 31-28l-9 53q14-7 17.5-24.5T203 58q23 0 68.5-3t68.5-3q37 0 66 6 46 82 55 233 16-30 16-69 0-51-43-159 22 2 36 27 10 23 20 45 6-7 6-16 0-6-3-17.5T490 85l12 9 10 54q5 32 17 51 7-12 7-27 0-13-6-33-9-29-10-32 33 28 40 86zM360 415q1-33-46-71-15-9-40 5l-6 7q-18-13-47-45t-46-44q9 21 38 50 25 24 49 48-2 5-10 15l-55-24q9 17 46 34-3 57 25 80 74-13 92-55zm-46-13q2 8-8 11-16 4-17 4-6-4-6-12 0-14 13-19z"/><glyph glyph-name="p" unicode="p" d="M612 659q15-43 15-90 0-125-92-222-30-26-90-45-73-23-95-35l53-233q-17-17-54-16h-60q-64-9-203-4-11 13-11 32 0 7 2 20.5T80 86Q64 196 56 372 44 639 42 659q99 118 307 118 53 0 113-8 123-32 150-110zm-33-28l-62 74q-73 31-159 31-161 0-266-96 0-238 2-282 4-158 25-272 6-31 26-25v12q1 11 1 22 0 21-5 63t-5 62q0 43 18 72 1-8 4-113 3-71 14-112 0 9-2 28t-2 28q0 28 17 43 3-46 5-57 5-32 19-51 9-1 25 3l-9 179q2 23 5 45 5 27 22 26-13-50-13-107 0-79 23-139 15 0 18 6 0 7-3 9-11 51 12 71 9-10 9-30v-21q0-27 19-35 3 2 18 2 12 0 15 9-8 102-61 222l24 35q15-2 29-2 77 0 166 60 74 87 74 195 0 22-3 45zm-90-38q-11 8-18 45-5 31-31 36-5 1-21 8-12 5-22 5-4 0-9-1 8 6 20 6 16 0 54-18 29-34 29-65 0-8-2-16zm-110-48q1-6 1-12 0-27-26-53-31-24-62-24-9 0-19 3-28 13-30 61-1 21 13.5 40.5T293 588q70-3 86-43zm-44-13q-4 7-15 7-24 0-18-1-23-10-20-31 2-3 20-6 3 4 19 13 13 7 14 18z"/><glyph glyph-name="q" unicode="q" horiz-adv-x="723" d="M678 202q-62-79-81-157-24 0-58 6-55 9-56 9-24-53-99-60-63-1-126-1-43 0-85 1-49 4-63 48-78 117-78 311 0 83 14 181 8 56 44 104.5t88 67.5q43 6 85 12 55 7 91 7 120 0 166-80 36-64 46-174 6-95 13-189 8-8 61-28 39-14 39-43 0-7-1-15zm-59 9l-52 22q-30 14-43 37-5 12-5 22 0 18 16 26-2 178-31 282-20 45-63.5 67.5T344 686q-23-7-74.5-12.5T194 660q-38-14-59-45-64-96-64-244 0-125 43-240 16-28 31-55 21-36 48-36 13 0 29 8-67 63-67 176 0 38 8 79 8-155 79-255h16q-35 41-35 95 0 18 4 34l9-9q10-67 46-120h66q6 26 12 108 5 68 19 105 9-38 9-84 0-61-16-126h18v23q0 14 7 20 5-7 8-21 4-21 4-22l18 12q9 14 9 62 56-4 130-34l15 34-64 34q-11 15-11 16 0 3 2 5 13-14 44-19 35-6 45-12l4 10q-10 9-47 17-30 6-37 29 18 3 46-9 35-14 47-16 11 13 9 31zM409 549l-28-24q13-24 13-46 0-16-7-30t-22.5-19.5T335 420l-37 15-25-27 25 34-12 12-59-39q5 15 36 39 28 21 28 44 0 8-2 18 11 28 34 31 12-6 20-6 13 0 26.5 26.5T403 593q-41-35-40-53 5-7 11-7 4 0 16 9t19 7zm-55-57q-5 6-12 6-18 0-22-22 3-6 19-6 7 6 15 22z"/><glyph glyph-name="r" unicode="r" horiz-adv-x="668" d="M644 275q-54-29-102-99L462 63h-15q-27 22-61 69-37 51-56 69 1-20 7-74 6-48 6-77 0-26-4-49L327-9Q278 2 200 2 78 1 72 1q-2-11-2 51 0 29 17 42-3 62 0 187t0 186q-4 104-25 184-4 3-27 10-17 5-20 20 17 31 63 54l76 39q63 18 132 18 147 0 262-73 48-37 53-118 1-9 1-17 0-46-48-89-41-35-83-69 22-40 72-67 44-21 89-41 15-7 15-29 0-8-3-14zm-74 19q-92 35-157 128-8 12-8 25 0 15 11 25 29 5 60 27 6 4 54 44 28 31 28 76 0 16-3 32-7 15-26 29-31 22-32 23-88 43-194 43-135 0-213-74 33-112 36-304 4-280 8-315h11l15 133q3 3 8 22 3 13 14 14 1-20-6-60.5t-7-60.5q0-24 7-45 1 2 8 50 5 30 25 34-2-27-9-81 3-10 16-10 23 1 21 1 6 147 22 216l12-13-3-203q-5-1 19-1 11 0 15 7 3 49-9 122-14 89-16 118-2 12 8.5 18.5T306 318q19-22 65-97 37-62 76-91l9 10q-22 27-45 54-25 33-28 59 16-12 42-41 29-33 44-45 2-4 5-4t8 5 8 5q4 8 4 15 0 12-19 27-24 18-28 26-2 4-9 17-7 10-7 16 0 5 4 10 5-4 36-40 23-26 44-25zM312 558q-8-56-44-70-15-4-27-4-37 0-50 28-2 8-2 15 0 35 40 65 7 1 13 1 37 0 70-35zm-37-6q-7 9-16 9-6 0-34-25-4-5-4-9 0-9 19-12 16 10 22 15 12 11 13 22z"/><glyph glyph-name="s" unicode="s" horiz-adv-x="691" d="M640 242q3-14 3-29 0-93-102-173-97-78-252-78-76 0-160 19-42 9-82 49-2 2-65 76l-7 26q35 55 70 111 42 63 81 107 23-49 59-74 36-10 67-10 54 0 80 29 19 20 19 41 0 9-3 17-25 39-91 59-94 28-103 32-50 27-53 91-3 62 46 119 43 51 106 77 72 19 139 19 147 0 214-92 24-34 24-54 0-14-9-27l-98-128q-24 10-53 34-24 22-48 43-3 1-7 1-7 0-14-7-12-12-14-13 6-27 37-49 26-17 53-35 59-7 101-70 31-55 62-111zm-38-30q0 34-32 95-25 46-98 80-80 38-106 70.5T340 522q0 7 1 13 14 30 44 42 12 6 23 6 25 0 51-32 21-25 43-51 10 9 12 22l-65 66q-15 21-15 23 0 6 9 10l46-42q28-26 50-35-3 6-21 23-15 13-14 26 6 5 12 5 8 0 21-15t17-17q16 11 16 23 0 13-23.5 36.5T520 661q5 4 11 4 11 0 26.5-19t21.5-22l6 6q-56 86-222 81-69-2-129.5-43T147 562q-3-12-3-24 0-33 21-55 15-9 106-39 64-21 95-60 26-34 26-67 0-13-5-26-39-50-73-61-22-8-46-8-68 0-133 58 2-5 16-14 11-8 12-17-7-7-14-7-6 0-17 6t-16 6q-19 0-19-16 0-7 12-19t14-16q4-10 26-18t22-17q0-7-6-15-19 3-45 25-33 26-43 31-7-9-16-28 15-18 57-36 39-18 54-39l-7-5q-33 4-92 43 10-29 37-47 16-10 54-22.5T218 51l4-9q-54 0-103 28t-77 78q-3-2-8.5-12.5T27 117q14-49 43-68 46-30 127-38 67-4 135-9 114 36 170 70 100 59 100 140z"/><glyph glyph-name="t" unicode="t" horiz-adv-x="716" d="M680 724l-4-212q-12-19-45-19h-17q-12 1-17 1-15 0-25-4l-68-15q-2-86 14-200l32-194q-5-11-21-12h-27q-11-1-17-6L258 17q-6-3-12-3-17 0-26 18 21 100 41 200 22 116 27 206-43-1-127-27.5T29 383l-11 13q7 66 14 133 8 80 7 133 42 10 119 15 87 6 121 11l351 58q38 6 50-22zm-37-64q-2 11-13 31L73 616v-31l123-9q-19-13-60-12l-66 1v-31h148q-26-16-73-19H64v-25l178 16q-43-19-182-33v-42q41 15 125 36.5T310 503q24-7 31-37-5-59-36-199-27-124-29-201l30 12 6 86q5 50 23 77l6-6q-1-15-8-58-5-37-5-59 0-21 4-40 9-2 16-2 19 0 19 24 0 5-1 15t-1 15q0 23 13 31 12-6 12-22 0-6-2-19.5T386 99q0-6 1-12l37 7-12 233 6 9q13-37 18-118 6-86 15-122 29 2 56 18-17 127-58 376-7 35 9 38 12-1 26-1 26 0 69 5 53 6 68 7 13 11 13 20 0 4-4 9-33-10-39-10-14 0-23 10 7 14 40 16 29 2 28 21l-156-22v6q29 14 77 23 41 7 82 15 0 13-3 15-31-3-105-21-66-15-107-16-10-1-10 9 112 31 229 46z"/><glyph glyph-name="u" unicode="u" horiz-adv-x="643" d="M608 118q-18-26-59-45l-70-32Q357-3 258-3 130-3 63 72 9 132 9 224q0 59 22 139 6 19 42 127 2 6 58 211 80 19 167 9 18-10 18-27 0-6-3-11-24-71-48-143-28-86-28-149 0-28 5-56 29-20 67-8 37 44 44 141 1 23 11 120 8 73 8 120 0 37-4 70 12 3 71 9 44 5 68 17 50 2 50-32 0-13-8.5-44t-8.5-46q0-12 4-21 17-267 64-532zm-44 24q-28 106-37 288-11 242-18 295-1 10-12 10-20-1-18-1l-3-28q-1-11 4-30t5-27q0-11-6-20-17 14-23 44-1 8-4 55-2 0-20-7l7-185q-3-11-16-9-7 28-6 92 2 60-9 91l-15-244-14-100q-10-57-35-90-12 0-39-3t-39-3q-43 0-58 30-6 35-6 72 0 96 65 285l-29 6q-11-14-8-43-2-3-4-30-2-18-14-19-7 11-7 24 0 10 4 28t4 27q0 7-1 13-19 0-53-6-5-62-62-207-53-136-53-208 0-100 80-177 62-31 135-31 121 0 297 93zM183 644q-8-51-24-154 3 58 5 80 6 44 19 74zM307 91q-36-25-88-25-45 0-80.5 31.5T97 173q38-78 95-98 15-3 31-3 37 0 84 19zm-86 33q-50 3-90 22l4 7z"/><glyph glyph-name="v" unicode="v" horiz-adv-x="644" d="M662 727Q518 471 530 34l-16-16q-40 6-83 6-61 0-159-14Q154-6 114-9 74 47 74 158q0 17 1 50t1 49q0 43-5 73L19 690q47 26 121 51 63 21 125 41 20-8 20-27 0-7-5.5-28.5T277 693q4-94 15-182 25 67 49 134 25 78 26 143 18 0 42-8 21-6 41-13 55-1 109-1 63-2 103-17v-22zm-64-12q-4-1-8-1-5 0-12.5 2t-11.5 2q-7 0-12-9-7-46-14-91-10-52-32-82l-3 3q3 31 15.5 88.5T536 715q-6 12-37 12-17-9-18-38-2-41-4-46-1-1-6-9.5t-12-8.5q-7 12-7 25 0 12 8 38 7 23 5 36h-12q-26-79-44-246l-12-13-6 6q1 56 14 130 11 63 23 126l-22 4q-48-128-95-337l-15-18q-16-3-28 12-19 61-21 163-2 85-4 169-31 0-31-25 0-7 4.5-26.5T221 640q0-13-6-21-14 13-19 42-8 47-8 48-17-5-50-16-2-18 9-49t11-43q0-13-7-24-15 19-23 54-13 55-14 59l-7-5q3-35 16-120 13-75 13-118h-7q-8 30-21 115-12 74-25 112l-27-18q20-135 40-271 23-161 22-279-4-27 9-45t39-14q-7 59-12 182l10 5q8-26 11-69l4-72q4-15 7-30 5-20 17-20 6 0 16 6-13 65 0 99 10-14 16-40 4-22 8-43 2-11 13-11 6 0 18.5 4t15.5 4l9 222q10 24 21 24 1-33-4-95-6-67-6-97t4-57q1 3 5 3h8q1 20 3 40 2 26 17 31 6-7 7-20 1-8 0-25t0-23q11-2 31 3-9 13 6 34 16 3 16-14 0-20 6-23 9 3 36 3 24 0 34 7 26 261 36 328 28 183 79 312z"/><glyph glyph-name="w" unicode="w" horiz-adv-x="821" d="M799 765q-59-227-59-675-18-14-55-14-49 1-61-2t-50-26q-31-18-53-16l-59 97q-14-13-17-50-3-46-7-57-61 2-174-8T93 6Q64 32 64 79q0 14 3 42.5t3 42.5q0 21-4 37L37 697q23 3 105 22 66 16 110 16 15 0 29-1 26-23 28-77 2-66 10-84 6-35 18-89 18 10 33 36 13 22 26 45 31-5 47-41 22-50 30-58l9 9q8 80 17 161 10 97 31 156 44-27 115-27 60 0 119 18 16-4 21-5 12-5 14-13zm-56-41q-13 5-23 5-23 0-32-36-12-48-19-55-16 7-16 20 0 9 11 29.5t11 31.5q-44 0-50 2-1-20-3-40-2-24-15-37-8 10-8 24 0 10 5 28.5t6 27.5q-8 1-18-3-12-31-18-88-8-69-13-90-1-14 4.5-37t5.5-32q0-13-6-24-21 37-21 84 0 30 13 99 12 65 11 101h-7q-41-131-41-304 0-32 1-66-8-24-28-28-29 24-48 74-24 62-34 77-20-17-35-49-22-46-28-52.5t-14-6.5q-16 0-31 16-17 146-46 289-8-1-25.5 0t-26.5 0q-13-1-22-7 0-3 6-15.5t6-18.5q0-8-6-14-17 0-22 19-6 23-15 27-1-16 6-185l-6-9q-5-2-13 6l-12 181q-19-1-52-17l30-577q7-29 40-22-6 61-6 127t6 126q7 18 20 13-8-83-8-136 0-74 13-130 4-2 10-2 5 0 14 3t13 3l-12 123q4 13 13 13 2 0 3-1l15-123 9-12q22-3 22 12 0 4-2 15t-2 16q0 13 9 19 12-5 13-40 0-19 20-19 7 0 24 3.5t24 2.5l-4 44 8 86q6 51 29 70-1-22-7-76-5-49-5-77 0-25 3-47 11-1 31 3 4 19 16 52 6 12 6 29 0 9-2.5 27.5T415 203q0 32 29 38 27-26 51-75 30-61 42-76 6 8 6 17 0 6-4 19t-4 20q0 6 2 12 9 19 22 18-1 11-1-39 0-25 7-38 10 0 18 10v224l9 9q7-33 5-112 0-73 10-112l90 9q-1 237 46 597z"/><glyph glyph-name="x" unicode="x" horiz-adv-x="750" d="M714 148q4-39-33-39-6 0-19.5 1t-20.5 1q-17 0-26-6L471 49q-31 0-37 35-4 20-40 128Q264 85 209-39h-15Q150 7 91 90 19 191-6 221l9 16q105 80 246 226-28 43-87 120-63 82-89 120-1 15 14 24 13 6 26 13 85 11 225 70 8 2 14 2 36 0 47-32 4-12 7-68 3-45 19-62 30 18 74 66 48 52 73 70 28-5 60.5-47.5T692 690q19-16 19-33 0-18-32-50-33-35-36-52l-80-127q22-151 151-280zM368 721q-1 12-11 30-5-17 11-30zm281-560q-78 88-107 199l-24 34q-14 21-16 38l144 205 3 22q-6 6-12.5 13.5T621 678q-38-53-68-74-1 4-1 8 0 17 28.5 43t29.5 44l-17 17-18 8-114-118q-22-38-45-38-5 0-10 2-18 24-31 95l-16 22q-2 3-17 38-11 24-29 20 0-5 5-16t5-16q0-8-10-14-13 5-24 37-26-2-46-15 2-5 15-23 11-14 11-23 0-6-5-12-14-1-28 26t-26 27q-8 0-20-11 4-32 29-69 22-32 45-63l-6-6-40 30q-13 10-28 56-13 39-30 39-10 0-25-11 20-43 70-100l84-94q19-15 19-36 0-20-15-35-50-32-118-95L62 216q-5-17 11-22 14 10 54 47 33 30 54 39v-12l-95-86q-4-4-4-12 1-8 7-9 31 32 46 44 29 23 52 29-10-12-42-40-28-25-41-43 3-29 37-58 44 107 132 187-57-75-123-206 6-6 10-6 6 0 12.5 14T185 99q7-6 7-13 0-6-9-18.5T175 47l7-13q4-7 12-6 24 51 89 133 72 91 96 132 5 3 10 3 8 0 36-16l49-165q19 0 21 2-21 107-21 176l6 9q11 0 15-6-1-18-1-35 0-82 32-135l18 13-11 16q-10 34-10 38 0 13 10 19 6-16 12-31 8-19 18-30 10-6 23-6 6 0 63 16zm-70 542L476 540q5 38 41 84 61 77 62 79z"/><glyph glyph-name="y" unicode="y" horiz-adv-x="587" d="M608 731q-36-64-73-175-47-144-61-179l-44-92q-25-55-25-100 0-35 15-105.5T435-28q0-21-3-40-22 4-46 4-36 0-106-10T176-84q-15 0-30 1-6 27-6 55 0 48 20 117 29 100 32 114Q113 359-1 434q-11 15-11 28 0 19 39 43 44 26 52 47l111 133q27-8 29-45 4-53 8-61 18-51 42-83l9 4q36 49 81 132 59 110 73 135 17 14 39 14 13 0 40.5-8t42.5-8q17 0 32 8 24-26 24-33 0-5-2-9zm-73-13q-30-72-33-78-21-44-41-72l-7 5q5 18 30 74 20 44 20 73h-10q-24-42-52-111-43-108-46-113l-10 6q7 42 42 114.5T470 724q-41-48-97-152-59-109-95-156-34 28-61 85-39 82-46 94-13-6-13-15 0-6 10.5-20.5T179 537q0-3-2-6-12-4-22 10.5T137 555l-18-22q-2-8-2-15 0-21 18-43 5-6 36-37l-9-9q-21 7-40 32-13 21-27 41-6 0-8.5-5T82 487l104-123-5-7q-25 17-61 57-41 45-56 57-20-13-6-21 41-36 96-113 58-81 94-115-5-23-36-114-24-69-24-117 0-14 2-28 12-1 33 4 3 34 6 67 5 38 19 63 15 0 15-11-18-48-18-90 0-17 3-33l19-2q9 4 10 15.5T278-2q12 24 20 22l2-50 93 9-34 265q124 233 176 474z"/><glyph glyph-name="z" unicode="z" horiz-adv-x="813" d="M770 330q-2-15-22-86-15-55-15-89 0-47 24-83 0-22-22-24l-27 15Q490 47 457 42 316 24 222-20q-31-28-39-28-7 0-14 6-13 17-13 54 1 47-2 58l-16 67q-9 40-30 61l2 31q84 77 122 114 67 67 109 123-147-16-304-83-22 11-22 42 0 10 3 19 24 59 37 148l18 154q191 8 238 11 139 7 240 20 6-2 13-2 21 0 57 19.5t52 19.5q19 0 35-15l16-80q2-13 21-36.5t19-36.5q0-10-7-19-52-38-103-111-42-65-84-129-10-17-31-50l9-9q62 12 216 12zm-59-55v13l-114-5q-69-2-111-14-13 0-22 15-5 13-11 26 39 47 118 163 73 106 122 163 16 21 0 37-13-5-45-30-27-21-45-23 33 53 84 68 0 3-7 25-10 1-21 1-34 0-87-14-60-16-83-18 71 44 189 49l-13 19q-75-24-220-29-164-6-223-17-13-16-43-16h-23q-33 0-46-19 29-3 80 4 56 7 81 6l13-13q-27-5-72-7-60-4-73-5-33-7-33-33 0-7 4-14 70 15 99 7-13-12-43-14-47-4-49-4-24-12-18-50l98 24q59 14 102 10-71-16-210-55-17-36-18-74 70 28 171 51 88 20 176 39 24-20 22-41-40-58-126-142-109-107-136-138l-9-25 124 95h15q-18-25-55-53-31-23-62-45-14-18-14-28 0-3 1-6l40 34q4 1 13 10t14 9 10-7q-6-13-42-40-30-23-30-41 0-12 11-26l68 48 6-5q-8-15-34.5-34.5T200 70q65 22 78 22 9 0 17-2-14-14-47-23-40-11-52-17 0-12 4-18 96 36 242 54 127 15 254 29 1 7-3 19-32 3-65 3-91 0-194-28l-9 9q52 23 130 31 23 2 141 7v46l-154-26v7q76 33 160 37v33q-86-16-172-18 49 21 181 40zm-46 425l-161-55q88 44 161 55z"/></font>
</defs>
</svg>
