<svg xmlns="http://www.w3.org/2000/svg"><defs><font id="smartcaps" horiz-adv-x="206"><font-face font-family="smartcaps" font-weight="400" font-variant="small-caps" panose-1="0 0 4 0 0 0 0 0 0 0" ascent="800" descent="-200" x-height="332" cap-height="692" bbox="-249 -352 659 800" underline-thickness="20" underline-position="-143" unicode-range="U+0020-00A4"/><glyph glyph-name=".notdef" horiz-adv-x="500" d="M63 0v800h375V0H63zm62 63h250v675H125V63z"/><glyph glyph-name=".null" horiz-adv-x="0"/><glyph glyph-name="glyph2"/><glyph glyph-name="space"/><glyph glyph-name="exclam" unicode="!" horiz-adv-x="256" d="M73 273q-1-4-9-1-8 5-8 12 0 76 35 363 55 44 71 54l-4-1q38 29 70 47h10q19 0 23-19l14-4q-28-205-76-405-35-22-102-66l-24 10v10zM69 67q-26 0-48.5 18T-2 129t21 58q4 6 39 50 10 4 44 29 28 21 48 21 23 0 38.5-19.5T204 225q0-53-41-104-42-54-94-54zm47 566q-10-112-32-330 30 19 79 53 19 124 68 362-30-16-115-85zm33-372q-28 0-77-50.5T23 131q0-23 31-23h7q9 3 25 13 77 47 77 132 0 8-14 8z"/><glyph glyph-name="quotedbl" unicode="&quot;" horiz-adv-x="351" d="M167 509q-25-58-33-73-21-37-50-64l-19-2q-9 0-14 16-1 4-8 2-7 11-7 19t8 23.5 7 25.5q3 3 7 6v2Q9 496 9 564q0 38 39 89.5t77 49.5l19-1q18-19 34-35 13-18 13-49 0-8-1-22 23 50 36 67 27 36 63 36 55 0 55-76 0-51-39-143-43-103-83-103l-13 2q2 18-16 18-3 9-3 16 0 6 5.5 16t5.5 13q-17 15-32 33zm66-57q75 108 71 191l-1 17q-11 16-16 16-27 0-63-66t-36-99 24-33q6 0 17 11 6-18 6-25 0-6-2-12zm-88 206q-8 13-11 18-5 1-10 1-24 0-47-30-7-9-38-52-4-18-4-34t7-36q8-26 20-26 3 0 8 1t8 1q5-2 15-7-3-20-16-49l-5-12q28 33 53 96.5T150 633q0 18-5 25z"/><glyph glyph-name="parenleft" unicode="(" horiz-adv-x="336" d="M212 479q-56-94-56-209 0-59 22-105l-2-19q-24-17-64-52l-12-1q-40-4-68 88-20 67-20 116 0 63 35 180 33 108 78 189 70 128 143 128 16 0 92-124v-22q-105-96-148-169zm48 288q-80-23-156-200-69-162-69-266 0-100 50-164 25 17 50 41-1 15-11 54-9 34-9 54 0 114 56 218 53 100 146 172-19 30-57 91z"/><glyph glyph-name="parenright" unicode=")" horiz-adv-x="339" d="M118 54Q50 61 5 119v16q90 93 125 147 58 88 58 175 0 40-12 103l-21 108 94 106q50 5 76-91 18-67 18-125 0-318-225-504zm171 610q-14 81-29 81-7 0-62-67l-18-22q32-121 32-206 0-87-57-178-40-63-121-146 26-20 56-29 102 82 158 206 53 119 53 255 0 36-12 106z"/><glyph glyph-name="comma" unicode="," horiz-adv-x="251" d="M81 18q-16 1-33 15-11 12-24 24-4 19-4 35 0 56 42 110 44 58 98 58 28 0 48-18l32-37q5-22 5-43 0-134-142-226-5-3-11-3-19 0-22 16-1 4-6 3-11 4-11 15 0 4 28 51zm12-33q41 27 76 84t35 104q0 31-8 44-10 18-39 18-37 0-75-52.5T44 89q0-27 22-27 8 0 20.5 7.5T105 77q8 0 20-10-9-50-32-82zM83-27l-2-2q1 1 3 2h-1z"/><glyph glyph-name="period" unicode="." horiz-adv-x="243" d="M83 11q-29 0-52 29-21 26-21 56 0 45 44.5 101.5T143 248q10 6 21 6 29 0 49.5-26.5T234 171q0-50-50.5-105T83 11zm38 210l-3-2q-5-6-11-7-72-58-72-116 0-12 3-24 21-19 28-19 38 0 82 47.5t44 86.5q0 20-10 34-15 7-19 7-9 0-33-13z"/><glyph glyph-name="zero" unicode="0" horiz-adv-x="461" d="M472 544q0-80-55-199-58-124-137-207-91-96-174-96-51 0-83 58-26 48-26 104 0 65 51 187 53 128 121 217 80 104 148 104 63 0 109-52t46-116zm-42 18q0 50-31 86t-80 36q-60 0-135-101-64-85-114-208-48-116-48-174 0-37 14-72 18-45 50-45 76 0 162 92 75 80 129 198 53 114 53 188zM227 316q0-43-47-92-22-23-67-23-35 25-35 63 0 49 49 78 14 10 28 19 18 11 32 11 18 0 30-20 10-16 10-36zm-26-2q0 9-4 14-44-26-51-31-26-22-26-51 0-14 6-21 23 3 49 34t26 55z"/><glyph glyph-name="one" unicode="1" horiz-adv-x="286" d="M277 45Q214-4 88-31q2 19-8 19-2 0-5-2L65 3q0 61 18 190 16 124 15 191l-1 35q-28-8-38-8l-28 8q-2 12-17 28 5 19 82 113 86 104 100 128h27q23 0 21-18 17-19 17-53 0-10-1.5-28.5T258 561q0-336 19-516zm-41 30q-8 108-11 293-3 213-7 294l-12-2Q128 541 50 453q15 0 69 28l11-11q-22-96-30-227-3-40-9-229 54 14 145 61z"/><glyph glyph-name="two" unicode="2" horiz-adv-x="401" d="M401 550q0-51-51-190-41-114-79-192 5 2 42 24 24 15 46 14 2-21 18-18 23-91 22-116l-1-34q-30-18-167-51T52-46l2 15Q31-25 31-9q0 6 102 174.5T235 373q-31 0-79-103l-22-1Q13 396 13 413q0 63 100 175.5T277 701q57 0 92-48 32-44 32-103zm-42 24q0 101-84 101-108 0-236-260l85-99q40 101 101 101 16 0 26.5-14t10.5-30q0-42-84-180Q77 26 66 1q47 17 145.5 33.5T357 70v4q0 26-17 105-106-51-145-94l-19 13q45 65 112 235 71 178 71 241z"/><glyph glyph-name="three" unicode="3" horiz-adv-x="387" d="M392 320q0-116-74-212Q238 6 125 6 66 6 32 47T1 147l1 30q67 55 120 65 10-19 18-19 5-10 2-44 22 1 48 43 24 38 24 64l-6 16-14 1q-14 1-50.5-16T86 269q1 10-4 14.5T66 287q3 23 38 90-26 3-25 19l-16 12Q36 528 36 559q44 41 132 75 113 43 141 58l31-6-4-11 21-15q-8-35-34-88-22-43-43-86 49-19 80.5-66T392 320zm-41 26q0 37-31.5 78T252 465q-11 0-26-28l-16 39 15 6q26 61 81 181-47-15-127-51-89-41-118-65 3-21 14-63t13-64q20 5 47 29 21 19 41 39l12-13q-13-29-44-79-32-55-45-80 62 29 84 29 54 0 54-60 0-66-73-130-5 0-15-2t-15-2q-38 0-32 61-29-14-76-44l-1-14q0-107 77-107 107 0 181 98 68 90 68 201z"/><glyph glyph-name="four" unicode="4" horiz-adv-x="380" d="M388 387q0-53-7-96-27-12-72-38 9-87 9-116l-2-73Q205 28 147 19q-4 20-23 24 1 19 22 134-79-17-100-17l-33 1q-3 19-20 22l-2 14q0 45 146 267t174 222l15-2q-4-17 12-17 3 0 6 1-4-87-15-242l24 4 15-2q2-21 20-17v-24zm-39 15q-37-13-66-31l-16 9q27 45 36 277-40-38-150-218Q48 269 19 201h8q25-1 71.5 13.5T169 229l18-6q-11-27-37-159 30 7 125 35-3 64-6 189 27 15 72 36 3 26 8 78zm-120-49q0-6-10-11l-3-5q-15 0-37-6-33-9-37-10 28 48 74 125 12-8 12-16 0-4-2.5-10t-2.5-8q-3-19-3-35 0-8 2-16 7-2 7-8z"/><glyph glyph-name="five" unicode="5" horiz-adv-x="366" d="M379 318q0-108-95-195.5T80 35q-23 0-52 2-9 17-27 26 11 52 44 149 35 16 71 32 43 25 43 55l-10 3q-18 0-46.5-20.5T64 261l-12 2q1 10-4.5 14.5T33 281q3 69 40 361 41 16 120 40 92 29 114 29l29-9-2-11 15 2q0-30-11-88-12-63-25-82-52-6-134-29-1-4-6-22-4-14-3-23v-11q8 1 30 8 18 6 30 6 67 0 108-34t41-100zm-40 11q0 99-104 99-21 0-49-11-24-9-47-19l-13 8q2 62 12 122 44 18 141 34 20 69 28 124-18-2-60-13-5-5-18-7.5t-17-7.5q-41-10-116-32-16-108-37-314 39 30 75 30 50 0 50-44 0-40-38-65-11-7-72-33-17-6-44-123l29-2q93-6 186.5 76.5T339 329z"/><glyph glyph-name="six" unicode="6" horiz-adv-x="393" d="M397 280q0-93-71-183Q251 2 161 2-2 2-2 210q0 116 69 283 76 180 163 233l26-9 5-11 12-6q32-112 30-148l-2-29q-119-63-150-133 35 26 48 33 25 12 58 12 64 0 102-45t38-110zm-42 15q0 115-96 115-36 0-69-23-19-14-52.5-50T85 287l-14 12q7 80 62 151 50 64 126 106l-25 142q-72-31-144-225-66-176-66-276Q24 43 137 43q82 0 152 86 66 81 66 166zm-147-93q0-34-33-75t-67-41q-31 0-31 39 0 36 24 79 27 48 60 48 47 0 47-50zm-23 4q0 6-3 6t-4-1q-49-21-58-95 65 36 65 90z"/><glyph glyph-name="seven" unicode="7" horiz-adv-x="434" d="M465 668q0-2-63-171-68-181-69-185-21-64-42-127t-48-99q-35-45-99-78-80-40-97-40-8 0-23 12T5 1q2 14 35 75 42 78 43 80 43 97 129 292-17-5-44-21-30-19-43-24-20 20-25 20-3 0-6-1-16 117-16 172 50 25 176 67 136 46 172 46l17-4 18-18zm-41 14q-67-8-163-42-23-8-158-61l-1-21q-1-20 5-53 7-41 8-53 41 18 116 59l10.5 10.5L255 527l21-7q-31-61-114-257Q93 102 37 12q25 10 84 39 67 34 74 42 23 31 109 270 96 267 120 319z"/><glyph glyph-name="eight" unicode="8" horiz-adv-x="438" d="M469 586q0-112-105-217 39-52 39-95 0-82-70-178Q259-5 181-5 113-5 57 44-2 94-2 161q0 100 141 224-20 17-20 45 0 77 76 183 81 111 154 111 51 0 87-44 33-41 33-94zm-43 13q0 99-85 99-55 0-128-106-70-101-70-161 0-18 19-27.5t18-22.5Q23 266 23 156q0-52 48-87 44-32 98-32 59 0 127 93 65 89 65 151 0 78-60 92 41 51 83 103 42 62 42 123zM294 474q0-26-22.5-48.5T222 403q-9 0-19 12t-10 22q0 22 22 42 21 14 41 29h8q30 0 30-34zM188 198q-12-48-17-57-14-22-52-22-50 0-50 33 0 31 56 81h9q37 0 54-35zm74 266q-9 8-25-10t-7-26 25 10 7 26zM150 177q-9 8-25-10t-7-26 25 10 7 26z"/><glyph glyph-name="nine" unicode="9" horiz-adv-x="401" d="M410 562q0-156-74-290-78-141-212-208-51-26-86-26-18 0-21 19L4 67q10 54 38 154 42-1 59 2-49 30-49 112 0 102 75 230 84 142 177 142 52 0 81-49 25-41 25-96zm-43 3q0 62-12 84-16 31-69 31-61 0-138-135-72-125-72-195 0-98 59-98 8 0 23 4t23 4q4 0 9-5.5t5-9.5q0-24-58-39-46-11-79-9-16-63-27-119 37 0 105 48 107 75 169 191.5T367 565zM234 370q0-19-16-49-8-17-32-28-20-7-40-15-33 16-33 29 0 37 22 69 25 36 60 36 39 0 39-42zm-24 1q-7-1-18-8t-22-24.5-13-29.5q7 3 21 7 32 25 32 55z"/><glyph glyph-name="colon" unicode=":" horiz-adv-x="245" d="M262 483q0-58-37-112-41-59-96-59-32 0-53.5 19.5T54 383q0 41 49 93 42 45 87 68 15-2 32-4t21-17q14-9 16.5-15t2.5-25zm-42 28q0 4-3 6-2 0-8-4.5t-11-4.5q-6 0-10 6-32-18-68-58-41-46-41-76 0-27 37-27 44 0 76 58 28 51 28 100zm-29-332q0-45-48.5-97T50 30q-27 0-68 45v17q0 40 38 97 41 62 78 62 7 0 25-4t28-3q40-20 40-65zm-42 31q0 16-44 16-29 0-63.5-52.5T7 90q0-18 25-18 40 0 79 50 38 47 38 88z"/><glyph glyph-name="semicolon" unicode=";" horiz-adv-x="301" d="M323 476q0-45-46.5-95T186 331q-24 0-39 11-14 15-27 30-3 13-3 24 0 46 45 100t90 54q30 0 50.5-22t20.5-52zm-42 18q0 31-25 31-36 0-75.5-47.5T141 393q0-20 30-20 32 0 71 44t39 77zm-36-319q0-56-65-142-68-90-121-90-11 0-15.5 10T33-39q-8 10-8 18 0 5 10.5 24.5T51 29L0 68q-1 15-1 21 0 46 65 98 63 49 112 49 23 0 46-19.5t23-41.5zm-43 16q0 20-32 20-36 0-92-47T22 82q0-16 35-16 7 0 18.5 4.5L87 75q11 0 13-14-16-26-42-71 42 18 93 87t51 114z"/><glyph glyph-name="question" unicode="?" horiz-adv-x="406" d="M354 464q-50-72-103-114 12-33 12-42l-2-10q-29-15-76-42l23-2q35-24 35-59 0-41-38.5-74.5T125 87q-19 0-41.5 24T61 154q0 41 50 82-2 6-5 11-2 2-12-2v124q25 16 74 48 32 21 44 55-25-7-73-51t-60-44l-11 2q-4 17-21 21-4 28-20 90-14 57-14 88 0 7 3 21.5t3 21.5q46 46 102 78 67 38 120 38 70 0 116-29 56-35 56-101 0-57-59-143zM253 710q-110 0-211-102-3-12-3-21 0-31 11-81 9-40 19-80 55 50 67 59 43 31 80 33 25-15 25-40 0-32-47-73-38-34-76-52v-76q35 16 102 54-6 16-16 47 52 30 109 113t57 134q0 85-117 85zm-66-478q-4 0-13-1.5t-13-1.5q-6 0-11 2-63-36-63-79 0-22 27-22 33 0 59.5 27.5T200 219q0 13-13 13z"/><glyph glyph-name="at" unicode="@" horiz-adv-x="425" d="M258-1l-28-2Q124-10 61.5 47T-1 212q0 137 57 273 70 171 185 171 87 0 140-65 49-60 49-148 0-76-26-160-35-113-93-113-15 0-35 19-14 15-29 30l-5 16q-47-61-85-61l-17 2q-14 14-40 42 2-34 19-48 22-11 43-22 19 2 39.5 3.5T236 163h16l1-22 19 2q1-26 2-53 1-31 8-52 0-45-13-45-5 0-11 6zm66 339q26 19 26 68 0 26-9 62-10 42-24 55t-41 13q-60 0-116-76 18 17 41 17 14 0 28-8-4 34-4 28v5q15 5 32.5 10.5T287 518q6 0 10.5-7t4.5-13h5q4 1 9.5-6t5.5-11q0-15-2.5-46t-2.5-47q0-28 7-50zm-95 294q-92 0-156-166-52-136-52-252 0-94 47-135 44-39 139-39 19 0 32 6 0 10-4 29t-4 29q0 20-2 31-12-8-21-8-83 0-117.5 35T56 281q0 98 49 189 58 107 148 107 62 0 94-58 26-46 26-114 0-28-12-57-15-36-40-36-46 0-46 101 0 17 1.5 43t1.5 32v6q-10-2-28-8v-5q0-15 9-56l-10-10q-15 5-25 24-7 14-35 14-24 0-54-80-26-72-26-104 0-14 7-32 8-21 19-21 23 0 53 33 27 30 33 55l11 11q11-7 22.5-49.5T282 215q59 1 86 113 18 73 18 159 0 67-44.5 106T229 632zm-74-370q-9 7-9 15 0 4 3 11.5t4 11.5q1 11 11 16 15 7 18 10 19-8 19-16 0-23-10.5-35.5T155 262z"/><glyph glyph-name="A" unicode="A" horiz-adv-x="470" d="M227 126l1-1q0-21-6-62.5T216-1q0-13 1-26Q142-39-9-60 1-14 10 60q12 100 15 120 7 46 39 207 26 127 32 208 118 67 197 97 13-11 34-22 42-132 87-352 55-276 75-354-44-12-116-25-92-16-117-21l-8 9q-1 13-30 191zm62 536q-30-10-90-38-72-34-77-47-20-59-58.5-291T24-10Q73 0 171 16l6 64q3 37-1 63 10 10 25.5 12t29.5 3q15-8 15-44 0-58 26-148L442-1q-60 216-118 512l-14 76q-8 43-21 75zm-48-474q-8 6-17 6-7 0-17-5t-12-5q-17 0-17 12 0 2 7 12 5 85 18 148 18-8 24-19 3-7 3-29 0-13 10.5-52.5T257 208q0-10-16-20zm-22 50q-3 18-11 54l14 1q-4-20-3-55zm0 0q1-14 1-22 1 0 4 1-3 10-5 21z"/><glyph glyph-name="B" unicode="B" horiz-adv-x="432" d="M235-56q-66 0-126 27Q36 6 36 63q0 81-16 243.5T4 550l-2 3 1 16q135 132 252 132 70 0 119-72 45-65 45-139 0-92-93-232 40-17 72.5-62t32.5-88q0-69-65-119-60-45-131-45zm20 311l5 10h-1q30 0 74 106 40 97 40 137 0 64-28 112-34 56-93 56-38 0-126-45-92-46-100-77 14-58 17-260Q45 98 61 44q8-27 71-43 47-13 88-13 59 0 111 39 56 43 56 101 0 53-31 81-20 17-61 29-36 10-40 17zm-90-60q-3 0-8 1-6 6-6 20 0 18-9 47l-14 45q36 26 60 26 39 0 39-47 0-26-18-57-21-35-44-35zm10-161q-7 0-14 5-6 38-22 112 19 16 44 16 52 0 52-44 0-22-19-54-21-35-41-35zm2 245q1-15 8-42 19 28 19 47v7q-11-1-27-12zm16-202q19 37 19 48h-1q-7 0-23-5 2-21 5-43z"/><glyph glyph-name="C" unicode="C" horiz-adv-x="435" d="M253 228q-5 5-5 13 0 6 5 9h86q23 0 56-6l-5-16 25-4q-31-103-80-168-67-87-154-87-94 0-146 162Q-2 250-2 373q0 131 42 212 55 106 175 106 113 0 179-145 44-95 63-242-14-6-39-21-33-7-67-13-40-8-68-8-20 0-40 3l-2 18-18 2q-5 54-27 83-34 4-51-68-13-49-13-102 0-48 16-81 78-5 105 111zm-40 441q-95 0-148-92-45-76-45-178 0-112 28-225Q88 13 163 13q128 0 202 211-50 3-80 3h-8q-8-45-37-87-35-49-75-49-75 0-75 141 0 60 16 109 23 69 70 69 41 0 70-103 11-3 24-3 24 0 72 10 55 12 66 23-5 111-47 206-56 126-148 126z"/><glyph glyph-name="D" unicode="D" horiz-adv-x="509" d="M249-20q-26-7-73-7-99 0-133 93-20 57-21 197.5T6 447l1 8q0 12-6 36t-6 36l80 82q91 80 185 80 110 0 187-108 71-98 71-213 0-238-212-365-16-4-42-17-5 2-5-.5T249-20zm15 686q-61 0-148-53-93-58-95-113 21-22 25-231Q51 64 81 42q35-25 79-25 131 0 226 115 90 109 90 243 0 105-54 191-62 100-158 100zM127 88l-6-8q5 41 5 77 0 29-4 74 13 5 26 5 32 0 49.5-21.5T215 160q0-75-86-78zm45 105h-5v-21q0-12 2-56 22 14 22 42 0 15-5 30-8 5-14 5z"/><glyph glyph-name="E" unicode="E" horiz-adv-x="349" d="M-3 610q181 72 312 108l9-8 1-14 10 2 9-8q4-87 28-299-28-8-59-8-19 0-57 4.5t-56 4.5q-7 0-18.5-2t-16.5-3q-4-34-4-67l50 8q31 7 46 19l11-12 1-14 8 6 11-12v-51q0-26 9-43-1-17-49-23-34-2-67-5-6-12-5-33v-13q43 12 88 24 11 0 16-4l1-17 3 1q11 0 16-4 0-26 9.5-79t9.5-81Q186-40 43-36l-33 1 7 19-27 1Q0 13 0 19q0 7-3 13Q7 189 7 175q0 68-3 229-4 199-7 206zm146-315l-15-18-12 11q-4 20-2 67 1 43-7 68 23 10 55 10h40q16 0 46-4t45-4q14 0 28 4-12 99-22 256 0 3-1 7-110-32-272-94-4-74-2-188 4-165 4-189 0-105-9-183 7-15 4-30l11-2q126 0 237 19 0 24-7 60-10 49-12 59-66-20-118-27l-10 11q6 9 6 28v21q-1 14-1 22 0 22 6 35 22-1 57 5 42 6 56 7-8 15-7 69-17-7-50-11t-48-9z"/><glyph glyph-name="F" unicode="F" horiz-adv-x="393" d="M231 398q0-13 16-80 54 16 77 30 6-11 11-25l9 5q7-12 19-56t14-61q-34-5-102-19 5-20 32-106 28-89 34-99-105-36-178-52l-9-14q-17 9-16 22v20l9-5q-4-2-13-17-13 7-15 18-1 2-1 25 0 38-54 281Q11 504-8 558q21 21 181 85.5T358 707l6-1q7-19 6-21l14 1q8-22 14-122 5-81 5-129 0-13-7-26-17 4-66 4-20 0-50-6-24-5-49-9zm59-379q-3 3-5 11-3 12-32 103-27 84-27 89 0 8 9 11 7 3 14 0 14 6 41.5 9t40.5 8q-8 20-17 63l-11 2q-11 0-36-13t-40-13l-17 2q-2 14-14 67-10 41-10 66 0 15 21 18 28 5 30 6 13 1 60 5 37 3 60 2-4 110-12 229h6q2-2 3-6l-184-60Q21 566 21 548l19-72q25-92 53-248 34-188 48-249 50 13 149 40z"/><glyph glyph-name="G" unicode="G" horiz-adv-x="461" d="M367 362l7-3q72-133 72-229 0-69-37-116-40-51-107-51Q-7-37-7 396q0 113 69 204 75 98 184 98 103 0 165-79 41-53 80-172l-46-22q-28-13-50-15-12-8-48-20-31-11-44-25l-32-8q-20 0-19 19-19-3-23 28l-28 13q-42-4-73-60-26-49-26-96 0-44 22-83 29-15 54-15 27 0 52.5 17.5T261 224q-22-7-66-25l-11 12v13l-9-5-11 12q-1 21-2 63v16q29 19 88 45 67 30 89 30 7 0 8-3l7-3 7-14q6-2 6-3zM239 672q-106 0-167-98-53-84-53-197Q19 7 275 7q61 0 96 43 31 41 31 103 0 30-25 114-27 91-44 91-18 0-72.5-24T187 297q1-5 1-44 32 12 94 31 9-17 9-32 0-49-32.5-80.5T177 140Q57 140 57 285q0 54 33 111 37 66 86 66 22 0 48-18.5t33-39.5l11 3q40 16 105 49h7q17 0 61 26-40 105-66 136-45 54-136 54z"/><glyph glyph-name="H" unicode="H" horiz-adv-x="475" d="M217 666l11 1q6 0 10-3-2-43-2-94 0-23 3-130 2-79-1-129l29 10q-3 37-20 137-14 86-15 137 12 5 62 29 37 18 63 22 8-3 12-7l1-14 7 1q6 0 12-7l24-250q20-163 57-236 8-7 17-26-20-17-82-36t-91-48l-11 3q3-4 4-4l-12 22-1-1-11 3q3-4 4-4l-9 8q-7 46-24 136l-23-11q12-52 25-103 15-60 34-101 7-1 7-8l-1-11q-61-5-206-77l-5 27-15-7Q45 34 26 254 11 436-3 618q3 3 105.5 36.5T207 688q6 0 11-4zM88-70q51 22 154 61-7 19-32 106-26 92-26 100 0 14 26 26 22 10 41 10l18-4q6-25 29-151 23 15 68 28t62 22q5 3 5 6 0 5-4 9l-5 5q-15 32-26 89l-16 92q-10 54-20 145-12 106-18 144-1 0-86-38 2-53 16-133 20-113 22-132l-3-5q2-1 2 2l-7-11q-12-2-41-14-25-10-39-10-15 0-15 50 0 17 2 44t2 30q0 43-3.5 127.5T190 652q-27-12-81-23-57-11-82-21l-1-27q-4-51 23-325Q76-9 88-70z"/><glyph glyph-name="I" unicode="I" horiz-adv-x="281" d="M198-8q-39-12-78-25-44-14-80-15v21l-20-1 1 194q0 47-4 131-4 88-4 131 0 29-3 80-4 61-5 82-8-1-8 7 0 16 115 54 92 30 143 41l6-10v-13l14 3 6-10q-6-234-25-380-17-142-35-286-7-11-23-4zM33 595l-1-31q-2-94 4-242 7-198 8-243l1-78q25 2 67 16 47 16 67 20 4 61 32 305 21 187 20 306v11q-38-8-99-30-75-27-99-34z"/><glyph glyph-name="J" unicode="J" horiz-adv-x="398" d="M179-44Q55-44 14 89-9 162-9 323q0 17 7 31 30-16 102-16l19-3-3-17q8 0 23-3-3-16-3-34 0-61 40-146l14-1q18 16 18 57 0 93-25 231-41 223-42 229 41 7 100 23 80 23 98 27l4-23 16 3q38-257 38-352 0-373-218-373zm140 718q-56-13-152-41 63-223 63-412 0-111-44-111t-71 84q-21 62-22 121-26 4-78 10v-23q0-132 14-187Q57-2 147-2q208 0 208 352 0 130-36 324z"/><glyph glyph-name="K" unicode="K" horiz-adv-x="571" d="M186 659q18-4 37-118 11-73 22-145 14 70 27 140 17 83 34 138l-12 9q18 10 28 10 41 0 195-52l-5-12 25-8q-9-20-67-133-42-81-62-135 43-47 155-108l-2-7 22-13Q524 60 524 0q0-10 1-15l-13-5q-41 33-113 74-96 54-117 68-3-30-2-87 1-71 10-81l-18-18-23 7q-28 0-79-8-55-10-79-11l-4 21-16-1Q29 189 29 349q0 34-17 102T-4 555v11q59 34 170 113zm165-284l17 8q15 55 50 125 33 59 65 118-86 29-151 38-16-51-42-179-24-115-47-178l-22 7q0 18-25 167t-31 167q-49-31-146-96 3-32 20-107 15-67 15-107 0-153 36-368 50 3 148 17 0 23-1 63-1 46-1 63 0 57 12 69 30-23 118-81 99-64 112-64l54 199q-108 60-181 139z"/><glyph glyph-name="L" unicode="L" horiz-adv-x="422" d="M203 676l13-1q8-126 16-251 12-150 33-248 33 28 46 38 21 14 53 28l11-24 9 4q8-8 33-104Q447 1 448-2q-10-15-158-46-177-39-182-40L96-66l-8-2Q69-40 69 21q0 199-69 604 4 8 196 70zm147-465q-18-7-55-41-32-31-50-31l-15 8-12 70q-6 40-6 69.5t-8.5 91.5-8.5 91.5-8 85.5-8 84v27l-4-6q-15-6-76-18-50-11-71-24 12-76 33-228 1-9 14-220 9-148 26-210 98 24 296 72-21 97-47 179z"/><glyph glyph-name="M" unicode="M" horiz-adv-x="607" d="M301 77l-12 1q-8 23-53 86 1-77-8-229-24 7-55 7-15 0-45.5-2.5T81-63q-34 0-59 9l-5 11v4L2-34l-5 11q23 171 23 476l-1 212-10 12 18 19 16-9v-11q2-1 4 0l16-9v-11q70-100 216-247 98 139 198 278l15-11 1-10 4 1 15-11q5-45 19-114 20-97 22-113 14-79 32-216Q604 55 614-4 481-30 436-30q-19 0-19 20h-1q-18 2-20 17-1 2 .5 7t1.5 7q0 52-19 176-17-48-56-141l-14 2zm171 566q-36-43-95-131-61-92-93-132l-10 1q-81 81-231 253l1-103q2-376-21-546 29-4 61-4 30 0 102 5 0 36 5 127 3 80 2 127l10 9q26-19 49-64 30-56 41-70 24 62 73 186 23 2 38-121 20-158 20-160 55 4 141 17-11 59-37 305-20 188-56 301z"/><glyph glyph-name="N" unicode="N" horiz-adv-x="554" d="M499 700l23-10q-3-5-3-11 0-414 40-697l-12-2q-5 0-13.5 2.5T520-14Q489 5 410 49q-71 39-110 66 5-88 47-154Q205-91 81-92l-1 21-19-1-23 355q-4 59-22 167Q-4 563-8 616q23-10 157-143 83-83 166-167v32q1 132 1 151-3 95-18 148 7 7 6 25.5t2 25.5q31 12 177 33l19-11zM260 171l8 3q111-76 121-82 88-56 123-62-20 226-20 393 0 45-6 138-6 110-13 130-21-8-72-8-47-1-71-14-5-29-5-43 0-54 8.5-162t8.5-162v-34q-3-22-18-23-42 68-140 163-6 6-161 148 4-36 23-139 16-87 19-140L83-46q5 1 12 0 8-1 11-1 33 0 91 20 70 24 92 27-35 74-37 166l9 7q-1-3-1-2z"/><glyph glyph-name="O" unicode="O" horiz-adv-x="605" d="M382-52Q226-52 112 80 4 206 4 362q0 149 65 239 75 103 220 103 144 0 237-139 82-122 82-274 0-108-59-216Q481-52 382-52zm-92 732q-132 0-200-95-59-83-59-219 0-133 73-237Q186 11 314 11q18 0 23-13l17-1q89-7 151 109 53 98 53 198 0 144-61 249-74 127-207 127zm11-614q-6 0-20.5 1.5T258 68q-28 30-35 39-18 24-18 48 0 84 59 84 26 0 63-23 8-7 20-28 9-28 9-53 0-28-13-47-15-22-42-22zm24 42q6 12 6 30 0 37-8 44-15 12-46 12l-5-1q-21-13-21-68 0-8 12-23 21-4 27-4 11 0 35 10z"/><glyph glyph-name="P" unicode="P" horiz-adv-x="517" d="M243 186q3-21 27-85t37-78l-5-17q-1 0-7-7-5 2-11 2-5 0-22-7-33-15-86-30-72-20-87-24L75-49l-1 10-5-1-14 11Q54 87 31 279 4 514-1 587q46 34 128 63t137 29q125 0 197-58 78-62 78-184 0-116-94-179-67-45-202-72zm36 468q-58 0-132-22-80-23-119-57v-11q0-106 22-288Q76 69 80-13q44 13 89 25 51 15 85 34-25 54-64 174 12 13 99 33 92 21 136 55 69 53 69 156 0 96-61 145-56 45-154 45zm-76-400q-9-9-14-9t-10 6q-2 23-13 63-12 44-14 62 56 20 64 20 41 0 41-57 0-31-13-50-9-11-25-20.5T203 254zm-2 86q2-20 11-49 21 10 21 47 0 7-1 14-12-2-31-12z"/><glyph glyph-name="Q" unicode="Q" horiz-adv-x="573" d="M418 5q24-4 48.5-30.5T491-76q0-22-44-54t-70-32q-35 0-69 59-26 45-37 90h-8Q142-13 69 95 5 190 5 317q0 140 84 247 91 115 229 115 112 0 190-137 66-117 66-239 0-86-41-170Q489 42 418 5zM294 16q17-72 20-79 19-55 49-55 23 0 50 26t33 50q-4 6-41 30-31 20-37 49 75 39 120 121 42 79 42 167 0 114-55 213-65 117-169 117-18 0-53-17l-52-24Q29 545 29 320q0-121 55-202 65-95 180-85 2 5 8 5 12 0 23-9V17zm19 128l-48 6q-28 5-35 28t-7 53q0 60 73 60 26 0 39-12 13-15 26-29 2-20 2-31 0-29-12-46-10-13-38-29zm-9 31q2 1 4 1t3-1q27 3 27 43 0 15-5 28l3-3q-10 5-15 5-54 0-54-44 0-17 6-32h16q6 5 10 5 3 0 5-2z"/><glyph glyph-name="R" unicode="R" horiz-adv-x="503" d="M355 186q3-9 54-49 48-38 63-46l-3-7 23-13q-19-33-54-70-31-32-61-63-39 14-89.5 58T219 76V57l2-49q1-3 10-5-2-9-15-29-16 9-36 9-25 0-74-5t-74-5v20H12q0 69 3.5 206.5T19 405q0 104-5 189 41 42 113 70t133 28q108 0 181-98 66-90 66-203 0-78-41-127-34-42-111-78zm-49 23v-1l3 15q75 29 111 67 44 47 44 120 0 95-50 172-56 88-145 88-55 0-122-24-70-25-107-61 5-79 5-194 0-49-5.5-147T34 98q0-28 1-52l2-28q24 4 68 5 48 2 69 4l-1 28q0 17 1 46 2 33 2 46 7 8 14 8l9-1Q270 24 349-11q64 54 89 94-28 9-67 58-11 3-38 31t-27 37zm-109 48q-7 12-7 24 0 4 1 11.5t1 11.5q0 8-4.5 26t-4.5 27q0 18 18 29t38 11q50 0 50-60 0-41-29-57-31-12-63-23zm31 81q1-14 5-43 20 8 23 11 8 8 8 31 0 8-2 15h-3q-16 1-31-14z"/><glyph glyph-name="S" unicode="S" horiz-adv-x="485" d="M312 318l-2 22-18-2q-2 34-22 64-23 37-54 37-16 0-26.5-12T179 399q0-6 10-39 29-22 115-56 82-33 115-59 52-42 52-105 0-68-51-114.5T301-21q-95 0-147 55-42 45-67 143 18 31 20 32l46 14q-66 31-108.5 92T2 447q0 101 66 171.5T236 689t183-105q73-95 82-202-19-11-95-37t-94-27zm0 47q17 0 79.5 26.5T454 429q0 78-73 157.5T230 666q-85 0-144-61.5T27 457q0-57 22-105 25-55 72-78 39-16 79-31 60-28 52-53-13-42-38-42-30 0-36 15-4 21-7 42-20-6-56-22l-1-6q-5-71 45-114 47-40 121-40 58 0 101.5 38t43.5 95q0 67-75 104-70 27-140 55-76 36-76 101 0 29 18.5 47.5T201 482q34 0 71-42 33-39 40-75zM209 203q3-8 7-33l1 1q13 9 12 20v1q-9 6-20 11z"/><glyph glyph-name="T" unicode="T" horiz-adv-x="579" d="M541 681q15-1 20-9-2-74 33-260-6-2-9-6-24 2-92 15-57 11-92 11h-8q5-60 30-217Q444 78 448-3l-10-8-30 1q-45 2-166-30-17 25-35 49-5 10-5 64 0 43-5.5 130T191 334q0 42 3 77-64-23-75-27-43-14-77-18l-12 21-8-1q-7 11-14 113-6 86-6 126 0 25 17 29 1 1 36 1 25 0 73.5 6.5T202 668q57 0 154 11 126 15 154 17 6 5 13 5 11 0 18-9v-11zM399 36l-1 45q-3 172-49 348-8 30-8 32l7 20 193-23q-3 39-14 107-11 75-14 106-35-7-130-7-63 0-175-15-130-17-176-20-4-142 9-215 60 16 91 28 67 23 78 43l30-15q-21-32-21-163 0-265 14-296 40 9 81 17 46 9 82 7z"/><glyph glyph-name="U" unicode="U" horiz-adv-x="468" d="M417 658l5 2q18-9 33-142 12-107 12-163 0-138-40-237Q372-20 257-20 109-20 37 165q-53 135-53 312 0 30 5 100 5 65 4 101l11 8h41q50 1 151 0l14 9 17-21h8q12 0 12-18 0-33-10-107t-10-111q0-101 21-182l1 1q50 52 50 182 0 46-11 111-9 55-19 111 15 3 67 6 42 3 66 13zm-119-20q21-126 21-209 0-200-81-200-56 0-56 238 0 91 11 193l-87 1-87-1q-9-70-9-129 0-189 35-311Q101 24 239 24q93 0 144 123 40 95 40 204 0 30-6 89t-6 88q0 24-9 60-12 47-14 59z"/><glyph glyph-name="V" unicode="V" horiz-adv-x="500" d="M243-15l-18 9q-34 126-117 336Q12 570-18 663q37 9 94 14 48 3 96 7 4 9 8 9 11 0 14-3h15q2-9 12-23l8 3q10-9 34-143 14-82 28-165 18 90 36 179 30 142 51 142 24 0 69-8 57-10 69-11l-4-17 24-3q-20-105-115-341Q336 93 272-32l-6-1q-24 0-23 18zm-2 47q38 79 75 158 44 97 61 161 41 159 103 293-33 4-98 11-9-34-41-195-24-120-49-194-4-5-11-5t-22 14q-6 96-69 384-48 1-172-15Q94 441 241 32z"/><glyph glyph-name="W" unicode="W" horiz-adv-x="615" d="M350 658l10-1-2 2 8-6q6-24 59-186 19 90 28 121 20 66 51 112 21-8 68-16 44-7 67-16l-3-12 23-8q-14-52-75-331-45-205-89-325-5-4-12-4-13 0-16 21-12-3-15.5 7T445 35q-12 37-50 94-30 45-61 89-24-69-47-138-40-105-72-105l-6 22-14-2q-65 214-95 321-58 201-82 320L3 647l11 9-1 2-11-2q-11 0-19 11 21 20 188 20 19 0 33-3l3-17 17-3q8-48 42-180 12 50 25 99 16 57 36 95l13-1-2 2 8-6zm-29-376l6-4q19-36 69-111 47-70 66-111 31 66 76 281 52 251 71 312-31 9-96 22-30-51-48-146-20-108-38-148-16 3-21 18t-8 30q-25 67-68 203-17-37-34-110-21-89-29-113l-12-1q-7 0-13 13-1 2-29 119.5T185 660l-32 2q-39-3-119-4 25-112 85-314 66-217 89-314 17 30 51 135 31 93 54 121 8-3 8-4z"/><glyph glyph-name="X" unicode="X" horiz-adv-x="516" d="M176 643l9-4q24-88 80-262l26 136q18 85 37 131 7 16 22 9 16 8 35 8 17 0 40-5t36-5q14 0 30 4l17-8-4-15 7 3 17-8q-19-87-64-214-38-105-76-211 39-79 111-180-7-18-30.5-33T438-38l-16 1Q362 16 315 76q-8-16-35-86 4-2 4-8t-4-10l-11-2q-1 0-140 7l-3 19-17 1q-4 4-4 11 0 24 30 81.5t30 82.5q0 16-22 63-29 61-32 67Q56 455-3 586q7 10 71 38 69 31 82 42 4-1 6-3l9-4 5-14v1q4 0 6-3zm174-444h-1l-11 10q38 112 77 223 63 186 63 198l-4-1-15-1q-13 0-38.5 4.5T382 637t-29-6q-29-106-79-320-4-5-10-5-18 0-62 149-27 92-54 183-40-30-121-60 22-86 74-204l92-196q-7-27-29-79.5T134 18q45-4 91-3h9q39 77 39 114l4 9 16 2 3-2h-1l9-4q12-25 49-68.5T412 9q13 9 38 31-33 53-100 159z"/><glyph glyph-name="Y" unicode="Y" horiz-adv-x="494" d="M225 424q73 149 84 245 78-9 87-9 19 0 52 6 50 9 52 9l10-9-2-12 12 1 10-9q-26-174-119-381Q321 66 209-78q12-8 12-19 0-7-6-11-36 23-83 76-37 43-75 87L42 44l-1 28-2 3-17-11q-4 5-4 12 0 15 16 27 13 9 27 18 30 26 73 97 37 61 57 109-1 2-101 129-60 78-95 133 0 2 48.5 43.5T101 681l17-22 3 2q13-7 22-48t36-96q23-46 46-93zM183-28q90 116 187 327 107 232 112 354l9-7h-30q-20 0-59.5-1.5T342 643l-12-1q-9-61-41-135-30-65-60-129h-15q-58 93-119 268-21-23-68-61 15-30 106-146 87-111 87-110 0-22-70-122-63-91-91-119Q94 48 166-29l12 8z"/><glyph glyph-name="Z" unicode="Z" horiz-adv-x="380" d="M343 212q19 2 33-93 8-59 15-117-31-2-141-12-86-8-142-8-35 0-73-15-10 13-7 25l-13-5Q6-3 7 3q5 35 116 354-20-10-35-10-10-10-23-11l-16 10-2 10q-16 7-74 7l54 12q-4 8-74 8 50 13 59 13 7 0 11-2-2 18-23 104-18 77-17 91 36 16 132 47 104 33 129 34 9 6 38 15 24 8 35 20 3-1 8.5 1t7.5 2q9 0 14-9l-6-16q8 5 12 5 9 0 14-9L191 180q4 1 58.5 23t60.5 26q5-2 7 1l13 1zM50 384q45 25 104 43l9-5-2 2 7-11q-18-62-67-197Q54 88 35 18q21 7 48 8 19 1 49 0 39-1 49-1 29 0 83.5 8t79.5 9v9q1 19-8 79t-15 77q-100-26-175-76l-15 4-6 5q28 78 157 440 12 32 33 96-45-28-152-53Q50 598 6 574q4-13 19-97 11-62 25-93z"/><glyph glyph-name="a" unicode="a" horiz-adv-x="431" d="M429 398q0-127-38-358Q304-2 248-2q-15 0-17 16l-12 11q-57-39-93-39-60 0-92 44Q6 69 6 131q0 81 70 179 75 104 152 104 19 0 62-28 0 10 2 32l2 21q22 17 56 17 28 0 56-12l4-8q19-3 19-38zm-43 14l-1 14q-16 5-35 5-20 0-33-6l-6-94h-15q-2 21-26 39t-46 18q-62 0-130-99-64-93-64-160 0-101 75-101 33 0 75 30 32 26 64 53 8-16 8-25t-4-23q-5-19-6-23 31 4 112 35 17 130 25 231 0 35 5 102zm-94-175q0-33-20-59.5T219 151q-42 0-42 30 0 28 22.5 63.5T248 280q44 0 44-43zm-26 1q-5-4-17-10-18-19-29-53 7 0 19 6 21 11 27 57z"/><glyph glyph-name="b" unicode="b" horiz-adv-x="462" d="M472 225q0-71-98-151Q280-3 207-3q-33 0-51 19-39-27-144-35Q15-9 9.5-3T-6 1q7 48 41 305 24 186 49 303 23 16 84 34.5t87 18.5l16-2q-2-10 4-14.5t16-1.5q-4-52-32-169-26-108-27-169 69 53 136 53 60 0 85-39 19-31 19-95zm-42 24q0 42-8 60-13 26-50 26-106 0-190-127l-12 15q12 136 76 410-35-9-71-18-43-11-69-25-3-26-12-67-12-51-15-66-13-78-30-216Q30 87 21 25l98 26 6 23q4-2 35-23 17-12 39-12 60 0 145.5 76T430 249zm-145-73q-10-84-78-84-9 0-19 1-16 20-16 39 0 24 20.5 47.5T237 203q33 0 48-27zm-27-13l-1-2q-32-1-41-43 10 3 21 23t21 20v2z"/><glyph glyph-name="c" unicode="c" horiz-adv-x="351" d="M196 160q-5 5-20 27l4 13q-15-19-23-41l14 2q11 0 25-1zm155 153q0-33-16-124-32-25-73-33 11-1 21-1l14-16 7-2q9-11 9-20 0-49-72-84Q180 5 124 5 73 5 37 38T1 121q0 82 84 199 89 124 166 124 48 0 76-43 24-38 24-88zm-41 13q0 93-57 93-67 0-148-118-76-111-76-183 0-71 83-71 110 0 156 82-58 4-80 1l-13 6q-27-28-35-28-31 0-31 44 0 29 27 70.5t54 41.5q24 0 24-32 0-11-10-39h11q16 0 81 28 14 71 14 105z"/><glyph glyph-name="d" unicode="d" horiz-adv-x="457" d="M490 631q0-127-46-304-44-149-87-298-7-6-56.5-15.5T237 4l-16 2 2 13h-1l-19 15Q164-1 91-1 49-1 20.5 27T-8 97q0 81 74 189 78 116 154 116 27 0 50-11 2 19 15 90 10 59 10 88.5t69 69.5q64 37 99 37l12-11-2-5 17-13v-16zm-43 19q-131-59-126-94-8-17-17-76.5t-9-97.5q0-21 3-28-7-13-24-18l-4 20q-22 22-52 22-59 0-132-108-70-103-70-167 0-62 53-62 57 0 97 25 31 20 73 70l19-6q-24-33-29-83 32 4 90 15 62 199 84 290 42 171 44 298zM283 254q0-34-27-61t-61-27q-29 0-29 26 0 11 16 42 21 41 74 41 27 0 27-21zm-30-24q-24-6-37-34 6 3 21 4 2 0 16 30z"/><glyph glyph-name="e" unicode="e" horiz-adv-x="332" d="M339 347q0-16-7-98-63-19-179-46 46 7 131 23l12-16 9-2q8-15 8-23 0-56-75-121.5T106-2Q59-2 31 30T3 110q0 94 69 229 78 152 160 152 50 0 80-49 27-42 27-95zm-39 11q0 109-75 109-61 0-133-147-66-135-66-208t64-73q54 0 110 55 51 49 70 106-19-1-51-8-37-9-51-11-5-18-25-47-23-32-39-37-16 16-16 44 0 30 23 98 66 14 186 49 0 10 2 35 1 22 1 35zm-75-52q0-7-2-19-54-9-67-9h-16q10 33 34 78 4 0 12 4.5t13 4.5q13 0 20-24 6-18 6-35zm-18 14q-1 2-2 3-6-2-5-15-3-1-7-2l3-5 8 12q1 3 3 7z"/><glyph glyph-name="f" unicode="f" horiz-adv-x="368" d="M394 486q0-52-27-84t-79-32q-46 0-72 39-25 36-20 82-35-42-42-151h4q7 0 19 5t19 5q15 0 19-16l18-11v-11q0-15-6-44t-6-43q-10-10-31-15-24-5-32-10 20-115 20-168 0-18-59-35-50-15-76-15l-14 2q2 15-7 15-3 0-6-2Q0 35 0 79q0 204 39 346 62 224 210 224 59 0 103-53 42-49 42-110zm-42 14q0 50-30 86t-79 36q-125 0-181-213Q26 271 26 94q0-37 6-69 23 5 103 26-10 46-22 183 18 3 67 22 1 11 6 32.5t5 33.5v1q-17-3-51-10-10-14-17-14l-7 1q-2 55-2 62 0 65 24 123 31 75 86 75 25 0 35-15l-2-15q-37-1-37-60 0-23 14-41.5t36-18.5q38 0 60 26t22 64z"/><glyph glyph-name="g" unicode="g" horiz-adv-x="403" d="M410 350q-3-89-44-226-48-159-114-260-81-124-170-124-50 0-83 43-29 40-29 92 0 55 23 102Q36-12 120 4q5-21 23-23v-13q7 0 14 36-47-7-63-7-41 0-70 32t-29 73q0 94 40 167 49 89 135 89 36 0 72-23 15 17 62 28 39 9 70 9 20 0 21-18zm-42-6q-29-4-58-7-43-7-46-18-2-14-11-43-32 41-32 42-18 16-49 16-74 0-116-84-35-68-35-150 0-59 59-59 37 0 66 17 52 32 55 33l12-12q-3-7-42-105-25-64-61-94l-23 12q-4 15-4 24 0 16 15 59L9-46Q-7-81-7-124q0-35 18-62 21-32 54-32 109 0 209 231 80 186 94 331zM245 199q0-28-14-48-15-23-42-23-18 0-33 12.5T141 170q0 28 19 49.5t47 21.5q38 0 38-42zm-24-1l-1 3v-2q-2 0-17-6t-19-38q4-2 7-2 2 0 4 1 8 4 12 24t13 21z"/><glyph glyph-name="h" unicode="h" horiz-adv-x="396" d="M392 163q0-121-21-149T240-38l-12 17-7 1q-9 10-9 22 0 22 10 64.5t10 64.5q0 24-5 46-7-1-16-11-12-12-15-14-10-55-12-119-15-16-76-27-49-8-86-8-3 18-21 21 10 158 98 545 11 5 66 41 40 26 72 26h5l11-11-1-5q17-2 17-13 0-65-40-284 17 7 35.5 13.5T298 338q60 0 81-63 13-37 13-112zm-41 42q0 49-8 70-13 37-52 37-24 0-56-19-28-18-45-39l-17 9q42 225 52 343-21-3-53-27-36-27-53-32-28-129-57-257Q21 101 25 40v-2q25 0 119 26 3 97 17 128 6 2 27 17 16 11 32 11l20-10q16-37 16-81 0-38-18-123 56 15 95 30 18 131 18 169z"/><glyph glyph-name="i" unicode="i" horiz-adv-x="218" d="M202 365q0-35-19-157-24-161-24-166-13-12-36-19-26-8-35-14-9 0-26-5.5T36-2L17 2v11L0 23q6 64 23 192 1 7 11 45 8 30 7 45 0 2-1 8t-1 10q21 21 105 54-8-2-15-2-13 0-30 2-36 34-36 58 0 35 33.5 69t68.5 34q28 0 69-46v-13q0-27-22-55t-51-41q5 1 7 1l17-2-1-8q0-7 6-9 5-1 12 0zm-10 135q0 5-10 8.5t-16 3.5q-29 0-52.5-26T90 431q0-12 9-14 3-1 19-1 2 0 15 7 59 33 59 77zm-23-135q-25-4-38-16-12-2-39.5-16T59 311q-11-21-21-117Q27 80 24.5 66T15 38h4l1-7q39 11 105 37 13 155 44 297z"/><glyph glyph-name="j" unicode="j" horiz-adv-x="214" d="M222 463q0-45-30.5-79.5T117 349q-12 0-34 2-13 15-26.5 31.5T43 417q0 32 28 67t59 45q7 3 32 3 11 0 22-3l28-28q10-15 10-38zm-41 17q0 29-16 29-4 0-12.5-3t-15.5-1q-34-21-47-35-21-23-21-53 0-28 24-28 36 0 62 27.5t26 63.5zm31-180q0-54-35.5-240.5T104-205Q33-352-102-352q-92 0-126 87-21 54-21 165 62 44 115 44l16-2q-3-10 3.5-14.5T-99-74q-1-14-8-49-6-31-6-49t7-33l3-1q75 24 114 217 22 133 43 267 7 28 56 43 36 11 76 11l9-14v-4zm-40 7q-26-1-89-26-14-87-28-175Q30-37-3-119q-45-111-102-111-21 0-36 23-14 20-14 43 0 19 12 82-17-2-82-32v-12q0-83 16-122 24-63 93-63Q3-311 68-169q31 71 65 245 13 57 25 115 14 67 14 116z"/><glyph glyph-name="k" unicode="k" horiz-adv-x="407" d="M436 358q0-22-141-147 31-58 62-117 44-86 44-115-41-44-94-81-33-1-82 83-11 17-60 118-7-38-8-78l-16-11q-16-1-62-7-39-6-63-6-1 23-20 19 14 254 84 585 17 14 54 35 43 24 56 24 16 0 34-8 22-10 22-24 0-49-15-134-17-93-19-133 8 14 29 37 20-2 88-3 54 0 87-8 0-17 20-29zm-50 11q-45 1-134 4-46-58-82-112l-18 5q13 62 27 182 14 125 26 183l-2 3q-65-18-103-49Q70 401 20 39q35 2 96 14 4 113 28 136 22-37 69-126 44-81 72-124l9 12q15 8 34 26 29 28 31 29-15 41-54 117-42 83-64 107 49 40 145 139z"/><glyph glyph-name="l" unicode="l" horiz-adv-x="191" d="M177 124q0-45-5-94Q143 18 34-5L21 12h-7l-9 9-2 521q0 47 42.5 98t87.5 51l24-9v-8h1l16-11q9-41 9-141 0-53-3-147t-3-117V124zm-42 102q0 123-4 437-62-17-87-66-18-37-18-103 0-19 1.5-56t1.5-55l2-345q36 8 100 25 4 97 4 163z"/><glyph glyph-name="m" unicode="m" horiz-adv-x="607" d="M607 46q-20-17-72-46-57-31-74-31-13 0-21 17l-7 1q-19 36-25 91-5 48-9 95l-8-6q-9-31-9-120-57-31-99-31l-14 2-8 15q-13 5-24 87-14 100-17 108-43-38-43-59 0-27 7-74 7-52 8-74Q100-6 32-6q-4 18-22 22Q-2 218-1 282l1 79q17 9 103 36 19-5 30-13 59 60 101 60 51 0 97-75 24 71 80 71 44 0 72-61 16-35 40-106 25-76 39-109 46-105 45-118zm-44 20q-30 54-64 167-34 117-60 167-9 17-32 17t-39-33q-8-16-22-61-9-33-16-33l-7 1q-15 39-30 77-25 52-52 52-39 0-65-28-17-19-32-54-12-31-16-33l-17 12q3 11 3 16 0 7-2.5 19.5L108 370q-30-10-84-24v-51q0-80 11-258l17-1q20-1 50 7 47 13 48 14-11 84-11 143 15 23 30 47 22 30 40 30 35 0 50-94 6-61 13-123 23 4 69 17l-2 44q-1 31 10 63 14 42 40 42 4 0 29-18 5-23 11-97 4-62 18-97z"/><glyph glyph-name="n" unicode="n" horiz-adv-x="412" d="M417 37q0-16-10-26-22 0-70-9t-72-9q-3 8-15.5 19T235 34q-1 7-6 92-3 54-19 90-11-4-34-34 4-22 10-174-44-24-117-24-30 0-32 17Q15 16 4 137q-7 83-7 161 0 38 3 76 15 10 57 32 46 23 56 23 11 0 19-13v-3q15-1 16-27 22 22 94 22 0-10 4-11 65-23 100-138 15-57 29-115 20-73 42-107zm-46 14q-18 40-42 135-21 89-42.5 132T233 371q-15 5-16 14h-7q-51 1-72-81l-19 9q-11 42-13 87-28-12-82-39-2-53-2-83 0-146 24-251l15-1q14-1 84 15l-11 166q31 52 62 52 37 0 54-96 3-15 13-129 46 0 108 17z"/><glyph glyph-name="o" unicode="o" horiz-adv-x="342" d="M344 254q0-77-82.5-165.5T103 0Q53 0 26 48 4 88 4 142q0 109 46 187 56 94 158 94 59 0 99-57 37-51 37-112zm-42 20q0 45-25 82-28 42-71 42-31 0-87-32-91-53-91-219 0-64 25-90h2q3-1 13-8t12-7q70 0 146 80.5T302 274zm-130-93q0-9-8-32t-13-29-20.5-16T108 94q-44 0-44 65 0 19 20.5 43t39.5 24q48 0 48-45zm-25-4q0 7-6 7-11 0-23.5-19.5T105 133v-9q2-1 6-5 10 5 23 26.5t13 31.5z"/><glyph glyph-name="p" unicode="p" horiz-adv-x="429" d="M431 259q0-77-71-163Q284 5 206 5q-19 0-36 6 1-36 6-116 6-75 6-115l-4-18-140-78-15 14q-2 8-6 9-1 0-12-3L3-26Q0 295 24 366l12-2q14 0 40 11.5t40 11.5q16 0 27-8 18-14 21-15l-1-26q43 58 119 58 55 0 102-41.5t47-95.5zm-41 17q0 39-34.5 68T281 373q-55 0-92-42-19-21-53-89-18 5-18 45 0 15 3 41.5t2 32.5q-14 0-39-9t-38-9q-12-19-12-86 0-22 1.5-59t1.5-45q0-68-5-205t-5-205l1-10q16 10 58 30 37 18 55 33-9 51-13 129-3 65-5 130l11 11q15-14 32-14 85 0 154.5 69.5T390 276zm-162-96q0-34-18-57t-51-23q-11 0-19 6-2-1-4-1-6 0-15 10 0 62 66 93 41-9 41-28zm-25-17q-25-11-35-36 29 3 35 36z"/><glyph glyph-name="q" unicode="q" horiz-adv-x="435" d="M466-114q0-18-105-109.5T235-315q-2 2-11 16-4 5-10 5-3 0-9-1 1 60 9 166 10 118 12 167Q179-4 111-4 59-4 27 43-2 85-2 139q0 69 63 146.5T191 363q38 0 69-12 22 42 38 48 6 2 65 2 18 0 27-13v-4l17-13q0-79-13-225-14-156-16-227 12 0 48 4 19-17 33-23zm-50 11q-17-3-51-6l-51 2 23 18-1 12q-3 77 12 216 16 150 16 215v22q-28-1-76-9-4-24 1-49l-15-10-20 16q-26 15-61 15-60 0-116-76-54-71-54-133 0-35 19-62 21-31 54-31 47 0 90 35 6 4 72 69-11-127-26-404 123 97 184 160zM249 183q0-31-31-62.5T156 89t-31 31q0 12 1 17 5 17 32.5 47t43.5 30q26 0 33-3 14-6 14-28zm-28-17v5q-33-14-48-52 30 12 48 47z"/><glyph glyph-name="r" unicode="r" horiz-adv-x="325" d="M332 283q0-47-26-81-29-37-75-37-44 0-71 38v-17q0-27-5-73-6-54-7-72-15-16-47-30Q62-8 51-15H33Q17-15 14 4L0 8q2 84 5 169 4 98 17 167 17 18 54 42 41 27 58 27 9 0 24-8l-2-10h3l11-2 3-16q26 15 62 15 97 0 97-109zm-43 20q0 64-55 64-34 0-55-22-33-32-41-37l-13 4q8 38 8 72-64-27-90-54-8-56-18-302 15 4 46 20 35 17 37 24 7 17 7 49 0 11-1 34.5t-1 35.5q0 91 53 111 14-7 14-14 0-4-5.5-17t-5.5-18q0-47 53-47 31 0 51 34 16 29 16 63z"/><glyph glyph-name="s" unicode="s" horiz-adv-x="345" d="M336 136q0-74-70-110Q212-3 131-3 91-3 50 14-1 36-1 70q0 19 13 69 14 58 27 58 22-15 44-31 29-19 48-19 13 0 23 10t10 22l-1 9q-49 42-62 59-25 33-25 79 0 59 25 82t84 23q42 0 70-11 19-7 61-35l1-16q0-53-28-132l-13-2q60-38 60-99zm-41 14q0 36-26 56-25 12-49 25-28 16-30 43 10 17 26 17 8 0 21-5t18-6q9 38 17 109-43 17-86 17-87 0-87-80 0-43 44.5-84.5T188 182q0-22-12.5-40T141 124q-60 0-97 39L26 66q35-29 79-29 68 0 121 23 69 31 69 90z"/><glyph glyph-name="t" unicode="t" horiz-adv-x="312" d="M318 215q0-60-41-135-46-86-99-86Q1-6 1 193q0 44 14 161 15 128 27 148 6 11 59 27 49 15 67 15 15 0 21-20l13-4q0-21-7-56-8-41-10-56l23 3q9 0 20-7l4-11 13-5-6-94q-9-7-21-9l-1-1h-4q-6-1-13-1v1h-29q-16 0-25-5-1-4-6.5-51t-5.5-57q0-18 3-35 13 23 20 99 15 14 41 15v-1h36q6 1 19.5 4t20.5 3q12 0 28-15t16-26zm-45 15l-4 2q-14-6-44.5-6t-44.5-5q-12-75-13-79-14-49-48-54-27 41-27 96 0 7 16 132 22 8 92 12l4 58q-21-8-66-18l-7 20q7 12 18 62 10 45 12 65-33-4-95-23-39-200-39-295Q27 36 152 36q84 0 121 194z"/><glyph glyph-name="u" unicode="u" horiz-adv-x="335" d="M332 320q0-126-37-208Q245-1 135-1 48-1 20 114 6 172 6 299q0 3 7 54l17-2q14 0 42.5 5.5T116 361l24-1 8-15 7-1 8-12q-7-87-7-105 0-23 3-43 14 14 19 67 3 42 0 72 21 15 63 19 34 2 69 3 4-7 7.5-13t14.5-3v-9zm-39-1q-31-2-91-11 0-155-50-155-39 0-39 89 0 15 3 48 2 30 2 47-64-9-83-8V213q0-173 83-173 12 0 40.5 6T195 57q81 54 98 262z"/><glyph glyph-name="v" unicode="v" horiz-adv-x="314" d="M334 331q0-38-91-160Q136 28 125 3l-25-1Q90 18 75 26 48 146 1 382q9 15 111 15 9 0 14-17 13-2 14-19h-1v-15l8-41q11 23 31 59 14-3 22-3 13 0 38 4t38 4q20 0 42-9l-2-10 14-3q4-11 4-16zm-46 12h-5q-16 0-47-2.5t-46-2.5q-16-31-48-136h-18q-9 61-26 171-26-1-70-7 9-32 19-93 12-65 19-93 11-42 30-127 26 37 81 103 39 47 111 187z"/><glyph glyph-name="w" unicode="w" horiz-adv-x="483" d="M501 365q0-18-72-169Q345 22 338 5l-27-4q-9 19-20 20-9 23-36.5 65T218 152q-20-42-39-85-31-65-45-65-5 0-21 17l-5 2q-10 9-54 153T5 349q56 38 107 38l16-2 10-16 10-1q2-7 13-57 49 87 73 87 9 0 20-9 14-13 17-15l32-87q11 35 37 105l140 6 5-14q16 2 16-19zm-46 8q-61-7-96-4l-58-164-18 13q-3 31-21 77-23 57-28 76h-1q-24-29-52-78-23-41-47-83-7 65-22 151-50-8-81-25 5-21 32-92 21-56 25-93 13-16 19-46 11-49 11-50 22 47 43 94 25 52 51 89 14-50 93-187 84 190 150 322z"/><glyph glyph-name="x" unicode="x" horiz-adv-x="408" d="M409 68q-12-19-43.5-54T321-42h-23q-31 30-93 116-3-14-7-28-5-18-15-24-1 0-69.5-9.5T37 3q-9 0-14 10T10 23q-4 0-8-1v26q0 6 86 155-29 75-35 90-22 51-43 87l1 7-9-14q3 10 9 18l1 12 6-4v-1q17 16 51 19 7 1 61 1 14 0 31-3 5-15 18-19l10-17q6 11 17 27 80 16 164 20l11-11-2-7q19-5 19-19 0-2-39.5-72T310 233q31-48 99-142V68zm-42 27v2q-17 25-51 76-20 22-59 67 31 60 93 161-48-4-130-17-7-22-31-73-19 37-46 82-36-4-104-7 22-48 45-96 29-66 29-96 0 1-14-24L33 49q41 2 121 14 10 39 24 62l-1 2q0 17 12 17l10-3q9-24 42-73 31-45 52-67 27 34 74 94z"/><glyph glyph-name="y" unicode="y" horiz-adv-x="418" d="M425 303q-12-87-147-324Q154-241 78-330H65q-35 0-89 43-44 34-74 72v19Q35-67 101 5 74 58 38 160-3 275-3 317q42 15 120 15 25 0 30-20 14-12 50-149 20 48 45 145l9 9 149 10zm-46 0q-41-2-114-12-9-45-31-106-24-68-44-99l-16 8q-19 73-53 211h-5q-54 0-94-5v-6q0-20 54-151T130 1q0-13-201-207 14-21 55-50.5T46-286l6 1L236-1q102 167 143 304z"/><glyph glyph-name="z" unicode="z" horiz-adv-x="410" d="M409 329q0-26-44-78-32-36-64-73 4 1 20 7 12 4 20 4l11-2q9-15 24-23 5-25 5.5-75t5.5-75q-76-29-189-48Q101-48 5-62l2 14q-7 4-14.5 8T-16-27l116 150q-26 0-28 16l2 1q-6 1-16 0l-1 27q-3 64 3 107 4 29 149 59 125 25 183 25-1-10 3-13.5t14-2.5v-13zm-45 3q-56-3-143-21-102-21-133-43l-6-104h1q15 0 45.5 9.5T177 183Q103 77 20-20q64 3 163 27 151 38 161 40-5 43-2 64l-5 5q4 12 4 19 0 11-5 27-132-35-124-35-15 0-14 16 116 116 166 189z"/><glyph glyph-name="currency" unicode="¤"/><glyph glyph-name="HT"/><glyph glyph-name="nonmarkingreturn"/><glyph glyph-name="DC1"/></font>
</defs>
</svg>
