<svg xmlns="http://www.w3.org/2000/svg"><defs><font id="Edbindia" horiz-adv-x="762"><font-face font-family="Edbindia" font-weight="400" panose-1="0 0 4 0 0 0 0 0 0 0" ascent="800" descent="-200" x-height="654" cap-height="664" bbox="-49 -200 2395 930" underline-thickness="20" underline-position="-143" unicode-range="U+0020-00BB"/><glyph glyph-name=".notdef" horiz-adv-x="500" d="M63 0v800h375V0H63zm62 63h250v675H125V63z"/><glyph glyph-name=".null" horiz-adv-x="0"/><glyph glyph-name="nonmarkingreturn" horiz-adv-x="495"/><glyph glyph-name="space" horiz-adv-x="495"/><glyph glyph-name="exclam" unicode="!" horiz-adv-x="201" d="M176 486q0-27-1-68v-60q0-77-14-112-21-55-84-55-28 0-40 6-22 9-28 46-8 49-9 128v67q1 50 1 63 0 70 14 104 22 50 80 50 59 0 70-46 9-40 11-123zm-9-410q0-73-85-73Q-1 3-1 88q0 81 89 81 79 0 79-93zm-17 252q0 257-9 283-4 11-19 20.5T95 641q-23 0-41-16t-21-39q-7-47-7-183 0-14-1.5-41.5T23 320q0-110 52-110 51 0 67 38 8 21 8 80zm-2-250q0 29-17 50t-46 21q-68 0-68-59 0-27 19-48t46-21 46.5 15T148 78z"/><glyph glyph-name="quotedbl" unicode="&quot;" horiz-adv-x="417" d="M400 672l-34-283H232l-30 284zm-233 1l-21-284H32L3 673h164zm211-21H223l32-237h90zm-224 2H23q5-81 25-240h88z"/><glyph glyph-name="numbersign" unicode="#" horiz-adv-x="548" d="M539 537q0-35-45-45-14-3-72-3h-7q-12-25-34-74 5-1 66-1 36 0 36-40 0-39-53-39-7 0-19 1t-17 1q-45 0-61-33-9-30-19-61t-42-31q-16 0-33 9t-17 23q0 35 30 90-40 2-48 2-29 0-42-30-9-28-19-56-15-30-49-30-18 0-29.5 13T53 264q0 13 7.5 37.5T68 339q-4-2-9-2-21 0-40 13.5T0 383t25 35h93q3 13 18.5 39t18.5 42q-31 4-62 10.5T62 556q0 20 24 30 19 8 41 8 7 0 61-7 4 16 15 45 20 42 25 48 14 16 48 16 31 0 31-16 0-11-14.5-37T278 604q0-20 21-20 39 0 58 29 13 27 27 55t46 28q46 0 46-26 0-48-25-76 29-6 58.5-14t29.5-43zm-29 19l-102 4 46 110v1q-16 0-39 2l-54-114-126 5q19 52 47 111l-32 3q-10-31-56-114l-86 4-16-39h91l-43-136-111 5 3-39 70-5-22-91 24-16 51 111 139 2-46-111 40-2q13 39 47 112h106q1 11 10 33H343l54 136 107-7zm-159-24l-51-143H182l52 143h117zm-37-22h-63l-39-91h68z"/><glyph glyph-name="dollar" unicode="$" horiz-adv-x="379" d="M364 258q0-47-22-94-26-58-67-58-46 0-46-44V46q0-48-50-48-41 0-41 60 0 8 1 15-39 6-49 9-30 6-46.5 17t-30 34T0 176q0 25 20 42t45 17q21 0 59-15.5t59-15.5q47 0 47 42 0 25-44 34-73 16-94 26-60 29-88 98-6 13-6 34 0 16 6 33 39 119 131 125l6 58q8 31 43 31 30 0 40-29 3-12 6-54l70-26q38-19 38-59 0-27-21-47.5T269 449q-10 0-38.5 14.5T182 478q-12 0-28.5-11.5T137 444q0-5 4-8 22-16 92-34 63-15 94-49 37-42 37-95zm-24 2q0 47-15 63-38 42-100 59-73 20-99 38-12 8-12 19 0 24 27 43 24 17 49 17 19 0 51-13t38-13q16 0 28 13t12 30q0 30-42 48-14 6-68 18v43q0 38-26 38-22 0-27-34-1-25-3-50-52-1-92-47t-40-98q0-16 5.5-29t28-39 35-34.5T148 314q51-10 70-19 33-15 33-42 0-79-77-79-21 0-52 15.5T65 205q-40 0-40-33 0-14 9.5-30.5T57 119q7-3 54.5-12t54.5-9q-3-39-3-54 0-9 3-16 7-6 19-6t18 6v27q0 47 11 57 7 6 60 16 31 6 50 55 16 39 16 77z"/><glyph glyph-name="percent" unicode="%" horiz-adv-x="698" d="M685 209q0-35-22.5-83.5T612 54q-35-28-82-28-67 0-108 63-35 56-35 128 0 74 35 130 40 65 110 65 69 0 114-69 39-61 39-134zM492 603q0-18-13-53-50-138-99-277Q298 54 263 38q-9-5-22-5-22 0-34 17t-12 39q0 46 103.5 291.5T429 638q10 5 25 5t26.5-12.5T492 603zM298 441q0-35-22.5-83.5T225 286q-35-28-81-28-68 0-109 64Q0 377 0 449q0 74 35 130 40 65 110 65 69 0 114-69 39-61 39-134zm366-229q0 59-34 115-39 64-94 64-69 0-103-58-27-48-27-122 0-66 33-113 37-53 100-53 55 0 92 58 33 51 33 109zM473 591q0 11-8.5 19.5T445 619q-9 0-12-2-18-11-118-256T215 83q0-12 7.5-22.5T241 50q16 0 33 24 15 21 107 261t92 256zM277 444q0 59-34 115-39 64-94 64-69 0-102-58-28-48-28-122 0-65 33-113 38-53 101-53 55 0 92 58 32 51 32 109zm323-222q0-117-58-117-29 0-41 15t-21 53q-9 35-9 56 0 36 17 67 21 39 53 39 33 0 48-43 11-30 11-70zM213 454q0-117-58-117-29 0-41 15t-21 53q-9 35-9 56 0 36 17 68 21 38 53 38 33 0 48-43 11-30 11-70zm366-238q0 97-44 97-42 0-42-93 0-28 11-59 14-41 36-41 39 0 39 96zM192 448q0 97-44 97-41 0-41-93 0-28 10-59 14-41 36-41 39 0 39 96z"/><glyph glyph-name="ampersand" unicode="&amp;" horiz-adv-x="611" d="M596 86q0-82-67-82-32 0-57 16-13 9-32 31-15 16-23 16-17 0-44-23-35-29-42-32Q308 0 220 0 136 0 71 53 3 109 3 192q0 49 14 73 7 13 66 58 53 41 53 55 0 16-30.5 60T75 517q0 65 73 105 61 35 132 35 78 0 130-33 61-40 61-113 0-43-28-82-17-23-53-53-29-25-29-32 0-16 26-42.5t42-26.5q8 0 37 36.5t56 36.5q68 0 68-81 0-35-32.5-60T525 171q0-15 64-57 7-12 7-28zm-23-7q0 26-37.5 51.5T498 175q0 21 34 42.5t34 46.5q0 23-11 42.5T524 326q-24 0-51-41t-44-41q-19 0-57.5 38.5T333 341q0 11 30 40 43 41 55 55 30 37 30 69 0 52-29 82-19 19-64 33-40 13-71 13-62 0-115-27-66-32-66-87 0-27 30.5-74.5T164 373q0-15-37-42-55-42-68-54-37-36-37-73 0-88 67-136 59-42 150-42 76 0 94 13 20 19 39 38.5T423 97q12 0 25-18 18-27 26-34 21-18 54-18 21 0 33 15.5T573 79zM347 486q0-69-63-69-29 0-46.5 20.5T220 488q0 25 19 42.5t44 17.5 38-10q7-6 23-32 3-9 3-20zm-8-315q0-58-115-58-35 0-58 29t-23 65q0 27 24 63.5t49 36.5q38 0 80.5-48.5T339 171zm-13 311q0 19-14 34t-33 15q-17 0-26.5-14t-9.5-32q0-19 14.5-31.5T292 441q11 0 22.5 14.5T326 482zm-10-319q0 34-32 77.5T220 284q-22 0-39-27t-17-50 18.5-47.5T223 135q19 0 52 8 41 9 41 20z"/><glyph glyph-name="quotesingle" unicode="'" horiz-adv-x="221" d="M207 672l-34-282H39L9 673zm-22-20H30l31-237h91z"/><glyph glyph-name="parenleft" unicode="(" horiz-adv-x="232" d="M216 715q0-26-18-83-14-43-29-86-21-71-21-169 0-95 8-132 4-18 35-100 25-67 25-96 0-31-18.5-52.5T149-25q-45 0-69 38-27 42-53 184Q3 327 3 393q0 109 29 210 34 117 100 183 9 10 18 10 28 0 47-25.5t19-55.5zm-18 9q0 49-46 49-10 0-23-8-17-11-49-86-26-65-34-99-23-98-23-211 0-85 13-141 7-42 32-137 32-102 73-102 21 0 37 22 15 19 15 41 0 28-18 78-15 40-29 80-23 63-23 154 0 157 62 299 13 32 13 61z"/><glyph glyph-name="parenright" unicode=")" horiz-adv-x="232" d="M216 391q0-66-24-197-27-144-53-183T69-28Q39-28 21-6T3 46q0 31 25 97 30 80 34 100 9 38 9 105 0 128-23 198-14 41-29 83-17 51-17 84 0 30 19.5 55.5T69 794q8 0 18-10 65-64 100-183 29-102 29-210zm-21-24q0 114-22 211-9 35-35 99-31 75-49 86-12 8-23 8-46 0-46-49 0-27 14-61 61-154 61-299 0-92-22-155-15-40-30-79-18-49-18-79 0-21 15.5-41.5T78-13q40 0 73 102 11 36 32 137 12 59 12 141z"/><glyph glyph-name="asterisk" unicode="*" horiz-adv-x="352" d="M338 434q0-21-19.5-41T278 373q-32 0-61 29 5-17 5-33 0-28-13.5-49T168 299q-21 0-41 14t-20 34q0 7 2.5 22t2.5 23q0 2-2 2t-16-9-29-9q-28 0-46.5 18T0 441q0 24 32.5 32.5T65 490q0 5-29 17T7 546q0 26 11 42 1 1 27 30 10 5 21 5 23 0 30-16 0-12 16-23 5 7 4 12-2 15-2 12 0 69 42 69 49 0 60-31 0-7-2.5-23t-2.5-25q0-11 4-14h3q8 0 21 18.5t29 18.5q19 0 44-26.5t25-46.5q0-26-33-41.5T271 488q0-11 33.5-22.5T338 434zm-21-5q0 5-4 13-4 3-46 21-34 15-34 25 0 14 29 21 34 8 40 15 15 17 15 24 0 13-17 31t-30 18q-7 0-24-16.5T208 564q-6 0-11 2-6 7-6 15 0 9 6 26.5t6 25.5q0 22-38 22-9 0-19-4-8-15-8-31 0-7 1.5-21t1.5-21q0-24-19-24-9 0-25 20.5T64 595q-38 0-36-42v-6q9-12 18-23.5T76.5 512 98 495q0-19-41-29.5T16 431q0-14 15-22 4-12 32-12 24 0 35.5 20.5T120 438t16-14q-10-24-10-61 0-15 1-25 12-14 36-14 39 0 39 29 0 9-3 28t-3 28q0 24 15 24 3 0 23.5-19t45.5-19q13 0 25 11t12 23z"/><glyph glyph-name="plus" unicode="+" horiz-adv-x="515" d="M482 454q0-68-109-70 11 0-51 1-1-73-13-105-21-52-78-52-23 0-37 6-32 13-34 145Q3 379 3 471q0 23 5 37 14 32 152 34 0 73 12 108 20 57 76 57 71 0 75-113 1-11 0-53 159 0 159-87zm-15-1q0 68-128 68-19 0-39-2 1 31-3 101-10 72-49 72-66 0-66-144v-29q-66 2-90 0-69-8-69-47 0-72 106-71h52q0-66 3-87 9-66 45-66 72 0 73 114v46h93q72 7 72 45z"/><glyph glyph-name="comma" unicode="," horiz-adv-x="250" d="M223 53L44-167l-93 65L89 147zm-21-9L95 120Q53 51-22-91l72-50q50 61 152 185z"/><glyph glyph-name="hyphen" unicode="-" horiz-adv-x="515" d="M482 373q0-76-130-76-32 0-97.5 1t-97.5 1Q3 299 3 390q0 23 5 37 9 22 78 30 38 5 96 5 23 0 70-1h71q69 0 104-13 55-20 55-75zm-15 0q0 47-57 58-39 8-94 8-18 0-47-1-32-1-47-1t-43.5 1.5T135 440q-112 0-112-48 0-72 107-72 8 0 25 1h78q186 0 203 9 31 16 31 43z"/><glyph glyph-name="hyphen" unicode="‐" horiz-adv-x="515" d="M482 373q0-76-130-76-32 0-97.5 1t-97.5 1Q3 299 3 390q0 23 5 37 9 22 78 30 38 5 96 5 23 0 70-1h71q69 0 104-13 55-20 55-75zm-15 0q0 47-57 58-39 8-94 8-18 0-47-1-32-1-47-1t-43.5 1.5T135 440q-112 0-112-48 0-72 107-72 8 0 25 1h78q186 0 203 9 31 16 31 43z"/><glyph glyph-name="period" unicode="." horiz-adv-x="201" d="M167 76q0-73-85-73Q-1 3-1 88q0 81 89 81 79 0 79-93zm-19 2q0 29-17 50t-46 21q-68 0-68-59 0-27 19-48t46-21 46.5 15T148 78z"/><glyph glyph-name="slash" unicode="/" horiz-adv-x="522" d="M500 581q0-53-99-204L261 177q-11-15-35-50Q137 3 75 3 51 3 26 24.5T1 70q0 51 109 216 74 107 149 214 109 159 173 159 30 0 49-24t19-54zm-19 3q0 55-44 55-36 0-72-41-43-48-95-122l-86-128q-28-38-83-115Q27 125 27 74q0-21 16-35.5T80 24q46 0 108 90 8 13 24 36l144 206q110 161 120 196 5 14 5 32z"/><glyph glyph-name="zero" unicode="0" horiz-adv-x="728" d="M708 321q0-110-64-209Q571 0 466 0q-90 0-149 61-52 54-73 148-10 45-10 131 0 78 12 118 9 30 50 107-9 12-25 12-52 0-96-64-40-59-40-113 0-129 37-184 8-11 8-14 0-15-13-15-6 0-13.5 7.5T139 202q-16 0-16-27 0-9 13.5-37T150 91q0-45-20-45-7 0-16 20T81 86q-19 0-39 26-17 21-24 42Q2 201 2 285q0 41 10 73 22 66 105 148 90 89 152 89 20 0 31-16 23 39 69 60 42 19 90 19 108 0 158-62 91-116 91-275zm-91 200v27q0 34-12 34-27 0-19-1 5-18 4-60h27zm-43 64h-24l9-64h8zm13 14q-48 42-120 42-68 0-126-42 41 3 78 3h72q39 0 96-3zm-46-87v45q-11 7-10 29l-26-2q0-25-10-72h46zm-56 45q-11 6-11 27h-26v-73q5 4 11 4 4 0 11.5-2t10.5-2zm-57 29l-30-1q0-23-7-39l-3-45 35-3zm-49-2q-2-7-9-7-8 0-17 5l-7-84 27-1zm-42-5q-14-11-33-42t-20-48l4-1q7 0 23 2.5t25 1.5q-2 16-2 38 0 30 3 49zm206-258q0 171-59 171h-36q-56 0-56-171v-48q0-128 78-128 38 0 59 72 14 51 14 104zm146 18q0 32-13 94-16 74-35 80-28 0-128-19 48-27 48-168 0-42-17-103-19-74-46-87-17-8-41-8-85 0-85 207 0 93 32 149-57-5-136-16-14-35-14-127 0-104 16-157Q322 17 450 17q116 0 182 107 57 92 57 215zM165 528Q22 413 22 287q0-30 4-64 4 1 23 14 14 9 25 9 17 0 52-37h18q8 0 8 12 0 7-8 24-26 57-26 143 0 35 17 73 26 55 30 67zM90 207H62q6-11 22-27zm38-130l-5 36h-9l5-36h9zm-34 27l-4 47-9-5 5-42h8zm-32 22l-2 41h-7l-1-43zm558 334l-8-80q-9 10-18.5 21.5T584 423v37h36zm-287-53q0-10-9.5-21.5T305 364l-8 80h36v-37zm208-280q-6-29-30.5-48.5T457 59q-23 0-45.5 18.5T388 118q47-33 73-33 28 0 80 42z"/><glyph glyph-name="one" unicode="1" horiz-adv-x="498" d="M478 466q0-7-6-19-9-17-10-19-4-10-5-31t-4.5-31.5T436 347q-16-9-20-15.5t-11.5-19T384 300q-11 0-14 7 2 6 9 50 6 32 19 45-34-2-47.5-30T329 342q-7 4-7 15 0 17 15 67.5t15 77.5q0 83-70 86-3-113-3-499 0-90-87-90-28 0-54 31-22 26-22 97 0 244 5 395-21-3-38-3-83 0-83 78 0 40 44 53 24 7 76 7 71 0 103-8 17-4 41-27 21-20 52-20 6 0 18.5 5.5T354 613q42 0 83-52t41-95zm-24 24q0 29-36 67.5T353 596q-8 0-14-4 29-53 29-117 0-38-11-66 30 16 60 31 37 19 37 50zm-10-50l-21-15 7-35 12 13zM260 568q0 16-5 42-10 1-33 26-7-34-14-102h47q5 18 5 34zm160-197l-17 13-4-33 12-2zM207 603q0 7-5 18.5t-5 17.5h-26V533q36 16 36 70zm-59-69v100l-28 5V534h28zm-38 55q0 28-11 51-13-1-37-5V534h37q11 20 11 55zm-58 44l-27-12q-7-15-7-34 0-17 6-31l23-19zm214-429v251q0 22-2 68-26 1-46 1h-39q-20 0-39-1-7-93-7-187l1-171q28 7 38 23 6 8 8.5 27t10.5 27q13-6 13-21 0-61-70-67-2-10-2-20 0-115 63-115 59 0 66 64 5 45 5 121zm-77 184q0-38-17-38-23 0-23 38 0 32 20 32 7 0 16-5 4-12 4-27z"/><glyph glyph-name="two" unicode="2" horiz-adv-x="683" d="M666 62q0-43-23-55-13-7-61-7-203 0-314 8-33 2-44 7-19 9-19 37 0 18 6 35 12 37 87 115 65 67 131 134 67 75 67 115 0 49-59 49-37 0-56-44l-20-76q-12-32-67-32-38 0-60 32-19 28-19 68 0 34 19 73 6 12 38 65-29-4-57-36-8-10-42-57-7-9-19-27-22-39-22-85 0-25 29-86-4-4-8-4-6 0-13.5 7t-11.5 7q-17 0-29-45-9-35-9-61-27 18-37 28-18 17-27 38-8 16-17 33.5T0 331q0 31 4 56 7 42 48 96.5t80 76.5q32 18 72 27 73 14 75 15 9 2 23.5 12.5T322 628q49 26 131 26 90 0 150-64t60-154q0-112-166-256-15-11-41-36 8-12 78-12 11 0 33.5 2.5T601 137q65 0 65-75zm-62 490q-22 51-50 51-23 0-23-12 0-2 31-53 28 8 42 14zm-59-18q-4 3-22 31-16 24-24 24-7 0-15-5 13-6 12-59 31 0 49 9zm-1 81q0 23-121 23-20 0-58-11-45-12-46-25h93q37 0 82 3 50 4 50 10zm-69-90q-3 10-15 58h-28q2-7 2-17 0-8-2-22-2-17-2-23zm-59 47q-20 10-38 11 3-9 3-16 0-37-14-51h39q0 25 10 56zm-54 12h-5q-17 0-20.5-3.5T327 557q-4-13-4-18 0-3 2.5-11t1.5-12l19-1q12 17 16 69zm-42-2l-37-8-31-63 54-1zm74-82l-126-5q-37-2-37-60 0-28 22-50t50-22q30 0 40 23 7 26 14 53 10 38 37 61zM650 58q0 39-17 52-13 10-52 10-10 0-31-1.5t-32-1.5q-83 0-83 19 0 16 25 38 32 30 35 34-41 7-41 41 0 10 5 19 20-48 47-47l4 1q132 121 132 213 0 88-30 109-31-19-135-35 40-10 40-62 0-38-76-124-71-74-142-149-76-84-76-119 0-12 12.5-24T615 19q35 0 35 39zM211 566h-10q-61 0-126-81-61-78-61-141 0-14 3-27 13 22 41 22 8 0 23-2t23-2q6 0 12 1v55q0 36 33 93 30 51 62 82zM110 316H62q4-17 20-48 8 6 14.5 23.5T110 316zm-61-17l-20 10 7-26 7-3zm32-66l-17 22-2-23 17-6zm533 195q-8-8-14-8-4 0-9 1-10 10-10 34 0 17 4 38 9 3 16 3 6 0 12-3-10-9-10-32 0-24 11-33zm-47 34q0-16-5-39-6-3-11-3-9 0-17 8 7 5 7 16 0 8-3.5 21t-3.5 19q14 11 23 11l6-2q4-16 4-31z"/><glyph glyph-name="three" unicode="3" horiz-adv-x="632" d="M617 202q0-62-32-117-35-61-91-78-19-6-72-6-105 0-140 13-46 17-81.5 61.5T165 167q0 31 22.5 59t53.5 28q15 0 29-5 5-2 47-56 39-50 70-50 66 0 66 64 0 32-38 48-35 12-70 25-38 19-38 60 0 37 34 58 33 13 66 28.5t33 44.5q0 36-43 36-31 0-75.5-38.5T254 430q-32 0-52.5 20T181 502q0 21 13 53-72-14-72-123 0-46 13-108-12 12-21 12-27 0-19-106-13 13-41.5 28T15 285Q0 303 0 336q0 62 50 145 53 88 108 105 21 2 62 13 41 21 83.5 40.5T392 659q199 0 199-188 0-65-58-117 52-43 65-64 19-30 19-88zm-65 366l-25 34-33-5 5-32zm-58-24q-15 4-17 14 1-2 1 22 0 10-5 17-37-11-37-19 0-10 5.5-23t10.5-25q14 9 42 14zm13 73q-42 26-104 26-90 0-161-50 11-3 28-3h61q52 0 95 9 26 8 81 18zm-72-87l-14 55h-5q-5 0-13.5-1.5T390 582q-19-19-19-44 0-10 4-21zm-65 51h-56l6-70h37q0 1 13 70zm-71-70l-3 67q-18-6-20-7-7-5-7-18 0-7-3.5-21t-3.5-21h37zm-37 63q-15 2-27 2-34 0-34-46 0-9 2-18 19-3 26-3 20 0 25 25zm63-74q-50-5-87-5-23 0-38 2 10-52 51-52t74 55zm273-293q0 53-20 82-10 16-39 36-24 16-28 33 41 40 49 55 15 26 15 76 0 67-26 67-15 0-55-20-43-22-43-33 0-6 3-17t3-17q0-38-34-56-32-12-65-25t-33-42q0-40 39-57l72-24q38-17 38-59 0-38-22.5-61T391 122q-31 0-63 30-13 11-48 54-24 29-35 29-25 0-44-20t-19-44q0-47 41-95 32-37 85-49 32-7 99-7 82 0 118.5 23t64.5 97q7 18 6 30-20-27-40-27-35 0-48 23-7 12-14 56 22-41 39-59 7-4 15-4 18 0 34 15t16 33zM187 575q-88-6-160-169-10-22-10-32 0-8 8-9-19 1 14 1 49 0 73-10-5 28-5 56 0 119 80 163zM81 348l-23 2q-1 0-13-2v-23zm-2-28l-22-12-10-22 16-17zm-53-12v28h-8v-28h8zm529 166q0-11-5-27v-1h-1l1 1q-5 5-23 3-10 21-10 24 0 14 7 36 6 3 10 3 7 0 17-13 4-16 4-26zm-48 18q0-12-5-49l-13 6q-12 24-12 27 0 12 7 22.5t18 10.5q5-3 5-17z"/><glyph glyph-name="four" unicode="4" horiz-adv-x="623" d="M606 427q-9-12-9-65 0-19-10-31t-19-24q-13-13-27-13-13 0-13 30 0 11 1.5 31t1.5 29l-8 3q-17 0-48-8 2 17 2 36 0 50-12 90-18 59-54 59-6 0-10-4-8-6-15-97-6-75-6-110 0-34 8-47 5-8 32-16.5t39-17.5q20-16 20-48 0-39-13-54-6-7-28.5-14.5T404 132q-8-11-13-50.5T376 26Q359 0 319 0q-33 0-52 23t-19 57q0 9 2 28t2 29q0 17-25 17-27 0-81-3t-82-3q-34 0-46 8-16 12-16 46 0 35 26 92 2 4 46 88 67 128 90 164 73 110 130 110 28 0 55-22t30-22q4 0 12.5 3t13.5 3q40 0 100-36.5t82-71.5q13-21 19-83zm-19 35q-14-11-46-30l26-7q7 13 20 37zm-18 22q0 33-59 76-57 40-92 40-27 0-27-13 0-4 9-6 52-13 69-43 10-17 14.5-65t17.5-76v15q0 30 34 41.5t34 30.5zm12-135v54h-10v-54h10zm-45 48v16h-8v-16h8zm20-63v42h-9v-42h9zM379 579q-34 56-76 56-27 0-55-17.5T205 576zm0-14l-46 1v-55l37 6q0 30 9 48zm-67-54v56l-26-1q2-3 2-15v-19q0-5-3-14zm-44 0l-4 55h-9l-9-58zm-28 55h-8l-18-54 19 4zm-22 2l-18-2-30-49 30-2zm242-358q0 37-26 52l-48 20q-25 16-25 58 0 8 1.5 24t1.5 24q0 68 6 108-16-2-31-2-28 0-83.5 4t-83.5 4q-14 0-67-94.5T52 292q0-9 11.5-18t21.5-9q11 0 25 23 9 17 18 33l16-3q-14-39-21-49-16-25-43-25-13 0-22 11-12 14-16 15-20-8-20-64 0-26 12-36 7-1 19-1 24 0 71.5 2t70.5 2q62 0 71-11 6-8 6-71 0-69 46-69 34 0 45 24 6 13 8 52 1 36 10 50 4 7 44 24 35 14 35 38zM284 331q0-39-7-49-10-12-47-12h-22q-43 0-43 20t11 42q11 19 22 37 13 32 41 93 8 17 19 17 5 0 11-3 15-20 15-145zm-95 81q0-9-4.5-26t-3.5-26q-7 0-15 4.5t-13 5.5q8 18 25 55 11-5 11-13zm-26 14q-10-10-15-31.5T134 364l-10 12q5 10 9 27 6 21 8 27zm98-64q0 45-5 83-13-25-34-74-21-52-33-75 15-7 33-7 20 0 34 8 5 25 5 65z"/><glyph glyph-name="five" unicode="5" horiz-adv-x="613" d="M582 470l-6-56q-1 3-11 8.5t-9 30.5v20q4 0 12.5-2t13.5-1zm-38-56q-1 1-11 12-8 8-14 7v37l4-1q5 2 17 4zm39-165q0-94-39-152T418 8q-22-8-46-8-38 0-103 22-69 23-92 46t-25 27q-7 11-7 36 0 24 20.5 55.5T209 218q24 0 74.5-30.5T347 157q32 0 55.5 24.5T426 237q0 37-14 62-17 31-51 31-15 0-36.5-14T282 302q-91 0-91 51-1 3-1 10 0 46 26 207-38-18-66.5-65.5T121 415q0-2 2-65 5-4 12-3 9-6 9-17 0-10-9-10-6 0-17 11-11-7-25-51.5T79 216q-14 5-63 48-16 15-16 80 0 78 64 161 56 72 134 117 41 24 102 31 32 3 108 3 175 0 175-72 0-53-24-72-20-17-74-17-65 0-122 8-12-21-12-46 0-11 7-11 9 0 26.5 3t26.5 3q83 0 130-62 42-56 42-141zm-26 313q0 22-12 55h-27l9-99 22 5q8 20 8 39zm-44 62l-32 3q0-8 3.5-23.5T488 580q0-24-16-25v-37l40-3q-7 72-7 74 0 23 8 35zm-46-45l-6 48h-26l-1-39v-70l26-3q0 54 7 64zm-46 28l-15 22q-22-28-22-73 0-21-8-31l38-6q0 6 2.5 19t2.5 19q0 7-1.5 19t-1.5 18q0 13 5 13zm-42 25l-36 3q-21-7-21-81v-26h36v21q-1 36 21 83zm-58-2q-2 2-10 2-10 0-23-2-9-16-13-50-6-43-9-52h36q2 5 2 21 0 12 7 21 2 48 10 60zm-51-12q0 14-7 14-20 0-28-36-4-26-7-52l24-16q1 15 9.5 44.5T270 618zm290-369q0 49-6 74-10 44-51.5 78.5T417 436q-10 0-29-4t-28-4q-28 0-28 38 0 12 17 51-11 1-30 0-23-1-31-1-35 0-63 11-20-106-20-169 0-38 66-38 22 0 50 14t38 14q37 0 62-29 22-28 22-66 0-43-22-76-26-36-67-36-29 0-74 27t-60 27q-56 0-56-63 0-25 8-35 18-25 91-53 70-26 106-26 52 0 102 34 44 31 73 80 4 6 8 18l-2 4q-6-1-14-8.5t-15-7.5q-21 0-37 23t-16 45q0 20 12 20 11 0 12-33.5t24-33.5q13 0 38 29 6 30 6 61zM172 574Q61 508 24 383q-5-18-5-24 0-19 45-19 16 0 38 9 5 6 6 15 1 7-.5 19t-1.5 16q0 85 66 175zM85 292v47l-10-5 2-42h8zm-22-19l-1 56-8 1 1-57h8zm-30 57H22v-57h8z"/><glyph glyph-name="six" unicode="6" horiz-adv-x="482" d="M458 230q0-57-18.5-96.5T382 57 303 8q-29-8-70-8-84 0-158.5 66.5T0 216q0 87 73 223 30 56 92 127 76 88 117 88 34 0 61-25.5t27-59.5-62-83.5-62-61.5q0-4 7.5-5.5T310 413q35-3 56-12 37-16 66-74 26-53 26-97zM347 590l-27 10q0-4-11-36 15 12 38 26zm-57 16q-2 7-5 21h-3q-11 0-20.5-10.5T252 595v-4q12 7 38 15zm7-35l-3 20-32-23 15-14zm39-21l-47-29 4-15 31 18zm3-165q-22 12-43 11h-5l26-35zm-30-46q-17 23-34 57-6-4-6-10 0-5 6.5-18.5T281 338q7-3 15-3 9 0 13 4zm-28 153q-16 16-30 53-16 44-24 57-42-29-83-87-5-6-66-101-1-9-9-24t-10-23l84 86q57 53 100 53 7 0 12-5-40-12-104-67l-96-86q-4-29-17-43 121 44 243 187zm0-166q-16 4-26.5 29t-9.5 43l-31-18q4-3 25-34 16-22 32-22 5 0 10 2zm-29-14q-18 20-58 58-5-4-5-11 0-10 11-30t10-30zm-55-17q-24 24-28 62-17-20-36-26 11-22 23-70 13 13 41 34zm100-73q0 24-13.5 44.5T247 287q-28 0-50-13-27-16-27-42 0-66 58-66 69 0 69 56zm141-6q0 54-18 97-22 54-65 68-42-59-92-78 22-9 37.5-34t15.5-49q0-33-25.5-51.5T231 150q-41 0-59 24-13 17-21 62-51-16-129-63 4-16 28-48Q130 19 233 19q102 0 138 58h-9q-24-1-39 15.5T308 134l3 5q20-27 31-34 14-10 44-12 52 41 52 123zm-305 52q0 9-5 27t-5 28q-14-1-26-6 10-40 10-77 9 5 19 9 7 5 7 19zm-43-22q0 15-13 58-6-1-19-16-3-8-3-18 0-26 17-48 18 5 18 24zm-33-39l-29 69h-7q-5-39-5-51 0-21 7-33zm347 44v-9q0-11-3-18l-21-2q3 17 7 51l-7 22 3-1q5 2 17 4l2-1q0-7 1-22.5t1-23.5zm-40-29q-12 3-19 36l-8 46q10-2 27-19v-63z"/><glyph glyph-name="seven" unicode="7" horiz-adv-x="615" d="M599 350q0-84-4.5-90t-17-8-12.5-10q0-4 16-12.5t16-20.5q0-7-13-17-20-15-28-51-9-42-20-54-7-4-14-4-20 0-20 34 0 15 2.5 43.5T507 203q0 28-11 28-13 0-15-19t-8-19q-32 0-32 46 0 10 24 73.5T489 417q0 37-11 60-1 2-34 50L307 222q-34-77-60-123-49-88-79-97-11-3-23-3-28 0-51 15-26 17-26 43 0 64 87 228t87 186l-1 5.5-18 8.5q-25 4-96 3-60-1-93.5 9T0 571q0 48 30 60 57 25 157 25 210 0 228-29 34-54 89-80.5t67-45.5q28-40 28-151zM144 450v-31q0-40-29-57-2 23-2 38v21q0 20 4 29h27zm-48 0q-1-24-1-48-3-32-17-42l-20 60q10 14 10 29zm326 114q0 22-23 47-7-5-32-85 55 19 55 38zm-45 57l-31 2-11-26q1-17 3-43 1-22 10-38zm203-259q0 74-13 108-20 53-79 65l-39 9q29-15 47-55 17-36 17-71 0-36-15-90-25-86-26-88 5 2 44 21 34 17 40 17t19-9q5 35 5 93zM330 558q0 55-16 69 0-12-3-36.5t-3-36.5q0-2 4-44 18 12 18 48zm-34 68l-33 4q0-16-6.5-48t-6.5-49v-25l38-6q2 14 1 63-1 39 7 61zm-49 4h-42q0-22-1-61-1-47-1-61h27q4 41 17 122zm315-437l-2 42-18-9 10-49zm-32 4v41l-10 11-4-37zM188 629l-60 1q11-11 11-32 0-30-13-38v-51q6-3 16-3 7 0 22 1.5t23 1.5q-5 4-5 16 0 6 1.5 16.5T185 558q0 46 3 71zm346-446l-12-5 4-61 7-2zM115 528v101l-44-6q0-15-6-44.5T59 533v-25h37q3 18 19 20zm-57 48v37q-36 0-36-44 0-8 1-21 0-16 1-20l18-14q5 0 7.5 28.5T58 576zm370-40q-57-28-75-35-42-17-81-18-32-75-139-283 9-8 21-8t34.5 28 28.5 29l-1-33q-29-51-60-51-6 0-15 4.5t-14 4.5l-5-1q-10-14-22.5-52T87 67q0-20 18.5-34T144 19q49 0 115 148 71 159 169 369z"/><glyph glyph-name="eight" unicode="8" horiz-adv-x="696" d="M683 208q0-73-41.5-124.5T529 9q-28-9-82-9-100 0-164 45-74 51-74 146 0 69 19 100 3 6 34 37 26 28 26 36 0 10-14 21-18 16-25 27-13 23-13 60 0 81 39 97-3 4-9 4-10 0-23-3-19-5-57-41t-44-55q-8-32-8-78 0-18 4-31 27-11 27-17 0-10-10-10-5 0-13.5 4.5T128 347q-14 0-14-38 0-10 10-26.5t10-26.5q0-25-25-25-20 0-53 22.5t-44.5 42T0 348q0 17 1 29 7 84 94.5 166.5T267 626q5 0 15-4t15-4q15 0 67 19.5t82 19.5q87 0 144-43 63-48 63-132 0-58-47-125 5-8 29-26t33-36q15-27 15-87zm-73 360q-22 34-58 43l-2-44zm-79 53q-7 3-41 15l3-69h37zm-53-54q-5 20-5 70h-29l2-70h32zm-53 0v73l-56-18q13-4 13-21 0-7-2.5-20.5T377 560l1-6q27 14 47 13zm-58 9q0 7-3.5 21.5T360 619l-39-17q0-9 6.5-24.5T334 554q33 5 33 22zm-59 21q-6 3-10 3-3 0-6.5-2t-5.5-2q3-13 3-24 0-4-2-11t-2-11q4-1 8-1h10q0 8 2.5 24t2.5 24zm356-369q0 39-22 67-12 16-40 35-21 15-21 22 0 8 14 23 18 20 26 37 14 29 14 71 0 45-12 59.5T565 557q-54 0-148-10-104-11-147-12-14-53-14-68 0-40 30-70.5t30-38.5-22-28q-29-25-43-50-23-41-23-100 0-86 75-129 61-35 152-35 28 0 46 3 36 6 79.5 36t58.5 61q25 48 25 112zM243 605q-56-5-126-69-94-84-94-115 0-21 91-43 1 22 6 66 14 87 122 142zM103 360l-10-9-9-86 16-8zm-32-11q0 20-9 20-3-1-7-2-4-19-4-43v-42l19-1q-3 5-3 16 0 9 2 26t2 26zm-35-35l-5 82h-7v-69zm552 171q0-21-9-55-10 5-27 18-7 31-7 49 0 20 7 33h27q9-21 9-45zm-71-11q0-75-67-75-29 0-49.5 20.5T380 469q0 70 66 70 71 0 71-65zm-157 44q-10-6-13-50-3-39-18-39-3 0-8 2-8 33-8 65 0 28 30 28 11 0 17-6zm177-290q0-96-87-96-37 0-63.5 26.5T360 222q0 89 85 89 92 0 92-83zm-36 244q0 50-55 50-21 0-34.5-15.5T398 470q0-20 15-36t35-16q23 0 38 15t15 39zm21-247q0 33-21.5 52.5T445 297q-28 0-48.5-21T376 227q0-31 21-54.5t51-23.5q33 0 53.5 21.5T522 225z"/><glyph glyph-name="nine" unicode="9" horiz-adv-x="591" d="M576 308q0-45-18-115-21-80-46-103 3 51 3 60 0 19-7 40-9 27-25 27-4 0-10-15.5T457 186q-21 0-21 48 0 12 8 37 11 36 12 38 15 61 15 127 0 56-45 121 24-69 24-119 0-89-27-150-45-103-182-247-40-41-60-41-27 0-54 20-30 21-30 47 0 35 46 86 51 58 59 84-10-1-19-1-72 0-127.5 57T0 423q0 127 84 191 37 27 68 36 25 7 75 7 117 0 223-75 115-82 115-193 0-14 5.5-40.5T576 308zM409 541q-9 27-10 29-7 12-24.5 19t-21.5 7q-22 0-22-36 0-7 4-19l6-18zm152-244q-11 73-21 146-16 60-86 121v-6q0-14 18-56.5t18-71.5q0-46-22-151 8-3 17-3 55 0 76 21zM323 521l-2 61q-3 4-12 4-13 0-31-9v-63zm15 91q-66 27-121 27-66 0-108-33 99-9 146-9 9 0 83 15zm-70-98v58q-8 8-32 8h-8q-18 0-18-13 0-9 1.5-26.5T213 514h55zm283-251h-6l-17-92 10 5zm-30-2h-8l-5-45h9zm-23 6l-12-3 1-26 9-14zM203 576l-32 3q-14-21-14-45v-30h26q6 12 10.5 36.5T203 576zm263-315h-9l-4-40h8zM156 572q-14 15-27 15-4-12-19-19 0-40-9-58l12-1q22-1 30 22 7 20 13 41zm140-134q0 23-19 40t-43 17q-38 0-54-11-21-15-21-51 0-66 59-66 30 0 54 20.5t24 50.5zM109 587H82q-37-39-37-72 13-4 23-4 13 0 25 32 15 42 16 44zm322-164q0 34-14 98-44-12-133-28 29-35 29-56 0-36-29-62.5T218 348q-33 0-55.5 25.5T140 433t19 57q-14-2-32-2-41 0-89 8-18-51-18-80 0-38 20-74 23-43 58-43 18 0 32 17 22 29 23 30 7-8 7-17 0-14-20-31t-35-20q17-20 50-20 8 0 24.5 1.5T204 261q23 0 36-11-1-11-61.5-82.5T118 74q0-20 18-36t39-16q33 0 126 120 82 105 106 156.5T431 423zm-304 34l-10-50-25-5 4 64h9q8 0 22-9zm-45 5l-10-53-26-2q2 18 4 35 4 25 17 25 7 0 15-5z"/><glyph glyph-name="colon" unicode=":" horiz-adv-x="196" d="M164 514q0-71-82-71-81 0-81 83 0 78 86 78 77 0 77-90zm4-268q0-71-82-71-81 0-81 83 0 79 86 79 77 0 77-91zm-19 270q0 29-16 50-19 23-49 23-70 0-70-61 0-28 20-50t47-22q28 0 48 16t20 44zm4-268q0 30-16 51-19 23-49 23-70 0-70-62 0-28 20-50t48-22q27 0 47 16t20 44z"/><glyph glyph-name="semicolon" unicode=";" horiz-adv-x="250" d="M230 304q0-73-84-73-83 0-83 85 0 81 88 81 79 0 79-93zm-7-251L44-167l-93 65L89 147zm-12 253q0 29-17 50t-45 21q-69 0-69-59 0-27 19.5-48t46.5-21q26 0 45.5 15t19.5 42zm-9-262L95 120Q53 51-22-91l72-50q50 61 152 185z"/><glyph glyph-name="equal" unicode="=" horiz-adv-x="515" d="M482 454q0-76-130-76-32 0-98 1h-97Q3 379 3 471q0 23 5 37 9 21 78 30 38 4 96 4h70q47-1 71-1 69 0 104-12 55-20 55-75zm0-206q0-91-154-91-33 0-98-1t-98-1Q3 155 3 231q0 55 55 75 34 13 103 13h71q47 1 71 1 90 0 134-12 33-9 39-23t6-37zm-15 205q0 48-57 59-39 7-94 7h-47q-32-1-47-1t-43.5 1-43.5 1q-112 0-112-48 0-71 107-71h25q16 1 23 1h55q186 0 203 9 31 16 31 42zm-5-203q0 48-113 48-14 0-43-1.5t-43-1.5q-15 0-45.5 1t-49.5 1q-54 0-94-8-56-11-56-58 0-27 30-43 17-9 203-9h78q17-1 25-1 108 0 108 72z"/><glyph glyph-name="question" unicode="?" horiz-adv-x="443" d="M424 471q0-154-132-183-20-5-28-25-2-4-9-39-10-50-64-50-19 0-31 7-15 8-31 54-14 43-14 66 0 55 28 72 35 14 69 27 27 13 40 37 6 11 6 18 0 16-18.5 27.5T204 494q-16 0-32-14-3-2-25-28-35-41-82-41-61 0-61 84 0 69 62 116 58 42 129 42 52 0 81-9 63-20 103-63 45-49 45-110zM266 70q0-67-78-67-76 0-76 78 0 74 81 74 73 0 73-85zm136 372q0 66-22 105t-72 63q-45 21-95 21-48 0-108-29-66-33-78-75-5-19-5-39 0-57 53-57 21 0 56 44.5t71 44.5q22 0 47.5-22t25.5-44q0-35-21-53-13-11-46-23-37-12-51-24-20-17-20-51 0-31 12-63 16-42 43-42 40 0 43 32 5 44 19.5 59.5T316 314q40 7 64 48 22 36 22 80zM248 72q0 26-15.5 45.5T190 137q-62 0-62-54 0-25 17.5-44.5T188 19q24 0 42 14t18 39z"/><glyph glyph-name="at" unicode="@" horiz-adv-x="1000" d="M560 165zm-12-22zm7-28zm-35 20zm140 127q-39-65-61-122-19 3-29-5 16-6 70-6V82q-38-56-110-99-87-53-175-53-73 0-120 24-65 34-83 38-14 16-70 70-6 8-23 56-15 43-29 53v178q24 12 35 49 15 52 27 69 25 28 81 71 52 17 48 31 34 0 72 7 47 9 48 23h38q2-17 49-25 30-5 61-5 3-16 24-24 18-7 36-6 1-17 16.5-32t33.5-17q2-4 31-76 19-46 30-45V262zm-80 48q0 3-5.5 41t-5.5 58q-17 3-21 21-26-79-51-159 0-1-57-103l6-22 43-6q16 31 38 47 37 29 43 34 10 62 10 89zm12-91h-9l-5-28h9zm-10-30h-8l-6-17 7-2zm-82-78q-26 5-68 13v64q0 5 12.5 24.5T458 230q-3 28 7 55.5t25 35.5q0 8 4 39 3 25 0 40h-28q-3-5-15-17.5T435 370q-6 0-11 4.5t-13 4.5v-38q15 0 17-3v-26q-3-4-36-87-23-58-42-84 31 3 51-5v-25h99zm129 130v138q-17 3-19 26-4 34-16 52-44 28-135 93l-32-1q-18 0-18 20h-98q0-15-4-20h-77q4-7-42-47-84-73-86-75-14-48-52-89V201q18-5 26-36 8-26 4-54 18-3 51.5-43.5T171 1q45-4 69-24 21-17 110-17 75 0 120 11-4 19 57 31 29 31 83 87h-28q-21-22-41-45-29-28-49-24-18-24-65-38-37-12-67-12-41 0-51 20-101-7-168 83-61 82-61 192 0 50 2 60 4 25 28 56 11 56 82 109 82 60 178 60 50 0 106-34 61-38 75-40-1-15 14-33 22-24 29-40 16-34 16-88 0-7-3.5-33t-3.5-39q0-16 5-23 8 16 21 21zM549 81v29q-21-30-104-30-32 0-37 2-14 4-29 27h-28q1-29-76-29h-35q-22 5-21 29-18-3-35 11t-17 30q0 5 3 9-15 0-20 4v104q17 31 33 61 28 49 60 75 45 37 102 37 8 0 47-13 35-12 47-17 4 22 38 22h53q-13 14-25.5 27.5T489 489q-26 0-60.5 15.5T360 520q-32 0-71-16t-58-15q-3-15-34-39-46-34-55-43-5-31-8-38-7-24-24-30 0-28-5-48t-5-21q0-8 5.5-42t5.5-57q28 4 30-60 44-10 80-80 4-2 76-30 3-1 53-1 73 0 99 14 4 2 23 25 10 13 47 12 2 10 12 19.5T549 81zM399 286v83h-58q-4-16-23-34t-27-16q1-7-15-57t-16-62q0-60 40-60 16 0 36 23 17 19 34 39-1 7-1 15 0 57 30 69zm10 95q-7 29-54 29-38 0-59-11-45-25-64-31-26-42-39-83.5T170 228v-27q17 1 21-11 2-6 0-24.5t0-25.5q5 2 10 2 13 0 22-10t8-21q31 0 50.5-5.5T300 100q6 0 18 6.5t20 6.5q-108 0-108 82 0 50 42 125 46 80 88 80 8 0 49-19z"/><glyph glyph-name="A" unicode="A" horiz-adv-x="570" d="M581 810q0-65-71-144-52-56-128-108l100-242q71-180 71-231 0-34-22-60T476-1q-17 0-50 53-36 58-46 64-19 11-116 11-109 0-119-14.5t-16.5-48T113 19Q98 0 60 0 2 0 2 60q0 48 21 128 123 449 256 449 63 0 84-30 13 44 41 102l50 98q1-31 8-59 21 11 57.5 57t61.5 61v-56zm-14 6l-4 16-75-121 16 4zm-26-3l-12-5-55-77 7-4zm28-34l-11 5-57-86 8-5zm-76-109q0 5-22 43-25 42-28 50-5-19-38-84-27-54-27-83 0-9 2-17 113 67 113 91zM385 497l-17 62-8-18 12-44h13zm-30-14l-7 49h-13l8-49h12zm5 92q-2 6-8 20-14 31-68 31-61 0-99-72 33-21 75-21 15 0 43 4.5t41 4.5q6 11 16 33zm-34-104l-6 54-14-1-2-54zm-45 46h-12l-8-56h13zm-28 1l-15 6-7-63h12zm-28 11l-14 2-18-63 16-4zm-40 9l-11 3-19-50 16-8zM539 80q0 45-61 203-42 107-85 213-30-52-164-52-55 0-87 27-41-81-80-202Q19 132 19 61q0-16 9.5-31T53 15q45 0 59 30 3 7 11 59 4 33 27 37 12 2 62 2 5 0 55 1 37 0 60-1 32-1 53-6 18-5 54-65t47-60q20 0 39 23.5T539 80zM366 384l-27 4 9 36h13zm-35-81q-24-4-73-8h-67q23 45 70 135l29 2q12-44 41-129zm-129 81l-26 3 5 39h13zm137-139q-27-71-70-71-23 0-52.5 24.5T184 246l82-44q35 18 73 43zm-32 71q-10 35-31 106-13-21-56-109z"/><glyph glyph-name="B" unicode="B" horiz-adv-x="659" d="M631 206l-1-8q-1-52-27-102-29-56-73.5-75.5T322 1Q175 1 142 101q-9 29-9 112 0 5 12 278-11-35-25-108-19 4-28 22-26-39-85-114 0 8-3 34-3 21-3 34 0 145 185 278 54 40 111 40 100 0 152-14 74-21 128-80 7-21 7-42 0-45-25-97.5T499 363q58-15 94-56 39-44 38-101zM517 612l-34 1q0-8 8-17.5t16-11.5q10 9 10 28zm-29-36l-19 31-22-12 23-30zm-47-24q-8 9-7 27-12-4-36-7 17-18 17-32 1 12 26 12zm42 81q-10 18-50 22-102 8-114 8-36 0-67-13-10-4-60-33 4-19 47-30 31-7 60-7 39 0 99 14 73 16 85 39zm-88-94q0 7-7 18.5t-8 17.5q-9-10-20-34zm-52-3q0 13-7 27-27 3-22 3-15 0-15-28v-8h5q13 2 39 4v2zm74-48q0 16-11 32l-61-8q-5-8-5-22 0-47 34-47 43 0 43 45zm-127 78l-32 2-10-40 35-2zm-53 1l-13 1-2-35 13-1zm-33 16l-26 14-15-49 18-7zm409-391q2 58-36 104.5T482 359q49 69 58 85 29 51 29 97 0 33-32 49-19-18-55-35-46-23-58-30 11-17 11-34 0-24-16-44t-40-20q-39 0-45.5 28T322 512q-18-2-39-2-39 0-124 15-8-264-8-270 0-19 2.5-58.5T156 137q0-55 47-90 43-33 99-33 174 0 219 22 33 15 62 61t30 83v12zM145 573q-60-40-94-112 46-18 52-56 3 9 23 51 14 32 15 53zM73 425l-39-35 29 8zm-19 14l-20 7-18-47zm-18-65H25l-10-24 10-5zm462 88q0-15-15-23t-29-15q4 21 8 41 7 30 21 29 15-18 15-32zm-220-7q0-4-1-11l-11-20q-3 3-18 15-13 9-13 17 0 16 28 25 15-6 15-26zm164-260q0-28-27.5-45T357 133q-53 0-53 85 0 55 56 55 29 0 55.5-24.5T442 195zm-17-4q0 20-20 43.5T366 258t-33-14.5-14-33.5q0-58 42-58 64 0 64 39z"/><glyph glyph-name="C" unicode="C" horiz-adv-x="531" d="M510 143q0-86-60-119Q405 0 311 0q-80 0-126 17-64 23-95 82-20 39-38 120-17 77-17 125 0 37 9 52-5 10-18 15T8 429q-8 19-8 70 0 54 29 119 6 14 57 109V607l34 28q-3-45-3-58 0-17 3-33 73 60 98 75 54 32 119 32 25 0 66-11 45-12 62-25 14-11 28-34.5t14-39.5q0-46-81-46-94 0-119 36-55-14-92-87-32-65-32-128 0-62 43.5-106.5T332 165q44 0 128 27 6 1 10 1 11 0 25-11.5t14-22.5q0-4-2-7 3-4 3-9zM399 619q-22 16-31 16h-43q13-8 36-27zm90-74q0 27-22.5 49T416 622l-48-52q-36-34-57-32 67-25 116-25 40 0 60 19 2 6 2 13zm-110 45q-22 8-67 16 3-8 12-17t18-9q7 0 19 4.5t18 5.5zm-62-37q-3 10-7 32h-32q8-10 18.5-21t20.5-11zm-27-3q-7 8-38 18 5-15 12-48 25 1 26 30zm11 83q-50-8-115.5-51T92 497q143 49 209 136zm-44-121q-15 8-14 39-17-1-33-18 15-7 14-37 8 1 18 8t15 8zM72 633l-7 39-7-35zm129-105q-13-12-23-13v-54q21 15 23 67zM77 567v33H65v-33h12zm-29 11l-6 45-8-41zm117-75l-22-15v-48l15 9zM36 549l-9 3-9-18 10-4zm70 40v3q-17-29-41.5-45T14 515v-50q0-29 27-47 2 8 28 63 21 45 21 60 0 8 8.5 22.5T106 589zm20-136q0 11-5 28-11-10-18.5-27.5T89 420q10 3 32 6 5 15 5 27zm-36 20h-9l-26-66 10-4zm404-337q0 37-18 37-6 0-21-5-18-7-22-8-38-9-91-9-84 0-129 45t-45 129q0 75 32 135-23-23-72-42-57-23-75-36-5-21-5-45 0-50 15.5-117.5T101 108t79-69q50-21 104-21h81q129 0 129 118zm-23 418l-25-15-22 44 9 4zm-56-22h-11l-19 41 23 5z"/><glyph glyph-name="D" unicode="D" horiz-adv-x="772" d="M752 328q0-106-27-158-52-95-209-139Q402 0 256 0q-52 0-69 79-8 38-8 119 0 13-1.5 39.5T176 277q0 56 5 162-6-30-23-74-23-57-28-73-18 4-25 22-14-34-43-76-24-36-49-72-15 25-15 59 0 76 25 130 21 44 68 90 49 43 97 87-1 16-1 39 0 33 6 47 18 39 125 39 233 0 299-41 51-32 95-129 40-92 40-159zM518 620l-28 14-6-11 17-29zm-25-38q-5 9-17 26h-45q13-36 39-42 1 14 23 16zm-59-4q-8 3-20 3-7 0-19.5-1.5T376 578q12-38 49-42zm17 57q-20 0-81 4-51 2-81 2-52 0-70-15t-17-65v-21q62 11 129 36 78 28 120 59zm-62-94q-19 7-58 15 8-12 16-25t8-25q11 7 22 15.5t12 19.5zm-51-33q-9 16-35 42-1-9-23-8 0-11 8-29.5t8-28.5q25 25 42 24zm389-213q0 80-33 174-38 112-97 139-24 11-50 15-36-61-157-118-8-4-189-78-5-79-5-236 0-147 42-166 14-6 41-6 169 0 288 54 160 72 160 222zM278 505q-7 6-15 22l-34-6q0-3 5-29 4-18 2-30 41 14 42 43zm-59 11q-11 3-20 4v-58q14 13 20 54zm-38-11q-30-26-60-53-38-37-49-61 26-42 57-62 17 59 52 176zM67 355l-10 4-10-19 11-5zm24-22q-18-10-34-29l14-10zm-54-44l-5 19-12-24 14-12zm28-21l-10 4-10-19 11-4zm-35-46l-10 4-10-19 11-5zm596 249h-26q-2 13-29 52l26 6q29-34 29-58zm-57-10l-27-11q-7 14-15.5 28T506 498l7 11q36-7 56-48zm-2-173q0-56-54-89-46-27-106-27-21 0-34 6 7 36 7 106 0 17-4 51t-4 51 5 32q22 9 52 9 61 0 99.5-39T567 288zm-15 0q0 58-36.5 92.5T420 415q-14 0-29-6 5-45 5-80v-65q0-34-5-68 14-6 28-6 10 0 33 6 48 12 69 28 31 22 31 64z"/><glyph glyph-name="E" unicode="E" horiz-adv-x="440" d="M347 438q-4-5-10-5-7 0-15 1-1 12-7 26.5T304 488h17q14 1 19-19zm-57 7q0-7-1-16h-12q-7 0-14 4-4 16-4 30 0 13 4 23 6 3 10 3 3 0 10-3 7-26 7-41zM414 83q0-48-21-62-9-6-62-15-44-8-158-8-65 0-84 8Q4 39 4 298q0 286 15 309 73 107 116 144 71 59 172 59 10 0 10-11 0-38-28-54-47-26-53-33 3-20 23-25-60-6-176-55 147 24 191 24 119 0 119-66 0-55-80-71-23-4-124-6 0-13-2-50-1-31-1-50 0-26 26-26 15 0 45 3.5t46 3.5q45 0 61-11 20-13 20-57 0-83-107-83-7 0-21.5 1.5T234 246q-52 0-52-59 0-61 56-61 21 0 61 9t60 9q55 0 55-61zM302 797l-40-10 10-15zm-52-34q-4 13-18 13l-19-23q0-1 1-1 7 0 36 11zm37-3l-95-37 21-8zm82-148q-5 5-16 14-6-47-6-59l2-20q4 1 18 10 0 10 1 28.5t1 26.5zM202 769l-44-24 16-15zm144-137q-15 10-33 10 9-32 7-103l5-1q12 0 13 24-1-17-1 33 0 26 9 37zm-35-81v23q0 63-24 74 1-7 1-16 0-17-3-47-5-35-5-47h26q5 5 5 13zm-38 44q-10 6-15 20t-10 27q-10-29-10-69v-24q0-26 16-25h3l-1 18q0 28 17 53zm-74 103q-31 20-71 33-24-35-76-102 49 22 147 69zm26-59l-30-4q-8-63-8-94v-10l15-2q3 11 9 56 4 35 14 54zm-48-37q0 15-30 27-10-70-10-80 0-26 13-33 27 35 27 86zm-55-23q0 23-8 44l-7 2q-21 0-21-72v-52q36 24 36 78zm-49 16q0 17-6 25-30-13-37-38 2-11 2-22 0-8-1.5-23T28 515q20-14 23-14 9 0 16 42 6 33 6 52zM398 84q0 13-5 27-22 13-38 13-17 0-48.5-7t-48.5-7q-47 0-68 14-28 17-28 61 0 85 62 85 10 0 28-3t28-3q88 0 88 59 0 51-63 51-20 0-60-2t-60-2q-22 0-22 22 0 99 11 119-63-25-142-22-7-49-7-110 0-29 1.5-87t1.5-87q0-8 3-22 4-17 4-22Q49 60 85 35q29-20 137-20 18 0 54 2t55 2q28 0 39.5 7.5T393 62q5 13 5 22z"/><glyph glyph-name="F" unicode="F" horiz-adv-x="601" d="M524 446l-16-35q0 9-11.5 23.5T485 459q0 9 4 22 10 0 19-14 13-18 16-21zm-57-32l-28 1-8 62 25-11zm118 156q0-21-32.5-41T498 509q-11 0-32.5 3t-32.5 3q-38 0-67-19-34-21-34-57 0-38 57-46 53-2 106.5-5t51.5-32q8-19 8-39 0-55-68-79-49-17-115-16-6-15-14-79-9-67-19-96-18-47-50-47-103 0-103 309 0 31 2.5 93.5T191 496q0 23-1 67-32-7-40-79-2-50-4-101-2-46-12-87-15 20-24 61-19-32-44-87-32-68-43-88Q1 225 1 285q0 116 78.5 222T270 645q53 15 201 15 58 0 83-16 31-20 31-74zm-16 6q0 20-10 39-11 23-29 23-7 0-7-6 0-50 26-87 20 19 20 31zm-44-14q0 79-33 79h-13q14-9 14-37 0-11-2.5-31.5T488 542t3-17q34 2 34 37zm-54 4q0 79-29 79-7 0-14-4l-8-12 8-102q10-1 17-1 26 0 26 40zm-60 51q0 23-14 23-7 0-13-3-14-30-14-88 0-27 23-27 6 0 12 2 1 10 3 46 3 29 3 47zm-47 21l-44-9q3-10 3-22 0-29-15-88l52-2zm-58-12l-8 4-20-11q-12-24-24-49-13-28-17-51 17 0 51-2 2 9 4 56 2 34 14 53zm-41 0q-9-1-25-10t-26-9q1 10 1-46 0-23-3-44 11 14 24 56 12 37 29 53zm272-302q0 37-36 48-16 5-66 5-17 0-55 7-42 9-49 16-13 13-13 45 0 9 9 25.5t9 25.5q0 6-4 9l-124-4q-7-21-7-142 0-190 24-275 6-21 21-43 18-26 36-26 61 0 69 220 14-2 28-2 56 0 100 18 58 25 58 73zM151 553q-22-13-50-41-32-34-32-52 0-13 28-55 18-28 37-56v104q0 66 17 100zM82 391l-11 4-10-19 11-5zm-3-40l-11 4-10-20 11-4zm-39 43H29l-16-74h12zm24-119v35H51v-35h13zm-31 18l-10 4-10-20 11-4z"/><glyph glyph-name="G" unicode="G" horiz-adv-x="640" d="M352 429q-17-15-44-16v16q1 11 1 16 0 19-6 30 17-15 49-46zm273-108q0-34-6-73-21-128-75-182-33-33-123-52Q349-1 284-1 177-1 95 97 25 181 2 296q-2 8-2 17 0 19 7 46-9 35-9 89 0 227 120 375 16-28 16-76 0-31-6-71 6-3 13-3 14 0 30 3-26-36-79-111-5-8-49-76l1-8q141 175 273 175 26 0 94-18 76-20 95-27 64-24 64-56 0-23-11-55-13-38-32-38-34 0-98 25t-98 25q-167 0-167-191 0-62 32-119 38-65 95-65h36q50 0 87.5 38.5T452 264q0 9-2 17-15-18-51-18-85 0-85 46 0 63 62 83 35 12 115 12 91 0 112.5-27t21.5-56zM272 431q0-7-8-49-18 49-42 70 50-3 50-21zm139-209q-18-21-38-42.5T323 158q-32 0-49.5 20.5T257 232v4q17-17 35-33t42-16q16 0 39.5 17t37.5 18zm137 314v23q-23 27-70 43-39 12-79 24-17-25-35-50-21-28-41-45 31-3 100-28 63-22 101-22 24 0 24 55zm-180 74q0 30-39 30l-34-2v-2q0-8 20-17 14-7 28-13h25v4zm-16-22q-30 16-36 18-21 9-39 9 16-14 50-38zm-29-28q-35 36-71 41 3-6 30-36 22-23 22-38 17 17 19 33zm-36-30q-18 20-27 28-18 15-33 18 9-15 19-30 11-18 14-33 13 2 27 17zM107 710l-2 22-20-10-25-30zm144-203q-28 45-50 47 12-17 25-55 0 10 25 8zM93 662l-16 12-35-40q21 1 51 28zm187-24q-75-15-145-76-45-39-111-123 98 64 182 138 23 22 74 61zm-90-149q0 48-1 43-3-7-23-6v-71q24 9 24 34zm-63 152q-66-16-92-43-22-22-25-66-2-50-3-99 7 56 50 111 59 73 70 97zm22-207l-8 71q-16-14-20-41-3-22-5-45 15 14 33 15zm449-136q0 46-15 63.5T523 379q-17 0-49.5-2t-48.5-2q-56 0-88-34-4-12-4-24t4-23q21-13 41-13 42 0 80 24 11-12 10-35v-21q-1-56-52-96-47-37-104-37-86 0-130 72-36 60-36 151 0 28 14 90-43-26-85-52-55-36-55-73 0-36 37-108 33-67 62-99 26-29 78.5-53.5T289 19q64 0 129 16 80 19 113 52t51 100q16 56 16 111zM99 436l-9 40q-27-23-27-51 0-16 11-33 9 10 25 44zm-44-48l-1 60q-25-21-25-47 0-14 2-34 24 13 24 21z"/><glyph glyph-name="H" unicode="H" horiz-adv-x="748" d="M727 648q0-56-18-97-8-20-33-54-17-24-17-41 0-30 2.5-90.5T664 274Q664 0 562 0q-45 0-65 37-14 26-18 80l-4 80q-4 29-17.5 29t-40.5 5.5-41 5.5q-109 0-128-18-14-14-18-75-5-77-12-100-14-50-56-50-35 0-57 29-15 21-15 72 0 43-3 129.5T84 354q0 44 2 81-20 15-53.5 84.5T-1 615q0 15 14 69 17 70 24 137 14 6 28 7v-14q-1-54 14-126 19 2 45 22 1-18-14-27v-34q0-22-15-51.5T80 555q0-41 11-82 0 173 74 173 15 0 47-54 96 28 198 28 23 0 50.5-6t39.5-6q17 24 24 29 13 9 37 9 48 0 66-45l28-82q12 12 12 19 0 42-21 96-19 45-39 90 12-6 38-14 5 32 5 65 0 34-5 68 5 10 16 10 9 0 18-10 48-49 48-195zM424 168q0-32-18-55.5T357 89q-30 0-52 28-21 25-21 56 0 11 8 20 10-27 20-53 15-30 42-30 30 0 47 29 15 25 15 57 8-8 8-28zm283 591l-35 49q4-58 34-92zm-14-58l-30 24 27-56zm25-79q0 20-72 66 2-25 21-66 21-44 25-66l16 32q10 21 10 34zm-97-50q-11 33-21 44-15 15-45 15-19 0-25.5-4T519 606q25-11 49-22 29-12 53-12zm22-74l-9 35q-12-8-26-28 11-4 35-7zm-37 56q-12 4-35 8 0-22-13-36l32-6q15 14 16 34zm-49 13q-10 8-31 16l-8-15q7-13 11-20 9-13 17-14 0 22 11 33zm-47 24l-42 9-9-43q31-1 33-13 0 26 18 47zm-58 1v13q-17-5-25-5-9 0-15 5-12-20-12-39v-9l38 1q14 15 14 34zm-61-35q-10 10-10 23 0 14 9 25h-8q-30 0-44-12l2-28q10-10 33-10 9 0 18 2zm-66-7q-10 16-27 50v-58q8 3 27 8zm-45-8v34q-11 8-34 16-10-13-10-38 0-10 2-20 14 4 42 8zm215-10q-38 9-99 9-89 0-174-24 6-50 12-101 11-37 87-37 27 0 84 8 66 10 74 19 13 14 13 43 0 8-1 23t-1 23q0 22 5 37zM59 733l-4 10-17-9v-21zm154-199v43q-13-1-28-17 12-25 28-26zm-22 45q-3 11-8 35-11 13-22 13t-27-13q-10-18-22-58 35 23 79 23zM57 665l-23 19-6-38zm127-145q-7 15-27 39l-9-39h36zm463-150q0 49-4 95-31 19-63 39-37 22-67 29-12-17-12-46 0-10 2-31t2-31q0-30-15-40-138-20-185-20-77 0-87 42l-8 106q-37-18-99-18 0-5-5-84-5-63-5-166l4-128q2-53 7-69 12-33 54-33 31 0 40 49 1 5 8 98 5 60 22.5 75.5T377 253q56 0 77-6 42-12 42-55 0-10-1-29.5t-1-29.5q0-55 23-101 7-1 23-9t26-8q49 0 70 111 11 65 11 152v92zM132 505v35q-20 1-28 9-1 1-1-31 0-7 2-13h27zM94 659q-22-23-57-37l-1-40q0-65 36-104-7 17-7 38 0 29 29 143zm335-159q0-22-35-55 0 53 23 88 12-11 12-33zm-100-53q-12 10-23 19-13 13-13 26 0 22 11 33 25-37 25-78z"/><glyph glyph-name="I" unicode="I" horiz-adv-x="340" d="M316 462V324q0-41-5-128t-5-131q0-35-15-48-19-18-63-18-76 0-90 50.5T124 244q0 125 2 246-19-13-27-74-4-43-8-85-3 3-18 23-8-20-29-57-1-5-9-27-6-17-6-28 0-6 1-11-30 27-30 74 0 73 14 131 19 84 62 100 18 7 56 5 9 41 33 77 31 46 64 46 10 0 20-3 16-14 22-20 11-12 17-25 28-65 28-154zm-40 126q-21 57-38 57-29 0-50-29l-30-52q32 26 118 24zm21-62q0 20-8 44-12-6-12-31 0-6 1.5-19t1.5-19l-2-6 13-10q6 24 6 41zm-25-44q-2 4-6 50-3 37-14 41l3-98zm-32 91q-8-2-25-5v-99h22zm-31-53q0 41-21 41-4 0-8-13l-4-16q6-4 7-30 1-30 2-33l6-1q18 0 18 36v16zm-41-51l-1 83q-10-4-20-16l-1-75q10 8 22 8zm-38 55q-8 6-17 6-38 0-60-36-19-30-22-71 4 2 9 2 13 0 34-33 24 138 56 132zm168-247q0 102-7 191-36-7-72-15-42-7-73-8-3-72-3-172V149q0-133 78-133 33 0 53 17 17 15 17 62 0 31 3.5 91.5T298 277zM47 345l-1 43-10-1-9-65zm227 39v-13q0-21-2-33-9 8-30 16 3 4 3 17v10q0 28-5 47 21-4 27.5-13.5T274 384zm-60-18q0-11-1-25-17 13-19 24-4 22-7 27l9 38q18-35 18-64zm54-143q-7-9-15-29-20-9-50-9-16 0-28 7 24 16 23 29 11-5 36-5 18 0 34 7z"/><glyph glyph-name="J" unicode="J" horiz-adv-x="571" d="M572 825q0-10-5-29t-6-28q-30-9-36-71 7-4 14-3 5-4 5-10t-5-10q-12-33-51-51.5T416.5 575 352 518q10-126 10-271 0-125-56-181Q241 0 157 0 87 0 54 12 0 32 0 90q0 96 71 96 17 0 54-22 29 0 46 19.5t17 48.5q0 35-4.5 105T179 442q0 76 18 134 27 85 85 85 33 0 44-10 7-7 13-27 6-24 16-38 19 83 51 133.5t99 98.5q4 3 16.5 3t22 10 13.5 10q6 0 11-1 4-7 4-15zm-31-47v21q-13-3-35-16v-20q28 15 35 15zm-21-51v28q-16-9-20-28h20zm-35 47l-16-13-6-18 12-2zm25-86v21q-3-6-10-16zm-23 25l-16-4-13-24 14-7zm-43-1l-6 21-21-34 22-1zm75-48l-29 8q-9-14-40-14-18 0-29.5 10T405 678q-10 0-24-45-16-50-22-56l-7-38q55 59 101 86 24 11 66 39zM343 559q0 40-15 67-23 18-49 18-32 0-46-24-6-10-19-52 47-4 128-38 1 17 1 29zm-3-44l-18 5 2-82 15-4zm-25 6l-15 6-3-70 17-12zm-27-58l-1 64-21 15v-72zm-35 21q0 6-2.5 17.5T248 519q0 10 3 23l-20 9-1-66h6q6 0 17-7v6zm-36 5l-1 67h-6l-12-63zm132-159q0 44-4 73-18 24-67.5 49.5T198 478h-1q-2-8-2-17 0-35 4-105.5t4-106.5q0-100-66-100-13 0-34 11.5T71 172q-53 0-53-88 0-43 48-58 26-8 83-8 51 0 85 15 20 9 48.5 36t39.5 46q27 52 27 215zm-48 44v-53q0-14-6-18l-29 13q15 5 15 25v33q4 4 9 4 6 0 11-4zm-45-23q0-4-1-9-13-6-13-25-14 18-14 39 0 11 9 23.5t9 20 4 11.5q5-18 6-40v-20zM244 99q-4-2-15.5-12.5T208 76q-22 0-57 8-21 5-28.5 13t-7.5 28v9q17-13 33-25.5T189 96q9 0 17 3 16 13 38 20V99z"/><glyph glyph-name="K" unicode="K" horiz-adv-x="566" d="M541 85q0-28-26-53T461 7q-51 0-113 51-53 43-87 96l-28 54q-22 43-29 45h-4l-9-5q0-46-1-92-2-69-16-106-20-50-63-50-45 0-67 24Q3 70 3 338q0 270 33 316 21 24 58 80 14 30 51 52 56 30 111 61 65 37 106 70 8-14 8-22 0-39-27-67t-24-52h-9q-13 0-25.5-13.5T261 737q27-20 51-17 5-4 5-11 0-6-5-10-8-1-85-1-24 0-54-13l-50-26q12-1 35-7 28-12 28-99 0-75-2-117 16 18 51 48t50 46q64 66 66 69 48 45 78 45 12 0 21-4l22-20q13-13 13-25 0-46-28-98-14-24-62.5-71T319 362q22-22 64-53 48-35 66-51 28-25 59-81 33-59 33-92zM343 880h-6l-37-22 38 8zm-24-57v21q-21-7-21-21h21zm-36 9l-17-2-25-20 26 6zm-7-62q-7 1-9 11t-7 12q-20-17-35-19 3-5 16-12t14-12q11 5 21 20zm-59 36l-35-11 11-25zm65-94v6l-42 4-2-12zm-43 21q-39 11-41 12-23 9-33 26-4-4-51-59-32-38-57-52l35-5q31 24 147 78zm-70-141q0 29-18 48-4-25-5-72 8 14 20 15 3 4 3 9zm-33 0q0 8-6 48h-22q14-12 14-48 0-17 10-26 4 13 4 26zm-24-4q0 12-4 30-16 2-15 22H72q8-11 16.5-39.5T108 560q4 16 4 28zm-26-42v21q-4 11-6 34-2 14-20 37v-61q0-19-6-31h32zm-34 64q0 12-5 18-10-16-11-48-2-35-7-48 6 2 14 8 9 54 9 70zM520 91q0 15-28 68t-41 68q-6 6-27 24t-24 18q-14 0-23.5-33T335 203q-20 0-37 9-10 5-37.5 34T233 283q0 7 2 13h6q18 0 39-39.5t43-39.5q33 0 42 23l8 50-38 38q-23 22-45 28 171 134 175 219 2 3 2 8 0 40-37 40-39 0-86-52-34-42-69-83-30-23-88-73h-22q5 28 5 71 0 42-5 82-14-9-67-28-56-19-69-19-11-51-11-122Q18 88 57 39q14-18 44-18 45 0 59 58 2 9 8 93 4 35 14 104 4 5 10 5t10-5q27-14 58-64 46-74 61-93 45-55 107-83 16-8 37-8 23 0 39 19.5T520 91zM149 444q0-1-23-11-2 27-27 44l24 1q7-3 13.5-16.5T149 444zm-40-23q-9-3-19-3-12 0-21 5-4 15-18 40l23 12q3-17 12-19l-1-7q0-16 24-28z"/><glyph glyph-name="L" unicode="L" horiz-adv-x="586" d="M563 87q0-44-35-56Q438 0 315 0q-78 0-99 33-29 43-29 328 0 73 6 122-6-2-19-30-14-32-18-37-18-19-20-23-4-7-4-29 0-24 5-66 5-48 6-67h-5q-4 0-31 22-33-71-33-105 0-27-28-35 5 10 5 20 0 15-25 34.5T1 226q0 15 8 45 15 63 22 86 15 48 37 80 34 52 74 81 28 21 32 25 17 15 27 31 11 27 22.5 53t47.5 26q38 0 54-8 24-12 24-45 0 4 4-61 2-47 2-141 0-29-3.5-86t-3.5-86q0-6 1.5-17t1.5-17q0-22 7-28.5t31-14.5q15-6 24-6 14 0 43.5 3.5T501 150q28 0 45-17.5T563 87zM335 551q0 3-2 23-2 14 0 23l-13-4q1-20 8-59 7 1 7 17zm-14-29l-12 56-13-8 11-50zm9 98q0 18-59 18-38 0-38-24 0-16-16-41-12-19-25-38 21 9 67 42 42 30 69 38 2 2 2 5zm-35-95q0 13-6 30-5 3-3 19-6-5-12-11-9-7-13-7v-22l9-18q7 0 11-7 6-10 8-12 6 16 6 28zm-35-27q-4 12-8.5 24.5T239 541v-51q11 4 21 8zm-32 7q0 12-6 29-3-5-21-23v-36h21q6 18 6 30zM547 83q0 52-51 52-15 0-45-2.5t-45-2.5q-14 0-25 4-30-43-64-43-18 0-34 12t-16 28q0 12 9 17 7-13 15.5-26.5T316 108q15 0 29.5 9t14.5 24q-29 16-29 59 0 34 3 103t3 103q0 71-4 113-39-42-126-62-4-38-4-82 0-69 7-173 10-137 25-157 21-28 74-28 41 0 121 10 95 12 108 26 9 10 9 30zM186 498q0 6-6 12.5t-12 6.5-11-6q-3-10-16-20-20-16-21-17-32-33-52-74-2-4-8-31-5-19-15-26 25-3 50.5-27t29.5-49q-11 84-11 87 0 61 64 137 8 0 8 7zM81 306l-19 13-4-29h7zm10-23l-10-16v-21l7-15zm-19-70l-3 54-15 11 4-54zm-28 55v59q-5-14-20-38-7-48-7-67 0-13 7-36 2 9 12 41 8 25 8 41zm6-74v21h-6v-21h6zm262 133q-28 9-28 22 0 7 3 19.5t3 19.5l-1 2q-7 1-19 16 13 5 28 9 4 0 14-16 0-3-1.5-9.5T309 379q0-9 1.5-26.5T312 327zm-51 27l-19-23q-8 13-9 39-2 30-6 41l25 4v-32q0-21 9-29z"/><glyph glyph-name="M" unicode="M" horiz-adv-x="782" d="M756 140Q756 4 688 4q-25 0-50 37-21 29-29 59-6 25-14 110-5 69-26 107-17-85-60-178Q450 13 394 13q-29 0-67 54-33 45-43 81-18 62-32 157-22-91-43-182Q172 0 99 0 83 0 64 25 38 61 38 138q0 32 8 78 7 40 14 79 6 59 23 176-30 12-52 84-8 25-23 104-7 8-7 18 0 4 7 23 4 22 14 65 6 22 39 75.5t49 64 27 10.5l2-1q-10-52-10-66 0-12 3-36t3-36q0-13-5-24h-4q-6 0-10-3 4-19 7-19 12 0 8 7 5 4 11 4t10-4v-20q0-25-29-69.5T93 578l1-1q-1-14 5-28 27 59 39 74 26 33 73 33t79-35q21-24 39-67 15-37 18-38 12-3 34-3 33 0 98 5 46 121 101 121 47 0 78-19 18-12 30-35 23-47 47-217 21-153 21-228zm-70 366l-5 40q-1 1-15 1l-6 2v-43q4 0 10 1t9 1q3-1 7-2zm-26-21q-8 5-9 35 0 17-12 21v-56h21zm14 82q1 28-34 43-28 11-60 11-26 0-50-38l-34-60q102 10 178 44zm-51-97v23q0-1-2 37-2 0-9.5-4.5T600 523l2-53h21zm-36-15v72l-10-15h-18v-57h28zm-44-7v64h-35q7-16 7-33 0-18-7-31h35zM115 847v35q-6-12-21-35h21zm389-381q0 13-10 39h-6q-16-53-16-58 0-6 3-9l23 6q6 10 6 22zm-33 19v20h-21q-4-45-15-51v-21h21q1 14 3 29t12 23zM114 763l-2 57-11-14-6-44zm321-273q-9 6-28 15-1-2-4.5-4t-3.5-6v-62h28q-1 20 8 57zM84 801v21q-20-11-20-15v-21q11 15 20 15zm303-302h-22q-2-10-8-29l-1-1v-31l28-1q-5 10-5 27 0-1 8 35zM103 730l-32-3 5-17 22 5zm239-235q-1 3-17 3l-7 3v-61h23zm-20 21q-7 48-33 83-31 42-75 42-70 0-98-91 81-25 206-34zM51 739v35q-6-7-20-22v-35q6 11 8 14 5 7 12 8zm398-321h-72q-4-15-4-28 0-24 6-49 9-34 24-39l10 7q24 38 36 109zm-145 30v57h-21v-30q0-20-3-33zm-36 37v20h-28l-10-61 30 4q0 28 8 37zm-43 19q-14 1-40 12-1-10-11-26l8-36q10-7 34-10-4 21-4 36 0 7 2 12zm-95 191v20h-1q-20-5-56-22-12-9-25-20t-26-11q6-29 25.5-85T73 491h21v36q-22-4-22 65 0 37 37 72 5 25 21 31zm610-579q0 154-33 299-14 63-12 77-110-54-222-68-9-13-25-78-12-50-44-64-39 8-46 144-8 2-18 2-7 0-21.5-1t-21.5-1q-50 0-75 3-42 12-127 25-8-36-14-94-8-87-9-94-14-107-14-158 0-69 51-91 48 9 76 92 10 29 35 156 17 86 38 96 4-15 19-113 11-69 29-110 14-33 36-63 30-41 53-41 28 0 62 47 27 36 40 72 6 14 18 61 23 84 50 141 26-24 42-111 25-139 27-145 20-72 59-72 24 0 37 34 10 26 10 55zM174 511q-8 5-8 16h-21q0-38-14-56 10-6 15-16h20q0 20 8 56zm-44-12v13q0 27-20 29l-8-73q9 6 18.5 13.5T130 499zm399-137q0-6-3.5-18.5T521 325q-6-6-14-6-21 0-21 31 0 14 7 24 4 1 11 4.5t11 3.5q14 0 14-20zm-189-45h-21q0 8-14 8-6 10-6 24t6 25q7 4 15 4 7 0 13-4 0-32 7-36v-21zm144-112q0-3-4-7.5T448 143q-19-34-47-34-22 0-45.5 36T332 204q0 10 7 19 4-7 16-15 0-16 9-44 11-32 22-33 11-6 22-6 9 0 17 3 7 14 18 43 1 15 8 46 6 5 13 5 20 0 20-17z"/><glyph glyph-name="N" unicode="N" horiz-adv-x="602" d="M591 393q0-47-1-66-9-35-21-104-1-9-1-80 0-127-23-137-11-5-27-5-51 0-97 32-35 24-75 73-32 41-64 83-14 17-43 51-19 31-59 93l-14-187q-5-68-12-91Q138 0 94 0 75 0 59 8 33 21 21 113q-8 61-8 127 0 29-3.5 86T6 411q0 249 87 249h9q6-1 8-1 61 0 159-133 60-82 119-192l19-14q-4 40-4 54 0 31 18.5 90t18.5 91q0 34-23.5 95T393 733q0 13 12 13t38-18q67-46 84-62 39-38 48-91-1 4-1-37 0-15 8.5-38t8.5-107zm-99 261l-3 16-17 10 7-23zm47-54l-9 37q-19-12-30-38zm-100 89l-9 17-10-12zm57-59l-17 10 2-43q12 18 15 33zm-40-16l-2 59-15-9 3-29zm81-33l-45 2 12-24h7zm16-22l-19-5-17-14h17zm-66-21l-17 40-17 7 3-54zm23-22h-29l-27-30q21 10 56 30zm64-123q0 29-14 109-12 2-15 14-61-48-87-47 60-84 78-143 4-19 9-38 6-26 14-34 3 30 9 91 6 35 6 48zm-29-212v50q0 54-34 123-18 36-68 111l-11 2q-10-49-10-154zM154 625q-19 5-26 23-27-27-34-58 14-16 15-29 14 14 45 64zm63-93v28l-16 23-20-30 1-1q0-11-6-27-8-25-8-26 5-11 16-33 33 43 33 66zm-29 64h-5q-11 0-18 5h-1q-4 0-16-8-15-10-18-11-8-23-8-33 0-23 36-32 8 31 11 41 8 24 19 38zm73-95q-5 16-9 23-7 12-17 16l-12-40q-7-24-20-35v-21l14.5-14.5L235 422h3q6 12 15 37 1 14 8 42zM105 647l-14 1q-6-7-19-15l12-34q0 7 21 48zm192-217v28q-13 0-15 7l-25-25q0-5-1.5-14.5T254 411q0-37 21-40l6 32q4 20 16 27zm28-39q0 18-16 40-6-12-17-36 0-1-9-35l28-25q1 29 14 56zm162-160q-18 4-23 23-22-37-22-75 0-11 24-17 12 45 21 69zm37-56v20h-1q-4 0-25 22-1-37-18-71 21-7 26-23 2 14 4.5 29.5T524 175zM370 335v20q-10 5-15 15h-20q-13-32-13-53 0-10 8-20l16-20q0 17 24 58zm73-87v27q-11 3-15 15-15-3-25-28-7-21-7-40 0-11 32-26 1 14 3 29t12 23zm109-126v23q0 14-7 14h-21q0-7-3.5-19.5T517 121v-13q7 0 7-7l24-5q4 8 4 26zM399 314l-17 12q-5 0-6.5-6.5T371 312q-12-37-12-48 0-8 9-17t10-13q16 11 19 37 1 21 2 43zM546 50q0 24-17 33t-35 17q-40 20-215 230Q123 518 68 597H52q-26-26-26-100 0-33-1-98.5T24 300q0-66 7-140Q40 54 57 30q13-17 29-17 34 0 48 34 8 18 11 63 12 153 12 198 0 36 16 63 11-10 46-64 3-4 98-130 56-73 83-99 57-56 110-56 36 0 36 28zM130 388l-22-17q-4 13-14 15-8 25-8 45 0 19 8 49h35q-8-26-8-42t9-50zm-54-14l-21-12q-16 57-16 63 0 18 11 55h21v-8q0-11-3.5-31T64 411q0-19 12-37zm46-171q-14 0-45-37-28 11-28 34 0 62 23 97h21q-29-36-29-103 0-7 2-13 11 8 35 51 7-3 21-8v-21z"/><glyph glyph-name="O" unicode="O" horiz-adv-x="611" d="M597 352q0-106-50-188Q475 46 401 18 353 0 225 0q-29 0-79 25-46 23-69 46-33 34-57 106-22 67-22 120 0 137 49 230 5 8 5 14 0 20-9 60t-9 60q0 11 13 65 13 58 15 77 28 28 37 70l33 30q4 11 1 27 21-10 21-48 0-13-4-39.5t-4-40.5v-38q5-4 10-4 9 0 12 8h20q-3-19-6-37-5-23-15-33-10-5-31-18-30-20-64-116 45 54 75 69 27 14 99 22 23 3 38 3 152 0 226-82 50-55 68.5-102.5T597 352zM462 578v21q-9 7-31 14l12-40q2 0 9 3.5t10 1.5zm-34-13v19q-2 2-11 14-7 7-6 15l-28-1q4-37 4-53 0 9 15 9-1 0 26-3zM137 854l-24-18-3-31 17-15zm234-303v33q-7 8-7 22h-34v-27q5-3 5-9 0-4-2.5-11t-2.5-11v-2q15 8 41 5zm23 75q-30 16-117 16-12 0-95-8-14-5-38-22l115-1q93 0 135 15zM97 781l-4 27-15-9-1-23zm35-35l-7 19-39-10 11-20zm183-202v41q-11 2-14 14h-27l-15-56zm-71 0v55h-26q-4-3-3-24l-12-31h41zm-97 158v20h-20q-5-6-13-7.5t-19-.5q-17 1-16 1-9 0-15-1-9-13-9-37v-40q0-33 14-41 7 53 78 106zm55-123v20h-48q-3-34-25-53l59-3q-1-3-1 23 0 12 15 13zm-65-3l-8 23q-14-7-28-26-21-26-25-29h35q5 16 8 21 6 11 18 11zm290-229q0 38-20 88-22 56-52 71-14 5-43 15-162 2-162-174 0-107 37-149 6-7 53-39 21-5 46-5 75 0 112 62 29 50 29 131zm156 3q0 65-14 108-10 29-39 68-33 45-56 45-26 0-69-16-46-18-68-20 33-16 49-30 27-23 44-80 15-50 15-93 0-77-44-135-47-62-122-62-53 0-94 38t-53 91q-5 25-5 77 0 61 5 84 10 41 44.5 68.5T252 528H63Q18 428 18 316q0-117 53-199 61-95 173-95 122 0 164 19 49 21 102 99 73 106 73 210zM482 457q0-7-5-19-11-1-20-15-14 28-14 57v28q17-5 23-12l11-24q5-12 5-15zm-371-19v-35q-6-7-14-7t-13 7q-3 12-3 22 0 43 18 55zm330-295q-82-71-143-71-44 0-90 11-65 16-65 46 0 16 18 16 2 0 7-7 11-22 55-37 38-13 69-13 45 0 59 18 23 2 48 23 38 31 42 34v-20z"/><glyph glyph-name="P" unicode="P" horiz-adv-x="680" d="M660 450q0-130-73-186-47-36-144-47-89-11-99-23-19-24-16-149-16-45-70-45-47 0-64 40-10 22-14 80-5 81-21 398-21-61-21-116 0-24 9-53-13-30-26-75l-12 21q-12-10-11-43h-2q-5 1-25-44-12-28-23-56-3 16-15 27-2 28-5 40-6 28-18 33-10 18-10 40 0 37 48 126 42 78 75 119 11 12 28 37 5 15 17 44 20 41 160 41 149 0 222-32 110-48 110-177zM533 596l-10 22-39 3q7-6 24.5-12.5T533 596zm-12-17q-11 6-16 21l-7-1q-24 0-34 8-9-1-19-10l3-9q30 0 37-9h36zm-37-20q-12 5-16 18-7 0-43 8v-21q21-7 25-23 5 11 34 18zm156-150q-64-2-64-39 0-19 43-43 17 35 21 82zM432 527q-9 13-24 39 0 5 1 11l-13-9-8-12q8-3 13-13 6-13 9-16h22zm34 101q-38 19-86 19-159 0-188-31-17-20-17-61 0-16 5-33 102 8 208 64 26 16 78 42zm-71-109q-6 13-11 27-8 17-19 17-8 0-29-21 15-3 15-34v-4l22 3q12 12 22 12zm57-73q0 11-6 27 1 11-9 20t-19 17q-14-2-45.5-14.5T328 475q-1-10-1-26 0-42 9-63 16-5 29-5 32 0 57 16 30 19 30 49zm-117 51v28q-10 5-15 15h-29q8-19 8-43h36zm-44-15v28q-10 5-15 15l-21-6v-51q10 14 36 14zm354-19q0 66-27 98t-56 32q-6 0-61-34-64-39-68-42 37-28 37-61 0-41-31-66t-73-25q-54 0-54 46 0 6 1 20t1 22q0 7-1 13l-13 1q-24 0-62-10-44-12-51-28-4-10-4-27 0-46 6.5-137.5T196 127q0-51 8-74 13-39 54-39 23 0 39 13.5T313 64q0 12-2 37.5t-2 37.5q0 57 19 76 16 16 110 21.5T548 258q-36-6-38-6-31 0-41 24v32l16 9 2-1v-20q0-26 22-26 28 0 68 7 13 13 40 38l-36 20q-20 15-20 34 0 30 25 43 16 7 53 11 6 23 6 40zm-406 4v51h-36v-58h21q4 7 15 7zm-45-17l-5 62-10-9-1-58zm-67 68q-17-30-52-91-10-15-20-29-13-19-13-32 0-8 5-17-2 1 24 1 13 0 13-16 10 0 20.5 6.5T119 347l3-6q-9 36-9 72 0 43 14 105zM83 311l-18 24-18-3q6-12 25-32zm-37 5H33l-8-41 19 6zm37-34l-25-10-7-66q20 23 32 76zm472 206q0-17-13-43-22 6-22 36 0 26 8 37 10 0 15-7 10-10 11-12z"/><glyph glyph-name="Q" unicode="Q" horiz-adv-x="712" d="M693 47q0-86-63-86-37 0-76 27-14 9-62 52-47-13-93-26-54-14-95-14-66 0-99 17-73 37-124 140-47 96-47 184 0 8 2 22t2 22q0 19-12 46-17 36-19 44-6 22-6 69 0 60 21 132 24 81 59 118 47 49 114 61 4 5 10 5t11-5q1-19 36-15-16-23-52-50-44-32-56-45l15-13q10-2 20-2 11 0 23 2-51-37-89-101-40-68-39-126v-10q34 66 104.5 112.5T321 654q161 0 239-51 97-63 97-215 0-142-45-238 81-43 81-103zm-72 442l-12 38q-11 26-26 26l1-64h37zm-53-7v85q-18-7-23.5-26.5T533 502v-20h35zm-36 85q-10-8-35-22v-78h21q0 2 14 100zM205 824l-35 5 13-22q2 1 9.5 9t12.5 8zm277-357v93h-28q-3-9-14-22v-24q0-14-4-24 3-3 19-13 13-8 14-16 4 3 13 6zM151 787v20l-3 1q-3-15-18-15v-21q7 7 21 15zm273-284v57h-30l-26-1q0-14-8-34 17 1 22-15 15 0 42-7zm123 80q-16 10-49 28-22 10-71 18-44 7-73 7-59 0-91-9-41-10-96-49-57-42-73-77 54 0 131 28 105 38 128 43.5t49 6.5q19 1 49 0 40-1 49-1 31 0 47 5zM109 762l-8 29-20-32 24-12zm236-237l-1 30-43-10q1-5 8.5-10t7.5-10h28zm-40-12q-4 11-17 25l-25-11v-21q12 9 42 7zm-53-24l-4 33-48-17-3-68 25 16q6 11 12 22.5t18 13.5zm-94 222l-58 1-11 33q-7-8-24-38-26-47-34-76.5T23 549q0-66 15-115l19-3v69q0 62 32 114 35 49 69 97zm325-381q0 35-15 111-70 65-130 65-67 0-139-93v-4q0-260 144-260 5 0 11 3-1 6-6 24-4 15-4 25 0 96 56 96 23 0 40.5-12.5T474 258q9 27 9 72zM190 502q-10 0-44-7 7-68 6-78l27 9q-2 8-2 22 0 4 13 54zM677 39q0 37-15 54-7 8-33 22t-38 32q51 128 51 213 0 54-16 114l-70-12q-46-8-66-18 11-46 11-99 0-54-11-101 8-2 8-11 0-6-3-11-48 59-96 59-40 0-40-70 0-35 23-59-23-19-52-19-50 0-82 34-27 28-48 91-18 58-18 102 0 25 4 49-40-11-121-29-11-14-11-37 0-92 41-177 45-93 120-135 27-14 112-14 20 0 33 6-7 8-33 25-16 11-24 38l8 6q19-14 37-29 22-17 32-33 17 1 59 17t51 16q11 0 57-43t74-43q26 0 41 17.5T677 39zM136 488q-5-3-10-3-3 0-10 2t-10 2q0-7 3.5-19.5T113 450q0-6-12-40l35 6q-5 12-5 29v15q0 13 5 28zm-36-57l-5 56q-27 0-27-17 0-6 2-18.5t2-19.5q0-19-7-37l21 9q4 10 14 27zm490-210q0-8-20-28-10 3-26 13l17 48q8-13 29-33z"/><glyph glyph-name="R" unicode="R" horiz-adv-x="634" d="M598 416q0-47-8-97-13-27-25-54-21-42-31-42-17 0-18 109h-7q-15 0-22-12 0 7 3 24t3 26q0 45-6 74-15-28-30-57-19-32-37-52-24-20-68-64 48-5 101-70t53-113q0-49-20.5-69.5T416-2q-19 0-30 2-23 5-108 103-54 64-108 127-2-51-3-102-3-68-15-96-10-23-25-29-10-4-39-4-16 0-21 1Q2 8 2 154q0 104 20 254 9 68 9 98 0 81 30 108 42 39 135 39 55 0 143.5-22T476 583q68-37 99-99 23-47 23-68zm-20 5q0 48-56 108-44 47-84 47-7 0-14-1 39-17 66-71 25-50 25-97 0-9-5-26.5t-5-26.5q0-5 3-9 4 1 19 28 14 24 33 24 7 0 14-3 4 15 4 27zM420 530q-2 13-4.5 27T401 575l-4-56h2q8 6 21 11zm164-160l-18 10-4-36 17 12zM385 575h-22q-3-9-3-21 0-3 3-46l18 4zm198-231l-13-11-16-37 22 23zm-36 33l-11-22-6-44 12 8zM355 508l-13 68q0-39-9-75zm-29 68q-17 0-30 1l-1-84h22q-1 28 9 83zm52 18q-28 20-95 32-54 9-103 9-105 0-126-68 114 27 324 27zm179-311l-25 7 9-39 7 21zM279 493l-1 83h-21q0-10-2-30t-2-30q0-4 1-26zm-38 15v60h-37v-83h22v4q0 16 15 19zm-48 65l-26-3v-85l17 4zm136-127q0 29-47 29-29 0-53-11-29-14-29-41 0-17 21-27 18-9 37-9 27 0 49 16.5t22 42.5zM151 564h-32l2-79h29zm-46-79l-1 74H83v-74h22zm-38 8v59H46v-67q8 8 21 8zM488 83q0 58-55 115-48 50-108 72 80 74 95 91 54 62 54 114 0 46-31 46-7 0-125-38 1-2 17-11 11-7 11-32 0-23-23.5-47T275 369q-25 0-87 27-6 13-6 29 0 37 37 47h-39q-73 0-128-2-1-22-12-71-9-45-9-70 0-14 15-33 10-6 20-6 18 0 58 58 4-5 4-11 0-23-23.5-44T57 272q-11 0-27 8-15-56-15-119Q15 14 87 14q25 0 41.5 9.5T149 133q1 62 2 125 5 7 13 7 7 0 14-7 7-11 22-33 20-31 87-108 73-83 91.5-93.5T419 13q69 0 69 70zM120 435q-6-27-25-27-5 0-12 1-4 5-4 11 0 11 32 27 5-9 9-12z"/><glyph glyph-name="S" unicode="S" horiz-adv-x="606" d="M513 400q-6-3-11-3-6 0-10 3l1 5q0 9-8 19-7 7-14 15 4 10 11 10 6 0 17-10 0-8 13-13zm-64 11q0-6-5-12-10 3-21 6.5T412 418q-12 7-12 19l3 4.5 9 4.5q5 0 10-5 4-18 22-21 5-4 5-9zm133-205q0-70-49-126T415 6q-28-7-74-7-110 0-132 7-36 12-58 50-19 34-19 74 0 59 34 59 26 0 72-22.5t72-22.5q30 0 56 9 35 12 35 35 0 39-45 60-100 45-131 64-71 43-102 100-9 16-11 40-4 29-8 40-18-21-18-81 0-87 36-99 12-10 12-23 0 1-24.5-21.5T85 221q0-3 1-9.5t1-9.5q0-7-7-7-19 0-43 26-20 22-28.5 43.5T0 315q0 91 57 174 53 77 138 124 28 16 90 30 59 13 94 13 62 0 105-34 47-37 47-97 0-63-79-63-26 0-67 18.5T330 499t-28.5-10.5T287 465v-4q6-40 78-64 54-13 108-27 109-35 109-164zM477 606q-12 22-52 29l-13-5h2q10 0 28.5-13t28.5-13zm-27-13l-47 34 6-27q2-1 6.5-9t9.5-8q4 0 25 10zm-49-5q0 7-3.5 18.5T394 624l-29-13q12-24 8-40h20zm-38-25l-12 41-28-6q6-6 15-6l-5-43q10 14 30 14zm46 76q-90-2-144-17-70-19-127-69 91 28 271 86zm-87-97v35q-11 2-14 15h-20q-4-19-4-30 0-12 4-27h20q4 9 14 7zm-49-17l-1 52h-20q-7-22-7-32 0-11 7-24zm-40 34l-17 4q0-7-3.5-21.5T209 519v-20q10 9 20 8 0 36 4 52zm-33-60l-5 57q-5-4-16-3l3-63q12 8 18 9zm-28-14l-8 59h-3l-7-5q-2-4-2-10 0-4 1-12.5t1-12.5q0-11-3-19h21zm392-286q0 27-6 49-21 79-86 104-66 20-132 41-67 28-67 70 0 21 17 35t39 14q17 0 59-18.5t68-18.5q56 0 56 58 0 29-19 59-51-3-175-56-140-61-187-71-9-2-9-9 0-37 70-98 61-52 107-71 29-11 57-22 40-16 50-30 13-18 13-40 0-68-107-68-26 0-71 23t-71 23q-19 0-19-41 0-40 5-55 8-23 36-43 33-23 105-23 88 0 118 9 61 17 105 67.5T564 199zM144 534q-16-2-20-12t-9-21q7-8 21-23 0 5 8 56zm-32-243q-38 37-38 98 0 37 11 96-23-12-41-58-8-20-17-40-9-24-9-42 0-28 25-43 21-12 50-11h19zm-19-17l-21 9 10-23zm-53-14v30l-19 12 2-28zm25-3l-18-16-4-12 21-7zm444 0q-10-18-16-23-9-7-28-7-37 0-37 50 6-3 19-22 10-14 25-14 16 0 32 43z"/><glyph glyph-name="T" unicode="T" horiz-adv-x="644" d="M541 413q0-25-12-45h-6q-10 20-10 45 0 23 10 42h6q12-19 12-42zm-284-11q0-26-8-48h-6q-9 20-9 47 0 26 9 47h6q8-20 8-46zm370 191q0-60-12-77t-47-17q-7 0-26.5 1t-31.5 1q-16 0-24.5-6T477 201q0-62-3-96 4-10 13-10 55 0 55 44 0 26-3 43 20-36 60-45-19-4-59-34-34-24-65-22-9-45-19-58-16-23-55-23-69 0-93 87-42 5-91 31l-34-2 32 26q11 12 15 38l5-39q22-38 75-39 1 49 1 106 0 262-13 268-9 5-24 5-14 0-42-3t-42-3q-40 0-40 44 0 20 8 42-48-52-48-103 0-28 19.5-49t19.5-34q0-14-19.5-17.5T110 344t5.5-28 5.5-28q0-20-31-20-23 0-56.5 53T0 400q0 118 120 211 61 47 227 47h103q96 0 143-10 23-5 29-19 5-9 5-36zm-17-26l-1 58-19 5-4-63h24zm-30 68l-5-2q-6 0-16 6-2-5-2-17v-2q0-24-18-25v-21l36-6zm-39 4l-25 2q-3-17-14-38v-29h29q0 20 8 23zm-38 5l-45-2v-68l37-6q3 25 8 76zm-61-69v65q-5 0-35 7 1 11 1-50v-10q0-14-7-20zm-44 14l-6 57h-37q6-7 8-23 1-11 1-30-1-28-1-26l21 3q4 17 14 19zm-51-22v65l-36 15q0-9-4-26.5t-4-26.5l1-27h43zm-52 80l-30-6q4-10 4-21 0-32-17-40l2-13 38 1q-6 13-6 29 0 21 9 50zm-44-50v35h-21q-3-9-15-15 0-18-7-23v-34h28q1 4 8 18t7 19zm-42 29q-3 5-9 5-8 0-21-8-20-13-21-13l14-49q3 2 10 4l10-6q-2 12-7 34 6 3 12.5 17t11.5 16zm401-86q0 22-47 22-64 0-194.5-5.5T171 552q-7-16-7-31 0-28 33-28 16 0 47.5 2.5T292 498q14 0 22.5-6t9.5-189q1-196 7-223 16-66 75-66 15 0 29 8 27 15 27 182 0 35-1.5 104.5T459 413q0 90 13 98 10 6 30 6 12 0 36-1t36-1q36 0 36 25zm-461 34q0 6-6 15t-6 14Q15 517 15 427q0-15 1-29 4-1 8-1 5 0 14 1t13 1q8 0 25.5-14.5T119 370q12 0 12 8t-17.5 35T96 455q0 37 22 75 6 6 18.5 22.5T149 574zm-46-228l-4 20q-12-9-23-30zm-52-12v31l-15 13-4-18zm49-46v33H80l10-31z"/><glyph glyph-name="U" unicode="U" horiz-adv-x="726" d="M701 298q0-69-6-104-10-60-40-95-40-46-116-74Q470 0 403 0 232 0 174 118q-38 78-38 269-19 3-38 7t-34 15q-26 20-45 70-19 47-19 82t16.5 82T84 757q59 76 98 76 16 0 16-18 0-11-25.5-56T147 691q0-20 6-26.5t27-4.5q-7-24-52-53-41-26-41-61 0-43 45-118 1 10 1 71 0 45 9 71 8 23 32 51 27 32 46 32 50 0 61-39 27 5 82 5 39 0 106-2 78-3 107-3 5 15 23.5 25t35.5 10 30-9 17-40q19-154 19-302zm-35 298q0 38-33 38-26 0-42-23 17-1 38-13 26-15 36-18 1 8 1 16zm8-78l-1 42-1-1q-4 0-8.5 6t-7.5 6l-10-45zm-28 57l-24 10q-8-18-13-48 7-2 21-4 2 13 16 42zm-40 18l-27 8q0-41-9-47l5-17q6 1 19 2zm-43 6h-34l-3-50q20 0 27-8zm-51 0h-26l2-50h22zm-39-27l-14 28-27 3v-15q0-18-4-23 9-5 8-16h29q1 14 8 23zm-59-22l-2 50q-13 1-36 8l4-61zM157 799l-25-19 10-24 12 15zm211-240q0 7-4 20.5t-4 20.5h-29l1-58q36 7 36 17zm-53-26v59q-11 2-34 4l4-57zM119 758q-3-6-16-17-8-7-8-26 0-12 13-22zm146-149q-16 26-39 26-24 0-40-21-2-12-21-31 23 9 100 26zm5-15q-10-9-37-9v-52l34 4zm-132 93l-15-3v-24h6zm420-278q0 73-5 117-53 11-107 11-140 0-152-29-3-8-3-23 0-88 10-168 16-126 51-145 27-15 94-15 74 0 99 96 13 51 13 156zM217 581l-26-3 5-52h21v55zM82 684v21q-10-4-29-16v-21q10 6 29 16zm98-111l-21-11-7-48q2 7 11 9t17 3v47zm504-310q0 137-6 245-77 17-107 17v-67q1-43 1-68 0-111-19-163-31-86-122-86-68 0-101 26-53 44-53 358-84-2-120-32-3-101-3-151 0-204 66-266 36-33 113-52 34-9 73-9 52 0 126 29.5T639 111q45 50 45 152zM135 399q-64 90-64 156 0 26 17 46t43 21q-1 14-12 23-29 12-54 12-47 0-47-104 0-34 20-77.5T83 413q19-13 52-14zm337 29l-21-15-3 64q9-1 24 3v-52zm-67-14q-16 0-19.5 13T375 444v36h26zm99-98q-1-33-15-56-17-29-47-29-32 0-56 17-28 20-28 50 0 9 4 18 6-4 31-38 20-26 37-26 24 0 44 23 2 1 30 41z"/><glyph glyph-name="V" unicode="V" horiz-adv-x="743" d="M717 552q0-53-10-119-13-82-100-247Q509 2 448 2q-47 0-144 192-81 159-108 247-18 61-16 145-36-51-50-88-18-44-18-99t55-116q-29-4-51-19-2-16-2-28 0-11 9-30.5t9-30.5q0-25-18-25-4 0-11 5-54 43-74 70-29 41-29 96 0 144 176 301 40 36 78 36 31 0 52-15 12-8 26-28 10-15 17-15 22 0 65 11.5t65 11.5q14 0 39.5-7.5T558 608q17 0 44 17t43 17q72 0 72-90zm-17-10v36q0 19-16.5 33T647 625q-18 0-50-23 47-8 103-60zm0-23q-5 10-20 24l-12-43 22-11zm-33 32l-29 19-3-56 18-7q5 15 14 44zm-44 27q-6 0-39 12 3-3 3-10 0-16-10-44 17-4 44-15zm-55-43v58h-35v-45q12-3 35-13zm-48 19l-3 38q-10 5-15 15h-20l-3-51zm-47 54l-51-6 1-52 36 4q6 10 9 26 5 25 5 28zm-65-58v43h-21q-8-14-8-18 0-7 5.5-19t5.5-18zm-30-15q-7 12-14 50h-30l25-49 7-3q2 0 3.5 3.5t2.5 3.5q3-2 6-5zm-30-2q-8 5-16.5 23.5T314 580q2-5 6-30 3-21 11-26zm209-12q-34 22-86 22-34 0-106-26 44-168 92-245zm-235 74q-14 46-61 46-30 0-49.5-16.5T192 579q0-13 5-29 85 47 125 45zm-17-82q-3 21-6 62-13-2-19-5l4-57h21zm-35 52l-52-24q15-19 16-50 15 8 35 8zm424-97v4q-62 37-122 45-19-35-53-135-29-87-60-131-37 44-66 125-23 69-45 137-24-5-76-28-61-26-61-38t33-85Q400 16 452 16q56 0 153 196 93 188 89 256zm-468 15q0 3-5 7t-5 8.5-19 36.5v-21q4-3 5-29 0-16 9-17 15 8 15 15zm-81-195q-49 63-49 112 0 29 9 68 9 33 18 67-27-12-62-69-33-53-40-87-5-23-5-44 0-14 5-26 23-17 124-21zm-44-61l-2 35-18 12-2-33zm-35 52l-29 13q0-5-8-21 5-9 20-24 5 11 17 32zm35-102q-11 45-35 51l-14-15q19-5 29-25zm413 311q0-15-19-33-23 16-23 40v11q6 10 15 10h11q16-14 16-28zm-77 0q0-9-5-23-7-5-22-10-15 15-15 35 0 13 7 23 6 4 14 4 5 0 9-1 12-14 12-28zm110-266q-26-61-83-61-27 0-45 19-4 4-29 42l2 17q16-20 31-40 19-23 43-23 59 0 62 66 15-4 19-20z"/><glyph glyph-name="W" unicode="W" horiz-adv-x="978" d="M942 576q0-25-16-122Q848-20 721-20q-32 0-53 29-12 17-29 62t-29 59q-25-6-54-6-45 0-73 15Q435 0 357 0q-37 0-61 33-50 68-116 386-3 14-11 42-45-1-75 22-9 7-46 62.5T6 614q-7 20-7 38 0 95 44 143 16 14 47 44 12 14 25 28 17 20 29 20 19 0 19-32 0-17-16.5-22.5T130 816q0-5 2.5-14.5T135 787q0-17-17-15l-3-5q3-7 12-7 8 0 23 3.5t23 3.5q11 0 15-8-4-9-17-18-19-11-21-14-9-7-25.5-43.5T108 636q0-98 48-146-8 27-8 60 0 110 81 110 79 0 82-88 51 11 153 25 35 58 80 58 23 0 43.5-20t20.5-43q173-7 176-7 20 0 29 19l18 36q16 19 53 19 58 0 58-83zm-11 3q0 14-5 34-1 0-17 17-12 14-33 14-20 0-36-16-4-14-20-47 17-2 106-33 5 16 5 31zm-15-59q0-2-6 13-3-5-20-23v-20h21v6q0 12 4 16zm-26 7l-4 17-32 4v-50l15-6q2 29 21 35zm-52 28q-10 4-32 8l-3-1v-50l34-9zm-43 14h-36q3-7 3-15 0-9-6-23 15 0 25-9 3 8 14 47zm-59-35v35h-8q-2 0-27 8v-43h35zm-51 0v43h-43l3-44q30 3 40 1zm-59 7v36q-26-5-27-5-6 0-13 3 8-27 5-41 8 3 35 7zm-36 52q-16 28-20 31-12 14-34 14-33 0-55-45h109zm173-81q-36 7-93 7-15 0-28-1 14-14 40-116 23-94 37-94 19 0 32 91 9 58 12 113zm-187 37q-8 8-8 28h-50v-28q5-1 14-4.5t15-3.5q5 0 14.5 4t14.5 4zm-66-15l-14 43q-31-2-44 0v-21q8-9 8-29 22 7 50 7zm-66-14q-8 34-8 57h-35v-28q17-5 14-29h29zm-44-8q-23 13-22 57l-39-6 3-14q18-6 15-37h43zM115 799l-13 31-23-41q12 3 36 10zm226-301v35q-15 2-14 22h-36v-28q17-4 15-29h35zM100 743q-16 11-37 31-2-10-9-31h46zm191-155q0 35-9.5 46.5T238 646q-32 0-51.5-21.5T167 571q0-11 2-20 13-3 32-3 90 0 90 40zm621-130q-27 23-133 48-2-46-19-129-21-104-41-104-12 0-48.5 121T617 522t-48 7q-79 0-99-12-24-13-51-135-25-115-50-115-8 0-14 4-15 11-27 99-10 75-9 112-7 1-14 1-21 0-59-11t-57-12q10-99 53-251Q299 14 352 14q49 0 77 42 11 16 37 85-25 9-44 28-22 21-22 45 0 7 4 13 15-19 30-37 18-21 37-28v1q7 31 32 102 29 82 39 82 5 0 9-3 26-60 69-182 59 57 64 57 6 0 6-8 0-18-63-73 19-61 34-88 29-54 67-54 100 0 184 462zm-621 40l-22 49-24-7q10-28 10-42h36zm148 8q-40-4-54-7-31-5-53-14 5-51 9-102 8-67 23-97 8 4 15 2v1q0 27 24 109 22 79 36 108zm166-352q-22 56-63 169l-57-165q35-9 73-9 26 0 47 5zM241 491q-14 18-14 30 0 7 5 11h-36q8-16 19-50zm-104 4q-44 52-44 139 0 20 14 46 11 21 23 43-42-2-82-2-11 0-19 2-1-10-4.5-31.5T21 659q0-14 3-27 6-26 44-83 40-63 60-63 8 0 9 9zm58-20l-12 54h-18l9-39q10-4 21-15zm421-69q0-13-5-29-1 3-18 4h-2q-7 27-7 46t7 33q4 1 11 9 1-7 8-31 6-20 6-32zm-133 40v-14q0-42-23-52-4 17-4 35 0 35 14 60 13-6 13-29z"/><glyph glyph-name="X" unicode="X" horiz-adv-x="653" d="M640 81q0-68-74-68-33 0-50 7t-41 32q-37 47-116 139-36-52-71-104-54-77-75-88.5T175-13q-34 0-54.5 26T100 75q0 40 18 70 5 8 40 49 15 17 97 124-7 32-71 107-60 71-59 96l1 32q-11-6-20.5-27.5T96 491q0-41 30-84 33-47 37-67l-3-3q-13 8-24 8-27 0-27-28 0-12 4.5-34t4.5-33q0-9-10-15.5T88 228q-90 0-90 171 0 66 23.5 109t78.5 92q63 54 103 54 38 0 66-28 7-8 37-52 19-28 37-28 74 0 100 27 5 6 23 52 11 28 48 28t61-19 24-54q0-39-36-95-19-29-68-88-37-44-37-54 0-8 48-59 61-67 87-102 47-64 47-101zm-56 505q0 20-19 37t-40 17q-36 0-51-37-20-48-34-57l23-1q25 0 68 11 53 13 53 30zm-8-33h-21l-1-56zm-37-58v51l-32-4q5-15 11-47h21zm-36-7q-9 5-10 23-1 13-1 27l-26-7v-43h37zm-45 0l-5 48q-4-1-11.5-4t-12.5-3l-7 2v-43h36zm-48 39q-7-1-10.5-17.5T387 495l19-7q2 13 4 39zm-26 4h-24l3-37q5-1 15-4zm-35-9q0 13-16 13-8 0-22-4v-43h36q-2 4-2 9 0 4 2 12.5t2 12.5zm-46 25q-28 48-37 59-26 31-58 31-18 0-43-11-30-12-30-27 0-8 5-15 1 0 57-5 53-5 106-32zm0-16q-22 0-44 15l-8-51q16 0 37-7l-1 4q0 7 16 39zm-62 23q-11 3-33 6l7-50q11-1 16-16zm-50-44v58h-21v-21q8-3 9.5-19t11.5-18zm-23-2q-10 1-14 60h-21q8-22 15-66 4 3 8 3 3 0 9-4zM624 84q0 40-76 130-54 62-108 123 40 72 100 142-45-5-105-5-158 0-280 20 33-36 71-86 51-68 51-90 0-19-80.5-109T116 82q0-28 11-49 14-27 38-27 42 0 80 47 11 15 58 93 33 56 58 67 56-67 81-96 66-78 77-82 19-6 40-6 65 0 65 55zM134 360q-1 4-9 15-15 20-29.5 56.5T81 491q0 15 12 42t24 36v22Q16 501 16 417q0-19 49-37 64-24 67-26zm-33-70l-15 56h-7v-58zm-73 57v29q-21-7-21-15 0-4 4-11t4-11q4 4 13 8zm37-52l-6.5 26L44 339v-29l8 1zm30-31q-28 0-43 7-10-1-11-12 21 0 46-16 4 7 8 21zm336 141v-13q0-20-6-31-6 13-18 16-7 12-7 27 0 17 7 31 10-5 19-9 5-5 5-21zm-115-13q0-8-6-31-8 9-21 16-6 12-6 27 0 16 6 31 27-22 27-43zm119-97q0-25-25-47t-50-22q-67 0-66 73v10q9-5 25-40 12-26 35-26 29 0 48 21 7 9 28 47 5-7 5-16z"/><glyph glyph-name="Y" unicode="Y" horiz-adv-x="598" d="M591 567q0-36-69-120-76-92-88-127-16-50-20-156-2-83-5-99-13-65-57-65-53 0-79 68-17 44-27 140-9 100-16 120-8 24-50.5 82T116 481q-7 5-27 5-30 0-59 44-27 41-27 72 0 52 18 101 22 61 73 113 59 59 117 59 51 0 51-17 0-10-40.5-43.5T181 766q0-22 26.5-25.5T234 730q0-9-44-16-51-8-54-10-19-9-38.5-44T78 602q0-11 4-27 5-21 13-21 4 0 4 41 0 56 60 56 45 0 83-38.5t50-38.5q106 0 126 11 11 6 42 42 22 26 53 26 78 0 78-86zm-22 31q0 15-19.5 27.5T514 638q-43 0-65-49 26 2 38 2h47q12 0 30-2 5 4 5 9zm3-22l-21-3v-36q5 4 8 4 1 0 4-1.5t4-1.5zm-30-39v36h-35v-36h35zm-50 0v36h-21v-36h21zM220 848l-1 4-24 4q-1-4-7-15.5t-6-19.5q0-5 4-8 1 10 17.5 18t16.5 17zm232-278q-13-2-39-12v-35h20q5 10 15 15zM151 806l-13 28v-12q1-7-5-15t-11-15h21q1 14 8 14zm247-248h-36v-28l18-1q18 0 18 21v8zM169 781h-21q-4-9-15-20h28q1 11 8 20zm177-243v20q-4 1-7 1-14 0-41-4l6-32q4 0 13 2t14 1q8 12 15 12zm23-25q-34-4-50-2 0-12 22-41 12 6 17.5 18.5T369 513zm-80 10q-2 11-3.5 23.5T271 559h-10v-36h28zm-37 51q-34 61-102 61-16 0-28-13t-12-29q0-9 5-19 9-2 19-2 12 0 37 3t38 3q21 0 43-4zm-7-51v35q-26 1-42 8-8-16-8-22t8-21h42zm-58 204q-8 14-38 24-24 7-46 7-39 0-60-47-9-21-22-81-4-20-4-29 0-26 28-64 29-41 53-41 9 0 16 5-50 53-50 83 0 52 25 95 30 50 78 50 10 0 20-2zm0-196v27h-35v-43q13 3 35 16zm-51-15v42h-21v-42h21zm423 7q-121-12-150-12-12 0-25 2-5-10-41-68-10 10-20.5 33.5T304 511q-44 0-87-1-51-2-88-10 14-23 55-75 37-46 51-76t22-109q10-101 16-130 14-67 46-86 11-6 37-6 14 0 27 11 10 10 17 105l6 120q7 68 32 112 14 24 56 70t65 87zM427 418q0-16-8-33h-21q-5 20-5 33 0 14 5 24 9 1 23 10 6-21 6-34zm-137 5q0-19-9-38-28 12-28 33v8q0 22 8 31 5 1 10 1t10-1q9-15 9-34zm91-197q0-26-42-44-46 6-45 55v12q5-4 21-27 11-19 25-19 22 0 36 50 5-14 5-27z"/><glyph glyph-name="Z" unicode="Z" horiz-adv-x="645" d="M632 451q0-29-26-119-28-96-45-103-11-3-21-6.5T524 208t-8-11q-22 0-22 33 0 21 18.5 51.5T531 327q0 9-6 18-10 6-21 6-17 0-38-10-3 5-3 11t3 10q11 9 27.5 53t16.5 60q0 12-11 75-39-92-134-213-132-171-153-202l1-3q93 9 193 9 47 0 69-11 32-15 32-57 0-32-42.5-52.5T122 0Q80 0 63 6q-23 8-41 27Q1 54 1 76q0 70 57 143 66 70 131 140 104 111 104 135 0 5-7 5-27 0-81.5-9t-81.5-9q-43 0-74 24t-31 65q0 87 113 87 40 0 119-6t119-6q7 0 22 1h21q34 0 54.5-12t22.5-13 26-6q29-7 66.5-50t45.5-75q5-18 5-39zm-14-2q0 56-46 108.5T470 607h-5q61-45 61-122 0-21-13-55.5T500 389q0-10 10-10 13 0 52 12 43 12 48 20 8 13 8 38zM446 622q-19 0-24 5v-55h20zm-41-50v59h-36v-59h36zm195-195l-18 1-24-21 26-3zM354 572v59h-29v-59h29zm-45 0v59h-21v-59h21zm239-195l-21-5v-13l18-18zm29-80l-6 18-24-4 4-24zM272 588v43h-36v-59h21q5 10 15 16zm-51 8v35l-32 7q0-22-12-31v-35h36q0 20 8 24zm319-328l-21-9-4-37h7zM170 638l-29 4q0-26-7-75l27 5q0 42 9 66zm-46-42l-1 42H92v-23q0-15-11-22v-34q0 12 13 14 1 0 23-1-1 20 7 24zm-45 14v21q-10-10-35-23v-36h21l1 7q0 3-1 8.5t-1 8.5q0 13 15 14zM489 86q0 39-87 39-30 0-89.5-3t-89.5-3-30 19q0-2 135 181 137 189 152 245h-35q-59 0-170-7-115-8-171-8-37 0-60 8v-22q28-41 85-41 28 0 82 11t82 11q24 0 24-22 0-26-115-146Q72 212 58 189 21 128 21 77q0-40 44-53 25-7 78-7 271 0 308.5 19.5T489 86zM215 230q0-18-14.5-30T168 188q-16 0-28.5 9.5T127 223q0 8 4 17 22-31 37-31 23 0 47 33v-12zm5 212q0-13-15-31.5T177 386q-4 10-4 19t4 15q1 38 24 38 19 0 19-16zm-74-15q0-15-11.5-29.5T123 378q-22 7-22 30 0 44 38 44 7-11 7-25z"/><glyph glyph-name="bracketleft" unicode="[" horiz-adv-x="2466" d="M2395 664q0-18-10.5-52t-10.5-52q0-22 4-65.5t4-64.5l-16-10q-40 19-81 39-53 27-53 62 0 34 34 54 29 15 58 31 22 16 24.5 41t12.5 30h24q10 0 10-13zm-167-52q-2-3-47-47-29-29-29-58 0-11 3.5-31.5t3.5-30.5q0-25-24-25-19 0-28 20-2 4-10.5 78.5T2088 605q0 27 25 27 15 0 21-13.5t11-27.5q0 1 28 21 21 16 28 16 5 0 27-16zm-149-50q0-24-10.5-79.5T2050 406q-28 18-58 27-41 13-44 14-19 11-19 40 0 43 38 61 23 10 76 16l-8 23q-11 0-32.5-7t-32.5-7-18 10v26q41 19 66 19 61 0 61-66zm58-348q0-30-24-30-10 0-20 7t-10 16q0 12 10 19.5t22 7.5q22 0 22-20zm-217 330q0-43-17-75-21-40-60-40-26 0-61 45-21-30-27-36-19-18-41-18-61 0-61 150 0 58 23 58 15 0 29-71 16-82 19-88 8 6 30 44 19 33 33 33 9 0 31-33l28-44q21 11 26 40v50q0 27 9 41h25q14-28 14-56zm213-403q0-8-5-20-6-15-7.5-21T2119 9q-6-6-18-6-27 0-27 36v18q0 100 34 100 25 0 25-16zm-493 514q0-15-6.5-42.5T1627 571q0-17 2-51.5t2-51.5v-38l-16-10q-40 19-81 39-53 27-53 62 0 33 21 49 9 7 43 19 30 10 41 26 6 7 11 33 5 21 17 29h16q10-9 10-22zm421-486l-48-46q-28-28-28-57 0-10 3.5-31.5T1992 3q0-27-26-27-12 0-26 20-4 60-11 104-9 57-9 64 0 29 25 29 15 0 21-15.5t11-29.5q46 36 54 36 15 0 30-15zm-584 302q-20-17-52-32-35-15-59-15-6 0-17.5 2.5T1333 429q0 25-7.5 75.5T1318 580q0 106 77 106 32 0 64-24-9-21-23-21-7 0-19.5 4.5T1398 650q-14 0-25-11v-54q13-7 22-7 4 0 11.5 2t11.5 2q17 0 32-15-3-17-25-21-18-2-37-5-20-6-20-33 0-7 2-20.5t4-18 9-4.5q18 0 45 9 39 14 43 15zm434-348q0-47-20-84-24-45-68-45-66 0-66 144 0 51 25 51 13 0 27-71 16-82 19-88 43 26 43 80 0 23-23 82 7 10 18 10 45 0 45-79zm-167-27q0-31-48.5-74.5T1615-22q-6 0-11 1l-5 18q18 16 18 36 0 23-7 57-6 28-13 56 7 27 7 48 0 52-32 51-1 25 43 25 53 0 124-46-2-15-28-36l-40-28q37-12 49-20 24-16 24-44zm-379 164q0-43-34-43-12 0-34 9t-34 9q-13 0-29-16 0-13 9-39t9-40-16-25-31-11q-14 0-29 6-19 6-19 18 0 13 9 38.5t9 39.5q0 29-32 29-13 0-36-11t-36-11q-12 0-22 17t-10 30q0 17 9.5 30t24.5 13q13 0 35.5-9t34.5-9q32 0 32 27 0 11-9 31t-9 30q0 17 14 25.5t31 8.5 33.5-9 16.5-25q0-10-9-30t-9-31q0-27 24-27 13 0 37.5 9t37.5 9q15 0 23.5-13.5t8.5-29.5zm-378 38q0-20-22-20-14 0-86.5 54T761 386q-55 0-104-36l-88-68q-9 3-16 10v9q-2 98 37 237 49 174 119 174 105 0 250-332 28-66 28-82zM917 19q0-22-61-34-43-8-81-7h-14q-15 12-15 46v64q0 56 23 75 20 17 77 17h28q35 0 36-13-6-14-51.5-25T806 112q5-14 28-22 32-11 35-13-1-11-26-26-19-10-37-20 7-8 26-8 10 0 31 1.5t32 1.5q22 0 22-7zM512 619q0-129-41-188-50-72-174-72-140 0-183 114-24 64-24 233 0 89 22 89t53-70q29-64 59-129 37-69 73-69 56 0 95 72 20 35 52 134 23 72 39 72 29 0 29-186zm222-477q0-26-41-38-54-18-60-23t-26-47Q589-4 583-4q-13 0-20 40-6 29-6 52 0 25 8 68 10 48 21 63 8 2 17 2 37 0 80-21 51-25 51-58zm-190 26q0-13-27-50-33-46-36-52-6-12-13-54-5-35-21-51-12 3-22 49-13 59-13 60-4 10-36 52-28 38-28 50 1 2 2 5l5 1q14 0 41.5-29.5T440 119q5 0 40 29.5t53 29.5q11 0 11-10zm-231 41q-4-14-26-26-28-17-32-21v-7q0-17 4-50.5t4-50.5q0-6 3.5-18t3.5-19q0-11-7-15-24 19-35 69-13 63-22 79-21 41-74 51v4q-1 16 46 16h31q71 0 104-12zm2014 283v76l-32-11q-17-9-17-27 0-17 24-38h25zm-289 16q0 13-7 20-22-7-45-13-25-9-25-36 16-7 62-19 15 23 15 48zm-457-15q-4 7-4 17 0 5 1.5 17t1.5 18q0 12-5 24-15-3-30-13-18-12-18-26 0-9 10.5-23t19.5-14h24zm99-278l-29 14q-8-8-8-23 0-10 2-17 30 3 35 26zm23-128q0 16-12.5 27.5T1662 126l-7-1q-11-6-11-15 0-3 15-75 15 7 29.5 22.5T1703 87zM770 529q0 19-24 51.5T703 613l-5-1q-9-28-9-45 0-20 7-49 10-37 24-37 16 0 33 16.5t17 31.5zM670 159q-1 0-12 9-7 5-13 5h-19q0-3-2.5-10.5T621 151q0-8 10-18 35 6 39 26z"/><glyph glyph-name="backslash" unicode="\" horiz-adv-x="522" d="M503 73q0-25-25.5-47.5T427 3q-47 0-108 67-27 31-80 109-71 100-141 200Q-1 530-1 584q0 31 20 55.5T69 664q66 0 176-159 75-109 151-218Q503 124 503 73zm-30 4q0 50-75 157-28 39-82 116-43 64-87 128-51 74-94 122-36 39-70 39-41 0-41-53 0-16 4-31 9-29 121-194 72-103 143-207 43-63 55-77 41-47 74-47 21 0 36.5 13.5T473 77z"/><glyph glyph-name="bracketright" unicode="]" horiz-adv-x="936" d="M893 760q-4-9-18-30-3 1-27 18-21 13-25 13-6 0-12-12 6-8 48-42-11-17-21-27-6 1-16.5 10.5T802 700q9-16 9-22 0-20-17-37t-37-17q-19 0-33.5 13.5T709 670q0 23 18 39.5t42 14.5q3 14 6 19.5t12 11.5q1 1 10 24 8 19 29 19 12 0 34-15 16-11 33-23zm-224-93l-18-26q-9 0-21 12 2 6 18 29 12-6 21-15zm82-59q0-1-18-27-21 15-65 43-1-2-1-9.5t-9-12.5q21-29 27-29 1 0 14 6 13-13 13-21l-1-1q-21-21-35-21-10 0-25 18-18 21-25 24 20-38 49-60-16-16-31-19-29-36-44-36-27 0-27 27 0 12 12.5 29.5T601 545h-2q-3 0-17-16-17-19-19-21-10 4-10 16 0 16 20.5 34t36.5 17l1 4q0 4-2.5 8.5T606 594q3 3 10 6-5 6-15 16 4 11 24 24 1 0 20-19 11 13 34 39 24-17 72-52zm128-411h-16q-1 1-26 13-17 8-17 19t11 18q19 10 19.5 10.5T863 275q7 12 16 11-9-36-9-55 0-20 9-34zM375 684l-4-13q-8 2-22.5 15T318 699q-11 0-24-9-21-15-22-16-4 4-4 13 0 19 11 52 13 39 28 39 16 0 40-39 18-28 28-55zm453-421q-21-14-25.5-36T789 197q-1 9-7 32-5 20-5 32 0 6 7 11 9-6 14-16 5 2 16 14 7-1 14-7zM457 625q-7-4-51-26 3-6 31-19-10-7-31-24 17-2 51-9-24-19-65-19-15 0-15 69 0 23 12 29 6 3 33 3 19 0 35-4zm317-381q0 2-9-53l-28 10q-17 6-17 19 0 16 17 21 22 5 26 10-4 5-9 5-4 0-12.5-1.5T729 253q9 17 24 17 21 0 21-26zM259 735q0-64-52-64-49 0-49 53v54q3-4 22-37 16-28 27-28 15 0 27 27 15 36 17 38 8-27 8-43zm111-126l-1-5q-21-10-42-19-16-8-26-44-16-2-16 47 0 51 12 61h9q21 1 41-9 24-12 23-31zm426-483q0-7-6-14l-13 4 3 13zm-79 111q0-40-27-40-8 0-20 17-7-3-10-10t-15-7q-11 0-18 18-6 14-6 28t10 27q9-7 9-28t8-29q5 9 16 26h3q8 0 14-10 9-15 10-16 10 3 11 20 1 13 2 25 13-7 13-21zm73-137q0-9-1.5-26T787 48q-13 7-13 25 0 27 13 27h3zm-169 97h-16q-1 1-26 12-17 8-17 20 0 11 11 17 19 11 19.5 11.5T604 275q8 12 17 11-9-37-9-55 0-20 9-34zm147-92q-26-20-26-62-4-2-12-4-13 10-13 46l1 30q10-2 14-7t7-7q3 0 13 11zM270 623q0-9-8-24-12-19-13-22-4-15-7-29-6-23-13-23-4 0-11 25-8 30-9 32.5T194 602q-11 13-11 23 0 8 6 8 7 0 22.5-15.5T230 602q5 0 15.5 14.5T263 631t7-8zm317-183l-21-27q-1 0-30 23 3-11 3-22 0-24-14-42t-37-18q-4 0-11.5 1.5T465 357q11-13 11-25 0-17-28-33-34-20-39-26 1-6 8-7-16-24-25-24-4 0-3 1l-3 1-14-20q-12-16-29-16-10 0-18.5 8.5T316 235q0 8 14 26 18 23 20 27l-2 2q-10 0-25-17t-20-20q-4 7-4 17 0 22 25 37 22 14 46 13-12 15-35 46 1 1 27 24 13-19 25-31 1 11 13 20t23 9q8 0 18-6l-1 10q-1 25 21 45t47 20q-5 3-14 11 16 24 21 24 9 0 9-6 1 10 4 30l3 1q10 0 27-18l-1-8q-2-32 30-51zm-29-221q0-9-16-15t-27-6h-1q-9 25-9 58t26 33q11 0 22-8-3-2-18-2-9 0-13-8v-16q10-2 28-9-10-4-28-15v-18l6-1q4 0 30 7zM715 96q0-51-32-51-12 0-19 19-6 14-6 29 0 14 16 19 2-18 9-53 18 9 18 23 0 5-3 15t-3 15v6q8-1 19-12 1-4 1-10zM160 645q-2-4-14.5-17T133 606q0-7 2-22t2-22q0-16-7-16-9 0-11 30-3 35-6 38-8 13-38 26 17 12 48 12 21 0 37-7zM655 81q0-18-41-42l-13 4q6 9 6 23 0 31-11 74h29q5 0 27-15-5-10-20-20 8-5 15.5-10t7.5-14zM335 190q-3-5-24-24-4 4-77 94 6 9 27 24 24-32 74-94zm-34-37q-13-15-23-21-4 0-14 11v-8q1-20-16.5-39.5T210 76q-9 0-22 8 1-8 1-16 0-30-18-50.5T123-3Q98-3 78 18T58 65t19.5 45 45.5 19q21 0 37-18l-27-24q-13 8-17 8-8 0-21-13l-1-4q0-14 12-30.5T132 31q16 0 18 11-1-5-1 23l1 2q17 12 27 22-17 22-17 35 0 19 17 37.5t37 18.5q4 0 12.5-3.5T239 173q-7 12-39 50 4 12 24 24 45-49 77-94zm479 515q0 8-10.5 17t-18.5 9q-11 0-11-14 0-8 9.5-17t17.5-9q13 0 13 14zM627 508q0 8-7 14-11-8-12-22l5-3q6 0 14 11zm226-288v27q-16-8-16-15 4-7 16-12zM319 734q0 14-14 21-1-4-1-10v-10q1-7 1-10l13 3zm440-501q-10-3-14-5-9-4-11-11 7-6 22-6 2 7 3 22zM338 616q-3 8-22 10v-16l6-1q1 0 16 7zm173-217q0 8-10.5 16.5T483 424q-15 0-15-13 0-8 11-16t20-8q12 0 12 12zm84-180v28q-16-8-16-16 4-7 16-12zM436 328q0 7-6.5 16.5T416 354q-13 0-13-13t16-24l16 6zm196-208v4l-13 4-2-15zm7-38q-5 5-13 5-3 0-8-1 2-9 7-27 7 7 14 23zM375 263l-12 3-14-16 8-7zM234 119q-1 9-11 18t-19 9q-13 0-13-13 0-8 10-15.5t18-7.5q10 0 15 9z"/><glyph glyph-name="asciicircum" unicode="^" horiz-adv-x="492" d="M477 389l-9-24-156-1-62 195h-27l-62-201-149 6-9 24q13 39 81 163 63 113 70 147h183zm-25-6L332 682l-167 1Q117 583 24 379l115 2q25 34 47 101 26 81 39 106h20q2-3 20-48 20-54 63-160z"/><glyph glyph-name="underscore" unicode="_" horiz-adv-x="680" d="M678-100q0-78-161-82h-62q-39 0-118 1H220Q2-181 2-82q0 24 8 39 13 24 114 33 52 5 131 5 33 0 99-1h100q92 0 138-11 86-22 86-83zm-23-1q0 27-28 45-22 14-51 18-40 5-88 7-35 1-88 0-82-1-89-1-20 0-60.5 1.5T190-29Q33-29 33-81q0-75 133-75h236q190 2 210 9 43 17 43 46z"/><glyph glyph-name="grave" unicode="`" horiz-adv-x="311" d="M296 453l-130-59L4 657l191 85zm-33 15l-80 245-149-68 142-216z"/><glyph glyph-name="a" unicode="a" horiz-adv-x="570" d="M581 810q0-76-69.5-149T366 589q-8-22-41-34-26-10-55-10-50 0-100 27 41 65 109 65 63 0 84-30 13 44 41 102l50 98q1-32 8-59 20 10 57.5 57t61.5 61v-56zM405 498q-49-45-145-45-91 0-130 39 11 23 35 68 52-27 106-27 30 0 57 9 35 12 43 35 11-26 34-79zM553 85q0-34-22-60T476-1q-18 0-54 49-22 34-45 68-72 5-202 5h-24q-10-42-21-83Q116 0 60 0 2 0 2 60q0 42 51 209 48 158 74 211 47-36 130-36 94 0 153 43 80-194 84-205 59-152 59-197zm14 731l-4 16-75-121 16 4zm-26-3l-12-5-55-77 7-4zm28-34l-11 5-57-86 8-5zm-76-109q0 5-22 43-25 43-28 50-7-25-50-162l58 30q42 24 42 39zM385 497l-17 62-8-18 12-44h13zm-30-14l-7 49h-13l8-49h12zm-29-12l-6 54-14-1-2-54zm-45 46h-12l-8-56h13zm85-133l-5 40h-13l-9-36zM253 518l-15 6-7-63h12zm-28 11l-14 2-18-63 16-4zm-40 9l-11 3-19-50 16-8zm146-235q-10 26-41 129l-29-2q-23-45-70-135h67q24 4 73 8zm-129 81l-8 42h-13l-5-39zm137-139q-38-25-73-43l-82 44q3-23 32.5-47.5T269 174q43 0 70 71z"/><glyph glyph-name="b" unicode="b" horiz-adv-x="659" d="M500 643q-75-58-189-58-82 0-144 35 65 57 130 57 133 0 203-34zm131-433l-1-12q-1-53-27-103-28-54-73-74T322 1Q175 1 142 101q-9 29-9 93 0 24 12 297-11-35-25-108-19 4-28 22-26-39-85-114 0 7-4 34-2 21-2 34 0 133 159 255 69-39 152-39 110 0 197 62 22-12 41-27-39-48-128-73-71-19-150-19-89 0-129 24l2 31q-60-40-94-112 46-17 52-56 2 4 24 61 14 37 17 63 51-22 128-22 36 0 73 5-5-9-5-22 0-47 34-47 43 0 43 45 0 16-11 32 86 21 158 78l13-15q7-21 7-42 0-46-25-98t-60-80q57-15 94-54 39-43 38-99zM517 612l-34 1q2-24 24-29 10 9 10 28zm-29-36l-19 31-22-12 23-30zm-47-24q-8 9-7 27-12-3-36-7 17-18 17-32 1 12 26 12zm57-90q0 14-15 32-14 1-21-29-4-20-8-41 14 7 29 15t15 23zm-103 77q0 7-7 18.5t-8 17.5q-9-10-20-34zm-52-3q0 13-7 27-26 3-22 3-15 0-15-26v-10h5q13 2 39 4v2zm-53 30l-32 2-10-40 35-2zm-53 1l-13 1-2-35 13-1zm-33 16l-26 14-15-49 18-7zm74-128q0 20-15 26-28-9-28-25 0-8 13-17 15-12 18-15l11 20q1 7 1 11zm164-260q0 30-26 54t-56 24q-56 0-56-55 0-85 53-85 30 0 57.5 17t27.5 45zM73 425l-39-35 29 8zm-19 14l-20 7-18-47zm-18-65H25l-10-24 10-5z"/><glyph glyph-name="c" unicode="c" horiz-adv-x="531" d="M507 541q0-46-81-46-92 0-119 35 70 50 127 99 28-9 50.5-34.5T507 541zm-80 90q-80-67-185-136-137-90-198-99-5 11-18 15.5T8 428q-8 19-8 71 0 54 29 119 7 17 57 109V607l34 28q-3-40-3-58 0-17 3-33 87 72 92 76 51 34 113 34Q195 531 71 485q19 40 19 56 0 7 8.5 21.5T106 589v3q-16-27-41-44t-51-33v-50q0-29 27-47 2 7 27 59 110 36 269 174 34-1 90-20zm83-488q0-86-60-119Q405 0 311 0q-80 0-126 17-62 22-95 82-23 42-40 125-15 77-15 133 0 18 8 32 38 8 103.5 40t96.5 58q-26-24-44-80-16-50-16-91 0-62 43.5-106.5T332 165q30 0 80 14t58 14q11 0 25-12t14-22q0-3-2-7 3-4 3-9zm-39 411l-38 33-9-4 22-44zm-72 65q-21 16-31 16h-43q13-8 36-27zm16-87l-7 46-23-5 19-41h11zm-42 60q-20 7-61 14 8-26 30-26 6 0 16 5.5t15 6.5zm-56-39q-3 10-7 32h-32q8-10 18-21t21-11zm-27-3q-8 8-38 18 5-16 12-48 25 1 26 30zm-33-38q-15 8-14 39-17-1-33-18 15-7 14-37 7 1 17 8t16 8zM72 633l-7 39-7-35zm129-105q-12-11-23-13v-54q21 16 23 67zM77 567v33H65v-33h12zm-29 11l-6 45-8-41zm117-75l-22-15v-48l15 9zM36 549l-9 3-9-18 10-4zm90-96q0 11-5 28-11-10-18.5-27.5T89 420q9 4 30 9 7 20 7 24zm-36 20h-9l-26-66 10-4z"/><glyph glyph-name="d" unicode="d" horiz-adv-x="772" d="M481 650q-161-91-293-111-1 22-1 32 0 32 6 47 17 39 125 39 78 0 163-7zm271-322q0-103-27-158-48-94-209-138Q401 0 256 0q-52 0-69 79-8 38-8 119 0 13-1.5 39.5T176 277q0 57 5 162 105 2 210.5 57T560 636q33-6 57-20 50-29 94-129 41-93 41-159zM549 639q-60-84-161.5-135.5T180 448q-7-32-23-79-24-65-27-77-18 4-25 22-11-27-92-148-15 25-15 59 0 76 25 130 21 44 68 90 49 43 97 87 146 19 302 117 26-3 59-10zm-31-19l-28 14-6-11 17-29zm108-149q0 24-29 58l-26-6 18-26 11-26h26zM493 582q-5 9-17 26h-45q13-36 39-42 1 14 23 16zm76-121q-20 41-56 48l-7-11q12-6 20.5-20t15.5-28zM434 578q-8 3-20 3-7 0-19.5-1.5T376 578q12-38 49-42zm-45-37q-19 7-58 15 8-12 16-25t8-25q11 7 22 15.5t12 19.5zm-51-33q-9 16-35 42-1-9-23-8 0-11 8-29.5t8-28.5q25 25 42 24zm229-220q0 62-38.5 100.5T429 427q-30 0-52-9-5-15-5-32t4-51 4-51q0-70-7-106 13-6 34-6 60 0 106 27 54 33 54 89zM278 505q-7 6-15 22l-34-6q0-3 5-29 4-18 2-30 41 14 42 43zm-59 11q-11 3-20 4v-58q14 13 20 54zm-38-11q-30-26-60-53-38-37-49-61 26-42 57-62 17 59 52 176zM67 355l-10 4-10-19 11-5zm24-22q-18-10-34-29l14-10zm-54-44l-5 19-12-24 14-12zm28-21l-10 4-10-19 11-4zm-35-46l-10 4-10-19 11-5z"/><glyph glyph-name="e" unicode="e" horiz-adv-x="440" d="M393 590q0-58-80-70-62-4-124-7-8-1-60-11-36-7-60-7-37 0-61 10 2 53 6 91l78 106q43 53 86 78 55 30 129 30 10 0 10-11 0-30-13-44-8-7-32-18t-36-25q3-20 23-25-59-6-176-55 147 24 191 24 119 0 119-66zm-46-152q-4-5-10-5t-15 1q-1 12-7 27-11 26-11 27h17q13 1 18-19 8-30 8-31zm-57 7q0-7-1-16h-10q-8-1-16 4-4 16-4 30 0 13 4 23 6 3 10 3 3 0 10-3 7-26 7-41zM414 83q0-49-21-62-8-5-62-15-40-8-110-8Q106-2 89 6 4 44 4 269v158q0 21 2 63 25-6 60-6 61 0 121 14l-1-85q0-26 26-26 15 0 45 3.5t46 3.5q45 0 61-11 20-13 20-57 0-83-107-83-7 0-21.5 1.5T234 246q-29 0-38-16-7-11-7-42 0-32 9-45 10-17 40-17 21 0 61 9t60 9q55 0 55-61zM302 797l-40-10 10-15zm-68-23q-5 13-11 13-3-1-8-3-1-7-1-10 0-6 7-6h10zm53-14l-95-37 21-8zm82-148q-5 5-16 14-6-48-6-59 1-3 3-8l9 3q5 0 8-5 0 10 1 28.5t1 26.5zM202 769l-44-24 16-15zm144-137q-15 10-33 10 9-32 7-103l5-1q12 0 13 24-1-17-1 33 0 26 9 37zm-35-81v20q0 66-24 77 1-7 1-16 0-17-3-47-5-35-5-47h26q5 5 5 13zm-38 44q-10 6-15 20t-10 27q-10-29-10-72v-20q0-27 16-26h3l-1 18q0 28 17 53zm-74 103q-30 20-71 33-24-35-76-102 49 22 147 69zm26-59h-30v-4q-4-32-8-94v-10l15-2q3 12 9 56 4 35 14 54zm-48-37q0 15-30 27-10-71-10-80 0-26 13-33 27 35 27 86zm-55-23q0 23-8 44l-7 2q-21 0-21-72v-52q36 24 36 78zm-49 16q0 17-6 25-30-13-37-38l10-40q7-24 7-40h1q13-1 20 41 5 28 5 52z"/><glyph glyph-name="f" unicode="f" horiz-adv-x="601" d="M524 446l-16-35q0 10-11.5 23.5T485 459q0 9 4 22 9 0 20-16t15-19zm-57-32l-28 1-8 62 25-11zm118 156q0-20-31.5-37T499 516q-29 0-88-5.5t-88-5.5q-69 0-132 7 0 9-1 51-32-6-40-79-2-50-4-101-2-46-12-87-13 16-24 61-19-32-44-87-32-67-43-88Q1 225 1 285q0 101 57 191 55 86 145 140 54 33 136 41 30 2 144 2 53 0 76-17 26-21 26-72zm-30-253q0-55-69-79-48-17-114-16-6-15-14-79-9-67-19-96-17-47-50-47-103 0-103 309 0 32 3.5 96t3.5 94q52-5 126-5 41 0 65 5-52-27-52-60 0-38 57-46 52-2 106-5t52-32q8-19 8-39zm9 267q0 47-20 58l-4-2q-17 3-17-8 0-50 26-87 15 14 15 39zm-39-22q0 79-33 79h-13q14-9 14-37 0-11-2.5-31.5T488 542t3-17q34 2 34 37zm-54 4q0 79-29 79-7 0-14-4l-8-12 8-102 12-1q31-2 31 40zm-60 51q0 23-14 23-6 0-13-3-14-30-14-88 0-27 23-27 6 0 12 2 1 10 3 46 3 29 3 47zm-47 21l-44-9q3-10 3-22 0-29-15-88l52-2zm-58-12q-3 4-8 4-2 0-5-1.5t-5-1.5q-6 0-12 2l2-10q-24-48-24-49-13-29-17-51 17 0 51-2 2 9 5 56 2 35 13 53zm-41 0q-9-1-25-10t-26-9q1 9 1-46 0-23-3-44 11 14 24 56 12 37 29 53zm-114-73q-22-13-50-41-32-34-32-52 0-13 28-55 18-28 37-56v104q0 66 17 100zM82 391l-11 4-10-19 11-5zm-3-40l-11 4-10-20 11-4zm-39 43H29l-16-74h12zm24-119v35H51v-35h13zm-31 18l-10 4-10-20 11-4z"/><glyph glyph-name="g" unicode="g" horiz-adv-x="640" d="M570 555q0-24-11-55-13-38-32-38-35 0-101.5 23T324 509q48 36 76 132 170-41 170-86zM352 429q-17-15-44-16v16q1 11 1 16 0 19-6 30 17-15 49-46zm-70 228Q159 527 0 432q-2 9-2 16 0 227 120 375 16-29 16-76 0-32-6-71 6-3 13-3 15 0 30 3-26-36-79-111-9-13-49-76l1-8q61 77 103 112 66 55 135 64zm104-14q-22-79-80-133-41-2-63.5-13.5T197 453q-85-55-97-62-55-34-100-54l7 22q-6 27-7 56 69 49 203 154 101 88 105 88 33 0 78-14zM272 431q0-8-8-49-18 48-42 70 50-3 50-21zm139-209q-18-21-38-42.5T323 158q-68 0-66 74v4q17-17 35.5-33t41.5-16q16 0 39.5 17t37.5 18zm214 99q0-32-6-73-19-128-75-182-34-34-123-52Q350-1 284-1 178-1 95 97 22 183 2 296q-2 11-2 23v5q75 27 194 109-30-70-30-112 0-63 32-119 37-65 95-65h36q50 0 87.5 38.5T452 264q0 9-2 17-16-18-51-18-85 0-85 46 0 60 58 81 36 14 109 14 53 0 64-2 40-4 57-24 23-26 23-57zM368 610q0 30-39 30-11 0-34-4 0-8 25.5-21t34.5-13q6 0 13 4v4zm-16-22q-28 15-36 18-21 9-39 9 16-14 50-38zm-29-28q-35 35-71 41 3-6 31-35 20-22 21-39 16 16 19 33zm-36-30q-20 22-27 28-16 14-33 18 9-15 19-30 11-18 14-33 14 2 27 17zM107 710l-2 22-20-10-25-30zm144-203q-28 45-50 47 12-17 25-55 0 10 25 8zM93 662l-16 12-35-40q21 2 51 28zm97-173q0 48-1 42-3-6-23-5v-71q24 9 24 34zm-63 152q-58-14-84-37-31-29-31-84 0-11 1-36v-35q7 46 50 100 54 70 64 92zm22-207l-8 71q-16-14-20-41-3-22-5-45 14 13 33 15zm-50 2l-9 40q-27-23-27-51 0-16 11-33 10 11 25 44zm-44-48l-1 60q-25-21-25-47 0-14 2-34 24 12 24 21z"/><glyph glyph-name="h" unicode="h" horiz-adv-x="748" d="M646 543q-82 55-140 73 14 21 22.5 25.5T561 646q43 0 61-33 2-3 24-70zm81 105q0-88-31-127-13-12-32-42-18 4-121 38-73 24-124 24-107 0-197-24-84-23-130-25 0 43 5 69 65 25 154.5 42T410 620q110 0 236-86l9-15q12 11 12 19 0 42-21 96-19 45-39 90 13-5 38-14 5 32 5 65 0 34-5 68 5 10 16 10 9 0 18-10 48-48 48-195zM429 500q0-22-35-55 0 53 23 88 12-11 12-33zm-100-53q-12 10-23 19-13 13-13 26 0 22 11 33 25-37 25-78zM207 601q-57-10-109-32 14 77 67 77 16 0 42-45zm457-327Q664 0 562 0q-63 0-78 74-4 61-9 123-4 29-17.5 29t-40.5 5.5-41 5.5q-108 0-128-18-14-13-18-74-5-77-11-100-15-51-57-51-35 0-57 29-15 21-15 72 0 43-3 129.5T84 354q0 44 2 81-20 16-53.5 84.5T-1 615q0 15 14 69 17 68 24 137l28 7v-14q-1-54 14-126 20 3 45 22 1-18-14-27v-34q0-21-15-51t-15-43q0-41 11-82v11q62 1 132 23 6-48 11-96 10-32 87-32 27 0 84 8 67 10 74 19 13 15 13 43 0 8-1 23t-1 23q0 15 5 28 23-6 82-27 52-19 84-24-2-7-2-16 0-30 2.5-90.5T664 274zM424 168q0-32-18-55.5T357 89q-30 0-52 28-21 25-21 56 0 11 8 20 10-27 20-53 15-30 42-30 30 0 47 29 15 25 15 57 8-8 8-28zm283 591l-35 49q4-58 34-92zm-14-58l-30 24 27-56zm25-79q0 21-72 66 2-25 21-66 21-44 25-66l16 32q10 20 10 34zm-75-124l-9 35q-12-8-26-28 11-4 35-7zm-37 56q-12 4-35 8 0-22-13-36l32-6q15 14 16 34zm-49 13q-10 8-31 16l-8-15q7-13 11-20 9-13 17-14 0 22 11 33zm-47 24l-42 9-9-43q31-1 33-13 0 26 18 47zm-58 1v13q-17-5-25-5-9 0-15 5-12-20-12-39v-9l38 1q14 15 14 34zm-61-35q-10 10-10 23 0 14 9 25h-8q-30 0-44-12l2-28q10-10 33-10 9 0 18 2zm-66-7q-4 14-8.5 29T298 600v-58q8 3 27 8zm-45-8v34q-11 8-34 16-10-13-10-38 0-10 2-20 14 4 42 8zM59 733l-4 10-17-9v-21zm154-199v43q-13-1-28-17 12-25 28-26zm-29-14q-7 19-30 48l-6-48h36zM57 665l-23 19-6-38zm75-160v35q-20 1-28 9-1 1-1-31 0-7 2-13h27zM94 659q-22-23-57-37l-1-40q0-65 36-104-7 17-7 38 0 30 29 143z"/><glyph glyph-name="i" unicode="i" horiz-adv-x="344" d="M302 593q-50 4-45 4-49 0-117-32 31 108 99 108 40 0 63-80zm18-99q-58-28-190-31v35q-20-15-28-75-4-43-8-85-6 5-18 23-16-39-29-57-1-3-10-28-5-17-5-28 0-5 1-10-30 27-30 74 0 214 87 235 14 4 45 2 50 38 119 38-2 0 50-6 14-47 16-87zm0-12V331q0-41-5-129t-5-132q0-33-16-49T232 5q-66 0-89 48-16 33-16 107 0 178 3 292h14q120 0 176 30zm-19 52q0 20-8 44-12-6-12-31 0-6 1.5-19t1.5-19l-2-7 13-10q6 25 6 42zm-25-44l-5 49q-4 37-15 42l3-99zm-33 91q-8-2-24-5v-99h22zm-30-69v15q0 42-21 42-4 0-12-30 6-5 7-29 1-31 2-34h6q18 0 18 36zm-41-35l-1 82q-7-2-14-5.5t-7-9.5v-75q9 8 22 8zm102-106q0 30-3 38-6 15-31 19 5-19 5-55 0-15-3-19 7 0 15-7 12-8 15-9 2 12 2 33zm-60-5q0 29-18 64l-9-38q3-6 7-28 2-10 19-23 1 15 1 25zm-80 166q-9 6-18 6-37 0-60-36-19-31-22-72 4 2 8 2 15 0 35-33 24 139 57 133zm138-303q-16-7-34-7-25 0-36 6 0-14-24-29 13-8 29-8 30 0 50 9 0 6 7 16t8 13zM50 352l-1 43-10-1-9-65z"/><glyph glyph-name="j" unicode="j" horiz-adv-x="571" d="M572 825q0-10-5-29t-6-28q-29-9-36-71 7-4 14-3 5-4 5-10t-5-10q-12-34-49.5-51.5T393 555q-13-8-41-25-80 44-153 47 23 84 83 84 33 0 44-9 7-6 12-26 5-23 16-37 27 62 54 125 24 45 97 104 13 3 40 7 3 7 3 15 4 1 9 1 6 0 11-1 4-7 4-15zM359 415q-105 58-177 77 3 42 12 72 83-1 157-48 3-34 8-101zm3-168q0-124-56-181Q242 0 157 0 87 0 54 12 0 32 0 90q0 96 71 96 20 0 54-22 29 0 46 19.5t17 48.5q0 35-4.5 105T179 442q0 16 3 37 72-23 177-77 3-69 3-155zm179 531v21q-13-3-35-16v-20q28 15 35 15zm-21-51v28q-16-9-20-28h20zm-35 47l-16-13-6-18 12-2zm25-86v21q-3-6-10-16zm-23 25l-16-4-13-24 14-7zm-43-1l-6 21-21-34 22-1zm75-48l-29 8q-9-14-40-14-18 0-29.5 10T405 678q-10 0-26-46-17-53-22-58l-5-31q31 30 101 82 24 11 66 39zM340 515l-18 5 2-82 15-4zm-25 6l-15 6-3-70 17-12zm-27-58l-1 64-21 15v-72zm-35 21q0 6-2.5 17.5T248 519q0 10 3 23l-20 9-1-66h6q7 0 17-7v6zm-36 5l-1 67h-6l-12-63zm84-115q-5 4-11 4-5 0-9-4v-33q0-20-15-25l29-13q6 5 6 33-1 34 0 38zm-45-23v16q0 26-6 44-4-3-4-11t-9-19.5-9-24.5q0-21 14-39 0 19 13 25 1 5 1 9zM244 99v20q-22-7-38-20-8-3-17-3-25 0-41 12.5T115 134v-9q0-20 7.5-28T151 84q34-8 57-8 9 0 19 9 14 12 17 14z"/><glyph glyph-name="k" unicode="k" horiz-adv-x="551" d="M375 898q0-36-27-65.5T323 778q-5 1-9 1-14 0-26.5-13.5T265 740q25-19 51-17 5-5 5-11t-5-10q-8-1-85-1-24 0-54-15-25-14-50-27-9 1-23 1-48 0-73-19 5 17 30 48 29 35 36 48 18 32 52 51 55 31 111 62 65 37 106 70 9-13 9-22zm-28-15h-6l-37-22 38 8zm-24-57v21q-21-7-21-21h21zm-36 8l-17-1-25-20 26 6zm-8-61q-6 1-8.5 11t-6.5 12q-20-17-35-20 2-4 15-11t14-12q12 4 21 20zm-59 36l-35-11 11-25zm66-95v7l-42 3-2-12zm-43 22q-36 9-42 11-23 10-32 27-33-36-104-102 38 12 66 6 18 14 112 58zm-55-150q-64-44-178-62 4 67 17 105 28 22 74 22 48 0 64-9 23-12 23-56zm-15 8q0 29-18 48-5-25-6-72 9 14 20 15 4 4 4 9zm-33 0q0 9-7 48h-21q12-11 12.5-38t10.5-36q5 13 5 26zm-25-4q0 13-4 30-17 2-15 22H75q8-11 16.5-39.5T111 562q4 16 4 28zm-26-42v21q-4 10-7 35-2 16-19 36v-66q0-14-6-26h32zm-34 64q0 12-5 18-10-16-12-48-1-35-6-48 7 3 14 8 9 53 9 70zM524 77q0-29-21.5-53T452 0q-52 0-109 64-31 35-84 120-42 67-56 70l-8-6v-60Q195 0 114 0 72 0 47 25 6 65 6 343q0 113 3 170 117 18 179 60 2-10 2-18 0-74-3-117 35 30 102 94 33 34 66 69 47 45 78 45 18 0 37.5-16t19.5-33q0-49-29-98-16-28-71-77-49-43-84-66 17-17 69-61-8-50-10-53-10-25-42-25-23 0-43 39.5T241 296h-6q-2-6-2-13 0-8 27.5-37t37.5-34q18-9 37-9 32 0 43 34.5t24 36.5q39-37 76-91 46-67 46-106zM153 445q-7 4-13.5 18T126 480l-24-2q25-16 27-44 10 2 24 11zm-41-22q-24 11-22 35-10 3-13 19l-23-12q6-6 10-20 7-18 8-21 9-5 21-5 10 0 19 4z"/><glyph glyph-name="l" unicode="l" horiz-adv-x="586" d="M563 87q0-29-10-40.5T514 26Q433 0 315 0q-77 0-99 33-29 42-29 328 0 56 4 94l7-1q101-1 155 73 2-41 2-102 0-33-3.5-99.5T348 226q0-49 11-64-1-17-14-35.5T316 108t-24.5 13.5T276 148q-16-8-16-20 0-13 18-25t32-12q37 0 79 58 9-6 24-6 14 0 43.5 3.5T501 150q28 0 45-17.5T563 87zM352 545q-56-78-153-77l-7 1 1 14q-7-2-19-30-14-32-18-37-19-21-20-22-4-8-4-30 0-24 5-66 5-48 6-67h-5q-5 0-31 22-33-71-33-105 0-27-28-35 5 10 5 20 0 14-25 34.5T1 226q0 15 8 45 21 90 43 136 33 68 90 111 28 21 32 25 18 15 27 31 11 27 22.5 53t47.5 26q70 0 76-35-44-9-94-39-53-32-76-65-3 3-9 3t-11-6q-3-10-15-19t-22-18q-34-33-52-74-2-3-8-31-5-19-15-26 25-3 50.5-27t29.5-49q-11 83-11 87 0 61 64 137 9 0 8 10l-3 6q81 79 166 100 1-22 3-62zm-17 6q0 3-2 23-2 14 0 23l-13-4q1-20 8-59 7 1 7 17zm-14-29l-12 56-13-8 11-50zm-26 3q0 13-6 30-7 4-7 15l-2 1q-4-16-19-15v-22l6 1q6 0 11-15 5-18 11-23 6 16 6 28zm-35-27q-4 12-8.5 24.5T239 541v-51q11 4 21 8zm-32 7q0 12-6 29-3-5-21-23v-36h21q6 18 6 30zm84-178q0 8-1.5 25.5T309 379q0 4 1.5 10.5t1.5 9.5q-10 16-14 16-12-4-28-9 12-14 19-16l1-2q0-7-3-19.5t-3-19.5q0-13 28-22zm-51 27q-8 7-9 49v12l-25-4q4-11 6-41 1-26 9-39zM81 306l-19 13-4-29h7zm10-23l-10-16v-21l7-15zm-19-70l-3 54-15 11 4-54zm-28 55v59q-5-14-20-38-7-47-7-67 0-13 7-36 2 9 12 41 8 25 8 41zm6-74v21h-6v-21h6z"/><glyph glyph-name="m" unicode="m" horiz-adv-x="782" d="M693 575q-99-36-208-45 40 109 95 109 75 0 113-64zm20-71q-88-46-155-61.5T389 427q-201 0-306 38-30 11-52 86-7 23-23 108-7 8-7 18 0 4 7 23 4 22 14 65 10 36 46 89 42 61 69 61l2-1q-10-51-10-66 0-12 3-36t3-36q0-13-5-24h-4q-6 0-10-3 4-19 7-19 11 0 8 7 5 4 11 4t10-4v-20q0-27-29-70t-30-69l1-1q-1-14 5-28 123-38 244-38 213 0 354 53 10-29 16-60zm-372 23h-23q-81-1-212 37 24 54 36 66 23 26 69 26t76-31q20-20 36-60 14-36 18-38zm415-387Q756 4 688 4q-25 0-50 37-20 29-29 59-7 26-14 110-6 69-26 107-18-86-60-178Q451 13 394 13q-29 0-67 54-32 44-43 81-17 53-32 157-21-91-43-182Q172 0 99 0 83 0 64 25 38 61 38 138q0 32 8 78 7 40 14 79 6 52 23 158 150-38 294-38-4-14-4-25 0-74 30-88l10 7q24 39 35 108 153 4 265 75 43-205 43-352zm-70 366l-5 40q-1 1-15 1l-6 2v-43q4 0 10 1t9 1q3-1 7-2zm-26-21q-8 5-9 35 0 17-12 21v-56h21zm-37-15v23q0-1-2 37-1 0-11-5-6-4-10-2l2-53h21zm-33-10l-3 67-10-15h-18v-57zm-47-12v64h-35q7-16 7-33 0-18-7-31h35zM115 847v35q-6-12-21-35h21zm389-381q0 13-10 39h-6q-16-53-16-58 0-6 3-9l23 6q6 10 6 22zm-33 19v20h-21q-1-18-4-28-4-19-11-23v-21l26 2v26q1 17 10 24zM114 763l-2 57-11-14-6-44zm321-273q-9 6-28 15-1-2-4.5-4t-3.5-6v-62h28q-1 20 8 57zM84 801v21q-20-11-20-15v-21q10 15 20 15zm445-439q0 20-14 20-4 0-11-3.5t-11-4.5q-7-10-7-24 0-31 21-31 8 0 14 6 1 6 4.5 18.5T529 362zM387 499h-22q-2-10-8-29l-1-1v-31l28-1q-5 10-5 27 0-1 8 35zM103 730l-32-3 5-17 22 5zm239-235q-1 3-17 3l-7 3v-61h23zM51 739v35q-6-7-20-22v-35q6 10 9.5 15.5T51 739zm253-291v57h-21v-30q0-20-3-33zm-36 37v20h-28l-10-61 30 4q0 28 8 37zm-43 19q-14 1-40 12-1-11-2-14-3-9-9-12l8-36q11-7 34-10-4 21-4 36 0 7 2 12zm-95 191v20h-1q-20-5-56-22-12-9-25-20t-26-11q6-29 25.5-85T73 491h21v36q-22-5-22 65 0 37 37 72 5 24 21 31zm210-378v21q-8 4-7 36-6 4-13 4-8 0-15-4-6-11-6-25t6-24q14 0 14-8h21zM174 511q-8 5-8 16h-21q0-38-14-56 10-6 15-16h20q0 20 8 56zm-44-12v13q0 27-20 29l-8-73q9 6 18.5 13.5T130 499zm354-294q0 17-20 17-7 0-13-5-2-16-8-46-7-14-18-43-8-3-17-3-11 0-22 6-11 1-22 34-9 26-9 43-4 6-16 15-7-9-7-19 0-23 23.5-59t45.5-36q28 0 47 33 28 52 32 56t4 7z"/><glyph glyph-name="n" unicode="n" horiz-adv-x="602" d="M591 393q0-49-1.5-65.5t-12-53T567 218q-27 29-44 82-24 75-30 88-24 49-70 80-5 4-5 10 0 9 11 35.5t11 41.5q0 34-23.5 93T393 733q0 13 12 13t38-18q67-46 88-67 44-44 44-96v-14q-1-9-1-13 0-13 8.5-37.5T591 393zm-23-223l-78 88q-47 51-84 83-3 22-3 33 0 28 18 84 40-26 67-82 6-12 38-97 20-53 41-70 0-13 1-39zm1-71q0-19-2-37Q292 247 49 639q13 21 44 21h9q6-1 8-1 42 0 101-67 38-44 101-138.5T392 340q11-13 91-91 57-56 84-98 2-46 2-52zm-6-55q-1-43-45-43-52 0-97 32-35 24-75 73-32 41-64 83-14 17-43 51-19 31-59 93l-14-187q-5-68-12-91Q138 0 94 0 73 0 59 8 32 23 21 116q-8 59-8 124 0 35-3.5 103T6 445q0 127 33 178Q278 235 563 44zm-71 610l-3 16-17 10 7-23zm47-54l-9 37q-19-12-30-38zm-100 89l-9 17-10-12zm57-59l-17 10 2-43q12 17 15 33zm-40-16l-2 59-15-9 3-29zm81-33l-45 2 12-24h7zm16-22l-19-5-17-14h17zm-66-21l-17 40-17 7 3-54zm23-22h-29l-27-30q21 10 56 30zm64-123q0 30-14 109-12 2-15 14-60-47-87-47 61-85 78-143l8-38q7-25 15-34 3 30 9 91 6 36 6 48zM154 625q-19 5-26 23-27-27-34-58 14-16 15-29 14 15 45 64zm63-93v28l-16 23-20-30 1-1q0-11-6-27-8-25-8-26 5-11 16-33 33 43 33 66zm-29 64h-5q-11 0-18 5h-1q-5 0-18-9t-16-10q-8-23-8-33 0-23 36-32 8 31 11 41 7 23 19 38zm73-95q-5 16-9 23-7 12-17 16l-12-40q-7-23-20-35v-21l14.5-14.5L235 422h3q6 12 15 37 1 14 8 42zM105 647l-14 1q-6-7-19-15l12-34q0 7 21 48zm192-217v28q-13-1-15 7l-25-25q0-5-1.5-14.5T254 411q0-37 21-40l6 32q4 20 16 27zm28-39q0 19-16 40-6-12-17-36-1-2-9-35l28-25q1 29 14 56zm162-160q-18 4-23 23-22-37-22-75 0-11 24-17 12 44 21 69zm37-56v20h-1q-5 0-25 22-1-37-18-71 21-7 26-23 2 14 4.5 29.5T524 175zM370 335v20q-10 5-15 15h-20q-13-32-13-53 0-10 8-20l16-20q0 17 24 58zm73-87v27q-11 3-15 15-15-4-25-28-7-20-7-40 0-12 32-26 1 14 3 29t12 23zm109-103q0 14-7 14h-21q0-7-3.5-19.5T517 121v-13q7 0 7-7l24-5q4 8 4 21v28zM399 314l-17 12q-4 1-6-6t-5-8q-12-36-12-48 0-8 9-17t10-13q17 11 19 37 1 21 2 43zm-280 72q-8 35-8 51 0 15 7 41H83q-7-29-7-49t7-45q11-1 15-14zm-53-13q-13 17-13 36 0 10 4 30.5t3 30.5v8H39q-10-37-10-55 0-6 16-63zm56-170v21q-7 4-21 8l-14-28q-10-15-21-23-2 6-2 13 0 67 29 103H72q-23-35-23-97 0-23 28-34 10 12 19 24 13 13 26 13z"/><glyph glyph-name="o" unicode="o" horiz-adv-x="611" d="M500 584q-92-51-276-51-73 0-172 8 0 20-9 60t-9 60q0 24 12 70 14 53 16 72 28 28 37 70l33 30q4 11 1 27 21-10 21-48 0-13-4-39.5t-4-40.5v-38q5-4 10-4 9 0 12 8h20q-3-19-6-37-5-23-15-33-10-5-31-18-30-19-64-116 24 29 40 43 30-1 61-1 108 0 260 22 41-15 67-44zm-38-6v21q-9 7-31 14l12-40q1 0 10 4 5 3 9 1zm-34-13v19q-1 2-11 14-7 8-6 15l-28-1q4-37 4-52 0 8 15 8zM137 854l-24-18-3-31 17-15zm234-303v33q-7 8-7 22h-34v-27q5-3 5-9 0-4-2.5-11t-2.5-11v-2q15 8 41 5zM97 781l-4 27-15-9-1-23zm35-35l-7 19-39-10 11-20zm183-202v41q-11 2-14 14h-27l-15-56zm-71 0v55h-26q-4-4-3-24l-12-31h41zm-97 158v20h-20q-5-6-14-8-7-1-18 0l-16 1q-9 0-15-1-9-13-9-37v-40q0-32 14-41 7 54 78 106zm55-123v20h-48q-3-34-25-53l59-3q-1-3-1 23 0 12 15 13zm-65-3l-8 23q-14-7-28-26-21-26-25-29h35q4 15 8 21 7 11 18 11zm278 58q-136-20-232-20-30 0-61 2 71 42 162 42 68 0 131-24zm182-282q0-103-50-188Q479 47 401 18 353 0 225 0q-30 0-79 24-45 23-69 47-34 34-57 106-22 66-22 120 0 150 49 234 81-6 153-6 207 0 306 55 51-57 70-104 21-51 21-124zM482 457q0 4-5 15-11 23-12 23-5 8-22 13v-28q0-29 14-57 8 14 20 15 5 12 5 19zm-55-110q0 38-20 88-22 56-51 71t-44 15q-162 0-162-174 0-107 37-149 24-28 53-39 14-5 46-5 75 0 112 62 29 50 29 131zm-316 91l-12 42q-18-12-18-55 0-10 3-22 5-7 13-7t14 7v35zm330-295v20q-3-2-42-34-25-21-48-23-15-18-59-18-31 0-69 13-44 15-55 37-5 7-7 7-18 0-18-16 0-30 65-46 46-11 90-11 61 0 143 71z"/><glyph glyph-name="p" unicode="p" horiz-adv-x="680" d="M655 398q-5-29-20-69l-28 12q-18 10-18 22 0 34 66 35zm-82 219q-52-60-191-116-108-44-219-68l-3 82q172 28 351 126 34-7 62-24zm87-167q0-21-3-43-6 1-13 1-23 0-42-9-25-11-25-32 0-18 20-31 17-8 35-17-13-27-30-44-28-4-79-4-28 0-37 16-6 11-5 41l-2 1-16-8v-32q15-38 85-38 17 0 28 4-33-20-80-30-40-5-81-11-62-9-71-20-18-22-16-149-17-45-70-45-47 0-64 40-10 22-14 80-5 70-16 302 80 17 164 47-1-12-1-39 0-49 38-49 34 0 61 17 31 20 31 52 0 22-36 57 116 53 160 103 79-48 79-160zM497 646q-118-64-244-99-32-5-94-23-21-9-21-116 0-30 9-59-13-30-26-75l-12 21q-12-10-11-43h-2q-5 1-25-44-12-28-23-56-3 16-15 27-3 30-5 41-6 28-18 32-10 18-10 40 0 38 48 126 41 76 75 119 11 12 28 37 5 15 17 44 20 41 170 41 106 0 159-13zm36-50l-10 22-39 3q7-6 24.5-12.5T533 596zm-12-17q-11 6-16 21l-7-1q-24 0-34 8-9-1-19-10l3-9q30 0 37-9h36zm34-91l-1 11q-1 1-11 12-5 7-15 7-8-11-8-37 0-31 22-36 13 26 13 43zm-71 71q-12 5-16 18-8 0-43 8v-21q21-7 25-23 5 11 34 18zm-52-32q-9 13-24 39 0 5 1 11l-13-9-8-12q8-3 13-13 6-13 9-16h22zm-37-8q-6 13-11 27-8 17-19 17-8 0-29-21 15-3 15-34v-4l22 3q12 12 22 12zm-60-22v28q-10 5-15 15h-29q8-19 8-43h36zm-44-15v28q-10 5-15 15l-21-6v-51q10 14 36 14zm-52-15v51h-36v-58h21q4 7 15 7zm-45-17l-5 62-10-9-1-58zm-67 68q-17-30-52-91-10-15-20-29-13-19-13-32 0-8 5-17-2 1 24 1 13 0 13-16 10 0 20.5 6.5T119 347l3-6q-9 36-9 72 0 43 14 105zM83 311l-18 24-18-3q6-12 25-32zm-37 5H33l-8-41 19 6zm37-34l-25-10-7-66q21 24 32 76z"/><glyph glyph-name="q" unicode="q" horiz-adv-x="712" d="M644 489q-81-26-175-36-56 53-131 53-71 0-139-87-77-28-162-35 0 19-12 46-16 38-18 45-6 22-6 69 0 61 21 132 24 80 59 118 46 48 114 61 4 5 10 5t11-5q0-19 36-15-16-23-52-50-44-32-56-45l15-13q10-2 20-2 11 0 23 2-45-33-85-97-43-69-43-119 0-7 1-18h6q25 0 71 13 35 10 70 21 171 48 280 48 54 0 98-11 31-38 44-80zm-50 90q-45 11-100 11-108 0-261-44-36-11-71-22-46-13-71-13h-6q73 144 274 144 147 0 235-76zm99-532q0-86-63-86-37 0-76 27-13 9-62 52-32-9-97-27-16 24-84 79l-8-6q8-27 29-45 37-29 40-33-38-8-68-8-68 0-99 17-74 39-124 140-47 95-47 184 0 6 1 33 89 7 162 34 0-101 25-166 36-93 121-93 6 0 11 3-1 5-6 24-4 15-4 25 0 96 56 96 22 0 41-12 2-2 33-27 9 28 9 72 0 67-9 113 95 10 173 35 10-36 10-90 0-142-45-238 81-43 81-103zm-72 442l-12 38q-11 26-26 26l1-64h37zm-53-7v85q-18-7-23.5-26.5T533 502v-20h35zm-36 85q-11-8-35-22v-78h21q0 3 14 100zM205 824l-35 5 13-22 9 9 13 8zm277-357v93h-28q-3-9-14-22v-24q0-14-4-24 3-3 19-13 13-7 14-16 4 3 13 6zM151 787v20l-3 1q-3-15-18-15v-21q6 7 21 15zm273-284v57h-30l-26-1q0-14-8-34 17 1 22-15 15 0 42-7zM109 762l-8 29-20-32 24-12zm236-237l-1 30-43-10q1-5 8.5-10t7.5-10h28zm-40-12q-4 11-17 25l-25-11v-21q12 9 42 7zm285-292q-7 4-15.5 16.5T561 254l-17-48q9-3 26-13 7 6 13.5 13t6.5 15zM252 489l-4 33-48-17-3-68 25 16q6 11 12 22.5t18 13.5zm-94 222l-58 1-11 33q-8-9-24-38-26-48-34-77t-8-81q0-64 15-115l19-3v69q0 62 32 114 35 49 69 97zm32-209q-10 0-44-7 7-68 6-78l27 9q-2 9-2 22 0 4 13 54zm-54-14q-5-3-10-3-4 0-10.5 2t-9.5 2q0-7 3.5-19.5T113 450q0-6-12-40l35 6q-5 12-5 27v17q0 13 5 28zm-36-57l-5 56q-27 1-27-17 0-6 2-18.5t2-19.5q0-19-7-37l21 9q4 10 14 27z"/><glyph glyph-name="r" unicode="r" horiz-adv-x="615" d="M441 597q-26 2-54 2-157 0-352-28 9 45 64 66 41 17 95 17 120 0 247-57zm156-181q0-47-8-97-13-27-25-54-21-42-32-42-16 0-18 109h-6q-16 1-22-12 0 7 3 24t3 26q0 45-6 74-16-28-31-56-18-33-37-53-23-20-67-64 48-5 100.5-69.5T504 88q0-50-21.5-70T411-2q-17 0-26 2-24 6-109 103-54 64-107 128-2-52-4-103-2-69-14-96Q136-1 96-1 31-1 12 48 0 76 0 154q0 63 7 135 34-16 48-16 24 0 48 20.5t24 43.5q0 6-4 12-39-59-58-59-20 0-36 16t-16 36q0 24 6 64 8 48 10 63 62-4 119-4 48 0 90 3-40-14-40-45 0-17 22-27 17-9 37-9 27 0 49 16.5t22 42.5q0 24-31 28 129 18 173 59 43-57 43-125 0-10-4.5-27.5T504 354q0-5 3-8 4 2 20 28 13 23 32 23 7 0 14-3 4 14 4 27 0 45-48 100t-93 55h-13q24-11 41-35-71-66-314-66-57 0-120 5-1-8-1 42 0 21 4 39 190 26 374 26 32 0 59-1 72-32 107-102 24-46 24-68zM419 531q-2 12-5 26t-14 19l-4-57h1q7 6 22 12zm163-160l-17 9-5-36 18 12zM384 575h-22q-4-9-4-21 0-3 4-46l18 4zm197-231l-13-11-15-37 22 23zm-36 33l-11-21-5-45 12 8zM353 508l-13 68q0-39-8-75zm-29 68q-16 0-30 1v-84h21q0 28 9 83zm232-293l-26 7 9-39 8 21zM278 493l-2 83h-21q0-10-1.5-30t-1.5-30v-25zm-38 15v60h-37v-82h21v3q0 16 16 19zm-49 65l-25-3-1-85 18 4zm-42-9h-31l2-78h29v78zm-46-78v73H82v-73h21zm-38 7v60H44v-68q9 8 21 8zm54-57q-5 2-9 11-33-16-33-27 0-6 5-11 6-1 12-1 18 0 25 28z"/><glyph glyph-name="s" unicode="s" horiz-adv-x="606" d="M513 400q-6-3-11-3-6 0-10 3l1 5q0 10-7.5 18T471 439q4 10 11 10t17-10q0-8 13-13zm-64 11q0-6-5-12-10 3-21 6.5T412 418q-12 7-12 19l3 4.5 9 4.5q5 0 10-5 4-18 22-21 5-4 5-9zm-49 244q-78-27-156-53-90-33-150-68 50 61 134 93 75 29 161 29 5 0 11-1zm100-48Q296 501 111 459q-2 19-7 33-18-21-18-81 0-87 36-99 12-10 12-23 0 1-24.5-22T85 221q0-3 1-9.5t1-9.5q0-7-7-7-19 0-41.5 24T8 264.5 0 315q0 123 63 184 74 72 366 150 46-9 71-42zm82-401q0-70-49-126.5T415 6q-32-8-121-8-62 0-85 8-37 13-58 50-19 33-19 74 0 59 34 59 26 0 72-22.5t72-22.5q31 0 56 9 35 12 35 35 0 37-45 60-65 32-131 64-72 43-102 100-9 17-10 31 191 51 397 151 21-26 21-69 0-63-79-63-24 0-64.5 18.5T330 499q-15 0-29-10t-14-24q0-45 76-66 119-33 142-46 77-45 77-147zM477 606q-12 22-52 29l-13-5h2q11 0 28.5-13t28.5-13zm-27-13l-47 34 6-27q1-1 6-9t10-8 25 10zm-49-5q0 7-3.5 18.5T394 624l-29-13q12-24 8-40h20q8 16 8 17zm-38-25l-12 41-28-6q6-6 15-6l-5-43q10 14 30 14zm-41-21v35q-11 2-14 15h-20q-4-19-4-30 0-12 4-27h20q4 9 14 7zm-50-21v56h-20q-7-22-7-32 0-11 7-24h20zm-39 38l-17 4q0-7-3.5-21.5T209 519v-20q10 9 20 8 0 35 4 52zm276-302l-5 27q-16-43-32-43-14 0-25 14-14 19-19 22-1-50 37-50 29 0 44 30zM201 496l-6 60q-4-4-16-3l3-63h4q6 0 15 6zm-29-11l-8 59h-3l-7-5q-2-4-2-10 0-4 1-12.5t1-12.5q0-11-3-19h21zm-28 49q-16-2-20-12t-9-21q7-8 21-23 0 6 8 56zm-32-243q-38 37-38 98 0 37 11 96-22-12-41-58-8-20-17-40-9-24-9-42 0-56 75-54h19zm-19-17l-21 9 10-23zm-53-14v30l-19 12 2-28zm25-3l-18-16-4-12 21-7z"/><glyph glyph-name="t" unicode="t" horiz-adv-x="644" d="M541 413q0-25-12-45h-6q-10 20-10 45 0 23 10 42h6q12-19 12-42zm88 150q0-5-1-12-70 6-171 6-173 0-303-16l4 20q-48-52-48-103 0-27 19.5-48.5T149 375q0-14-19.5-17.5T110 344t5.5-28 5.5-28q0-20-31-20-24 0-57 53T0 400q0 119 120 211 62 47 220 47h133q80 0 120-10 23-6 29-19 5-8 5-36 0-5 1-15t1-15zm-2-26q-10-38-67-38-8 0-25 1t-25 1q-15 0-26-7-7-5-7-293 0-62-3-96 4-10 13-10 55 0 55 44 0 26-3 43 20-37 60-45-19-5-59-34-34-24-65-22-9-44-19-58-16-23-55-23-69 0-93 87-42 5-91 31l-34-2 32 26q12 13 15 38l5-39q22-38 75-39 1 49 1 106 0 259-13 268-10 5-24 5t-42-3-42-3q-40 0-40 44 0 1 3 7 130 17 303 17 101 0 171-6zM257 402q0-26-8-48h-6q-9 20-9 47 0 26 9 47h6q8-20 8-46zm353 165l-1 58-19 5-4-63h24zm-30 68l-5-2q-6 0-16 6-1-14-2-27-2-16-18-17v-21l36-6zm-39 4l-25 2q-3-17-14-38v-29h29q0 20 8 23zm-38 5l-45-2v-68l37-6q3 25 8 76zm-61-69v65q-5 0-35 7 1 11 1-48v-12q0-14-7-20zm-44 14l-6 57h-37q6-7 8-23 1-11 1-30-1-28-1-26l21 3q4 17 14 19zm-51-22v65l-36 15q0-9-4-26.5t-4-26.5l1-27h43zm-52 80l-30-6q4-10 4-21 0-32-17-40l2-13 38 1q-6 13-6 29 0 21 9 50zm-44-50v35h-21q-3-9-15-15 0-18-7-23v-34h28q1 4 8 18t7 19zm-42 29q-3 5-9 5-8 0-21-8-20-13-21-13l14-49q3 2 10 4l10-6q-2 12-7 34 6 4 12 17.5t12 15.5zm-60-52q0 6-6 15t-6 14Q15 517 15 427q0-15 1-29 4-1 8-1 5 0 14 1t13 1q7 0 25-14.5t43-14.5q12 0 12 8 0 9-17.5 35.5T96 455q0 39 26.5 79zm-46-228l-4 20q-12-9-23-30zm-52-12v31l-15 13-4-18zm49-46v33H80l10-31z"/><glyph glyph-name="u" unicode="u" horiz-adv-x="726" d="M685 579q-47 31-48 32-22 11-55 14 13 24 53 24 30 0 40-22 6-12 10-48zm6-81q-106 39-245 39-138 0-312-33v5q0 47 11 68 95 42 218 42 145 0 210-5 55-4 113-46 2-24 5-70zm-219-70l-21-15-3 64q3 1 11 1h4q5 0 9 2v-52zm-67-14q-16 0-19.5 13T375 444v36h26zM277 626q-60-8-128-37 36 65 80 65 30 0 48-28zm424-339q0-131-46-188-38-47-115-74Q471 0 403 0 232 0 174 118q-38 78-38 269-19 3-38 7t-34 15q-26 20-45 70-19 47-19 82t16.5 82.5T84 757q59 76 98 76 16 0 16-18 0-12-25.5-56T147 691q0-20 6.5-27t26.5-4q-7-24-52-53-41-26-41-61 0-43 45-118 1 9 2 68 48 9 168 21-11-6-11-32 0-89 10-168 16-126 51-145 26-15 94-15 73 0 98 92 14 51 14 151 0 67-6 121 58-5 139-35 10-115 10-199zm-197 29q-1-33-15-56-17-29-47-29-32 0-56 17-28 20-28 50 0 9 4 18 6-4 31-38 20-26 37-26 24 0 44 23 2 2 30 41zm170 202l-1 42-1-1q-4 0-8.5 6t-7.5 6l-10-45zm-28 57l-24 10q-8-18-13-48 7-2 21-4 2 13 16 42zm-40 18l-27 8 1-5q0-36-10-42l5-17q5 1 15 0l4 2zm-43 6h-34l-3-50q19 0 27-8zm-51 0h-26l2-50h22zm-39-27l-14 28-27 3v-17q0-16-4-21 9-5 8-16h29q1 14 8 23zm-59-22l-2 50q-13 1-36 8l4-61zM157 799l-25-19 10-24 12 15zm211-240q0 7-4 20.5t-4 20.5h-29l1-58q36 7 36 17zm-53-26v59q-11 2-34 4l4-57zM119 758q-3-6-16-18-8-7-8-25 0-12 13-22zm151-164q-11-9-37-9v-52l34 4zm-132 93l-15-3v-24h6zm79-106l-26-3 5-52h21v55zM82 684v21q-10-4-29-16v-21q10 6 29 16zm98-111l-21-11-7-48q2 7 11 9t17 3v47zm-45-174q-64 90-64 156 0 26 17 46t43 21q-1 14-12 23-29 12-54 12-47 0-47-104 0-34 20-78t45-62q20-13 52-14z"/><glyph glyph-name="v" unicode="v" horiz-adv-x="743" d="M717 562v-19q-53 40-128 66 25 33 56 33 74 0 72-80zm-1-30v-25q0-22-5-45-28 20-118.5 50.5T471 543q-46 0-140.5-34.5T194 445q-11 37-13 93 55 30 146 57 97 28 152 28 52 0 124-28t113-63zm-202-44q0-15-19-33-23 16-23 40v11q6 10 15 10h11q16-14 16-28zm-77 0q0-9-5-23-7-5-22-10-15 15-15 35 0 13 7 23 6 4 14 4 5 0 9-1 12-14 12-28zm272-42q-17-85-104-253Q506 2 448 2q-48 0-143 189-72 144-106 245 70 49 168 72 40-155 90-236l97 240q57-16 82-26 51-19 73-40zM338 608q-75-12-157-57-2 18-1 35-68-96-68-187 0-55 55-116-29-4-51-19-2-14-2-28 0-11 9-30.5t9-30.5q0-25-18-25-4 0-11 5-54 44-73 70-30 41-30 96 0 145 176 301 40 36 78 36 36 0 50-12zm362-89q-5 10-20 24l-12-43 22-11zm-33 32l-29 19-3-56 18-7q5 15 14 44zm-44 27q-6 0-39 12 3-3 3-10 0-16-10-44 16-3 44-15zm-55-43v58l-36 9 1-54q12-3 35-13zm-48 19l-3 38q-10 6-15 15h-20l-3-51zm-47 54l-51-6 1-52 36 4q6 10 9 26 5 27 5 28zm-65-58v43h-21q-8-13-8-18 0-7 5-19t6-18zm-30-15q-7 12-14 50h-30l25-49q3-1 7-3 2 0 3.5 3t2.5 4q4-2 6-5zm-30-2q-8 5-16 23.5T314 580q2-5 6-30 2-21 11-26zm-43-20q-3 21-6 62-12-2-19-5l4-57h21zm-35 52l-52-24q15-19 16-50 15 8 35 8zm-44-82q0 3-5 7t-5 8.5-19 36.5q-2-7-2-11t3-8.5 4-31.5q0-15 9-16 15 8 15 15zm321-261q-4 15-19 20-3-66-62-66-23 0-42 23l-32 40-2-17q23-35 29-42 18-19 45-19 57 0 83 61zm-402 66q-49 62-49 112 0 26 27 135-39-18-74-88-33-66-33-112 0-14 5-26 26-18 124-21zm-44-61l-2 35-18 12-2-33zm-35 52l-29 13q0-6-8-21 5-9 20-24 5 11 17 32zm35-102q-11 45-35 51l-14-15q19-5 29-25z"/><glyph glyph-name="w" unicode="w" horiz-adv-x="954" d="M942 576q0-10-1-21-39 19-157 42 13 33 26 46 18 18 48 18 84 0 84-85zm-334 26q-56 5-94 5-20 0-44-2 29 50 74 50 22 0 40.5-15.5T608 602zm331-63q-2-26-11-80-141 60-275 60-105 0-247-17-175-21-233-53l-4 12q-44-1-75 22-10 7-46.5 62T6 614q-7 21-7 38 0 95 44 143 16 14 47 44 12 14 24 29 18 19 30 19 19 0 19-32 0-16-16.5-22T130 816q0-5 2.5-14.5T135 787q0-17-17-15l-3-5q3-7 12-7 8 0 23 3.5t23 3.5q10 0 15-8-4-9-17-18-20-12-21-14-9-7-25.5-43.5T108 636q0-98 48-146-6 21-7 44 201 62 352 62 155 0 224-6 136-11 214-51zm-629 45q-80-13-162-38v6q-1 108 81 108 42 0 59-17 14-15 22-59zm614-139Q849-20 721-20q-44 0-72 54l-36 92q24 11 51 35 31 30 31 51 0 11-8 11-9 0-41-28-35-32-43-36-39 102-61 164l-54-160q-21 6-52 38.5T404 234q-9 0-9-21 0-29 29-52 24-18 57-26Q434 0 357 0q-34 0-61 33-32 40-71 191-24 105-48 211 70 30 154 38 5-48 9-96 7-57 24-91 8 3 15 2v1q0 30 21 101 18 66 35 100 156 15 183 15 16 0 37-1 13-15 33-110 19-86 31-86 30 0 43 189 74-14 162-52zM690 211q0-15-31-45t-48-35q-21-7-55-7-46 0-95 23-61 27-61 67 0 7 4 13 52-56 75.5-67t93.5-11q36 0 72.5 35t38.5 35q6 0 6-8zm226 309q0-1-6 13-3-6-20-23v-20h21v9q0 9 4 13zm-26 7l-4 17-32 4v-50l15-6q3 28 21 35zm-52 28q-10 4-32 8l-3-1v-50l34-9zm-43 14h-36q3-7 3-15 0-9-6-23 15 0 25-9 4 8 14 47zm-59-35v35h-8q-3 0-27 8v-43h35zm-51 0v43h-43l3-44q30 3 40 1zm-59 7v36q-25-5-27-5-6 0-13 3 8-27 5-41 8 3 35 7zm-50 8q-8 8-8 28h-50v-28q5-1 14-4.5t15-3.5q5 0 14.5 4t14.5 4zm-66-15l-14 43q-31-2-44 0v-21q8-9 8-29 22 7 50 7zm106-128q0 12-6 32-7 25-8 31-6-7-11-9-7-14-7-33 0-20 7-46 2-1 6 0 5 1 7 1 6 0 7-5 5 16 5 29zM444 520q-8 33-8 57h-35v-28q17-5 14-29h29zm-44-8q-23 13-22 57l-39-6 3-14q16-6 15-37h43zM115 799l-13 31-23-41q12 3 36 10zm368-353q0 23-13 29-14-25-14-60 0-18 4-35 23 10 23 52v14zm-142 52v35q-15 2-14 22h-36v-28q17-4 15-29h35zM100 743q-15 9-37 31-3-10-9-31h46zm191-245l-22 49-24-7q10-28 10-42h36zm-50-7q-14 18-14 30 0 7 5 11h-36q8-16 19-50zm-104 4q-44 52-44 139 0 20 14 46 11 21 23 43-42-2-82-2-10 0-19 2-1-10-4.5-31T21 659q0-13 3-27 6-26 43-84 41-62 61-62 8 0 9 9zm58-20l-12 54h-18l9-39q10-4 21-15z"/><glyph glyph-name="x" unicode="x" horiz-adv-x="653" d="M599 580v-7q-41 0-166-12 4 4 30 55 19 37 51 37 85 0 85-73zm-1-16q-3-30-34-77-86-14-196-14-124 0-234 21-9 15-8 59-10-3-20-26.5T96 491q0-41 30-85 34-48 37-66l-3-3q-14 8-24 8-27 0-27-28 0-12 4.5-34t4.5-33q0-9-10-15.5T88 228q-57 0-77 62-13 37-13 109 0 68 24 110.5t79 90.5q62 54 102 54 34 0 54-16 12-9 29.5-37t32.5-41q-103 26-149 26-22 0-53-3v8Q16 501 16 417q0-20 49-37 63-23 67-26l2 6q-1 4-9 15-15 19-29.5 56.5T81 491q0 15 12.5 42t23.5 36v4q27 3 49 3 39 0 106-15.5t96-15.5q11 0 29 3 114 16 193 16h8zm42-483q0-68-74-68-33 0-50 7t-41 32q-37 47-116 139L287 87q-53-77-73.5-88.5T175-13q-34 0-54.5 26T100 75q0 40 18 70 4 7 40 49 16 19 97 124-7 31-52 85-57 67-66 82 112-21 234-21 104 0 187 14 0-1-55-71-45-57-45-64 0-8 48-59 60-67 87-103 47-63 47-100zm-64 472h-21l-1-56zm-37-58v51l-32-4q5-15 11-47h21zm-36-7q-9 5-10 23-1 13-1 27l-26-7v-43h37zm-45 0l-5 48q-4 0-11.5-3.5T429 529l-7 2v-43h36zm-48 39q-7-1-10.5-17.5T387 495l19-7q2 13 4 39zm-26 4h-24l3-37q10-3 15-4zm-35-9q0 13-16 13-8 0-22-4v-43h36q-2 4-2 9 0 4 2 12.5t2 12.5zm82-132v19q0 13-6 18l-18 8q-7-14-7-31 0-15 7-27 12-3 18-16 6 11 6 29zM303 531q-22 0-44 15l-8-51q16 0 37-7l-1 4q0 7 16 39zm-62 23q-11 3-33 6l7-50q11-1 16-16zm-50-44v58h-21v-21q8-3 9-19t12-18zm125-118q0 21-27 43-6-15-6-31 0-15 6-27 12-7 21-16 6 23 6 31zM168 508q-9 0-14 60h-21q8-22 15-66 4 3 8 3 3 0 9-4zm267-213q0 9-5 16-22-39-28-47-19-21-48-21-23 0-36 27-16 34-24 39v-10q-1-73 66-73 25 0 50 22t25 47zm-334-5l-15 56h-7v-58zm-73 57v29q-21-7-21-15 0-4 4-11t4-11q4 4 13 8zm37-52l-6.5 26L44 339v-29l8 1zm30-31q-28 0-43 7-10-1-11-12 21 0 46-16 4 7 8 21z"/><glyph glyph-name="y" unicode="y" horiz-adv-x="598" d="M587 599h-47q-16 0-46.5-3t-45.5-3q-10 0-18 1 7 5 34 38 17 21 49 21 59 0 74-54zm-320-12q-14 2-31 2h-22q-17 0-49.5-3t-48.5-3q-10 0-17 2v10q-1 56 60 56 38 0 61-21t47-43zm324-20q0-23-14-44-115-12-168-12-4 0-12.5 1t-12.5 1q-50 0-138-2-99-2-138-2-44 45-44 75 0 53 25 95 30 50 78 50 10 0 20-2-19 31-84 31-39 0-60-47-10-22-22-81-4-21-4-29 0-29 29-66.5t57-38.5q16 6 183 6 14 0 26-1 8-20 31-56 14 22 34 58h8q5 0 13-1t12-1q52 0 162 11-14-22-75-93-49-58-63-99-18-51-20-156-1-79-5-99-13-65-57-65-72 0-96 135-13 96-26 193-6 21-51 83t-63 70q-11 5-27 5-30 0-59 44-27 41-27 72 0 54 18 101 24 63 73 113 58 59 117 59 51 0 51-17 0-11-40.5-43.5T181 766q0-21 26.5-25t26.5-11q0-9-44-16-51-9-54-10-20-9-39-43.5T78 602q0-11 4-27 5-21 13-21 7 0 5 19 9-2 19-2 15 0 45 3.5t45 3.5 45.5-2 45.5-2q45 0 134 7.5t133 7.5q12 0 22-1 2-10 2-21zm-19 9l-21-3v-36q5 4 8 4 1 0 4-1.5t4-1.5zm-30-39v36h-35v-36h35zm-50 0v36h-21v-36h21zM220 848l-1 4-24 4q-1-4-7-15.5t-6-19.5q0-5 4-8 1 10 17.5 17.5T220 848zm232-278q-13-2-39-12v-35h20q5 10 15 15zM151 806l-13 28v-12q1-8-4.5-15.5T122 792h21q1 13 8 14zm247-248h-36v-28l18-1q18 0 18 21v8zM169 781h-21q-5-9-15-20h28q1 11 8 20zm177-243v20l-7 1q-14 0-41-4l6-32q4 0 13 2t14 1q8 12 15 12zm81-120q0 14-6 34-2-3-23-10-5-10-5-24 0-13 5-33h21q8 17 8 33zM289 523q-2 11-4 23.5T271 559h-10v-36h28zm-44 0v35q-26 1-42 8-8-16-8-22 0-7 8-21h42zm-58 8v27h-35v-43q13 4 35 16zm103-108q0 18-9 34-5 1-10 1t-10-1q-8-9-8-26v-15q0-19 28-31 9 19 9 38zm-154 93v42h-21v-42h21zm245-290q0 13-5 27-13-50-36-50-14 0-26 18-15 24-20 28v-12q-1-49 45-55 42 18 42 44z"/><glyph glyph-name="z" unicode="z" horiz-adv-x="645" d="M632 451q0-29-26-119-28-96-45-103-11-3-20.5-6.5t-16-14.5-8.5-11q-22 0-22 33 0 20 18.5 51t18.5 46q0 9-6 18-10 6-21 6-17 0-38-10-3 5-3 11t3 10q11 10 27.5 53.5T510 475q0 13-11 74-38-92-134-213-132-169-153-201l1-3q94 9 193 9 101 0 101-68 0-32-42.5-52.5T115 0Q81 0 63 6q-22 7-42 27.5T1 76q0 70 57 143 66 70 131 140 104 111 104 135 0 5-7 5-27 0-81.5-9t-81.5-9q-36 0-63 15-31 18-38 51 34-11 84-11 131 0 399 24 21-37 21-75 0-22-13-57t-13-39q0-10 10-10 13 0 53.5 12t46.5 20q8 12 8 38 0 56-46 108.5T470 607h-5q25-18 36-36-327-22-397-22-51 0-85 11-1 5-1 10 0 87 113 87 40 0 119-6t119-6q7 0 22 1t23 1q26 0 41-9 26-15 34-17t26-6q28-6 66-49.5t46-75.5q5-18 5-39zm-412-9q0-13-15-31.5T177 386q-4 10-4 19t4 15q1 38 24 38 19 0 19-16zm-74-15q0-14-11.5-29T123 378q-22 7-22 30 0 44 38 44 7-11 7-25zm300 195q-18 0-24 5v-55h20zm-41-50v59h-36v-59h36zm195-195l-18 1-24-21 26-3zM354 572v59h-29v-59h29zm-45 0v59h-21v-59h21zm239-195l-21-5v-13l18-18zm29-80l-6 18-24-4 4-24zM272 588v43h-36v-59h21q5 10 15 16zm-51 8v35l-32 7q0-21-12-31v-35h36q0 20 8 24zm319-328l-21-9-4-37h7zM170 638l-29 4q0-26-7-75l27 5q0 42 9 66zm-46-42l-1 42H92v-23q0-15-11-22v-34q0 12 13 14 1 0 23-1-1 20 7 24zm-45 14v21q-10-10-35-23v-36h21l1 7q0 3-1 8.5t-1 8.5q0 13 15 14zm136-380v12q-23-33-47-33-15 0-37 31-4-9-4-17 0-16 12.5-25.5T168 188q18 0 32.5 12t14.5 30z"/><glyph glyph-name="bar" unicode="|" horiz-adv-x="201" d="M179 392v-73q-1-49-1-73 0-104-10-150Q147 3 80 3q-26 0-40 8Q14 26 6 144q-3 44-3 153v79q1 52 1 78 0 92 11 138 21 86 83 86 57 0 70-67 11-56 11-219zm-26-239v49q0 383-9 410-5 14-17 28-15 15-29 15-26 0-44-28-15-22-18-51-7-54-7-265 0-20-1-60.5T27 190Q27 33 78 33q73 0 75 120z"/><glyph glyph-name="asciitilde" unicode="~" horiz-adv-x="508" d="M487 325q-15-36-50-106-13-20-56-37-39-17-67-17-21 0-59 18-29 15-59 29-21 8-34 8-26 0-36-16t-19-33q-6-8-17-8-8 0-47.5 43T3 258q0 29 40 83t69 64q36 13 64 13 24 0 73-36.5t77-36.5q17 0 26 16 5 15 11 30 7 19 21 19t103-85zm-22-4q-45 42-78 72-7-14-22-45-10-20-37-20-37 0-85.5 34T164 396q-35 0-66.5-23T48 317q-20-38-20-54 0-10 26-38.5T93 187q12 28 24.5 38.5T155 236q28 0 81.5-25.5T321 185q61 0 95 42 19 22 49 94z"/><glyph glyph-name="exclamdown" unicode="¡" d="M740 299q0-183-91-330-106-169-278-169T93-31Q2 116 2 299q0 133 47 247 53 130 152 197 84 57 170 57 92 0 171-57 98-73 151-198 47-114 47-246zM511 611q0 95-18 117h-8q-13-16-28-65-17-55-29-74-20-35-54-35-30 0-66 74l-50 100h-7q-9-13-9-40 0 15 7-110 2-50 14-75 16-35 57-49 21-8 28-8h29q78 0 109 45 25 38 25 120zm8-473q0 45-68 154-70 113-110 113-44 0-76-108-27-89-26-147l1-18q4-7 11-7 1 0 22.5 19.5T316 175q32 18 62 18 28 0 70.5-35t58.5-35q12 0 12 15zm64-219v28h-41v19h24v26h-25l-1 13h43v26h-83V-81h83zM491 4q0 28-52 28-9 0-21-1h-15V-80h39v12q1 7 1 11 0 8-2 14l1 2q40-1 46 15 3 9 3 30zM390 7v27h-48V5q-7-7-11-9-4 1-12 9 1 17 0 29h-50V7l5-2 6 1q36-32 36-45 0-9-2-15l-4-3-1-23h44v24l-6 2q-1 21-1 17 0 11 36 43zM260 21v40H143V21h31l2 9 6-2v-77h-7v-31h54v31l-8 4v71l7 4 1-9h31zm122 263q-1-8-13.5-17.5T348 257q-20 0-20 54 0 31 12 31 19 0 42-58zM459 1l-2-15h-16V3z"/><glyph glyph-name="cent" unicode="¢" d="M740 299q0-183-91-330-106-169-278-169T93-31Q2 116 2 299q0 132 47 247 53 130 152 197 85 57 170 57 94 0 171-57 99-74 151-198 47-114 47-246zm-24 0q0 127-45 235-50 119-144 189-70 52-156 52-78 0-156-52-94-64-144-188-44-110-44-236 0-172 84-312 99-163 260-163T631-13q85 140 85 312zM496 588q0-77-24-111-28-43-102-43h-27q-3 0-25 7-63 21-67 117-1 11-4 51-3 31-3 51 0 25 9 37h6q1 0 47-93 34-69 62-69 31 0 50 33 11 17 27 68 14 46 27 61h7q17-20 17-109zm16-459q0-14-10-14-15 0-55 33t-66 33q-40 0-81-32t-37-32q-7 0-11 7v11q-2 55 23 140 31 104 72 104 37 0 103-106 62-102 62-144zm60-204h-77V29h77V5h-40l1-11h23v-25h-22v-18h38v-26zM487 4q0-43-29-42h-17l-1-1q1-3 1-35h-36V29h59q6 0 14.5-9.5T487 4zm-94 3l-8-1q-34-30-34-39 0 3 1-17l5-1v-23h-40v22l5 2q1 6 1 15 0 12-33 41-10-2-10 1v25h46l1-11-1-16q4-3 11-8 4 2 11 8v27h45V7zM271 21h-28l-2 7-7-3v-67l8-3v-29h-50v29h7v72l-6 1-2-7h-29v37h109V21zm114 245q-21 53-39 53-12 0-12-29 0-50 19-50 8 0 20 9t12 17zM457 1l-17 2v-15h15z"/><glyph glyph-name="sterling" unicode="£" horiz-adv-x="729" d="M623 742q-7-12-23-7-10 0-13.5-11.5T584 700l7-107h-76q2 33 2 74t-2 68l-35 9 6 49q20 7 44 7 12 0 93-9v-49zm43-196L560 356l-83 2 44 80q-29 60-72 97 21 23 64 23 17 0 30-5l27-42q15 30 21 35 10 10 37 10 19 0 38-10zm-25-312q0-29-18-49.5T577 164q-3 0-8.5 1t-8.5 1q-20 0-22-18v-34h-63q-7 0-11 5 4 41 4 100 0 56-4 97 13 2 50 2 4 0 30-2t30-2q67 0 67-80zM376 512q0-50-50.5-94T225 374q-3 0-9-2.5t-9-2.5h-44q-51 0-95 30-47 33-55 81-4 21-8 65l-6 200q-1 2 8 23 18 0 47-63l52-118q33-63 62-63h27q41 0 75 63 17 33 45 118 21 64 31 64 12 0 22-35 8-29 8-46V512zM613-79v-44l-125 3q0 72-9 194h124V19l-40 5-10-23h50v-37q-13 1-38-4-9-5-11-18l6-6h43q10-5 10-15zm-194-27q0-20-19-20-18 0-50 26-50 41-63 50-42 26-83 26-32 0-74-25-28-17-64-47-30-25-31-25-17 0-17 30 0 6 8 88 6 61 46 159 48 118 90 118 58 0 137-124 53-82 93-177 27-63 27-79zm157 348q0 3-12.5 10.5T550 261q-9-13-9-25 0-3 1.5-9.5T544 216q7 0 19.5 9t12.5 17zM224 100q0 16-23.5 50T162 184q-16 0-16-43 0-66 28-79 10 2 30 16t20 22z"/><glyph glyph-name="currency" unicode="¤" horiz-adv-x="780" d="M739-139H0v939h739v-939zm-33 33v873H33v-873h673zm-46 752q0-61-55-61h-52v126h58q23 0 36-20.5t13-44.5zm-132 44h-68v-29h64v-23l-65 1v-33h69v-23h-95v128h95v-21zM411 583h-94v127h94v-20h-69v-29h62v-23h-62v-32h69v-23zm184-94h-36V385h-26v105h-38v21h100v-22zM479 385h-26v126h26V385zM295 671q0-29-25-36-10-3-48-3v-49q-18 2-24 0v128h62q15 0 25-12.5t10-27.5zm133-286h-25v95l-24-95h-23l-26 98v-98h-26v126h40l23-84 22 84h39V385zM175 621q0-41-51-41-18 0-35 12.5T73 622v3q8 0 24 2-1-10 9.5-17t19.5-7q25 0 25 17 0 10-37 20.5T77 677q0 37 48 37 41 0 48-40h-5q-9 1-19-2-5 6-10 12.5t-15 6.5q-22 0-22-13 0-6 29-17 33-11 41-21 3-13 3-19zm107-236h-27v126h27V385zm-45 0h-87v126h24V408h63v-23zM666-52h-48l-36 95H448l-36-95h-41l120 317h46zM333 46q0-46-35-75.5T216-59q-1 0-38 1-43 2-69 37-25 32-25 76v210h42V52q0-74 89-74 29 0 52.5 19T291 44v221h42V46zm300 601q0 42-24 42h-31v-82q10-1 16-1 39 0 39 41zm-365 24q0 18-16 18h-30v-35h27q19 0 19 17zM568 79l-56 150-50-150h106z"/><glyph glyph-name="yen" unicode="¥" horiz-adv-x="1136" d="M1125-145H0v622l166 263 68-163q25 42 83 121l139-183 115 285 175-338 16 80q13 62 25 68l42-160 172 267 124-333v-529zm-15 15v501L994 685q-68-113-163-265h-12q-11 25-20 65-14 62-15 68l-26-128h-11L576 765q-37-93-110-278h-12q-67 89-135 186-27-41-81-121h-12q-21 47-65 155L15 467v-597h1095zm-48 50q0-25-21-25-16 0-55 30-59 47-75 57-48 31-87 31-49 0-99-30-30-18-70-54-33-29-39-29t-16 11v67q0 18 16 91 64 291 153 291 64 0 156-143 60-95 106-203 31-73 31-94zM552 273q0-112-6-149-8-51-68-96T366-17h-40Q181-17 136 83q-10 22-20 136-9 99-9 146 0 83 20 83 16 0 48-75 47-109 64-138 43-75 85-75 64 0 105 75 21 38 50 138 21 75 38 75 35 0 35-175zm283-112q0 19-25.5 56.5T766 255q-19 0-19-46 0-96 33-96 13 0 34 17.5t21 30.5z"/><glyph glyph-name="brokenbar" unicode="¦" horiz-adv-x="1141" d="M1125-145H0v622l166 263 68-163q25 42 83 121l139-183 115 285 175-338q10 51 41 148l42-160 172 267 124-333v-529zm-103 756l-24 72-51-74q12-13 37-36 13 12 38 38zm-380 22l-71 135-51-140q48-40 51-40 10 0 71 45zm423-714q0 20-31 93-47 110-108 206-93 145-159 145T644 184Q597 35 597-56q0-18 8-41h24q-1 0 27 28 33 33 64 53 44 29 81 29 61 0 112-30 19-12 71-56 35-29 58-29t23 21zM347 634q-13 17-29 43-10-17-31-51l29-31q11 12 31 39zm-162 17q-9 18-24 56-39-54-39-61 0-10 24-26 12 12 39 31zm368-439l-1 55q0 183-33 183-16 0-40-74-35-105-50-137-37-74-83-74h-20q-44 0-80 61-23 49-47 98-19 44-65 126h-11q-16-23-16-85 0-104 16-234 4-35 20-63 28-48 90-71 20-7 23-7l138-2q2 2 7 3 87 30 121 81 31 47 31 140zm282-48q0-10-20-29.5T786 115q-39 0-39 90 0 53 19 53 16 0 42.5-38.5T835 164z"/><glyph glyph-name="paragraph" unicode="¶" d="M740 299q0-183-91-330-106-169-278-169T93-31Q2 116 2 299q0 133 47 247 53 130 152 197 84 57 170 57 92 0 171-57 98-73 151-198 47-114 47-246zM511 611q0 95-18 117h-8q-13-16-28-65-17-55-29-74-20-35-54-35-30 0-66 74l-50 100h-7q-9-13-9-40 0 15 7-110 2-50 14-75 16-35 57-49 21-8 28-8h29q78 0 109 45 25 38 25 120zm8-473q0 45-68 154-70 113-110 113-44 0-76-108-27-89-26-147l1-18q4-7 11-7 1 0 22.5 19.5T316 175q32 18 62 18 28 0 70.5-35t58.5-35q12 0 12 15zm64-219v28h-41v19h24v26h-25l-1 13h43v26h-83V-81h83zM491 4q0 28-52 28-9 0-21-1h-15V-80h39v12q1 7 1 11 0 8-2 14l1 2q40-1 46 15 3 9 3 30zM390 7v27h-48V5q-7-7-11-9-4 1-12 9 1 17 0 29h-50V7l5-2 6 1q36-32 36-45 0-9-2-15l-4-3-1-23h44v24l-6 2q-1 21-1 17 0 11 36 43zM260 21v40H143V21h31l2 9 6-2v-77h-7v-31h54v31l-8 4v71l7 4 1-9h31zm122 263q-1-8-13.5-17.5T348 257q-20 0-20 54 0 31 12 31 19 0 42-58zM459 1l-2-15h-16V3z"/><glyph glyph-name="middot" unicode="·" d="M740 299q0-183-91-330-106-169-278-169T93-31Q2 116 2 299q0 132 47 247 53 130 152 197 85 57 170 57 94 0 171-57 99-74 151-198 47-114 47-246zm-24 0q0 127-45 235-50 119-144 189-70 52-156 52-78 0-156-52-94-64-144-188-44-110-44-236 0-172 84-312 99-163 260-163T631-13q85 140 85 312zM496 588q0-77-24-111-28-43-102-43h-27q-3 0-25 7-63 21-67 117-1 11-4 51-3 31-3 51 0 25 9 37h6q1 0 47-93 34-69 62-69 31 0 50 33 11 17 27 68 14 46 27 61h7q17-20 17-109zm16-459q0-14-10-14-15 0-55 33t-66 33q-40 0-81-32t-37-32q-7 0-11 7v11q-2 55 23 140 31 104 72 104 37 0 103-106 62-102 62-144zm60-204h-77V29h77V5h-40l1-11h23v-25h-22v-18h38v-26zM487 4q0-43-29-42h-17l-1-1q1-3 1-35h-36V29h59q6 0 14.5-9.5T487 4zm-94 3l-8-1q-34-30-34-39 0 3 1-17l5-1v-23h-40v22l5 2q1 6 1 15 0 12-33 41-10-2-10 1v25h46l1-11-1-16q4-3 11-8 4 2 11 8v27h45V7zM271 21h-28l-2 7-7-3v-67l8-3v-29h-50v29h7v72l-6 1-2-7h-29v37h109V21zm114 245q-21 53-39 53-12 0-12-29 0-50 19-50 8 0 20 9t12 17zM457 1l-17 2v-15h15z"/><glyph glyph-name="middot" unicode="∙" d="M740 299q0-183-91-330-106-169-278-169T93-31Q2 116 2 299q0 132 47 247 53 130 152 197 85 57 170 57 94 0 171-57 99-74 151-198 47-114 47-246zm-24 0q0 127-45 235-50 119-144 189-70 52-156 52-78 0-156-52-94-64-144-188-44-110-44-236 0-172 84-312 99-163 260-163T631-13q85 140 85 312zM496 588q0-77-24-111-28-43-102-43h-27q-3 0-25 7-63 21-67 117-1 11-4 51-3 31-3 51 0 25 9 37h6q1 0 47-93 34-69 62-69 31 0 50 33 11 17 27 68 14 46 27 61h7q17-20 17-109zm16-459q0-14-10-14-15 0-55 33t-66 33q-40 0-81-32t-37-32q-7 0-11 7v11q-2 55 23 140 31 104 72 104 37 0 103-106 62-102 62-144zm60-204h-77V29h77V5h-40l1-11h23v-25h-22v-18h38v-26zM487 4q0-43-29-42h-17l-1-1q1-3 1-35h-36V29h59q6 0 14.5-9.5T487 4zm-94 3l-8-1q-34-30-34-39 0 3 1-17l5-1v-23h-40v22l5 2q1 6 1 15 0 12-33 41-10-2-10 1v25h46l1-11-1-16q4-3 11-8 4 2 11 8v27h45V7zM271 21h-28l-2 7-7-3v-67l8-3v-29h-50v29h7v72l-6 1-2-7h-29v37h109V21zm114 245q-21 53-39 53-12 0-12-29 0-50 19-50 8 0 20 9t12 17zM457 1l-17 2v-15h15z"/><glyph glyph-name="cedilla" unicode="¸" horiz-adv-x="729" d="M623 742q-7-12-23-7-10 0-13.5-11.5T584 700l7-107h-76q2 33 2 74t-2 68l-35 9 6 49q20 7 44 7 12 0 93-9v-49zm43-196L560 356l-83 2 44 80q-29 60-72 97 21 23 64 23 17 0 30-5l27-42q15 30 21 35 10 10 37 10 19 0 38-10zm-25-312q0-29-18-49.5T577 164q-3 0-8.5 1t-8.5 1q-20 0-22-18v-34h-63q-7 0-11 5 4 41 4 100 0 56-4 97 13 2 50 2 4 0 30-2t30-2q67 0 67-80zM376 512q0-50-50.5-94T225 374q-3 0-9-2.5t-9-2.5h-44q-51 0-95 30-47 33-55 81-4 21-8 65l-6 200q-1 2 8 23 18 0 47-63l52-118q33-63 62-63h27q41 0 75 63 17 33 45 118 21 64 31 64 12 0 22-35 8-29 8-46V512zM613-79v-44l-125 3q0 72-9 194h124V19l-40 5-10-23h50v-37q-13 1-38-4-9-5-11-18l6-6h43q10-5 10-15zm-194-27q0-20-19-20-18 0-50 26-50 41-63 50-42 26-83 26-32 0-74-25-28-17-64-47-30-25-31-25-17 0-17 30 0 6 8 88 6 61 46 159 48 118 90 118 58 0 137-124 53-82 93-177 27-63 27-79zm157 348q0 3-12.5 10.5T550 261q-9-13-9-25 0-3 1.5-9.5T544 216q7 0 19.5 9t12.5 17zM224 100q0 16-23.5 50T162 184q-16 0-16-43 0-66 28-79 10 2 30 16t20 22z"/><glyph glyph-name="onesuperior" unicode="¹" horiz-adv-x="780" d="M739-139H0v939h739v-939zm-33 33v873H33v-873h673zm-46 752q0-61-55-61h-52v126h58q23 0 36-20.5t13-44.5zm-132 44h-68v-29h64v-23l-65 1v-33h69v-23h-95v128h95v-21zM411 583h-94v127h94v-20h-69v-29h62v-23h-62v-32h69v-23zm184-94h-36V385h-26v105h-38v21h100v-22zM479 385h-26v126h26V385zM295 671q0-29-25-36-10-3-48-3v-49q-18 2-24 0v128h62q15 0 25-12.5t10-27.5zm133-286h-25v95l-24-95h-23l-26 98v-98h-26v126h40l23-84 22 84h39V385zM175 621q0-41-51-41-18 0-35 12.5T73 622v3q8 0 24 2-1-10 9.5-17t19.5-7q25 0 25 17 0 10-37 20.5T77 677q0 37 48 37 41 0 48-40h-5q-9 1-19-2-5 6-10 12.5t-15 6.5q-22 0-22-13 0-6 29-17 33-11 41-21 3-13 3-19zm107-236h-27v126h27V385zm-45 0h-87v126h24V408h63v-23zM666-52h-48l-36 95H448l-36-95h-41l120 317h46zM333 46q0-46-35-75.5T216-59q-1 0-38 1-43 2-69 37-25 32-25 76v210h42V52q0-74 89-74 29 0 52.5 19T291 44v221h42V46zm300 601q0 42-24 42h-31v-82q10-1 16-1 39 0 39 41zm-365 24q0 18-16 18h-30v-35h27q19 0 19 17zM568 79l-56 150-50-150h106z"/><glyph glyph-name="ordmasculine" unicode="º" horiz-adv-x="1136" d="M1125-145H0v622l166 263 68-163q25 42 83 121l139-183 115 285 175-338 16 80q13 62 25 68l42-160 172 267 124-333v-529zm-15 15v501L994 685q-68-113-163-265h-12q-11 25-20 65-14 62-15 68l-26-128h-11L576 765q-37-93-110-278h-12q-67 89-135 186-27-41-81-121h-12q-21 47-65 155L15 467v-597h1095zm-48 50q0-25-21-25-16 0-55 30-59 47-75 57-48 31-87 31-49 0-99-30-30-18-70-54-33-29-39-29t-16 11v67q0 18 16 91 64 291 153 291 64 0 156-143 60-95 106-203 31-73 31-94zM552 273q0-112-6-149-8-51-68-96T366-17h-40Q181-17 136 83q-10 22-20 136-9 99-9 146 0 83 20 83 16 0 48-75 47-109 64-138 43-75 85-75 64 0 105 75 21 38 50 138 21 75 38 75 35 0 35-175zm283-112q0 19-25.5 56.5T766 255q-19 0-19-46 0-96 33-96 13 0 34 17.5t21 30.5z"/><glyph glyph-name="guillemotright" unicode="»" horiz-adv-x="1141" d="M1125-145H0v622l166 263 68-163q25 42 83 121l139-183 115 285 175-338q10 51 41 148l42-160 172 267 124-333v-529zm-103 756l-24 72-51-74q12-13 37-36 13 12 38 38zm-380 22l-71 135-51-140q48-40 51-40 10 0 71 45zm423-714q0 20-31 93-47 110-108 206-93 145-159 145T644 184Q597 35 597-56q0-18 8-41h24q-1 0 27 28 33 33 64 53 44 29 81 29 61 0 112-30 19-12 71-56 35-29 58-29t23 21zM347 634q-13 17-29 43-10-17-31-51l29-31q11 12 31 39zm-162 17q-9 18-24 56-39-54-39-61 0-10 24-26 12 12 39 31zm368-439l-1 55q0 183-33 183-16 0-40-74-35-105-50-137-37-74-83-74h-20q-44 0-80 61-23 49-47 98-19 44-65 126h-11q-16-23-16-85 0-104 16-234 4-35 20-63 28-48 90-71 20-7 23-7l138-2q2 2 7 3 87 30 121 81 31 47 31 140zm282-48q0-10-20-29.5T786 115q-39 0-39 90 0 53 19 53 16 0 42.5-38.5T835 164z"/></font>
</defs>
</svg>
